<?xml version="1.0" standalone="no"?><!DOCTYPE svg PUBLIC "-//W3C//DTD SVG 1.1//EN" "http://www.w3.org/Graphics/SVG/1.1/DTD/svg11.dtd" ><svg xmlns="http://www.w3.org/2000/svg"><metadata></metadata><defs><font id="保时捷粗圆(微信公众号：字由心雨) 常规:Version 1.00" horiz-adv-x="1000"><font-face font-family="保时捷粗圆(微信公众号：字由心雨)" font-weight="400" font-stretch="normal" units-per-em="1000" panose-1="3 0 5 9 0 0 0 0 0 0" ascent="970" descent="-256" x-height="0" bbox="-27 -194 1020 888" underline-thickness="58" underline-position="-208" unicode-range="U+0021-ff1f" /><missing-glyph horiz-adv-x="1000"  /><glyph glyph-name="exclam" unicode="!" d="M177 273 l-112 0 l0 412 l112 0 l0 -412 ZM177 -15 l-112 0 l0 119 l112 0 l0 -119 Z" /><glyph glyph-name="quotedbl" unicode="&quot;" d="M296 495 l-94 0 l0 189 l94 0 l0 -189 ZM158 495 l-93 0 l0 189 l93 0 l0 -189 Z" /><glyph glyph-name="numbersign" unicode="#" d="M824 414 l-130 0 l-42 -161 l116 0 l0 -117 l-148 0 l-40 -151 l-105 0 l39 151 l-243 0 l-40 -151 l-107 0 l40 151 l-99 0 l0 117 l130 0 l42 161 l-116 0 l0 119 l148 0 l40 152 l107 0 l-40 -152 l244 0 l39 152 l106 0 l-40 -152 l99 0 l0 -119 ZM587 414 l-243 0 l-42 -161 l243 0 l42 161 Z" /><glyph glyph-name="percent" unicode="%" d="M708 93 l0 151 q0 5 10 5 l-155 0 q11 0 11 -5 l0 -151 q0 -3 -11 -3 l155 0 q-10 0 -10 3 ZM284 453 l0 151 q0 4 11 4 l-155 0 q9 0 9 -4 l0 -151 q0 -4 -9 -4 l155 0 q-11 0 -11 4 ZM501 350 q15 10 36 10 l206 0 q35 0 52.5 -26.5 q17.5 -26.5 17.5 -56.5 l0 -216 q0 -30 -18 -55.5 q-18 -25.5 -52 -25.5 l-206 0 q-34 0 -51 25.5 q-17 25.5 -17 55.5 l0 216 q0 27 14 52 l-302 -349 l-145 0 l321 371 q-15 -11 -37 -11 l-207 0 q-32 0 -50 25.5 q-18 25.5 -18 55.5 l0 218 q0 28 17.5 54.5 q17.5 26.5 50.5 26.5 l207 0 q34 0 51.5 -26.5 q17.5 -26.5 17.5 -54.5 l0 -218 q0 -26 -13 -48 l300 347 l146 0 l-321 -370 Z" /><glyph glyph-name="ampersand" unicode="&amp;" d="M824 273 l-113 0 l0 -288 l-548 0 q-44 0 -71 39 q-27 39 -27 94 l0 123 q0 29 8.5 49.5 q8.5 20.5 37.5 44.5 q-29 23 -37.5 43 q-8.5 20 -8.5 51 l0 120 q0 56 27 96 q27 40 71 40 l324 0 l0 -120 l-288 0 q-7 0 -14.5 -12 q-7.5 -12 -7.5 -30 l0 -89 q0 -18 7.5 -29 q7.5 -11 14.5 -11 l625 0 l0 -121 ZM600 104 l0 169 l-401 0 q-7 0 -14.5 -11 q-7.5 -11 -7.5 -28 l0 -89 q0 -19 7.5 -30 q7.5 -11 14.5 -11 l401 0 Z" /><glyph glyph-name="quotesingle" unicode="&#39;" d="M159 383 l-94 0 l0 189 l94 0 l0 -189 Z" /><glyph glyph-name="parenleft" unicode="(" d="M267 764 l-81 0 q-6 0 -13.5 -11 q-7.5 -11 -7.5 -30 l0 -691 q0 -17 7.5 -28 q7.5 -11 13.5 -11 l81 0 l0 -115 l-105 0 q-42 0 -69.5 40 q-27.5 40 -27.5 94 l0 733 q0 54 27.5 94.5 q27.5 40.5 69.5 40.5 l105 0 l0 -116 Z" /><glyph glyph-name="parenright" unicode=")" d="M267 12 q0 -56 -26.5 -95 q-26.5 -39 -70.5 -39 l-105 0 l0 115 l81 0 q6 0 13.5 11 q7.5 11 7.5 28 l0 691 q0 19 -7.5 30 q-7.5 11 -13.5 11 l-81 0 l0 116 l105 0 q44 0 70.5 -40.5 q26.5 -40.5 26.5 -96.5 l0 -731 Z" /><glyph glyph-name="asterisk" unicode="*" d="M363 264 l-86 -26 l55 -73 l-65 -47 l-53 75 l-53 -75 l-63 47 l54 73 l-87 26 l24 76 l87 -30 l-1 92 l79 0 l0 -92 l85 30 l24 -76 Z" /><glyph glyph-name="plus" unicode="+" d="M520 221 l-172 0 l0 -101 l-111 0 l0 101 l-172 0 l0 95 l172 0 l0 102 l111 0 l0 -102 l172 0 l0 -95 Z" /><glyph glyph-name="comma" unicode="," d="M236 180 l-73 -189 l-98 0 l73 189 l98 0 Z" /><glyph glyph-name="hyphen" unicode="-" d="M313 231 l-248 0 l0 95 l248 0 l0 -95 Z" /><glyph glyph-name="period" unicode="." d="M178 1 l-113 0 l0 95 l113 0 l0 -95 Z" /><glyph glyph-name="slash" unicode="/" d="M429 684 l-261 -690 l-103 0 l261 690 l103 0 Z" /><glyph glyph-name="zero" unicode="0" d="M674 119 q0 -55 -27.5 -94.5 q-27.5 -39.5 -69.5 -39.5 l-414 0 q-44 0 -71 39.5 q-27 39.5 -27 94.5 l0 432 q0 54 27 94 q27 40 71 40 l414 0 q42 0 69.5 -40 q27.5 -40 27.5 -94 l0 -432 ZM561 146 l0 379 q0 17 -7.5 29 q-7.5 12 -12.5 12 l-342 0 q-6 0 -13.5 -12 q-7.5 -12 -7.5 -29 l0 -379 q0 -18 7.5 -29 q7.5 -11 13.5 -11 l342 0 q5 0 12.5 11 q7.5 11 7.5 29 Z" /><glyph glyph-name="one" unicode="1" d="M315 -13 l-111 0 l0 539 q0 18 -8 29.5 q-8 11.5 -14 11.5 l-117 0 l0 120 l153 0 q43 0 70 -39.5 q27 -39.5 27 -94.5 l0 -566 Z" /><glyph glyph-name="two" unicode="2" d="M673 -12 l-608 0 l0 276 q0 54 27 94.5 q27 40.5 71 40.5 l376 0 q6 0 13.5 11 q7.5 11 7.5 29 l0 89 q0 17 -7.5 29.5 q-7.5 12.5 -13.5 12.5 l-474 0 l0 118 l510 0 q44 0 71 -39.5 q27 -39.5 27 -94.5 l0 -142 q0 -53 -27 -93.5 q-27 -40.5 -71 -40.5 l-376 0 q-6 0 -13.5 -11 q-7.5 -11 -7.5 -30 l0 -128 l495 0 l0 -121 Z" /><glyph glyph-name="three" unicode="3" d="M671 113 q0 -54 -26.5 -94 q-26.5 -40 -70.5 -40 l-509 0 l0 121 l473 0 q6 0 13.5 11 q7.5 11 7.5 29 l0 88 q0 19 -7.5 30.5 q-7.5 11.5 -13.5 11.5 l-459 0 l0 120 l459 0 q6 0 13.5 11.5 q7.5 11.5 7.5 28.5 l0 89 q0 17 -7.5 29.5 q-7.5 12.5 -13.5 12.5 l-473 0 l0 118 l509 0 q44 0 70.5 -39 q26.5 -39 26.5 -94 l0 -143 q0 -37 -27 -72 q27 -39 27 -76 l0 -142 Z" /><glyph glyph-name="four" unicode="4" d="M672 -13 l-112 0 l0 290 l-398 0 q-43 0 -70 38.5 q-27 38.5 -27 90.5 l0 281 l111 0 l0 -250 q0 -19 8 -30 q8 -11 14 -11 l362 0 l0 291 l112 0 l0 -700 Z" /><glyph glyph-name="five" unicode="5" d="M673 119 q0 -55 -27 -94.5 q-27 -39.5 -71 -39.5 l-510 0 l0 121 l474 0 q6 0 13.5 11 q7.5 11 7.5 29 l0 88 q0 18 -7.5 29 q-7.5 11 -13.5 11 l-474 0 l0 411 l593 0 l0 -119 l-480 0 l0 -171 l397 0 q44 0 71 -40 q27 -40 27 -94 l0 -142 Z" /><glyph glyph-name="six" unicode="6" d="M674 120 q0 -55 -27.5 -94 q-27.5 -39 -71.5 -39 l-413 0 q-43 0 -70 39 q-27 39 -27 94 l0 433 q0 55 27 94.5 q27 39.5 70 39.5 l496 0 l0 -120 l-460 0 q-5 0 -12.5 -12 q-7.5 -12 -7.5 -29 l0 -130 l397 0 q44 0 71.5 -40 q27.5 -40 27.5 -93 l0 -143 ZM561 147 l0 89 q0 19 -8 30 q-8 11 -14 11 l-361 0 l0 -130 q0 -17 7.5 -28.5 q7.5 -11.5 12.5 -11.5 l341 0 q6 0 14 11 q8 11 8 29 Z" /><glyph glyph-name="seven" unicode="7" d="M673 563 l-353 -576 l-133 0 l357 580 l-479 0 l0 120 l608 0 l0 -124 Z" /><glyph glyph-name="eight" unicode="8" d="M673 120 q0 -55 -27 -95 q-27 -40 -71 -40 l-412 0 q-44 0 -71 40 q-27 40 -27 95 l0 143 q0 34 27 74 q-27 35 -27 72 l0 142 q0 56 27 95 q27 39 71 39 l412 0 q44 0 71 -39 q27 -39 27 -95 l0 -142 q0 -37 -27 -72 q27 -40 27 -74 l0 -143 ZM560 436 l0 89 q0 17 -7.5 29 q-7.5 12 -13.5 12 l-340 0 q-6 0 -13.5 -12 q-7.5 -12 -7.5 -29 l0 -89 q0 -19 7.5 -30 q7.5 -11 13.5 -11 l340 0 q6 0 13.5 11 q7.5 11 7.5 30 ZM560 146 l0 88 q0 18 -7.5 29 q-7.5 11 -13.5 11 l-340 0 q-6 0 -13.5 -11 q-7.5 -11 -7.5 -29 l0 -88 q0 -18 7.5 -29 q7.5 -11 13.5 -11 l340 0 q6 0 13.5 11 q7.5 11 7.5 29 Z" /><glyph glyph-name="nine" unicode="9" d="M672 120 q0 -55 -27 -94 q-27 -39 -70 -39 l-510 0 l0 120 l474 0 q5 0 12.5 11.5 q7.5 11.5 7.5 28.5 l0 130 l-397 0 q-44 0 -70.5 40 q-26.5 40 -26.5 94 l0 142 q0 55 26.5 94.5 q26.5 39.5 70.5 39.5 l413 0 q43 0 70 -39.5 q27 -39.5 27 -94.5 l0 -433 ZM559 396 l0 130 q0 17 -7.5 29 q-7.5 12 -12.5 12 l-341 0 q-6 0 -13.5 -12 q-7.5 -12 -7.5 -29 l0 -89 q0 -19 7.5 -30 q7.5 -11 13.5 -11 l361 0 Z" /><glyph glyph-name="colon" unicode=":" d="M200 452 l-135 0 l0 113 l135 0 l0 -113 ZM200 97 l-135 0 l0 114 l135 0 l0 -114 Z" /><glyph glyph-name="semicolon" unicode=";" d="M236 441 l-98 0 l0 95 l98 0 l0 -95 ZM236 190 l-74 -189 l-97 0 l73 189 l98 0 Z" /><glyph glyph-name="less" unicode="&lt;" d="M567 48 l-502 191 l502 190 l0 -94 l-257 -96 l257 -97 l0 -94 Z" /><glyph glyph-name="equal" unicode="=" d="M520 299 l-455 0 l0 94 l455 0 l0 -94 ZM520 144 l-455 0 l0 94 l455 0 l0 -94 Z" /><glyph glyph-name="greater" unicode="&gt;" d="M566 259 l-501 -191 l0 94 l257 97 l-257 96 l0 94 l501 -190 Z" /><glyph glyph-name="question" unicode="?" d="M581 407 q0 -52 -27 -93 q-27 -41 -70 -41 l-100 0 q-6 0 -13.5 -11 q-7.5 -11 -7.5 -28 l0 -8 l-112 0 l0 34 q0 53 27 93.5 q27 40.5 69 40.5 l101 0 q5 0 12.5 11 q7.5 11 7.5 29 l0 89 q0 18 -7.5 30 q-7.5 12 -12.5 12 l-383 0 l0 120 l419 0 q43 0 70 -40 q27 -40 27 -96 l0 -142 ZM363 -15 l-112 0 l0 119 l112 0 l0 -119 Z" /><glyph glyph-name="at" unicode="@" d="M798 118 q0 -55 -27 -94 q-27 -39 -71 -39 l-353 0 q-43 0 -69.5 39 q-26.5 39 -26.5 94 l0 142 q0 53 26.5 93.5 q26.5 40.5 69.5 40.5 l250 0 l0 -302 l67 0 q5 0 13 12 q8 12 8 31 l0 388 q0 19 -8 30.5 q-8 11.5 -13 11.5 l-466 0 q-6 0 -13.5 -12 q-7.5 -12 -7.5 -30 l0 -538 l-112 0 l0 564 q0 56 26.5 96 q26.5 40 69.5 40 l539 0 q44 0 71 -40 q27 -40 27 -96 l0 -431 ZM492 92 l0 192 l-115 0 q-7 0 -14.5 -11 q-7.5 -11 -7.5 -29 l0 -109 q0 -19 7.5 -31 q7.5 -12 14.5 -12 l115 0 Z" /><glyph glyph-name="A" unicode="A" d="M65 527 q0 84 48 131 q48 47 132 47 l143 0 q84 0 132 -47 q48 -47 48 -131 l0 -464 q0 -78 -58 -78 q-57 0 -57 78 l0 146 q0 36 -12 48 q-12 12 -47 12 l-155 0 q-35 0 -47 -12 q-12 -12 -12 -48 l0 -146 q0 -78 -58 -78 q-57 0 -57 78 l0 464 ZM453 526 q0 70 -69 70 l-135 0 q-69 0 -69 -70 l0 -89 q0 -36 12 -48 q12 -12 47 -12 l155 0 q35 0 47 12.5 q12 12.5 12 47.5 l0 89 Z" /><glyph glyph-name="B" unicode="B" d="M65 627 q0 34 21 56 q21 22 56 22 l242 0 q84 0 133.5 -44 q49.5 -44 49.5 -124 l0 -58 q0 -69 -50 -110 q-7 -8 -7 -9 q0 -2 7 -8 q27 -21 39 -45 q12 -24 12 -70 l0 -69 q0 -82 -48 -130 q-48 -48 -131 -48 l-247 0 q-77 0 -77 78 l0 559 ZM405 410 q47 0 47 59 l0 64 q0 63 -68 63 l-146 0 q-34 0 -46.5 -12.5 q-12.5 -12.5 -12.5 -47.5 l0 -66 q0 -35 12.5 -47.5 q12.5 -12.5 46.5 -12.5 l167 0 ZM179 158 q0 -35 12 -47.5 q12 -12.5 47 -12.5 l146 0 q69 0 69 69 l0 70 q0 64 -69 64 l-146 0 q-35 0 -47 -12.5 q-12 -12.5 -12 -47.5 l0 -83 Z" /><glyph glyph-name="C" unicode="C" d="M506 98 q32 0 32 -29 q0 -34 -36.5 -56.5 q-36.5 -22.5 -86.5 -22.5 l-170 0 q-84 0 -132 46 q-48 46 -48 131 l0 360 q0 84 48 131 q48 47 132 47 l170 0 q49 0 86 -23 q37 -23 37 -56 q0 -30 -32 -30 l-257 0 q-69 0 -69 -70 l0 -358 q0 -70 69 -70 l257 0 Z" /><glyph glyph-name="D" unicode="D" d="M136 546 q0 60 -18 60 l-29 0 q-24 0 -24 29 q0 33 23 51.5 q23 18.5 58 18.5 l309 0 q87 0 134.5 -45 q47.5 -45 47.5 -128 l0 -365 q0 -84 -48.5 -130.5 q-48.5 -46.5 -133.5 -46.5 l-242 0 q-77 0 -77 78 l0 478 ZM250 158 q0 -34 11.5 -47 q11.5 -13 47.5 -13 l143 0 q69 0 69 70 l0 363 q0 70 -69 70 l-143 0 q-34 0 -46.5 -12.5 q-12.5 -12.5 -12.5 -47.5 l0 -383 Z" /><glyph glyph-name="E" unicode="E" d="M238 596 q-36 0 -47.5 -13 q-11.5 -13 -11.5 -47 l0 -63 q0 -35 11.5 -47.5 q11.5 -12.5 47.5 -12.5 l177 0 q32 0 32 -28 q0 -34 -29.5 -57 q-29.5 -23 -71.5 -23 l-108 0 q-36 0 -47.5 -13 q-11.5 -13 -11.5 -47 l0 -86 q0 -34 11.5 -47 q11.5 -13 47.5 -13 l232 0 q32 0 32 -29 q0 -34 -36.5 -57 q-36.5 -23 -86.5 -23 l-241 0 q-73 0 -73 78 l0 559 q0 78 73 78 l331 0 q31 0 31 -30 q0 -33 -36 -56 q-36 -23 -86 -23 l-140 0 Z" /><glyph glyph-name="F" unicode="F" d="M238 596 q-35 0 -47 -13 q-12 -13 -12 -47 l0 -81 q0 -35 12 -47.5 q12 -12.5 47 -12.5 l177 0 q32 0 32 -29 q0 -33 -29.5 -56.5 q-29.5 -23.5 -71.5 -23.5 l-108 0 q-35 0 -47 -13 q-12 -13 -12 -47 l0 -163 q0 -78 -57 -78 q-57 0 -57 78 l0 564 q0 78 73 78 l332 0 q32 0 32 -30 q0 -33 -36.5 -56 q-36.5 -23 -86.5 -23 l-141 0 Z" /><glyph glyph-name="G" unicode="G" d="M519 705 q32 0 32 -30 q0 -33 -36.5 -56 q-36.5 -23 -86.5 -23 l-179 0 q-69 0 -69 -70 l0 -358 q0 -70 69 -70 l147 0 q69 0 69 70 l0 58 q0 36 -13 48 q-13 12 -46 12 l-74 0 q-32 0 -32 28 q0 33 29 56.5 q29 23.5 72 23.5 l105 0 q73 0 73 -78 l0 -149 q0 -84 -47 -130.5 q-47 -46.5 -132 -46.5 l-155 0 q-84 0 -132 46 q-48 46 -48 131 l0 360 q0 84 48 131 q48 47 132 47 l274 0 Z" /><glyph glyph-name="H" unicode="H" d="M238 305 q-35 0 -47 -13 q-12 -13 -12 -47 l0 -182 q0 -78 -57 -78 q-57 0 -57 78 l0 537 q0 45 22 75 q22 30 48 30 q44 0 44 -67 l0 -164 q0 -35 12 -47.5 q12 -12.5 47 -12.5 l155 0 q35 0 47 12.5 q12 12.5 12 47.5 l0 164 q0 67 44 67 q26 0 48 -30.5 q22 -30.5 22 -74.5 l0 -537 q0 -78 -57 -78 q-57 0 -57 78 l0 182 q0 34 -12 47 q-12 13 -47 13 l-155 0 Z" /><glyph glyph-name="I" unicode="I" d="M258 149 q0 -60 18 -60 l40 0 q24 0 24 -29 q0 -70 -81 -70 l-167 0 q-27 0 -27 29 q0 47 57 65 q13 5 18.5 16 q5.5 11 5.5 49 l0 397 q0 60 -18 60 l-39 0 q-24 0 -24 29 q0 70 81 70 l167 0 q27 0 27 -29 q0 -47 -57 -65 q-13 -5 -19 -15.5 q-6 -10.5 -6 -49.5 l0 -397 Z" /><glyph glyph-name="J" unicode="J" d="M235 546 q0 60 -18 60 l-54 0 q-24 0 -24 29 q0 70 81 70 l84 0 q44 0 44 -67 l0 -592 q0 -113 -72 -162.5 q-72 -49.5 -155 -49.5 q-56 0 -56 40 q0 15 11 23 q11 8 61 31 q46 21 72 46.5 q26 25.5 26 81.5 l0 490 Z" /><glyph glyph-name="K" unicode="K" d="M65 600 q0 45 22 75 q22 30 48 30 q44 0 44 -67 l0 -179 q0 -29 13 -29 q16 0 32 16 l225 233 q25 27 57 27 q19 0 34 -13.5 q15 -13.5 15 -36.5 q0 -25 -34 -59 l-184 -192 q-28 -29 -28 -40 q0 -13 26 -43 l237 -276 q10 -12 10 -24 q0 -37 -49 -37 q-68 0 -126 70 l-185 221 q-15 18 -30 18 q-13 0 -13 -27 l0 -204 q0 -78 -57 -78 q-57 0 -57 78 l0 537 Z" /><glyph glyph-name="L" unicode="L" d="M65 600 q0 45 22 75 q22 30 48 30 q44 0 44 -67 l0 -479 q0 -34 11.5 -47 q11.5 -13 47.5 -13 l221 0 q32 0 32 -29 q0 -34 -36.5 -57 q-36.5 -23 -86.5 -23 l-230 0 q-73 0 -73 78 l0 532 Z" /><glyph glyph-name="M" unicode="M" d="M718 63 q0 -32 -14.5 -55 q-14.5 -23 -42.5 -23 q-57 0 -57 78 l0 374 l-149 -283 q-29 -57 -64 -57 q-36 0 -65 54 l-148 285 l0 -373 q0 -78 -57 -78 q-56 0 -56 78 l0 564 q0 78 56 78 q37 0 64 -53 l183 -346 q17 -30 23 -30 q7 0 23 30 l181 343 q29 56 66 56 q57 0 57 -78 l0 -564 Z" /><glyph glyph-name="N" unicode="N" d="M179 469 l0 -406 q0 -78 -58 -78 q-56 0 -56 78 l0 564 q0 78 57 78 q36 0 57 -35 l295 -465 l0 433 q0 67 44 67 q26 0 48 -30.5 q22 -30.5 22 -74.5 l0 -537 q0 -78 -59 -78 q-28 0 -48 15.5 q-20 15.5 -45 55.5 l-257 413 Z" /><glyph glyph-name="O" unicode="O" d="M245 -15 q-84 0 -132 47 q-48 47 -48 131 l0 369 q0 85 48 131 q48 46 132 46 l170 0 q85 0 133 -47 q48 -47 48 -130 l0 -369 q0 -83 -48.5 -130.5 q-48.5 -47.5 -132.5 -47.5 l-170 0 ZM180 164 q0 -70 69 -70 l162 0 q69 0 69 70 l0 367 q0 70 -69 70 l-162 0 q-69 0 -69 -70 l0 -367 Z" /><glyph glyph-name="P" unicode="P" d="M179 63 q0 -78 -57 -78 q-57 0 -57 78 l0 564 q0 34 21 56 q21 22 56 22 l222 0 q84 0 133.5 -44 q49.5 -44 49.5 -124 l0 -93 q0 -87 -48.5 -132.5 q-48.5 -45.5 -134.5 -45.5 l-126 0 q-35 0 -47 -13 q-12 -13 -12 -47 l0 -143 ZM179 435 q0 -36 12 -48 q12 -12 47 -12 l127 0 q67 0 67 66 l0 94 q0 61 -68 61 l-126 0 q-35 0 -47 -13 q-12 -13 -12 -47 l0 -101 Z" /><glyph glyph-name="Q" unicode="Q" d="M245 -15 q-84 0 -132 47 q-48 47 -48 131 l0 369 q0 85 48 131 q48 46 132 46 l170 0 q85 0 133 -47 q48 -47 48 -130 l0 -369 q0 -70 -35.5 -115 q-35.5 -45 -100.5 -55 q-3 0 -3 2 q0 -3 23 -29 l93 -99 q11 -13 11 -24 q0 -37 -50 -37 q-70 0 -127 69 l-65 79 q-26 31 -80 31 l-17 0 ZM180 164 q0 -70 69 -70 l162 0 q69 0 69 70 l0 367 q0 70 -69 70 l-162 0 q-69 0 -69 -70 l0 -367 Z" /><glyph glyph-name="R" unicode="R" d="M179 63 q0 -78 -57 -78 q-57 0 -57 78 l0 564 q0 34 21 56 q21 22 56 22 l222 0 q84 0 133.5 -44 q49.5 -44 49.5 -124 l0 -73 q0 -114 -107 -158 q-12 -5 -12 -11 q0 -6 8 -19 l156 -233 q9 -14 9 -24 q0 -34 -43 -34 q-68 0 -124 83 l-100 153 q-27 41 -42.5 53 q-15.5 12 -43.5 12 l-10 0 q-35 0 -47 -13 q-12 -13 -12 -47 l0 -163 ZM238 596 q-35 0 -47 -13 q-12 -13 -12 -47 l0 -81 q0 -35 12 -47.5 q12 -12.5 47 -12.5 l124 0 q70 0 70 68 l0 72 q0 61 -68 61 l-126 0 Z" /><glyph glyph-name="S" unicode="S" d="M338 98 q48 0 74.5 27.5 q26.5 27.5 26.5 81.5 q0 48 -22 69.5 q-22 21.5 -76 21.5 l-68 0 q-199 0 -199 202 q0 96 58.5 150.5 q58.5 54.5 154.5 54.5 l221 0 q30 0 30 -30 q0 -32 -43.5 -55.5 q-43.5 -23.5 -94.5 -23.5 l-113 0 q-47 0 -72.5 -24.5 q-25.5 -24.5 -25.5 -70.5 q0 -94 86 -94 l72 0 q207 0 207 -197 q0 -106 -57 -163 q-57 -57 -156 -57 l-244 0 q-32 0 -32 28 q0 33 44 56.5 q44 23.5 95 23.5 l134 0 Z" /><glyph glyph-name="T" unicode="T" d="M276 536 q0 34 -12 47 q-12 13 -47 13 l-121 0 q-31 0 -31 29 q0 34 29 57 q29 23 71 23 l405 0 q30 0 30 -29 q0 -34 -29 -57 q-29 -23 -70 -23 l-52 0 q-35 0 -47.5 -13 q-12.5 -13 -12.5 -47 l0 -473 q0 -78 -56 -78 q-57 0 -57 78 l0 473 Z" /><glyph glyph-name="U" unicode="U" d="M453 638 q0 67 44 67 q27 0 49 -30.5 q22 -30.5 22 -74.5 l0 -437 q0 -84 -48 -131 q-48 -47 -132 -47 l-143 0 q-84 0 -132 47 q-48 47 -48 131 l0 437 q0 44 22 74.5 q22 30.5 48 30.5 q45 0 45 -67 l0 -474 q0 -70 69 -70 l134 0 q70 0 70 70 l0 474 Z" /><glyph glyph-name="V" unicode="V" d="M293 37 l-218 570 q-10 26 -10 47 q0 21 16 36 q16 15 37 15 q42 0 64 -58 l159 -423 q10 -27 16 -27 q5 0 14 27 l160 423 q21 58 62 58 q24 0 38 -15.5 q14 -15.5 14 -35.5 q0 -23 -9 -47 l-219 -570 q-21 -56 -61 -56 q-42 0 -63 56 Z" /><glyph glyph-name="W" unicode="W" d="M232 -15 q-167 0 -167 164 l0 478 q0 35 15.5 56.5 q15.5 21.5 41.5 21.5 q26 0 42 -22.5 q16 -22.5 16 -55.5 l0 -477 q0 -56 54 -56 l105 0 q54 0 54 56 l0 409 q0 34 16 56 q16 22 41 22 q26 0 42 -23 q16 -23 16 -55 l0 -409 q0 -56 54 -56 l103 0 q56 0 56 56 l0 477 q0 33 15.5 55.5 q15.5 22.5 42.5 22.5 q26 0 41.5 -22.5 q15.5 -22.5 15.5 -55.5 l0 -478 q0 -164 -167 -164 l-108 0 q-69 0 -108 42 q-3 4 -5 4 q-1 0 -5 -4 q-39 -42 -108 -42 l-103 0 Z" /><glyph glyph-name="X" unicode="X" d="M322 465 q19 -30 24 -30 q3 0 22 30 l130 207 q21 34 56 34 q48 0 48 -50 q0 -22 -23 -57 l-129 -199 q-20 -29 -20 -44 q0 -24 22 -57 l163 -254 q9 -14 9 -23 q0 -37 -49 -37 q-35 0 -57.5 17 q-22.5 17 -45.5 54 l-109 177 q-17 28 -18 28 q-3 0 -20 -27 l-108 -178 q-22 -36 -44.5 -53.5 q-22.5 -17.5 -56.5 -17.5 q-51 0 -51 37 q0 7 10 23 l163 254 q21 34 21 57 q0 14 -19 44 l-129 199 q-24 36 -24 57 q0 23 15 36.5 q15 13.5 35 13.5 q34 0 58 -38 l127 -203 Z" /><glyph glyph-name="Y" unicode="Y" d="M373 63 q0 -78 -56 -78 q-57 0 -57 78 l0 158 q0 21 -12 45 l-172 341 q-11 23 -11 47 q0 19 14.5 35 q14.5 16 37.5 16 q37 0 64 -56 l116 -239 q14 -29 20 -29 q7 0 21 29 l116 238 q28 57 64 57 q23 0 37 -15.5 q14 -15.5 14 -34.5 q0 -23 -12 -46 l-172 -343 q-12 -23 -12 -47 l0 -156 Z" /><glyph glyph-name="Z" unicode="Z" d="M115 -10 q-21 0 -35.5 14.5 q-14.5 14.5 -14.5 34.5 q0 18 24 56 l291 471 q9 14 9 22 q0 8 -19 8 l-244 0 q-32 0 -32 29 q0 33 35.5 56.5 q35.5 23.5 85.5 23.5 l286 0 q20 0 36 -12.5 q16 -12.5 16 -35.5 q0 -16 -22 -57 l-291 -473 q-11 -18 -11 -23 q0 -6 19 -6 l275 0 q32 0 32 -29 q0 -34 -35 -56.5 q-35 -22.5 -85 -22.5 l-320 0 Z" /><glyph glyph-name="bracketleft" unicode="[" d="M178 606 l0 -632 q0 -35 11.5 -47.5 q11.5 -12.5 47.5 -12.5 l61 0 q31 0 31 -29 q0 -33 -36 -56 q-36 -23 -85 -23 l-70 0 q-73 0 -73 78 l0 812 q0 78 73 78 l160 0 q31 0 31 -30 q0 -60 -100 -76 q-33 -4 -42 -17 q-9 -13 -9 -45 Z" /><glyph glyph-name="backslash" unicode="\" d="M464 21 q13 -27 13 -44 q0 -47 -47 -47 q-36 0 -61 56 l-293 668 q-11 26 -11 44 q0 47 47 47 q33 0 58 -56 l294 -668 Z" /><glyph glyph-name="bracketright" unicode="]" d="M217 -26 l0 632 q0 36 -12.5 48 q-12.5 12 -46.5 12 l-61 0 q-32 0 -32 29 q0 33 36 56 q36 23 86 23 l70 0 q73 0 73 -78 l0 -812 q0 -78 -73 -78 l-160 0 q-32 0 -32 30 q0 60 101 76 q32 5 41.5 17.5 q9.5 12.5 9.5 44.5 Z" /><glyph glyph-name="underscore" unicode="_" d="M504 5 q32 0 32 -29 q0 -26 -29.5 -44.5 q-29.5 -18.5 -71.5 -18.5 l-338 0 q-32 0 -32 29 q0 27 29.5 45 q29.5 18 71.5 18 l338 0 Z" /><glyph glyph-name="a" unicode="a" d="M141 410 q-32 0 -32 28 q0 33 43.5 56.5 q43.5 23.5 95.5 23.5 l118 0 q172 0 172 -167 l0 -202 q0 -164 -170 -164 l-130 0 q-173 0 -173 161 q0 165 173 165 l129 0 q57 0 57 52 q0 47 -58 47 l-225 0 ZM235 203 q-53 0 -53 -55 q0 -54 53 -54 l132 0 q57 0 57 54 q0 55 -57 55 l-132 0 Z" /><glyph glyph-name="b" unicode="b" d="M138 -10 q-73 0 -73 78 l0 580 q0 66 43 66 q25 0 47.5 -30 q22.5 -30 22.5 -75 l0 -51 q0 -25 8 -32.5 q8 -7.5 30 -7.5 l140 0 q165 0 165 -164 l0 -187 q0 -177 -179 -177 l-204 0 ZM409 353 q0 57 -55 57 l-139 0 q-24 0 -30.5 -7 q-6.5 -7 -6.5 -31 l0 -234 q0 -30 7.5 -35 q7.5 -5 28.5 -5 l126 0 q69 0 69 70 l0 185 Z" /><glyph glyph-name="c" unicode="c" d="M177 150 q0 -56 56 -56 l238 0 q32 0 32 -30 q0 -32 -44 -55.5 q-44 -23.5 -95 -23.5 l-133 0 q-166 0 -166 164 l0 205 q0 164 166 164 l133 0 q51 0 95 -23.5 q44 -23.5 44 -56.5 q0 -28 -32 -28 l-238 0 q-56 0 -56 -57 l0 -203 Z" /><glyph glyph-name="d" unicode="d" d="M231 -10 q-166 0 -166 164 l0 186 q0 178 180 178 l126 0 q23 0 30.5 8 q7.5 8 7.5 32 l0 90 q0 66 43 66 q25 0 47.5 -30 q22.5 -30 22.5 -75 l0 -541 q0 -78 -75 -78 l-216 0 ZM177 155 q0 -57 56 -57 l139 0 q24 0 30.5 6.5 q6.5 6.5 6.5 31.5 l0 233 q0 27 -9 34 q-9 7 -32 7 l-121 0 q-70 0 -70 -71 l0 -184 Z" /><glyph glyph-name="e" unicode="e" d="M477 94 q31 0 31 -30 q0 -33 -44 -56 q-44 -23 -95 -23 l-133 0 q-171 0 -171 168 l0 201 q0 164 170 164 l120 0 q172 0 172 -158 l0 -51 q0 -106 -108 -106 l-184 0 q-58 0 -58 -57 q0 -52 59 -52 l241 0 ZM360 311 q53 0 53 49 q0 50 -53 50 l-125 0 q-58 0 -58 -50 q0 -49 58 -49 l125 0 Z" /><glyph glyph-name="f" unicode="f" d="M252 63 q0 -32 -15 -55 q-15 -23 -41 -23 q-57 0 -57 78 l0 332 q0 15 -14 15 q-60 0 -60 54 q0 47 58 57 q11 1 13.5 5.5 q2.5 4.5 2.5 17.5 l0 6 q0 164 167 164 l86 0 q32 0 32 -30 q0 -22 -28.5 -44.5 q-28.5 -22.5 -94.5 -34.5 q-27 -4 -38 -16 q-11 -12 -11 -40 l0 -16 q0 -15 12 -15 l70 0 q32 0 32 -29 q0 -33 -29 -56 q-29 -23 -72 -23 q-13 0 -13 -15 l0 -332 Z" /><glyph glyph-name="g" unicode="g" d="M352 -85 q57 0 57 50 q0 48 -57 48 l-120 0 q-167 0 -167 164 l0 163 q0 178 181 178 l201 0 q75 0 75 -80 l0 -465 q0 -167 -171 -167 l-127 0 q-52 0 -95.5 23.5 q-43.5 23.5 -43.5 56.5 q0 29 31 29 l236 0 ZM177 178 q0 -57 56 -57 l121 0 q55 0 55 57 l0 193 q0 25 -7 32 q-7 7 -30 7 l-125 0 q-70 0 -70 -71 l0 -161 Z" /><glyph glyph-name="h" unicode="h" d="M178 558 q0 -24 7 -32 q7 -8 31 -8 l117 0 q181 0 181 -178 l0 -277 q0 -32 -15 -55 q-15 -23 -41 -23 q-57 0 -57 78 l0 276 q0 71 -69 71 l-114 0 q-25 0 -32.5 -8.5 q-7.5 -8.5 -7.5 -32.5 l0 -306 q0 -32 -15 -55 q-15 -23 -41 -23 q-57 0 -57 78 l0 585 q0 66 43 66 q25 0 47.5 -30 q22.5 -30 22.5 -75 l0 -51 Z" /><glyph glyph-name="i" unicode="i" d="M124 714 q23 0 39.5 -18.5 q16.5 -18.5 16.5 -53.5 q0 -34 -16.5 -52.5 q-16.5 -18.5 -39.5 -18.5 q-55 0 -55 71 q0 72 55 72 ZM178 63 q0 -32 -15 -55 q-15 -23 -41 -23 q-57 0 -57 78 l0 377 q0 35 15.5 56.5 q15.5 21.5 41.5 21.5 q26 0 41 -22.5 q15 -22.5 15 -55.5 l0 -377 Z" /><glyph glyph-name="j" unicode="j" d="M241 714 q23 0 39.5 -18.5 q16.5 -18.5 16.5 -53.5 q0 -34 -16.5 -52.5 q-16.5 -18.5 -39.5 -18.5 q-55 0 -55 71 q0 72 55 72 ZM156 -59 q26 26 26 77 l0 422 q0 35 15.5 56.5 q15.5 21.5 41.5 21.5 q26 0 41 -22.5 q15 -22.5 15 -55.5 l0 -422 q0 -81 -36.5 -125.5 q-36.5 -44.5 -74.5 -65.5 q-38 -21 -69 -21 q-50 0 -50 33 q0 9 12 24 l79 78 Z" /><glyph glyph-name="k" unicode="k" d="M221 180 q-15 13 -28 13 q-15 0 -15 -29 l0 -101 q0 -32 -15 -55 q-15 -23 -41 -23 q-57 0 -57 78 l0 585 q0 66 43 66 q25 0 47.5 -30 q22.5 -30 22.5 -75 l0 -250 q0 -24 15 -24 q15 0 30 12 l165 145 q28 26 56 26 q46 0 46 -48 q0 -26 -36 -55 l-125 -109 q-26 -23 -26 -39 q0 -17 24 -39 l199 -181 q13 -11 13 -24 q0 -36 -51 -36 q-58 0 -124 61 l-143 132 Z" /><glyph glyph-name="l" unicode="l" d="M178 63 q0 -32 -15 -55 q-15 -23 -41 -23 q-57 0 -57 78 l0 585 q0 66 43 66 q25 0 47.5 -30 q22.5 -30 22.5 -75 l0 -546 Z" /><glyph glyph-name="m" unicode="m" d="M664 518 q166 0 166 -164 l0 -291 q0 -32 -14.5 -55 q-14.5 -23 -41.5 -23 q-27 0 -42 23 q-15 23 -15 55 l0 290 q0 57 -55 57 l-102 0 q-56 0 -56 -57 l0 -290 q0 -32 -14.5 -55 q-14.5 -23 -41.5 -23 q-56 0 -56 78 l0 290 q0 57 -56 57 l-102 0 q-56 0 -56 -57 l0 -290 q0 -32 -15 -55 q-15 -23 -41 -23 q-27 0 -42 22.5 q-15 22.5 -15 55.5 l0 291 q0 164 167 164 l432 0 Z" /><glyph glyph-name="n" unicode="n" d="M333 518 q181 0 181 -178 l0 -277 q0 -32 -15 -55 q-15 -23 -41 -23 q-57 0 -57 78 l0 276 q0 71 -69 71 l-115 0 q-28 0 -33.5 -7.5 q-5.5 -7.5 -5.5 -33.5 l0 -306 q0 -32 -15 -55 q-15 -23 -41 -23 q-57 0 -57 78 l0 378 q0 77 74 77 l194 0 Z" /><glyph glyph-name="o" unicode="o" d="M231 -15 q-166 0 -166 164 l0 205 q0 164 166 164 l144 0 q167 0 167 -164 l0 -205 q0 -164 -167 -164 l-144 0 ZM177 150 q0 -56 56 -56 l140 0 q55 0 55 56 l0 203 q0 57 -55 57 l-140 0 q-56 0 -56 -57 l0 -203 Z" /><glyph glyph-name="p" unicode="p" d="M178 -116 q0 -32 -15 -55 q-15 -23 -41 -23 q-57 0 -57 78 l0 556 q0 78 74 78 l217 0 q165 0 165 -164 l0 -187 q0 -177 -179 -177 l-126 0 q-24 0 -31 -8 q-7 -8 -7 -32 l0 -66 ZM409 353 q0 57 -55 57 l-139 0 q-24 0 -30.5 -7 q-6.5 -7 -6.5 -31 l0 -233 q0 -24 7.5 -32.5 q7.5 -8.5 32.5 -8.5 l122 0 q69 0 69 70 l0 185 Z" /><glyph glyph-name="q" unicode="q" d="M447 518 q75 0 75 -78 l0 -556 q0 -32 -15 -55 q-15 -23 -42 -23 q-27 0 -41.5 23 q-14.5 23 -14.5 55 l0 66 q0 22 -7.5 31 q-7.5 9 -30.5 9 l-139 0 q-167 0 -167 164 l0 186 q0 178 181 178 l201 0 ZM177 155 q0 -57 56 -57 l121 0 q55 0 55 57 l0 216 q0 25 -7 32 q-7 7 -30 7 l-125 0 q-70 0 -70 -71 l0 -184 Z" /><glyph glyph-name="r" unicode="r" d="M178 353 l0 -290 q0 -32 -15 -55 q-15 -23 -41 -23 q-57 0 -57 78 l0 291 q0 164 167 164 l86 0 q32 0 32 -29 q0 -24 -29.5 -47 q-29.5 -23 -93.5 -32 q-49 -7 -49 -57 Z" /><glyph glyph-name="s" unicode="s" d="M354 99 q52 0 52 54 q0 52 -52 52 l-110 0 q-173 0 -173 154 q0 76 46.5 117.5 q46.5 41.5 126.5 41.5 l235 0 q31 0 31 -29 q0 -33 -43.5 -56 q-43.5 -23 -95.5 -23 l-131 0 q-54 0 -54 -50 q0 -47 54 -47 l110 0 q172 0 172 -158 q0 -79 -44.5 -122 q-44.5 -43 -127.5 -43 l-253 0 q-32 0 -32 29 q0 33 44 56.5 q44 23.5 96 23.5 l149 0 Z" /><glyph glyph-name="t" unicode="t" d="M139 72 l0 323 q0 15 -14 15 q-60 0 -60 54 q0 47 58 57 q16 1 16 19 l0 52 q0 66 42 66 q25 0 48 -30.5 q23 -30.5 23 -74.5 l0 -20 q0 -15 12 -15 l70 0 q32 0 32 -29 q0 -33 -29 -56 q-29 -23 -72 -23 q-13 0 -13 -15 l0 -252 q0 -31 5 -40 q5 -9 40 -9 l32 0 q31 0 31 -30 q0 -34 -44.5 -56.5 q-44.5 -22.5 -99.5 -22.5 q-77 0 -77 87 Z" /><glyph glyph-name="u" unicode="u" d="M245 -15 q-180 0 -180 178 l0 277 q0 33 15 55.5 q15 22.5 41 22.5 q25 0 41 -22.5 q16 -22.5 16 -55.5 l0 -276 q0 -70 69 -70 l115 0 q26 0 32.5 6.5 q6.5 6.5 6.5 33.5 l0 306 q0 34 15.5 56 q15.5 22 40.5 22 q26 0 41.5 -22.5 q15.5 -22.5 15.5 -55.5 l0 -377 q0 -78 -75 -78 l-194 0 Z" /><glyph glyph-name="v" unicode="v" d="M445 462 q25 56 63 56 q22 0 35.5 -15.5 q13.5 -15.5 13.5 -34.5 q0 -21 -10 -44 l-176 -388 q-24 -55 -59 -55 q-37 0 -61 55 l-175 387 q-11 24 -11 45 q0 19 14 34.5 q14 15.5 37 15.5 q37 0 62 -56 l113 -255 q14 -30 21 -30 q5 0 19 30 l114 255 Z" /><glyph glyph-name="w" unicode="w" d="M561 -15 q-58 0 -103 46 q-5 5 -10 5 q-5 0 -13 -10 q-34 -41 -100 -41 l-103 0 q-167 0 -167 164 l0 291 q0 33 15.5 55.5 q15.5 22.5 41.5 22.5 q26 0 41 -22.5 q15 -22.5 15 -55.5 l0 -290 q0 -56 56 -56 l102 0 q56 0 56 56 l0 290 q0 34 15 56 q15 22 41 22 q26 0 41 -22.5 q15 -22.5 15 -55.5 l0 -290 q0 -56 56 -56 l102 0 q55 0 55 56 l0 290 q0 33 15.5 55.5 q15.5 22.5 41.5 22.5 q26 0 41 -22.5 q15 -22.5 15 -55.5 l0 -291 q0 -164 -166 -164 l-103 0 Z" /><glyph glyph-name="x" unicode="x" d="M526 49 q14 -18 14 -32 q0 -32 -40 -32 q-62 0 -127 85 l-55 72 q-18 23 -25 23 q-9 0 -24 -21 l-89 -119 q-29 -40 -65 -40 q-21 0 -35.5 15 q-14.5 15 -14.5 36 q0 22 24 55 l114 139 q11 14 11 30 q0 15 -10 28 l-100 126 q-23 29 -23 54 q0 20 16 35 q16 15 36 15 q33 0 63 -42 l75 -99 q15 -21 22 -21 q7 0 23 21 l73 99 q31 42 65 42 q19 0 35 -15 q16 -15 16 -35 q0 -26 -22 -54 l-101 -126 q-9 -12 -9 -27 q0 -15 10 -30 l143 -182 Z" /><glyph glyph-name="y" unicode="y" d="M178 178 q0 -57 55 -57 l113 0 q55 0 55 57 l0 262 q0 34 15.5 56 q15.5 22 40.5 22 q26 0 41.5 -22.5 q15.5 -22.5 15.5 -55.5 l0 -467 q0 -167 -171 -167 l-123 0 q-52 0 -95.5 23.5 q-43.5 23.5 -43.5 56.5 q0 29 31 29 l231 0 q57 0 57 51 q0 47 -57 47 l-111 0 q-167 0 -167 164 l0 263 q0 33 15 55.5 q15 22.5 41 22.5 q25 0 41 -22.5 q16 -22.5 16 -55.5 l0 -262 Z" /><glyph glyph-name="z" unicode="z" d="M114 -10 q-22 0 -35.5 15 q-13.5 15 -13.5 35 q0 26 24 55 l228 286 q8 10 8 18 q0 11 -19 11 l-196 0 q-32 0 -32 28 q0 33 43.5 56.5 q43.5 23.5 95.5 23.5 l236 0 q19 0 35 -15 q16 -15 16 -35 q0 -25 -23 -54 l-227 -287 q-10 -14 -10 -21 q0 -8 19 -8 l225 0 q31 0 31 -29 q0 -33 -43 -56 q-43 -23 -96 -23 l-266 0 Z" /><glyph glyph-name="braceleft" unicode="{" d="M354 -194 l-31 0 q-184 0 -184 178 l0 198 q0 40 -29 54 q-45 23 -45 54 q0 31 45 54 q29 14 29 54 l0 198 q0 85 48 131.5 q48 46.5 136 46.5 l31 0 q31 0 31 -30 q0 -50 -77 -74 q-35 -10 -45.5 -26.5 q-10.5 -16.5 -10.5 -47.5 l0 -198 q0 -65 -47 -102 q-5 -4 -5 -6 q0 -2 5 -6 q47 -37 47 -102 l0 -197 q0 -30 10.5 -47.5 q10.5 -17.5 45.5 -27.5 q77 -23 77 -74 q0 -30 -31 -30 Z" /><glyph glyph-name="bar" unicode="|" d="M65 670 q0 44 21.5 74.5 q21.5 30.5 46.5 30.5 q41 0 41 -66 l0 -825 q0 -78 -55 -78 q-54 0 -54 78 l0 786 Z" /><glyph glyph-name="braceright" unicode="}" d="M97 774 l31 0 q183 0 183 -178 l0 -198 q0 -40 29 -54 q46 -23 46 -54 q0 -31 -46 -54 q-29 -14 -29 -54 l0 -198 q0 -85 -47 -131.5 q-47 -46.5 -136 -46.5 l-31 0 q-32 0 -32 30 q0 50 78 74 q35 10 45.5 26.5 q10.5 16.5 10.5 47.5 l0 198 q0 61 41 97 q10 8 10 11 q0 3 -10 12 q-41 35 -41 96 l0 197 q0 30 -10.5 47.5 q-10.5 17.5 -45.5 27.5 q-78 23 -78 74 q0 30 32 30 Z" /><glyph glyph-name="asciitilde" unicode="~" d="M203 265 q-39 0 -75 -36 q-18 -16 -33 -16 q-30 0 -30 41 q0 44 42 81.5 q42 37.5 98 37.5 q49 0 131 -28 q72 -24 105 -24 q38 0 75 35 q17 17 33 17 q29 0 29 -41 q0 -44 -42 -81.5 q-42 -37.5 -97 -37.5 q-48 0 -97 17 q-81 26 -99.5 30.5 q-18.5 4.5 -39.5 4.5 Z" /><glyph glyph-name="emdash" unicode="&#x2014;" d="M43 423 l894 0 q59 -4 63 -54 q-4 -55 -63 -55 l-894 0 q-70 55 0 109 Z" /><glyph glyph-name="uni3001" unicode="&#x3001;" d="M199 212 q74 -58 188 -199 q23 -47 -12 -82 q-43 -27 -78 8 q-70 78 -176 191 q-31 39 0 78 q31 32 78 4 Z" /><glyph glyph-name="uni3002" unicode="&#x3002;" d="M250 236 q148 -8 160 -160 q-12 -149 -160 -157 q-152 8 -164 157 q12 152 164 160 ZM250 25 q47 0 51 51 q-4 47 -51 50 q-47 -3 -51 -50 q4 -51 51 -51 Z" /><glyph glyph-name="uni300A" unicode="&#x300a;" d="M551 447 l215 386 q23 36 62 16 q31 -27 12 -78 l-192 -340 q-35 -58 0 -117 l188 -332 q35 -55 -8 -82 q-39 -12 -58 16 l-215 367 q-47 82 -4 164 ZM387 443 l215 387 q23 35 66 15 q35 -27 8 -78 l-188 -340 q-43 -58 0 -117 l188 -332 q35 -51 -12 -82 q-39 -12 -59 16 l-214 371 q-43 78 -4 160 Z" /><glyph glyph-name="uni300B" unicode="&#x300b;" d="M449 283 l-215 -367 q-23 -28 -58 -16 q-51 31 -12 82 l188 332 q39 59 0 117 l-188 340 q-31 51 8 78 q35 20 66 -16 l215 -386 q35 -82 -4 -164 ZM609 283 l-214 -371 q-24 -28 -59 -16 q-51 31 -12 82 l188 332 q39 59 0 117 l-188 340 q-31 51 8 78 q39 20 66 -15 l215 -387 q35 -82 -4 -160 Z" /><glyph glyph-name="uni300C" unicode="&#x300c;" d="M445 -18 l0 719 q0 121 121 125 l227 0 q55 -4 55 -59 q-4 -51 -59 -51 l-187 0 q-43 -4 -47 -50 l0 -684 q-4 -51 -59 -55 q-51 12 -51 55 Z" /><glyph glyph-name="uni300D" unicode="&#x300d;" d="M555 767 l0 -726 q-4 -114 -118 -118 l-230 0 q-59 4 -59 59 q4 43 63 47 l187 0 q39 0 47 51 l0 687 q0 51 59 55 q47 -12 51 -55 Z" /><glyph glyph-name="uni300E" unicode="&#x300e;" d="M410 -6 l0 726 q4 110 106 117 l222 0 q67 -7 74 -89 q-3 -86 -70 -90 l-101 0 q-51 -4 -51 -51 l0 -617 q-4 -67 -94 -74 q-82 7 -86 78 ZM551 -6 l0 625 q4 70 74 78 l113 0 q74 51 0 101 l-191 0 q-102 0 -98 -105 l0 -695 q0 -40 47 -43 q51 3 55 39 Z" /><glyph glyph-name="uni300F" unicode="&#x300f;" d="M590 755 l0 -730 q-8 -106 -106 -113 l-222 0 q-75 7 -78 89 q3 79 78 86 l97 0 q47 0 51 47 l0 625 q0 67 94 74 q78 -7 86 -78 ZM449 755 l0 -632 q-8 -75 -70 -75 l-117 0 q-78 -47 0 -97 l191 0 q98 0 98 101 l0 699 q-4 40 -47 43 q-55 -3 -55 -39 Z" /><glyph glyph-name="uni3044" unicode="&#x3044;" d="M70 673 l4 4 q67 -11 16 -4 q51 -7 117 -23 q-16 -35 -20 -70 q-7 -24 -3 -47 l0 -28 q0 -82 19 -164 q16 -82 51 -152 q27 -66 70 -66 q28 0 55 27 q35 31 66 78 l8 0 l47 -74 q0 -8 0 -8 q-23 -47 -55 -74 q-62 -59 -129 -59 q-93 4 -148 125 q-27 63 -43 133 q-31 102 -39 215 q-8 35 -8 78 q-8 51 -8 109 ZM652 572 l90 31 l8 0 q86 -125 152 -258 q0 -8 4 -15 q24 -51 28 -71 l-94 -43 l-12 0 q-51 153 -180 348 l4 8 Z" /><glyph glyph-name="uni3048" unicode="&#x3048;" d="M430 822 l7 0 q12 -8 40 -24 q97 -50 152 -66 q0 -4 4 -4 q27 -8 31 -16 l-35 -82 l-8 -4 q-125 43 -234 110 l0 8 q15 35 43 78 ZM180 509 l23 0 q98 0 207 20 q67 4 133 31 q12 4 23 12 l8 0 l90 -55 q4 -8 4 -19 q-59 -36 -133 -137 q-27 -35 -39 -51 l27 0 q36 -4 71 -27 q23 -28 31 -78 q4 -55 20 -102 q15 -55 58 -55 l47 0 q66 0 137 20 l0 -110 q-24 0 -67 -3 q-43 -4 -58 -4 l-82 0 q-78 4 -106 50 q-27 28 -39 122 q-4 7 -4 15 q-4 31 -11 47 q-20 27 -51 31 q-47 0 -82 -47 q-98 -105 -168 -218 l-8 0 q-59 54 -94 62 l0 8 q113 109 270 301 q8 8 15 19 q59 67 82 114 l-7 7 q-40 -19 -122 -35 q-58 -11 -85 -19 q-8 -4 -20 -12 q-8 -8 -20 -4 l-50 117 Z" /><glyph glyph-name="uni304B" unicode="&#x304b;" d="M320 724 l0 16 q0 8 -4 27 q110 -19 129 -23 q0 -16 -15 -39 q-4 -4 -4 -4 q-8 -24 -16 -67 q0 -8 0 -8 q-4 -19 -12 -50 q-3 -24 -3 -35 q39 3 82 7 l58 0 q59 0 78 -27 q24 -39 24 -78 l0 -16 q-4 -54 -12 -113 q-8 -59 -23 -117 q-36 -137 -110 -180 q-47 -27 -133 -27 l-19 0 q-12 4 -12 4 q-19 47 -47 101 l0 8 q67 -16 82 -12 l16 0 q43 0 74 35 q27 28 43 79 q31 86 35 187 l0 24 q-4 42 -39 46 q-31 0 -90 -7 q-23 -4 -35 -4 q-58 -172 -152 -321 q-35 -62 -82 -109 q-16 0 -43 16 q-16 7 -24 15 q-4 0 -11 0 q-24 4 -24 20 q82 70 153 211 q31 58 70 152 q-59 -8 -109 -31 q-4 -4 -4 -4 q-16 -12 -28 -8 l-54 113 l3 8 q43 -12 129 4 q12 0 20 4 q12 0 39 4 q23 0 39 4 q0 8 4 27 q0 8 4 12 q19 70 23 156 ZM668 603 l0 8 q12 8 35 27 q20 16 35 28 q8 3 32 -20 q0 0 3 0 q39 -43 75 -82 q66 -82 121 -164 l0 -12 l-94 -58 q-86 148 -207 273 Z" /><glyph glyph-name="uni304C" unicode="&#x304c;" d="M70 373 l-43 109 l8 8 q8 0 24 -4 q15 -4 31 0 q78 12 156 31 q-4 4 0 12 q4 4 4 12 q8 46 12 93 q4 47 8 90 l0 43 l132 -31 q-4 -12 -23 -47 q-8 -16 -12 -47 q0 -16 0 -19 q-4 -20 -12 -51 q-3 -24 -3 -35 q31 0 62 7 q8 -3 23 0 q12 4 24 4 l16 0 q46 -4 74 -15 q39 -32 39 -78 l0 -47 q0 -110 -35 -246 q-28 -133 -106 -157 q-54 -23 -121 -23 l-27 0 q-20 47 -47 101 l4 8 q66 -15 82 -11 l15 0 q55 0 82 50 q20 39 36 106 q23 86 23 180 q-4 46 -55 46 q-23 -7 -58 -11 q-35 -4 -55 -8 q-70 -242 -219 -438 l-7 -4 q-28 20 -82 40 q-8 3 -12 7 l0 8 q90 102 140 199 q43 78 75 168 q-59 -19 -118 -39 q-19 -15 -35 -11 ZM867 388 l-4 -8 l-82 -47 q-78 145 -191 270 l0 8 l74 43 q102 -94 203 -266 ZM895 650 l0 -8 l-51 -39 l-8 0 q-8 4 -12 12 q-47 62 -82 86 l0 7 l47 40 q4 0 8 0 q66 -55 98 -98 ZM840 783 l0 8 l47 39 q4 0 8 0 q0 -4 7 -12 q43 -35 67 -55 q0 -4 4 -8 q23 -19 19 -31 l-47 -39 l-8 0 q-42 55 -97 98 Z" /><glyph glyph-name="uni304D" unicode="&#x304d;" d="M387 810 l105 16 q20 -67 51 -125 q59 15 113 47 l8 0 q31 -55 35 -82 q-35 -20 -101 -43 q-12 -4 -20 -8 q24 -55 55 -110 q70 20 140 55 l12 0 l35 -74 l-4 -8 q-43 -20 -89 -31 q-16 -8 -43 -16 q-8 0 -8 0 q4 -12 11 -23 q51 -82 110 -153 q0 -7 4 -11 q15 -16 15 -28 l-86 -82 q-128 78 -312 82 l-23 0 q-55 -4 -83 -15 q-54 -35 -35 -86 q8 -24 43 -43 q39 -28 90 -31 q59 -12 117 -12 l20 0 q23 -4 47 4 l-8 -114 l-27 0 q-364 24 -379 215 l0 20 q0 62 78 113 q70 31 156 35 l39 0 q82 0 195 -35 l4 4 q-43 62 -74 133 q-43 -12 -82 -16 q-105 -15 -215 -19 l-8 4 l-46 74 l3 8 l28 0 q109 0 222 19 q28 0 59 8 q-31 55 -55 109 q-82 -27 -168 -31 q-19 27 -39 55 q-4 0 -7 8 q-8 7 -8 19 q90 4 183 31 q-15 24 -39 75 q-8 15 -8 23 q-3 0 -7 8 q-8 19 -4 31 Z" /><glyph glyph-name="uni304F" unicode="&#x304f;" d="M562 822 l12 0 l102 -74 l0 -12 q-24 -24 -63 -74 q-11 -16 -15 -24 q-78 -101 -153 -195 q-43 -47 -39 -78 q0 -35 28 -59 q35 -47 70 -86 q16 -23 51 -66 q31 -47 50 -67 q47 -66 94 -129 l0 -7 l-101 -63 l-8 0 q-20 31 -51 90 q-19 39 -39 70 q-66 98 -98 137 q-19 27 -39 59 q-4 4 -11 11 q-51 59 -47 102 l0 16 q0 35 39 93 q8 12 35 43 q12 20 31 43 q63 78 117 180 q24 39 35 90 Z" /><glyph glyph-name="uni3053" unicode="&#x3053;" d="M492 685 l28 0 q97 0 195 27 l0 -109 q-86 -12 -160 -12 l-90 0 q-86 0 -160 16 l-8 4 l-20 109 l4 4 q129 -43 211 -39 ZM469 134 l82 0 q144 0 289 35 l0 -125 q-149 -23 -297 -23 l-63 0 q-109 0 -183 31 q-70 28 -133 102 q-8 0 0 12 l63 62 q0 0 7 0 q51 -62 110 -78 q39 -20 125 -16 Z" /><glyph glyph-name="uni3055" unicode="&#x3055;" d="M730 654 l8 -4 l24 -78 l0 -12 q-67 -27 -121 -43 q-8 0 -12 0 q90 -160 191 -258 l0 -8 l-90 -66 q-3 -8 -11 0 q-63 39 -137 63 q-78 23 -129 23 l-16 0 q-46 0 -105 -23 q-59 -40 -59 -82 q0 -24 16 -40 q23 -35 70 -46 q51 -28 141 -24 l47 0 q35 -4 66 4 l4 -4 l-12 -105 l-66 0 q-117 4 -234 50 q-125 55 -125 165 l0 15 q4 86 78 137 q62 31 140 35 l51 0 q106 0 203 -43 l4 8 q-70 82 -121 176 q-152 -32 -305 -39 l-39 89 l4 8 q28 -8 55 -4 l16 0 q109 0 222 24 q-4 4 -8 15 q-7 8 -7 16 q-12 20 -24 39 q-19 39 -62 117 l0 8 q62 4 121 20 q8 -94 70 -192 q82 24 152 59 Z" /><glyph glyph-name="uni3057" unicode="&#x3057;" d="M215 798 l8 0 l125 -23 q-8 -24 -12 -47 l0 -539 q-4 -78 27 -109 q28 -39 82 -39 l20 0 q35 -4 70 15 q43 16 90 43 q59 35 109 98 l8 0 l47 -90 q0 -8 0 -8 q-86 -82 -164 -121 q-86 -35 -172 -39 l-16 0 q-78 4 -128 35 q-67 43 -75 117 q-11 51 -7 114 l0 511 q0 12 -12 82 Z" /><glyph glyph-name="uni3059" unicode="&#x3059;" d="M129 541 l-8 3 l-39 114 l4 8 q47 -8 90 -8 l47 0 q11 0 66 0 q117 8 215 11 q-8 90 -24 184 l137 -23 q-23 -63 -19 -122 l0 -39 q19 0 62 0 q55 0 82 4 l176 0 l0 -113 q-86 8 -156 12 q-75 8 -137 8 l-27 0 l0 -122 q4 -7 4 -3 q31 -47 35 -133 l0 -67 q-4 -82 -39 -164 q-36 -70 -86 -133 q-32 -35 -75 -70 q-3 0 -7 0 q-51 39 -114 55 l0 8 q149 70 207 203 q-86 -43 -152 0 q-78 54 -78 156 l0 20 q19 160 164 179 l20 0 q3 0 11 -4 q8 -4 16 0 l0 75 l-43 0 q-168 -4 -332 -39 ZM504 330 l0 50 q-4 39 -31 43 q-24 -4 -39 -15 q-36 -32 -36 -78 l0 -20 q4 -82 51 -82 q31 0 47 43 q8 16 8 59 Z" /><glyph glyph-name="uni305A" unicode="&#x305a;" d="M102 529 l-47 117 l4 8 q7 -4 31 -8 q39 -8 58 -4 l20 0 q39 -4 246 12 q35 0 74 0 q-4 94 -31 187 q70 -8 141 -11 l4 -8 q-24 -47 -28 -137 q0 -19 0 -27 q0 0 8 0 q70 4 152 8 l168 0 l0 -106 q-78 8 -144 12 q-71 8 -133 8 l-55 0 q0 -24 0 -39 l0 -90 q4 -4 12 -12 q0 -4 4 -4 q31 -47 35 -125 l0 -27 q-4 -188 -113 -313 q-28 -27 -82 -74 q-4 -4 -4 -8 q-4 0 -8 0 q-78 43 -125 47 l0 4 q78 39 117 74 q78 63 82 129 q-23 -8 -47 -8 l-15 0 q-133 12 -149 168 l0 16 q16 160 164 180 l16 0 q4 0 12 -4 q4 -4 11 0 q4 43 8 86 q-35 -4 -101 -8 q-71 -8 -102 -8 q-94 -12 -183 -35 ZM488 322 l0 54 q-4 43 -39 47 q-23 0 -47 -27 q-43 -47 -27 -113 q12 -55 59 -55 q50 0 54 94 ZM945 787 l-50 -43 q-59 54 -94 82 l43 43 q8 -12 31 -24 q47 -39 70 -58 ZM879 720 l-51 -43 q-66 63 -105 94 l50 43 q39 -31 106 -94 Z" /><glyph glyph-name="uni305F" unicode="&#x305f;" d="M164 505 l-8 4 l-19 94 l4 8 q46 -8 101 -8 l28 0 q35 0 74 0 q39 113 39 184 l0 23 l8 0 l117 -31 l0 -12 q-31 -27 -39 -62 q-20 -47 -28 -90 q75 11 153 31 l8 -4 l0 -101 q-94 -20 -188 -28 q0 -8 -4 -12 q-4 -7 0 -11 q-101 -344 -207 -539 l-109 31 l-4 8 q137 246 226 519 q-78 -8 -152 -4 ZM684 478 l35 0 q62 -4 121 -8 q8 0 12 0 l3 -105 l-3 -4 q-110 23 -168 23 l-36 0 q-50 0 -89 -11 l19 97 q16 -4 51 4 q35 4 55 4 ZM914 91 l-12 -109 q-66 -12 -129 -12 l-39 0 q-43 0 -175 20 q-8 4 -16 4 q-27 4 -35 11 l-4 98 q70 -20 113 -27 q51 -8 94 -4 l19 0 q86 -4 184 19 Z" /><glyph glyph-name="uni3060" unicode="&#x3060;" d="M328 775 l0 23 l12 0 l125 -31 l0 -8 q-24 -27 -31 -54 q-24 -51 -32 -102 q75 8 149 31 l8 -4 l-12 -101 q-90 -20 -176 -24 q-43 -156 -98 -300 q-62 -164 -117 -262 l-4 -4 l-117 43 q78 98 168 332 q35 86 67 184 q-43 0 -83 0 l-58 0 q-8 -4 -12 3 l-19 102 q97 -16 117 -12 l43 0 q15 0 39 0 q31 114 31 184 ZM664 466 l35 0 q20 0 117 -11 l-7 -102 q-20 0 -36 4 q-74 16 -109 16 l-35 0 q-27 0 -82 -8 q-24 -4 -31 -4 l11 94 q12 0 39 3 q63 8 98 8 ZM660 60 l39 0 q47 -4 86 4 q39 4 74 16 l-11 -110 q-28 0 -51 -4 q-59 -8 -86 -8 l-27 0 q-71 0 -207 40 q-12 3 -24 3 l12 90 q66 -19 109 -27 q47 -8 86 -4 ZM711 630 l0 8 l51 51 q0 0 8 0 q46 -35 93 -74 q0 -8 8 -12 q4 -4 8 -8 q-4 -12 -8 -12 q-23 -23 -47 -39 q-8 -7 -8 0 q-19 12 -54 43 q-35 28 -51 43 ZM805 728 l47 55 q15 -4 46 -32 q12 -7 24 -11 q8 -12 23 -24 q12 -11 24 -19 q0 -8 0 -8 l-51 -51 q-8 -8 -8 0 q-55 39 -105 82 l0 8 Z" /><glyph glyph-name="uni3061" unicode="&#x3061;" d="M668 681 l0 -105 q-141 -43 -281 -51 q-8 -59 -12 -109 q-8 -40 -8 -67 l0 -16 q-4 -7 4 -7 q180 101 289 97 l24 0 q89 -4 156 -62 q55 -67 58 -145 l0 -15 q-3 -98 -86 -176 q-85 -63 -195 -86 q-23 0 -43 -4 q-47 -8 -70 -8 l-24 0 q-23 43 -43 71 q-27 23 -19 31 l51 0 q47 -4 74 0 q35 4 62 12 q55 7 102 35 q113 78 74 187 q-35 63 -129 67 l-15 0 q-172 -8 -293 -176 q-24 -4 -59 4 q-15 4 -19 8 q-8 3 -4 11 l0 16 q11 164 31 328 q-8 0 -16 0 l-27 0 q-70 0 -133 12 l-12 101 q75 -11 153 -11 l51 0 q0 11 3 23 q16 74 16 117 l0 16 q0 0 -4 12 q0 11 0 19 q59 -8 125 -12 l4 -4 q-27 -39 -31 -74 q-16 -47 -20 -97 q153 11 266 58 Z" /><glyph glyph-name="uni3063" unicode="&#x3063;" d="M621 634 l20 0 q97 -4 164 -58 q66 -67 70 -164 l0 -16 q0 -66 -35 -121 q-28 -51 -106 -102 q-109 -78 -234 -82 l-63 75 q145 19 235 74 q113 66 117 168 l0 15 q-16 118 -160 137 l-16 0 q-47 0 -121 -23 q-47 -20 -94 -36 q-82 -35 -156 -82 q-8 -3 -12 -7 q-11 -12 -23 -8 l-82 94 q109 23 215 66 q15 4 31 8 q164 62 250 62 Z" /><glyph glyph-name="uni3064" unicode="&#x3064;" d="M617 666 l20 0 q136 -4 230 -75 q94 -93 102 -207 l0 -19 q0 -98 -59 -168 q-51 -63 -113 -102 q-74 -51 -160 -74 q-67 -23 -137 -31 l-94 97 l0 4 q117 4 223 47 q125 39 180 102 q50 54 54 125 l0 19 q-4 71 -70 137 q-59 47 -137 51 l-19 0 q-75 0 -196 -39 q-105 -35 -211 -82 q-11 -8 -19 -12 q-51 -20 -66 -47 l-12 0 l-102 109 l0 8 q78 12 227 67 q105 39 164 54 q8 0 15 4 q122 32 180 32 Z" /><glyph glyph-name="uni3066" unicode="&#x3066;" d="M94 611 l11 0 q118 19 336 66 q219 47 340 71 q59 11 117 19 l8 -113 l-23 0 q-184 0 -270 -94 q-101 -117 -101 -266 l0 -15 q0 -98 54 -153 q51 -58 172 -54 l67 0 l0 -121 l-59 0 q-160 4 -246 90 q-82 85 -82 230 l0 35 q0 149 125 305 q-39 -8 -234 -59 q-20 -8 -36 -11 q-82 -24 -117 -43 l-62 113 Z" /><glyph glyph-name="uni3067" unicode="&#x3067;" d="M16 611 l23 0 q39 0 125 19 q23 8 39 12 q74 16 145 35 q129 28 254 55 q101 12 156 35 q0 -16 8 -43 q15 -43 11 -58 q-19 -8 -58 -12 q-90 -16 -129 -43 q-82 -67 -113 -168 q-16 -47 -20 -78 q-8 -35 -4 -59 l0 -23 q0 -94 59 -153 q58 -58 152 -58 l20 0 q31 0 62 8 l0 -122 l-31 0 q-145 4 -246 71 q-114 86 -117 246 l0 19 q-4 149 121 321 q-36 -12 -71 -20 q-156 -39 -242 -66 q-15 -8 -27 -12 q-43 -12 -55 -27 l-62 113 l0 8 ZM734 560 l55 47 q63 -66 94 -106 l-55 -46 q-55 70 -94 105 ZM840 634 l55 47 q50 -51 89 -101 l-58 -47 q-12 8 -20 19 q-39 55 -66 82 Z" /><glyph glyph-name="uni3068" unicode="&#x3068;" d="M723 642 l86 -98 l0 -7 q-243 -75 -379 -161 q-75 -46 -121 -117 q-28 -39 -24 -66 l0 -16 q0 -66 74 -105 q47 -28 133 -24 l28 0 q113 0 226 32 l8 -122 q-31 0 -98 0 q-66 -7 -97 -7 l-59 0 q-133 0 -207 43 q-102 58 -102 179 l0 20 q0 125 161 246 q11 4 19 12 q-35 136 -125 328 l106 19 q62 -136 113 -293 q23 12 70 36 q47 19 74 35 q75 27 114 66 Z" /><glyph glyph-name="uni3069" unicode="&#x3069;" d="M156 779 l102 15 q43 -89 105 -257 q4 -16 12 -28 q0 -4 8 4 q54 28 121 51 q4 0 12 4 q35 12 89 39 q0 0 8 4 q12 12 24 12 l74 -82 l0 -8 q-82 -20 -156 -51 q-133 -55 -243 -121 q-70 -43 -97 -94 q-28 -39 -28 -78 l0 -16 q0 -66 83 -101 q50 -24 125 -24 l19 0 q63 -4 180 16 q31 8 51 12 l11 -118 q-31 4 -82 -3 q-54 -4 -82 -4 l-82 0 q-86 0 -160 27 q-102 39 -133 98 q-23 39 -23 93 l0 20 q0 90 86 184 q27 35 101 82 q-43 168 -125 324 ZM656 705 l59 35 q51 -59 94 -121 l-59 -39 q-20 19 -47 62 q-31 39 -47 63 ZM758 775 l58 35 q51 -59 94 -121 l-58 -39 q-20 19 -47 62 q-32 39 -47 63 Z" /><glyph glyph-name="uni306A" unicode="&#x306a;" d="M160 517 l-12 106 l32 0 q43 -4 86 3 q27 -3 54 4 q4 4 4 12 q24 98 24 156 l0 24 q15 -8 54 -16 q39 -8 59 -15 q0 -28 -16 -71 q-4 -8 -4 -15 q-7 -32 -11 -59 q70 4 136 31 l0 -101 q-82 -32 -168 -39 q-74 -235 -207 -434 l-11 0 l-90 31 l-4 8 q125 156 203 383 q-66 -8 -129 -8 ZM512 -81 l-24 0 q-82 4 -133 51 q-43 55 -27 117 q12 43 55 75 q62 31 140 35 l28 0 q15 0 35 -4 q-8 156 -12 316 l8 0 l90 -19 q0 -24 -4 -47 q-4 -67 4 -180 q4 -55 8 -82 q109 -31 207 -90 l0 -11 l-39 -90 q-16 4 -36 19 q-11 12 -15 12 q-55 31 -117 55 l0 -4 q0 -39 -12 -71 q-8 -19 -27 -39 q-39 -43 -129 -43 ZM859 423 l-7 0 q-75 90 -172 157 l54 74 l8 0 q74 -55 137 -110 q27 -23 35 -43 l-55 -78 ZM516 111 l-16 0 q-63 -4 -78 -39 q-16 -59 51 -71 l35 0 q70 8 78 98 q0 -4 0 4 q-35 4 -70 8 Z" /><glyph glyph-name="uni306B" unicode="&#x306b;" d="M152 767 l137 -39 q0 -20 -35 -82 q-59 -148 -59 -313 l0 -31 q-4 -109 35 -179 l8 0 q16 39 39 82 l43 -8 q-35 -125 -31 -184 l0 -23 l-94 -20 q-54 55 -70 156 q-23 94 -23 200 l0 43 q-4 47 3 105 q8 51 28 145 q19 97 19 129 l0 19 ZM648 685 l43 0 q32 0 94 -8 q27 -4 55 -4 l0 -101 q-28 -4 -70 4 q-47 4 -71 4 l-43 0 q-43 0 -121 -12 q-62 -8 -90 -8 l-11 102 q43 0 89 7 q59 12 125 16 ZM641 142 l35 0 q109 0 219 31 l7 -105 q-90 -31 -183 -27 l-43 0 q-180 0 -274 85 q-35 20 -31 47 l70 43 q67 -74 200 -74 Z" /><glyph glyph-name="uni306E" unicode="&#x306e;" d="M39 283 l0 19 q0 67 31 133 q24 59 67 113 q90 114 211 160 q113 40 183 40 l43 0 q172 -4 281 -106 q106 -113 110 -254 l0 -27 q-4 -133 -102 -246 q-93 -98 -195 -145 q-8 0 -8 0 q-15 12 -31 24 q-39 27 -59 39 l0 8 q278 132 282 339 l0 20 q-4 90 -86 180 q-79 62 -164 70 q-32 -149 -86 -285 q-8 -12 -12 -24 q-63 -160 -106 -230 q-58 -94 -128 -98 q-114 4 -192 137 q-39 58 -39 133 ZM141 322 l0 -20 q0 -66 39 -117 q27 -51 74 -51 q35 -4 70 51 q16 20 39 74 q4 8 12 20 q98 211 129 371 q-78 -8 -145 -39 q-101 -55 -160 -145 q-58 -86 -58 -144 Z" /><glyph glyph-name="uni306F" unicode="&#x306f;" d="M160 798 l12 0 l105 -39 q-4 -23 -23 -62 q-12 -16 -12 -24 q-19 -47 -43 -140 q-4 -16 -8 -28 q-15 -62 -19 -97 q-8 -35 -4 -67 l0 -31 q0 -86 27 -187 l8 0 q24 39 43 82 l8 0 l31 -32 q0 -4 0 -7 q-27 -102 -39 -196 l-86 -19 q-82 140 -82 347 l0 59 q-4 35 4 86 q8 43 27 117 q4 16 16 51 q35 109 35 172 l0 15 ZM523 -49 l-19 0 q-63 4 -117 31 q-59 39 -59 105 l0 16 q0 55 59 94 q54 27 117 31 l19 0 q51 0 98 -12 q0 39 -8 114 q-8 70 -4 113 l0 23 q-19 0 -35 0 l-47 0 q-86 0 -168 16 l-11 98 q35 -8 132 -16 q43 -8 79 -4 l31 0 q8 0 19 0 q-7 70 -11 148 q0 36 -20 71 l137 -20 q-4 -4 -4 -11 q-4 -86 -4 -184 q82 8 164 27 l0 -93 q-82 -20 -164 -28 q4 -137 8 -277 q51 -20 101 -43 q59 -31 106 -70 l-63 -79 l-11 0 q-32 24 -67 51 q-35 20 -70 39 q-12 -50 -43 -82 q-55 -54 -145 -58 ZM512 142 l-20 0 q-82 -4 -82 -43 q4 -51 90 -58 l16 0 q50 0 82 39 q15 15 19 43 q-55 15 -105 19 Z" /><glyph glyph-name="uni3073" unicode="&#x3073;" d="M316 767 l4 0 l86 -59 l0 -7 q-86 -51 -152 -149 q-63 -90 -98 -187 q-23 -55 -23 -114 l0 -15 q15 -172 183 -188 l16 0 q66 -4 121 39 q51 39 82 102 q51 109 55 262 l0 35 q0 82 -39 230 q47 4 94 12 q66 -199 214 -336 l-82 -62 q-62 58 -101 136 q-4 -39 -8 -78 q-8 -180 -51 -258 q-97 -172 -285 -179 l-23 0 q-114 7 -196 78 q-74 66 -74 191 l0 24 q0 121 129 336 q16 27 27 43 q-23 -12 -66 -20 q-59 -12 -78 -31 l-43 101 q31 4 62 12 q141 23 211 63 q4 0 12 7 q12 12 23 12 ZM742 724 l55 43 q58 -62 105 -125 l-62 -51 q-47 67 -98 133 ZM832 798 l51 55 q15 -20 31 -35 q59 -51 82 -82 l-51 -51 q-54 59 -113 113 Z" /><glyph glyph-name="uni307E" unicode="&#x307e;" d="M406 -73 l-35 0 q-94 4 -148 51 q-63 55 -28 133 q20 39 71 62 q62 24 136 24 l35 0 q28 -4 67 -8 q-4 0 -4 8 q-4 70 -4 152 q0 -4 0 4 l-82 0 q-78 -4 -144 4 l-8 4 l-16 86 l0 8 q66 -16 145 -16 l78 0 q8 0 23 0 q-8 39 -4 133 l-27 0 q-39 -4 -86 0 q-43 0 -109 8 l-8 3 l-20 90 q24 -4 71 -7 q66 -12 105 -8 l74 0 l0 43 q-4 23 -8 74 q-3 16 -3 35 l121 -16 l4 -3 q-16 -24 -20 -47 q-12 -43 -8 -86 q82 4 172 23 l-8 -90 q-82 -15 -164 -19 q-4 -67 4 -125 q4 0 8 0 q86 4 172 31 l-12 -94 q-82 -23 -164 -27 q8 -94 16 -188 q117 -43 222 -121 l-50 -74 q-55 47 -168 94 l0 -4 q-4 -74 -75 -113 q-62 -24 -121 -24 ZM391 123 l-20 0 q-90 -8 -94 -63 q0 -31 35 -39 q28 -8 63 -8 l20 0 q46 4 85 20 q28 19 28 62 l0 4 q-78 24 -117 24 Z" /><glyph glyph-name="uni3081" unicode="&#x3081;" d="M562 173 l-78 -70 q-7 -8 -7 0 q-32 23 -51 47 q-28 -31 -55 -59 q-101 -90 -180 -90 l-15 0 q-110 8 -117 157 l0 19 q0 82 54 172 q32 59 86 113 q-47 86 -86 180 l106 55 l0 -20 l0 -8 q15 -78 54 -148 q133 82 266 98 q12 43 12 89 l0 16 q0 31 -12 67 l16 0 l7 0 l102 -24 q-12 -35 -19 -98 q-4 -31 -4 -46 q125 -12 203 -67 q97 -94 101 -226 l0 -24 q-4 -109 -54 -187 q-55 -78 -133 -121 q-55 -32 -110 -51 q-11 0 -23 23 q-8 8 -8 8 q-27 27 -55 43 q250 59 270 277 l0 16 q-4 98 -74 164 q-59 39 -141 47 q-47 -164 -129 -293 q32 -31 74 -59 ZM473 388 q27 67 47 133 q-94 -12 -200 -78 q16 -31 39 -55 q28 -47 67 -86 q23 39 47 86 ZM156 181 l0 -15 q0 -51 24 -59 q15 -16 62 8 q43 23 102 82 q4 11 19 23 q-31 31 -54 74 q-16 12 -59 82 q-23 -19 -51 -58 q-4 -12 -4 -12 q-39 -62 -39 -125 Z" /><glyph glyph-name="uni3082" unicode="&#x3082;" d="M602 345 l0 -15 l-16 -79 q-8 -7 -8 -3 l-82 0 q-47 -4 -94 3 q0 -31 0 -54 l0 -39 q-4 -71 39 -102 q36 -35 90 -35 l20 0 q74 0 117 43 q35 39 39 102 l0 15 q0 67 -78 184 q-4 8 -8 19 l109 8 q86 -94 90 -219 l0 -19 q-4 -110 -82 -176 q-78 -55 -176 -59 l-19 0 q-98 4 -168 67 q-66 55 -66 180 l0 39 q-4 27 3 66 q-70 12 -128 39 l11 94 q35 -20 114 -43 q7 0 15 0 q-4 12 4 23 q4 71 20 141 q-43 4 -82 19 q-28 0 -28 16 l8 94 q55 -24 121 -39 q4 43 16 86 q0 7 4 27 q8 47 8 74 l0 28 l19 0 l113 -32 l0 -7 q-15 -12 -27 -43 q-4 -8 -4 -12 q-19 -55 -31 -106 q-4 -4 -4 -11 q-4 -8 -4 -16 q8 0 27 0 l47 0 q39 0 90 8 l-23 -98 q-8 -8 -12 -4 l-86 0 q-35 0 -66 0 q-8 -43 -12 -86 q-8 -54 -8 -78 q70 -8 106 -8 q42 0 82 8 Z" /><glyph glyph-name="uni308A" unicode="&#x308a;" d="M332 505 l0 -19 q0 -59 16 -94 l7 0 l40 63 l11 0 l43 -39 q-8 -12 -15 -36 q-51 -101 -47 -160 l0 -15 q-47 -8 -94 -8 q-27 47 -39 101 q-16 55 -20 98 q-7 43 -4 78 l0 31 q0 71 12 141 q12 66 20 133 q58 -8 113 -12 q-8 -43 -20 -78 q-3 -4 -3 -12 q-24 -113 -20 -172 ZM605 779 l129 12 l8 -4 q-8 -32 0 -98 q4 -23 8 -35 q0 -24 4 -47 q16 -98 16 -145 l0 -62 q0 -125 -43 -238 q-67 -157 -165 -243 q-3 0 -11 0 l-90 43 l-4 8 q94 90 141 176 q58 113 62 266 l0 74 q0 176 -55 293 Z" /><glyph glyph-name="uni308B" unicode="&#x308b;" d="M203 716 l55 0 q176 -4 289 39 q8 0 15 4 q16 4 24 8 l4 0 l101 -78 l0 -8 q-50 -39 -89 -86 q-24 -27 -67 -74 q-43 -51 -62 -74 q15 -4 47 4 q27 4 42 4 l20 0 q102 -4 172 -63 q70 -70 74 -164 l0 -16 q-4 -121 -117 -195 q-90 -59 -195 -59 l-16 0 q-184 20 -191 137 l0 16 q11 101 132 117 l20 0 q90 0 191 -125 q59 39 63 117 l0 20 q-12 105 -145 121 l-19 0 q-156 -4 -262 -137 q-4 -8 -8 -12 q-8 -15 -15 -15 l-94 70 l0 12 q195 152 332 363 q-141 -8 -215 -47 q-8 -4 -12 -8 q-11 -11 -23 -7 l-51 128 l0 8 ZM465 48 l19 0 q28 0 51 8 q4 20 -27 47 q-55 39 -94 27 q-35 -23 -19 -50 q19 -32 70 -32 Z" /><glyph glyph-name="uni308C" unicode="&#x308c;" d="M82 384 l-55 117 l4 8 q125 0 231 51 q4 51 11 109 q4 28 4 59 l0 16 q-4 23 -7 54 q0 -4 7 -4 q59 -3 125 -3 l0 -12 q-15 -16 -23 -43 q-4 -8 -4 -12 q-20 -58 -23 -117 q0 -4 3 4 l71 -51 q0 -16 -12 -23 q-4 -4 -4 -4 q-12 -12 -23 -32 q-12 -23 -20 -31 q16 12 55 47 q129 129 223 125 l15 0 q31 -4 67 -16 q23 -15 39 -66 q0 0 4 0 l0 -4 l0 -15 q0 -79 -24 -227 q-8 -55 -12 -106 q-11 -58 4 -82 q16 -35 63 -19 q35 8 94 66 q3 4 11 12 q0 0 4 8 q20 23 39 23 l31 -105 q-7 -8 -15 -20 q-55 -50 -86 -70 q-63 -35 -109 -39 l-16 0 q-59 4 -90 43 q-27 43 -27 117 l0 16 q0 58 19 191 q4 31 8 51 q12 66 12 82 l0 16 q-8 46 -78 39 q-55 -28 -98 -63 q-74 -62 -137 -125 q-23 -23 -39 -43 q-4 -8 -4 -8 l0 -27 q0 -102 8 -199 q8 -86 12 -133 l-113 0 l0 148 q0 43 0 98 q-63 -82 -114 -164 l-8 0 l-85 51 l0 8 q179 199 226 343 q0 4 0 16 q4 16 4 27 q-20 -11 -63 -27 q-74 -31 -105 -55 Z" /><glyph glyph-name="uni3092" unicode="&#x3092;" d="M629 208 l0 -23 q0 -19 -4 -55 q-8 -35 -4 -50 l-101 0 q-4 11 3 39 q4 27 4 43 l0 39 q0 15 -4 35 q-74 -39 -82 -47 q-78 -63 -54 -113 q15 -55 133 -55 l19 0 q63 0 184 23 q7 0 11 4 l12 -117 q-31 0 -59 -4 q-70 -8 -101 -8 l-55 0 q-101 0 -160 36 q-82 54 -82 117 l0 15 q4 102 113 184 q51 35 118 59 q0 -4 0 3 q-12 63 -43 79 q-32 7 -71 -8 q-105 -47 -203 -231 l-101 43 q144 203 210 356 q-23 0 -42 0 l-67 0 l-31 94 l0 7 q39 -7 82 -7 l51 0 q23 0 47 0 q0 3 3 7 q0 4 4 12 q24 74 24 121 l0 24 l125 -32 l0 -7 l-24 -32 q-23 -43 -31 -82 q78 8 156 39 l0 -105 q-97 -24 -195 -35 q-27 -59 -55 -110 q59 32 106 32 l19 0 q8 0 47 -12 q28 -20 47 -43 q20 -39 27 -78 q32 15 67 27 q4 0 12 4 q43 12 97 39 q4 0 12 8 q16 12 27 12 l82 -94 l0 -8 q-168 -43 -281 -78 q4 -39 8 -67 Z" /><glyph glyph-name="uni3093" unicode="&#x3093;" d="M902 236 l47 -98 q4 -12 0 -12 q-12 -11 -27 -31 q-145 -160 -262 -156 l-19 0 q-67 4 -106 62 q-19 24 -31 102 q-4 20 -4 31 q-4 0 -4 8 q-4 66 -12 152 q-4 32 -27 36 q-23 0 -62 -24 q-8 -4 -12 -4 q-43 -31 -74 -62 q-75 -86 -129 -219 q-12 -35 -28 -70 l-105 31 q35 129 265 519 q40 63 75 137 q4 8 8 16 q50 90 58 144 l12 0 l133 -62 l0 -8 q-71 -74 -129 -156 q-43 -74 -82 -137 q-24 -43 -47 -78 q12 4 31 19 q20 12 35 20 q117 43 164 -27 q20 -43 20 -82 q4 -82 15 -157 q8 -58 36 -78 q35 -27 82 0 q66 31 156 156 q12 12 23 28 Z" /><glyph glyph-name="uni4E00" unicode="&#x4e00;" d="M98 314 q-47 0 -51 62 q4 59 51 63 l800 0 q51 -4 59 -63 q-8 -62 -59 -62 l-800 0 Z" /><glyph glyph-name="uni4E07" unicode="&#x4e07;" d="M86 673 q-47 0 -51 59 q4 55 51 59 l816 0 q47 -4 51 -59 q-4 -59 -51 -59 l-511 0 q0 -70 -8 -129 l398 0 q106 8 98 -101 q0 -152 -12 -332 q0 -8 0 -12 q-15 -164 -176 -160 q-113 8 -214 43 q-63 16 -40 74 q16 47 83 31 q3 -4 11 -4 q94 -27 141 -27 q70 -12 82 86 q0 12 0 24 q8 89 8 230 q0 35 -28 35 l-359 0 q-47 -285 -207 -457 q-55 -66 -106 -35 q-46 35 0 90 q219 242 211 644 l-187 0 Z" /><glyph glyph-name="uni4E09" unicode="&#x4e09;" d="M145 666 q-47 0 -51 58 q4 55 51 59 l722 0 q47 -4 51 -59 q-4 -58 -51 -58 l-722 0 ZM184 333 q-55 0 -59 59 q4 55 59 59 l656 0 q47 -4 55 -59 q-4 -59 -51 -59 l-660 0 ZM98 -30 q-55 4 -59 51 q4 55 59 59 l816 0 q51 -4 55 -59 q-4 -47 -55 -51 l-816 0 Z" /><glyph glyph-name="uni4E0A" unicode="&#x4e0a;" d="M102 68 l285 0 l0 691 q0 47 58 51 q59 -4 63 -51 l0 -191 l340 0 q50 -4 54 -59 q-4 -58 -54 -58 l-340 0 l0 -383 l398 0 q43 -4 47 -51 q-4 -51 -47 -55 l-804 0 q-47 4 -51 55 q4 47 51 51 Z" /><glyph glyph-name="uni4E0B" unicode="&#x4e0b;" d="M98 658 q-47 0 -51 54 q0 55 47 59 l812 0 q47 -4 55 -59 q-4 -54 -51 -54 l-383 0 l0 -90 q157 -98 301 -231 q55 -58 20 -109 q-39 -35 -102 20 q-125 117 -219 187 l0 -461 q-4 -47 -58 -51 q-55 4 -55 51 l0 684 l-316 0 Z" /><glyph glyph-name="uni4E0D" unicode="&#x4e0d;" d="M121 666 q-47 0 -51 58 q4 55 51 59 l766 0 q50 -4 54 -59 q-4 -58 -54 -58 l-258 0 q-31 -67 -70 -125 l0 -571 q-4 -47 -59 -51 q-55 4 -55 51 l0 430 q-179 -188 -285 -234 q-62 -32 -94 3 q-27 47 24 90 q328 211 406 407 l-375 0 ZM867 169 q-137 118 -265 227 q-40 35 0 74 q35 35 82 4 q121 -90 253 -203 q40 -47 8 -90 q-35 -47 -78 -12 Z" /><glyph glyph-name="uni4E0E" unicode="&#x4e0e;" d="M176 771 q8 62 62 66 q59 -4 59 -70 l-4 -47 l551 0 q58 -4 62 -58 q-4 -55 -58 -55 l-563 0 l-8 -145 q0 -23 20 -19 l531 0 q94 4 90 -82 q4 -344 -39 -379 q-27 -70 -238 -43 q-55 8 -51 59 q12 43 66 39 q117 -16 129 23 q24 20 20 242 q0 28 -24 28 l-543 0 q-86 -4 -78 109 l16 332 ZM102 76 q-47 0 -51 54 q4 55 51 59 l562 0 q51 -4 59 -59 q-8 -54 -59 -54 l-562 0 Z" /><glyph glyph-name="uni4E14" unicode="&#x4e14;" d="M156 708 q0 75 78 79 l543 0 q67 -4 71 -79 l0 -632 l66 0 q55 -4 59 -55 q-4 -47 -59 -51 l-820 0 q-55 4 -59 51 q8 51 63 55 l58 0 l0 632 ZM270 548 l464 0 l0 106 q-4 15 -15 19 l-438 0 q-11 -4 -11 -15 l0 -110 ZM270 310 l464 0 l0 125 l-464 0 l0 -125 ZM270 76 l464 0 l0 121 l-464 0 l0 -121 Z" /><glyph glyph-name="uni4E16" unicode="&#x4e16;" d="M539 599 l180 0 l0 172 q0 55 62 55 q59 -4 63 -59 l0 -168 l54 0 q59 -4 63 -62 q-8 -59 -63 -59 l-54 0 l0 -238 q8 -102 -94 -94 l-234 0 q-114 -16 -102 98 l0 234 l-148 0 l0 -395 q0 -27 23 -27 l574 0 q59 -4 67 -51 q0 -62 -59 -66 l-601 0 q-137 -8 -129 117 l0 422 l-39 0 q-63 0 -71 55 q4 58 67 66 l43 0 l0 164 q0 51 58 59 q63 -4 67 -55 l0 -168 l148 0 l0 164 q0 55 63 59 q58 -4 62 -59 l0 -164 ZM555 255 l148 0 q12 -4 16 20 l0 203 l-180 0 l0 -203 q-4 -20 16 -20 Z" /><glyph glyph-name="uni4E1A" unicode="&#x4e1a;" d="M539 783 q0 35 55 39 q54 -4 58 -43 l0 -738 l266 0 q39 -4 43 -47 q-4 -51 -43 -55 l-832 0 q-43 4 -47 55 q4 43 47 47 l262 0 l0 734 q0 35 50 39 q55 0 59 -35 l0 -738 l82 0 l0 742 ZM699 255 q86 180 153 414 q15 43 70 32 q47 -20 39 -63 q-59 -246 -156 -433 q-32 -59 -82 -39 q-47 27 -24 89 ZM199 208 q-62 219 -137 403 q-19 51 20 78 q51 19 78 -27 q86 -192 149 -418 q7 -63 -39 -82 q-55 -12 -71 46 Z" /><glyph glyph-name="uni4E1C" unicode="&#x4e1c;" d="M297 744 q4 7 8 15 q11 32 23 51 q20 39 70 27 q51 -15 36 -54 q-8 -12 -8 -20 q-4 -12 -8 -19 l480 0 q43 -4 47 -55 q-4 -55 -47 -55 l-527 0 q-55 -93 -90 -187 q-15 -31 -8 -35 q8 -12 55 -8 l149 0 l0 125 q0 39 54 43 q55 -4 59 -43 l0 -125 l246 0 q43 -4 47 -55 q-4 -55 -47 -55 l-246 0 l0 -300 q0 -75 -102 -75 q-62 0 -117 24 q-51 23 -39 70 q23 39 78 28 q74 -24 67 7 l0 246 l-219 0 q-94 -3 -117 28 q-28 31 7 105 q51 102 98 207 l-152 0 q-43 0 -47 55 q4 51 47 55 l203 0 ZM844 -38 q-59 110 -141 215 q-27 39 16 74 q47 24 82 -11 q74 -98 140 -223 q16 -47 -27 -74 q-47 -20 -70 19 ZM82 25 q105 113 156 211 q28 39 78 15 q43 -27 24 -74 q-74 -133 -172 -219 q-47 -35 -90 -3 q-35 35 4 70 Z" /><glyph glyph-name="uni4E1D" unicode="&#x4e1d;" d="M531 533 q4 4 12 19 q66 98 168 235 q43 54 94 39 q54 -28 19 -78 q-58 -82 -101 -133 q-32 -39 -55 -74 q-16 -16 -12 -24 q4 -8 20 -8 l101 0 q12 12 8 8 q31 39 59 63 q35 31 78 0 q35 -36 4 -75 q-8 -11 -227 -257 q-15 -16 -12 -24 q0 -8 16 -8 q39 -4 168 16 q59 4 70 -47 q0 -51 -58 -62 q-47 -12 -121 -20 q-82 -4 -149 -4 q-101 -4 -101 67 q-32 7 175 246 l-89 0 q-71 0 -90 31 q-16 31 23 90 ZM86 -65 q-47 4 -47 55 q4 43 51 47 l820 0 q43 -4 47 -47 q0 -51 -43 -55 l-828 0 ZM82 537 q16 58 184 254 q50 50 93 39 q63 -32 16 -94 q-31 -39 -152 -192 q-16 -15 -12 -23 q4 -8 19 -8 l102 0 q12 12 8 8 q31 39 58 62 q39 32 82 0 q36 -31 4 -74 q4 0 -109 -133 q-117 -132 -109 -128 q-12 -8 -8 -16 q4 -8 19 -8 q24 0 98 8 q31 4 47 8 q51 4 62 -47 q4 -51 -47 -63 q-105 -27 -250 -27 q-101 -4 -101 63 q-24 23 168 246 l-90 0 q-74 -4 -94 27 q-23 31 12 98 Z" /><glyph glyph-name="uni4E24" unicode="&#x4e24;" d="M90 689 q-47 0 -47 55 q0 50 47 54 l816 0 q43 -4 47 -54 q-4 -55 -47 -55 l-238 0 l0 -94 l176 0 q78 4 74 -82 l0 -492 q4 -105 -109 -98 q-63 -7 -114 20 q-47 23 -39 66 q12 32 63 24 q105 -20 93 31 l0 398 q-3 20 -19 24 l-125 0 l-4 -78 q66 -117 129 -231 q23 -58 -8 -90 q-43 -27 -70 24 q-67 129 -74 133 q-39 -149 -79 -219 q-23 -31 -66 -20 q-47 16 -31 59 q4 8 8 19 q11 28 19 47 q-39 -7 -62 39 q-8 4 -16 28 q-19 39 -27 51 q-39 -149 -71 -211 q-31 -36 -78 -16 q-39 20 -15 66 q78 145 93 399 l-109 0 q-20 -4 -20 -16 l0 -512 q-3 -42 -54 -46 q-51 4 -51 46 l0 559 q0 78 70 78 l168 0 l0 94 l-230 0 ZM422 689 l0 -94 l144 0 l0 94 l-144 0 ZM562 486 l-148 0 q-4 -55 -8 -102 q74 -93 117 -176 q36 141 39 278 Z" /><glyph glyph-name="uni4E27" unicode="&#x4e27;" d="M125 767 l312 0 l0 27 q0 43 59 47 q55 -4 59 -47 l0 -27 l316 0 q47 -4 51 -55 q0 -50 -47 -50 l-320 0 l0 -211 l105 0 q-8 15 20 50 q43 59 82 125 q23 43 74 24 q47 -27 27 -74 q-51 -86 -86 -125 l137 0 q39 -4 39 -59 q-4 -47 -47 -47 l-398 0 q39 -101 101 -164 q71 31 176 133 q47 35 86 -4 q31 -39 -12 -82 q-70 -70 -156 -121 q82 -55 195 -82 q47 -8 39 -63 q-15 -50 -66 -43 q-180 55 -309 153 q-121 101 -175 273 l-117 0 l0 -289 q0 -27 27 -19 q70 19 148 54 q43 16 67 -31 q11 -39 -28 -66 q-89 -59 -230 -75 q-106 -15 -98 86 l0 340 l-62 0 q-47 0 -47 51 q0 51 47 55 l129 0 q-28 62 -78 121 q-28 39 15 70 q43 24 78 -12 q39 -54 86 -132 q8 -36 -12 -47 l125 0 l0 211 l-312 0 q-39 0 -43 50 q4 51 43 55 Z" /><glyph glyph-name="uni4E2A" unicode="&#x4e2a;" d="M78 513 q184 94 387 301 q15 12 47 16 q19 -4 43 -20 q195 -195 386 -293 q32 -31 4 -82 q-31 -39 -74 -12 q-129 59 -340 250 q-11 12 -23 12 q-8 0 -16 -8 q-4 0 -4 0 q-179 -176 -351 -269 q-55 -24 -86 19 q-24 55 27 86 ZM445 -38 l0 516 q0 43 59 47 q55 -4 58 -47 l0 -516 q-3 -46 -58 -50 q-59 4 -59 50 Z" /><glyph glyph-name="uni4E2D" unicode="&#x4e2d;" d="M441 681 l0 106 q0 43 55 46 q59 0 63 -42 l0 -110 l289 0 q82 0 78 -82 l0 -328 q4 -98 -82 -90 l-285 0 l0 -211 q-4 -47 -59 -51 q-59 4 -59 51 l0 211 l-277 0 q-90 -8 -86 102 l0 312 q-8 90 82 86 l281 0 ZM195 318 q-4 -27 28 -24 l218 0 l0 274 l-218 0 q-32 0 -28 -27 l0 -223 ZM785 294 q24 -3 24 24 l0 223 q0 27 -24 27 l-226 0 l0 -274 l226 0 Z" /><glyph glyph-name="uni4E30" unicode="&#x4e30;" d="M445 705 l0 78 q0 43 51 47 q55 0 59 -43 l0 -82 l316 0 q43 -4 47 -55 q0 -55 -43 -55 l-320 0 l0 -133 l293 0 q43 -4 47 -54 q-4 -55 -47 -55 l-293 0 l0 -156 l347 0 q43 -4 47 -55 q0 -55 -43 -55 l-351 0 l0 -129 q-4 -46 -59 -46 q-51 4 -51 50 l0 125 l-340 0 q-46 0 -50 55 q4 51 50 55 l340 0 l0 156 l-297 0 q-43 0 -46 55 q7 50 50 54 l293 0 l0 133 l-316 0 q-47 0 -47 55 q0 51 47 55 l316 0 Z" /><glyph glyph-name="uni4E34" unicode="&#x4e34;" d="M223 -38 l0 817 q0 43 50 47 q51 -4 55 -47 l0 -242 q0 15 20 50 q19 28 43 82 q23 75 35 118 q11 46 70 39 q47 -16 31 -67 l379 0 q43 -4 47 -54 q-4 -55 -47 -55 l-226 0 q23 -20 50 -67 q24 -46 20 -70 l109 0 q63 0 63 -66 l0 -426 q4 -78 -70 -74 l-379 0 q-90 -4 -82 74 l0 418 q-4 23 15 51 q-58 -28 -78 31 l0 -559 q-4 -43 -55 -46 q-50 3 -50 46 ZM78 17 l0 727 q0 43 51 47 q51 -4 55 -47 l0 -727 q-4 -43 -55 -47 q-51 4 -51 47 ZM648 513 q-7 8 -19 20 q-39 47 -35 86 q0 15 15 31 l-113 0 q-23 -78 -70 -145 q15 4 35 8 l187 0 ZM520 44 l82 0 l0 360 l-82 0 q-24 0 -20 -20 l0 -320 q-4 -20 20 -20 ZM711 44 l82 0 q16 0 19 24 l0 308 q0 28 -19 28 l-82 0 l0 -360 Z" /><glyph glyph-name="uni4E3A" unicode="&#x4e3a;" d="M383 626 q4 24 15 129 q0 16 4 32 q4 50 59 54 q51 -8 51 -58 q0 -78 -12 -157 l344 0 q86 4 82 -82 q8 -320 -24 -472 q-23 -137 -207 -137 q-109 0 -172 23 q-46 20 -43 63 q12 47 63 43 q74 -16 156 -12 q67 -4 78 35 q20 43 24 133 q8 86 8 270 q-4 19 -20 23 l-309 0 q-74 -379 -316 -566 q-47 -31 -82 8 q-23 39 20 78 q210 222 261 480 l-246 0 q-47 0 -47 55 q4 55 51 58 l262 0 ZM152 763 q-23 35 16 63 q43 23 70 -8 q55 -78 71 -117 q-4 -86 -86 -43 q-12 8 -71 105 ZM594 185 q-51 78 -102 168 q-27 43 8 74 q43 24 78 -11 q39 -55 106 -168 q19 -43 -20 -75 q-47 -23 -70 12 Z" /><glyph glyph-name="uni4E3B" unicode="&#x4e3b;" d="M473 673 q-51 55 -59 71 q-31 31 4 66 q39 35 78 8 q51 -47 70 -74 q36 -47 4 -71 l309 0 q47 -4 51 -58 q0 -55 -47 -55 l-321 0 l0 -176 l286 0 q43 -4 47 -58 q-4 -55 -47 -55 l-286 0 l0 -215 l344 0 q43 -4 47 -51 q-4 -50 -47 -54 l-808 0 q-47 4 -51 54 q4 47 51 51 l351 0 l0 215 l-297 0 q-47 0 -47 55 q4 54 51 58 l293 0 l0 176 l-324 0 q-39 0 -43 55 q4 54 43 58 l348 0 Z" /><glyph glyph-name="uni4E48" unicode="&#x4e48;" d="M59 365 q175 176 300 437 q24 35 75 16 q46 -20 31 -63 q-145 -285 -324 -472 q-47 -39 -86 -8 q-35 43 4 90 ZM207 134 q242 364 391 594 q31 43 78 23 q47 -27 23 -74 q-58 -94 -344 -511 q-15 -28 -27 -43 q-23 -36 -16 -47 q4 -12 51 -8 q74 -4 168 4 q82 4 227 19 q-43 82 -113 192 q-24 43 23 70 q51 20 82 -20 q94 -152 184 -312 q19 -51 -20 -82 q-51 -31 -82 12 q-12 23 -23 47 q-348 -32 -551 -32 q-86 4 -98 47 q-15 35 47 121 Z" /><glyph glyph-name="uni4E49" unicode="&#x4e49;" d="M488 615 q-31 47 -105 140 q-28 39 12 71 q50 27 89 -4 q71 -78 106 -145 q27 -58 -16 -94 q-51 -23 -86 32 ZM746 705 q8 43 63 43 q50 -8 50 -51 q-19 -360 -230 -563 q141 -66 281 -82 q67 -11 55 -70 q-16 -55 -78 -51 q-207 39 -371 125 q-192 -86 -407 -125 q-50 -8 -66 47 q-4 51 43 63 q191 31 320 93 q-203 184 -265 520 q-8 51 43 66 q54 8 70 -39 q58 -324 266 -484 q187 136 226 508 Z" /><glyph glyph-name="uni4E4B" unicode="&#x4e4b;" d="M465 701 q-35 15 -51 31 q-35 31 -12 74 q32 43 75 27 q35 -15 85 -50 q47 -43 12 -82 l231 0 q136 -4 66 -149 q-133 -281 -484 -402 q-16 -8 -16 -12 q0 -4 16 -12 q58 -50 152 -62 q86 -12 344 -8 q58 -4 62 -51 q0 -58 -62 -58 q-278 0 -395 23 q-117 20 -218 94 q-12 4 -16 8 q-24 19 -31 19 q-24 0 -36 -39 q-7 -15 -15 -31 q-12 -31 -16 -51 q-23 -43 -74 -27 q-47 12 -31 66 q19 71 78 172 q39 63 117 43 q336 78 504 328 q8 12 0 20 q-4 8 -20 11 l-593 0 q-55 0 -59 59 q4 55 59 59 l328 0 Z" /><glyph glyph-name="uni4E50" unicode="&#x4e50;" d="M125 728 q0 63 90 63 q125 -4 187 0 q71 0 133 3 q129 4 274 20 q66 0 74 -51 q0 -55 -63 -58 q-144 -16 -293 -20 q-148 -4 -261 0 q-43 0 -36 -27 l-7 -211 q0 -24 19 -20 l238 0 l0 153 q0 43 55 43 q55 -4 59 -47 l0 -149 l297 0 q43 -4 46 -54 q0 -51 -42 -51 l-301 0 l0 -317 q-20 -121 -203 -66 q-71 27 -59 82 q20 43 90 23 q58 -23 58 12 l0 266 l-273 0 q-117 -12 -98 94 l16 312 ZM59 56 q97 86 164 203 q27 47 78 20 q47 -31 23 -78 q-105 -164 -179 -215 q-43 -35 -86 -4 q-39 39 0 74 ZM848 1 q-4 4 -32 32 q-31 50 -105 152 q-43 55 0 90 q47 31 94 -16 q78 -105 136 -203 q28 -43 -15 -74 q-43 -24 -78 19 Z" /><glyph glyph-name="uni4E5F" unicode="&#x4e5f;" d="M273 529 q90 19 180 51 l0 199 q0 43 55 47 q54 -4 58 -47 l0 -168 q16 4 51 15 q106 32 160 51 q110 35 114 -70 l0 -195 q0 -106 -12 -141 q-20 -63 -86 -74 q-55 -16 -121 4 q-59 15 -55 66 q16 47 78 47 q90 -16 82 23 l0 184 q0 35 -39 23 q-43 -15 -172 -50 l0 -364 q-4 -43 -58 -47 q-55 4 -55 47 l0 328 l-180 -50 l0 -313 q-23 -58 164 -51 l211 0 q200 -15 188 110 q4 47 59 47 q50 -4 54 -51 q0 -137 -74 -172 q-59 -35 -207 -35 l-320 0 q-203 -12 -184 148 l0 282 l-47 -12 q-47 -12 -62 43 q-8 51 35 70 l74 24 l0 230 q0 39 55 43 q51 -4 54 -43 l0 -199 Z" /><glyph glyph-name="uni4E66" unicode="&#x4e66;" d="M391 685 l0 102 q0 46 54 54 q55 -4 59 -50 l0 -106 l226 0 q4 0 16 -4 q12 0 16 0 q-39 27 -78 59 q-39 27 -12 70 q31 35 78 16 q105 -71 191 -168 q24 -39 -15 -75 q-35 -27 -71 4 q-11 8 -23 24 q-16 15 -23 27 q3 -12 3 -23 l0 -227 l59 0 q55 0 55 -90 q0 -273 -102 -289 q-90 -27 -226 16 q-67 31 -51 86 q27 47 101 19 q90 -39 125 -19 q32 15 36 105 q0 67 -20 63 l-285 0 l0 -321 q-4 -42 -59 -46 q-54 4 -54 46 l0 321 l-278 0 q-51 0 -54 54 q3 51 54 55 l278 0 l0 188 l-250 0 q-43 0 -51 50 q4 55 47 59 l254 0 ZM504 388 l203 0 l0 164 q-4 20 -20 24 l-183 0 l0 -188 Z" /><glyph glyph-name="uni4E71" unicode="&#x4e71;" d="M715 -77 q-133 4 -137 98 l0 773 q0 47 55 51 q51 -4 54 -51 l0 -738 q0 -31 36 -31 l74 0 q58 -12 55 133 q0 50 50 58 q55 -4 59 -54 q12 -262 -149 -239 l-97 0 ZM113 771 q239 12 336 43 q63 16 82 -35 q8 -55 -51 -74 q-39 -16 -128 -28 l0 -109 l152 0 q47 -4 47 -59 q-8 -47 -55 -47 l-144 0 l0 -97 l70 0 q82 -8 86 -78 l0 -266 q0 -78 -90 -78 l-234 0 q-102 0 -94 78 l0 254 q0 90 78 90 l74 0 l0 97 l-148 0 q-47 0 -47 51 q0 51 47 55 l148 0 l0 98 q-58 -4 -109 -4 q-12 0 -12 0 q-62 -4 -70 50 q4 55 62 59 ZM402 244 q0 11 -11 11 l-184 0 q-12 0 -12 -11 l0 -192 q0 -11 12 -11 l180 0 q11 0 15 11 l0 192 Z" /><glyph glyph-name="uni4E86" unicode="&#x4e86;" d="M129 673 q-47 0 -47 55 q0 55 47 59 l742 0 q90 -16 39 -106 q-109 -94 -285 -211 q-31 -23 -12 -47 q82 -144 94 -269 q16 -262 -266 -235 q-82 4 -168 28 q-66 23 -58 74 q19 51 86 39 q78 -23 172 -27 q109 -12 105 113 q4 117 -105 270 q-59 62 7 101 q8 4 28 20 q144 89 195 129 q0 0 -4 7 l-570 0 Z" /><glyph glyph-name="uni4E89" unicode="&#x4e89;" d="M59 580 q105 66 218 211 q16 15 32 35 q31 39 78 15 q27 -19 23 -43 l309 0 q86 -7 58 -78 q-47 -78 -105 -140 l140 0 q83 3 75 -63 l0 -117 l31 0 q47 -4 55 -55 q-4 -54 -51 -54 l-35 0 l0 -102 q11 -94 -86 -78 l-227 0 l0 -94 q0 -74 -47 -90 q-121 -39 -269 12 q-43 23 -28 70 q20 32 67 24 q168 -39 164 15 l0 63 l-297 0 q-51 0 -51 55 q4 50 55 54 l293 0 l0 71 l-367 0 q-51 0 -51 54 q4 51 55 55 l363 0 l0 70 l-270 0 q-43 0 -39 31 q-19 -15 -39 -23 q-51 -23 -78 20 q-19 46 24 82 ZM355 693 q-54 -63 -109 -113 l289 0 q31 31 82 97 q4 4 0 8 q-4 4 -12 8 l-250 0 ZM781 458 q-4 8 -11 12 l-196 0 l0 -70 l207 0 l0 58 ZM574 220 l196 0 q11 0 11 12 l0 59 l-207 0 l0 -71 Z" /><glyph glyph-name="uni4E8B" unicode="&#x4e8b;" d="M94 775 l367 0 l0 16 q0 39 55 42 q54 -3 58 -42 l0 -16 l340 0 q47 -4 51 -47 q0 -47 -47 -47 l-344 0 l0 -35 l242 0 q75 4 71 -70 l0 -51 q11 -82 -71 -70 l-242 0 l0 -36 l242 0 q75 4 71 -66 l0 -51 l31 0 q35 -4 39 -47 q-4 -43 -39 -43 l-31 0 l0 -50 q11 -94 -98 -82 l-215 0 l0 -75 q0 -89 -105 -89 q-176 0 -196 46 q-31 71 47 75 q4 -4 12 -4 q59 -12 109 -8 q20 -4 20 23 l0 32 l-309 0 q-54 0 -58 46 q4 43 58 47 l309 0 l0 39 l-363 0 q-51 0 -55 43 q4 43 55 47 l363 0 l0 35 l-328 0 q-47 0 -47 39 q4 40 51 43 l324 0 l0 36 l-266 0 q-90 -12 -78 62 l0 66 q-8 67 63 63 l281 0 l0 35 l-367 0 q-55 0 -59 47 q4 43 59 47 ZM227 572 l0 -43 l234 0 l0 43 l-234 0 ZM574 572 l0 -43 l203 0 l0 43 l-203 0 ZM777 337 l-203 0 l0 -35 l203 0 l0 35 ZM777 212 l-203 0 l0 -39 l203 0 l0 39 Z" /><glyph glyph-name="uni4E8C" unicode="&#x4e8c;" d="M152 638 q-50 0 -54 59 q4 58 54 62 l703 0 q43 -4 47 -62 q-4 -59 -47 -59 l-703 0 ZM102 -22 q-47 4 -51 55 q4 54 51 58 l796 0 q43 -4 47 -58 q-4 -51 -47 -55 l-796 0 Z" /><glyph glyph-name="uni4E8E" unicode="&#x4e8e;" d="M152 798 l707 0 q47 -4 55 -62 q-4 -63 -51 -63 l-269 0 l0 -191 l308 0 q51 -4 55 -63 q-4 -62 -55 -62 l-308 0 l0 -328 q0 -172 -344 -74 q-51 19 -39 70 q19 51 74 43 q125 -35 152 -31 q32 0 32 46 l0 274 l-375 0 q-51 0 -51 62 q4 59 55 63 l371 0 l0 191 l-321 0 q-50 0 -54 63 q8 58 58 62 Z" /><glyph glyph-name="uni4E91" unicode="&#x4e91;" d="M203 669 q-47 0 -51 55 q0 59 47 63 l617 0 q43 -4 47 -59 q-4 -59 -47 -59 l-613 0 ZM113 404 q-43 0 -47 54 q8 55 51 59 l774 0 q43 -4 46 -59 q-3 -54 -46 -54 l-469 0 q98 -20 43 -106 q-24 -27 -70 -74 q-75 -70 -114 -117 q-19 -20 -11 -27 q3 -12 31 -8 q35 0 109 0 q211 4 332 15 q-23 36 -55 86 q-27 47 -35 63 q-31 47 12 78 q47 23 86 -16 q94 -140 156 -269 q43 -110 -47 -113 q-43 0 -66 74 q-371 -28 -574 -24 q-94 4 -110 47 q-15 35 51 125 q125 156 242 266 l-289 0 Z" /><glyph glyph-name="uni4E94" unicode="&#x4e94;" d="M141 677 q-47 0 -47 59 q4 55 51 58 l718 0 q47 -3 51 -58 q-4 -59 -51 -59 l-383 0 q-7 -47 -15 -109 q-8 -43 -8 -63 l293 0 q86 0 82 -78 l-12 -359 l86 0 q47 -4 51 -51 q-4 -55 -51 -59 l-801 0 q-46 4 -46 59 q0 47 46 51 l172 0 q20 125 43 289 q4 19 8 31 l-164 0 q-51 0 -55 59 q4 54 55 58 l180 0 q0 4 0 16 q11 70 19 156 l-222 0 ZM707 68 q4 144 12 301 q-4 15 -20 19 l-254 0 q-11 -66 -27 -160 q-16 -98 -23 -160 l312 0 Z" /><glyph glyph-name="uni4E9A" unicode="&#x4e9a;" d="M117 689 q-47 0 -47 55 q0 50 47 54 l770 0 q43 -4 47 -54 q-4 -55 -47 -55 l-231 0 l0 -453 q8 19 20 35 q70 148 133 309 q23 50 74 31 q43 -28 27 -82 q-90 -250 -164 -360 q-35 -43 -90 -7 l0 -106 l262 0 q39 -4 43 -47 q-4 -51 -43 -54 l-832 0 q-39 3 -43 54 q4 43 43 47 l254 0 l0 633 l-223 0 ZM543 689 l-90 0 l0 -633 l90 0 l0 633 ZM187 185 q-35 129 -105 348 q-20 50 27 74 q47 12 75 -35 q50 -141 105 -356 q8 -50 -39 -70 q-47 -12 -63 39 Z" /><glyph glyph-name="uni4E9B" unicode="&#x4e9b;" d="M230 384 q8 0 32 8 q19 4 31 8 l0 383 q0 43 59 47 q54 -4 58 -47 l0 -90 l90 0 q47 -4 51 -63 q-4 -58 -51 -58 l-90 0 l0 -145 q35 8 82 20 q43 8 59 -43 q11 -51 -31 -63 q-79 -19 -333 -82 q-58 -11 -89 -19 q-51 -12 -67 39 q-11 54 39 70 q16 0 43 12 l0 340 q0 47 59 50 q55 -7 58 -54 l0 -313 ZM660 271 q-101 -4 -98 74 l0 430 q0 43 55 47 q55 -4 59 -47 l0 -129 q101 47 179 113 q47 32 86 -15 q32 -47 -11 -86 q-94 -71 -254 -137 l0 -113 q0 -28 27 -28 l94 0 q47 -11 43 114 q0 50 58 54 q55 -4 59 -54 q16 -239 -129 -223 l-168 0 ZM176 126 q-55 0 -59 55 q4 55 59 59 l648 0 q51 -4 55 -59 q-4 -55 -55 -55 l-648 0 ZM102 -49 q-51 4 -55 58 q4 43 55 47 l808 0 q51 -4 55 -51 q-4 -50 -55 -54 l-808 0 Z" /><glyph glyph-name="uni4EA7" unicode="&#x4ea7;" d="M457 740 q-4 4 -12 11 q-8 8 -8 16 q-19 31 28 66 q51 28 94 -15 q3 -8 23 -27 q20 -36 8 -51 l308 0 q36 -4 39 -59 q-3 -55 -39 -55 l-132 0 q31 -23 19 -66 q-19 -62 -51 -102 l176 0 q43 -3 47 -58 q-4 -59 -47 -59 l-676 0 q-23 0 -19 -31 q-8 -258 -67 -371 q-23 -39 -74 -23 q-43 23 -27 66 q51 164 55 351 l0 71 q3 47 58 54 l160 0 q-8 8 -23 36 q-16 23 -27 50 q-24 55 15 82 l-144 0 q-43 0 -47 55 q4 55 47 59 l316 0 ZM449 458 l160 0 q20 36 36 71 q11 35 23 54 q0 0 4 8 q15 24 31 35 l-351 0 q7 8 97 -168 Z" /><glyph glyph-name="uni4EAB" unicode="&#x4eab;" d="M449 759 q0 0 -4 8 q-8 8 -4 12 q-19 43 32 62 q54 16 78 -23 q11 -24 31 -59 l316 0 q43 -4 47 -54 q-4 -51 -47 -51 l-793 0 q-43 0 -46 51 q3 50 46 54 l344 0 ZM227 404 q-71 -8 -67 70 l0 82 q-4 59 67 63 l566 0 q59 -4 62 -59 l0 -98 q0 -58 -66 -58 l-562 0 ZM738 490 l0 43 l-468 0 l0 -43 l468 0 ZM187 271 q-42 0 -50 47 q4 47 47 51 l605 0 q74 -20 27 -82 q-70 -43 -156 -79 l238 0 q47 -3 51 -54 q-4 -55 -51 -55 l-261 0 q4 -43 8 -82 q3 -133 -317 -105 q-74 7 -90 46 q-11 59 43 71 q24 0 90 -8 q156 -20 152 23 q0 36 -3 55 l-411 0 q-47 0 -47 55 q4 51 51 54 l387 0 q-16 24 102 63 l-415 0 Z" /><glyph glyph-name="uni4EBA" unicode="&#x4eba;" d="M74 33 q219 156 317 425 q43 122 50 309 q0 63 59 70 q59 -7 62 -70 q0 -51 0 -94 q98 -422 356 -644 q55 -43 4 -94 q-47 -35 -102 12 q-195 168 -304 488 q-110 -320 -356 -484 q-66 -39 -98 -8 q-39 55 12 90 Z" /><glyph glyph-name="uni4EC0" unicode="&#x4ec0;" d="M391 537 l187 0 l0 226 q0 55 63 59 q62 -4 66 -59 l0 -226 l211 0 q51 -4 59 -63 q-4 -58 -55 -58 l-215 0 l0 -450 q-4 -50 -66 -54 q-63 7 -63 58 l0 446 l-195 0 q-67 0 -67 58 q8 59 75 63 ZM39 400 q0 12 31 58 q106 172 149 329 q15 43 62 43 q59 -12 59 -55 q-4 -35 -63 -172 l0 -633 q-4 -51 -58 -58 q-59 0 -59 50 l0 430 q-27 -59 -78 -59 q-51 8 -43 67 Z" /><glyph glyph-name="uni4ECA" unicode="&#x4eca;" d="M86 576 q8 4 35 15 q145 67 270 176 q7 4 15 12 q78 74 125 47 q12 -8 71 -51 q168 -133 308 -199 q55 -35 31 -82 q-23 -63 -129 -4 q-136 66 -285 199 q-27 23 -62 -12 q-153 -133 -317 -199 q-66 -27 -93 12 q-28 51 31 86 ZM145 255 q-51 0 -55 51 q4 51 55 55 l648 0 q109 0 102 -82 q-118 -336 -657 -360 q-70 4 -70 59 q8 43 82 51 q355 15 488 191 q20 31 -4 35 l-589 0 ZM516 404 q-20 19 -59 70 q-27 39 -35 51 q-35 39 12 74 q46 27 89 -8 q63 -74 98 -136 q12 -51 -31 -75 q-47 -19 -74 24 Z" /><glyph glyph-name="uni4ECE" unicode="&#x4ece;" d="M547 294 q66 172 66 422 l0 63 q0 43 59 47 q55 -4 58 -47 q0 -35 -3 -153 q0 -58 0 -62 q7 -117 54 -242 q55 -160 172 -297 q31 -43 -12 -86 q-43 -20 -78 12 q-121 125 -187 363 q-74 -246 -317 -395 q-43 -19 -82 20 q-31 43 8 70 q180 106 254 270 q-47 -43 -94 8 q-4 0 -23 19 q-63 70 -86 98 q-66 -274 -199 -418 q-35 -31 -78 4 q-32 31 3 66 q184 250 180 527 l0 192 q0 43 55 47 q55 -4 58 -47 q0 -168 -3 -227 q85 -90 171 -175 q36 -43 24 -79 Z" /><glyph glyph-name="uni4ED8" unicode="&#x4ed8;" d="M715 767 q0 43 58 47 q59 -4 63 -47 l0 -113 l82 0 q39 -4 43 -59 q-4 -58 -43 -58 l-82 0 l0 -493 q-4 -132 -172 -125 q-90 8 -160 36 q-47 23 -39 66 q15 47 66 39 q74 -23 117 -27 q67 -12 67 47 l0 457 l-363 0 q-47 0 -51 58 q4 55 51 59 l363 0 l0 113 ZM500 173 q-12 12 -20 32 q-66 117 -105 179 q-31 47 16 78 q46 24 82 -19 q66 -102 125 -215 q19 -51 -28 -82 q-43 -20 -70 27 ZM55 443 q97 144 144 348 q8 42 55 42 q55 -11 58 -54 q-3 -35 -31 -121 q-8 -28 -15 -59 l0 -633 q-4 -58 -59 -62 q-55 4 -55 62 l0 403 q-43 -55 -93 -28 q-43 43 -4 102 Z" /><glyph glyph-name="uni4EE3" unicode="&#x4ee3;" d="M51 412 q105 160 187 371 q16 50 78 39 q51 -24 36 -74 q-36 -98 -71 -184 l0 -598 q-4 -47 -62 -50 q-59 3 -59 50 l0 410 q-12 -23 -27 -39 q-31 -35 -78 -4 q-32 36 -4 79 ZM523 533 q-3 11 -3 47 q-12 132 -8 191 q0 47 54 47 q51 -4 55 -51 q0 -62 8 -125 q4 -55 8 -105 q47 0 125 0 q101 4 140 7 q51 -3 63 -54 q0 -59 -51 -63 q-47 -4 -133 -4 q-86 -4 -129 -4 q32 -230 121 -343 q24 -43 39 -43 q16 0 24 43 q8 62 16 125 q3 39 54 39 q47 -8 51 -51 q-4 -148 -31 -219 q-74 -109 -207 0 q-137 110 -184 446 q-15 0 -70 -4 q-74 -4 -98 0 q-58 0 -62 54 q0 55 58 63 q78 -4 160 4 ZM824 603 q-35 23 -86 70 q-27 24 -35 35 q-39 36 -8 79 q39 39 82 7 q35 -31 125 -113 q35 -43 0 -86 q-39 -31 -78 8 Z" /><glyph glyph-name="uni4EE5" unicode="&#x4ee5;" d="M105 107 l0 652 q0 51 55 59 q59 -4 63 -55 l0 -527 q-4 -28 4 -35 q7 -4 27 7 q105 59 195 129 q55 36 94 0 q35 -46 -12 -89 q-117 -102 -273 -172 q-156 -71 -153 31 ZM277 37 q313 43 403 214 q74 141 78 504 q0 55 54 59 q59 0 63 -55 q-4 -308 -78 -547 q90 -105 148 -168 q35 -43 0 -82 q-50 -35 -90 4 q-54 59 -125 141 q-171 -145 -433 -180 q-67 -8 -78 43 q-4 51 58 67 ZM492 486 q-27 27 -86 90 q-82 90 -86 101 q-35 43 4 78 q43 32 90 -4 q94 -93 172 -187 q31 -59 -8 -94 q-43 -31 -86 16 Z" /><glyph glyph-name="uni4EEC" unicode="&#x4eec;" d="M39 458 q90 149 148 344 q16 43 71 28 q43 -16 35 -63 q-20 -78 -43 -144 l0 -665 q-4 -46 -59 -50 q-58 4 -58 50 l0 438 q-28 -66 -86 -39 q-43 35 -8 101 ZM445 658 q-8 15 -31 58 q-16 35 -19 51 q-24 43 27 70 q43 12 74 -19 q35 -82 51 -121 q12 -51 -35 -74 q-43 -16 -67 35 ZM617 646 q-47 0 -51 59 q4 54 51 58 l246 0 q78 4 74 -90 l0 -636 q8 -121 -125 -118 q-66 0 -109 12 q-51 16 -43 67 q20 43 70 39 q94 -20 86 31 l0 566 q-4 8 -11 12 l-188 0 ZM316 -42 l0 641 q0 51 55 59 q59 -4 63 -55 l0 -645 q-4 -46 -59 -50 q-59 4 -59 50 Z" /><glyph glyph-name="uni4EF6" unicode="&#x4ef6;" d="M473 658 l97 0 l0 133 q0 42 59 46 q58 -4 62 -46 l0 -133 l200 0 q46 -4 50 -59 q-4 -58 -50 -58 l-200 0 l0 -200 l227 0 q43 -4 47 -58 q0 -55 -43 -55 l-231 0 l0 -266 q-4 -46 -62 -50 q-59 4 -59 50 l0 266 l-246 0 q-47 0 -47 55 q4 54 51 58 l242 0 l0 200 l-125 0 q-31 -94 -35 -102 q-23 -47 -78 -35 q-51 15 -35 62 q43 114 82 293 q55 78 109 -4 q0 -43 -15 -97 ZM51 462 q78 141 136 344 q20 43 71 27 q39 -19 31 -70 q-23 -94 -47 -172 l0 -601 q-4 -55 -58 -59 q-59 4 -59 59 l0 386 q-39 -35 -74 0 q-28 36 0 86 Z" /><glyph glyph-name="uni4EFB" unicode="&#x4efb;" d="M62 373 q-39 27 -11 78 q94 160 152 343 q8 47 70 36 q47 -12 39 -67 q-19 -58 -50 -160 l0 -621 q-4 -47 -63 -51 q-58 0 -58 47 l0 410 q-32 -47 -79 -15 ZM379 755 q133 0 258 12 q121 16 215 35 q46 4 62 -35 q16 -62 -35 -78 q-106 -23 -199 -27 l0 -211 l226 0 q43 -4 47 -59 q-4 -59 -47 -59 l-226 0 l0 -253 l211 0 q43 -4 46 -59 q-3 -47 -46 -51 l-547 0 q-51 4 -55 51 q0 55 51 59 l219 0 l0 253 l-219 0 q-51 0 -55 59 q4 55 55 59 l219 0 l0 199 q-106 -8 -164 -8 q-67 -8 -59 51 q-8 58 43 62 Z" /><glyph glyph-name="uni4EFD" unicode="&#x4efd;" d="M31 376 q0 20 35 86 q86 172 125 340 q8 43 63 39 q51 -11 47 -58 q-20 -86 -51 -196 l0 -144 q102 137 187 351 q20 43 75 28 q47 -20 35 -67 q-55 -156 -129 -261 l379 0 q-74 105 -129 273 q-20 51 27 70 q55 16 78 -31 q75 -219 184 -336 q23 -35 4 -70 q-39 -51 -78 -12 q0 -359 -43 -410 q-31 -47 -125 -47 q-106 4 -156 12 q-55 19 -47 70 q15 43 74 39 q0 -4 4 -4 q86 -11 121 -4 q47 -7 51 98 q4 98 8 215 q0 23 -20 23 l-172 0 q-35 -293 -164 -422 q-39 -46 -70 -46 q-78 11 -47 86 q0 3 12 15 q144 156 156 367 l-74 0 q-28 0 -32 24 q-43 -51 -82 -28 q-23 8 -27 47 l0 -449 q-4 -51 -59 -55 q-58 4 -58 55 l0 383 q-24 -43 -63 -39 q-39 12 -39 58 Z" /><glyph glyph-name="uni4F01" unicode="&#x4f01;" d="M82 564 q191 94 375 242 q43 31 105 4 q28 -19 51 -35 q114 -94 305 -203 q55 -35 35 -86 q-27 -51 -82 -20 q-164 90 -340 227 q-23 15 -39 -4 q-191 -148 -347 -227 q-67 -31 -94 8 q-24 59 31 94 ZM457 64 l0 480 q0 51 59 55 q58 -4 62 -55 l0 -160 l270 0 q47 -4 50 -58 q0 -59 -46 -59 l-274 0 l0 -203 l313 0 q54 -4 58 -51 q0 -58 -54 -62 l-797 0 q-47 4 -51 58 q4 51 51 55 l74 0 l0 340 q0 47 58 51 q59 -8 63 -55 l0 -336 l164 0 Z" /><glyph glyph-name="uni4F0D" unicode="&#x4f0d;" d="M35 443 q82 156 141 363 q11 43 62 35 q51 -15 47 -58 q-19 -90 -39 -157 l0 -652 q-4 -51 -62 -58 q-59 3 -59 54 l0 414 q-27 -43 -70 -19 q-43 35 -20 78 ZM344 689 q-51 0 -55 59 q4 58 55 62 l547 0 q46 -4 50 -62 q-4 -59 -50 -59 l-274 0 l-19 -168 l199 0 q101 8 90 -98 q-4 -101 -12 -230 q0 -110 0 -129 l39 0 q47 -4 51 -55 q-4 -54 -51 -58 l-609 0 q-47 4 -47 58 q0 51 47 55 l121 0 q19 141 43 336 l-121 0 q-47 0 -51 58 q4 59 51 63 l140 0 l20 168 l-164 0 ZM762 64 q11 148 11 312 q-3 20 -19 24 l-168 0 q-12 -82 -27 -195 q-12 -90 -16 -141 l219 0 Z" /><glyph glyph-name="uni4F17" unicode="&#x4f17;" d="M82 568 q184 86 344 238 q43 43 70 43 q27 0 82 -51 q4 -4 8 -4 q121 -121 316 -218 q63 -35 47 -86 q-23 -55 -90 -28 q-132 51 -316 223 q-39 31 -51 35 q-8 0 -23 -19 q-12 -16 -16 -20 q-152 -137 -312 -219 q-75 -39 -98 20 q-27 55 39 86 ZM47 21 q152 199 199 445 q8 67 70 55 q51 -8 43 -66 q-7 -20 -11 -51 q-8 -35 -12 -51 q19 -39 39 -74 q39 -63 94 -164 q19 -47 8 -71 q97 149 140 418 q8 63 67 51 q58 -8 46 -66 q-3 -35 -15 -90 q-4 -16 -4 -35 q86 -172 246 -305 q39 -31 4 -78 q-47 -43 -90 -4 q-137 129 -199 250 q-63 -156 -117 -230 q-35 -51 -86 -28 q-43 24 -28 71 q8 23 32 43 q-47 -47 -98 7 q-27 51 -86 160 q-59 -144 -137 -238 q-43 -47 -82 -27 q-50 27 -23 78 Z" /><glyph glyph-name="uni4F18" unicode="&#x4f18;" d="M47 458 q121 145 187 340 q20 47 71 35 q54 -19 39 -66 q-32 -86 -55 -133 q-12 -31 -12 -35 l0 -633 q-4 -50 -58 -58 q-59 8 -59 58 l0 450 q-12 -12 -15 -20 q-47 -55 -90 -31 q-47 35 -8 93 ZM535 619 q0 39 0 117 q4 35 4 43 q-4 51 51 54 q55 0 58 -50 q0 -4 -3 -12 q-4 -59 -4 -152 l257 0 q47 -4 51 -59 q0 -59 -43 -59 l-277 0 l-12 -70 q67 70 106 -19 l0 -325 q-8 -54 39 -46 l47 0 q35 -20 35 148 q0 51 51 55 q46 -8 54 -59 q24 -273 -137 -254 l-66 0 q-141 0 -137 106 l0 320 q-62 -254 -218 -402 q-47 -39 -94 -4 q-39 35 8 74 q187 176 218 476 l-179 0 q-51 0 -55 55 q0 59 51 63 l195 0 ZM805 650 q-43 31 -94 78 q-47 31 -12 78 q35 35 86 4 q55 -43 94 -74 q35 -47 8 -86 q-39 -35 -82 0 Z" /><glyph glyph-name="uni4F1A" unicode="&#x4f1a;" d="M82 572 q184 58 367 230 q43 35 74 39 q24 0 67 -39 q8 -4 15 -8 q157 -136 332 -222 q43 -28 20 -86 q-27 -43 -78 -24 q-4 0 -27 12 q-32 20 -63 43 q27 -82 -39 -86 l-465 0 q-66 4 -47 82 q-39 -23 -86 -43 q-11 -4 -15 -4 q-63 -23 -90 24 q-24 58 35 82 ZM750 541 q-98 58 -230 164 q-106 -94 -235 -164 l465 0 ZM133 240 q-47 0 -47 54 q0 51 47 55 l758 0 q39 -4 46 -55 q-3 -54 -42 -54 l-477 0 q12 -20 -12 -51 q-47 -59 -70 -90 q-31 -43 -39 -51 l414 12 q-12 12 -27 31 q-20 28 -28 43 q-31 47 16 82 q47 24 86 -19 q23 -35 47 -67 q66 -93 93 -129 q28 -46 -11 -82 q-47 -27 -86 12 q-12 12 -20 27 q-4 4 -4 4 q-132 -7 -300 -11 q-153 -4 -262 -8 q-67 0 -78 39 q-8 39 39 94 q43 54 125 164 l-168 0 Z" /><glyph glyph-name="uni4F20" unicode="&#x4f20;" d="M59 482 q86 129 152 312 q16 51 70 43 q51 -19 43 -70 q-19 -70 -62 -176 l0 -617 q-4 -55 -59 -58 q-58 0 -58 50 l0 438 q-43 -51 -90 -16 q-32 35 4 94 ZM371 751 l133 0 q0 4 4 28 q4 15 8 23 q7 39 66 39 q55 -11 51 -50 q-4 -8 -8 -40 l273 0 q47 -3 51 -58 q-4 -59 -51 -59 l-296 0 l-16 -93 l320 0 q47 -4 55 -59 q0 -59 -43 -59 l-356 0 l-11 -74 q-8 -31 31 -27 l305 0 q78 -16 50 -90 q-58 -82 -160 -176 q20 -8 55 -19 q31 -12 55 -16 q39 -16 23 -70 q-19 -55 -58 -43 q-192 70 -387 113 q-67 20 -47 74 q27 51 98 39 q19 -8 70 -19 q47 -16 70 -20 q78 74 98 90 q8 8 4 16 q-4 4 -20 7 l-246 0 q-86 -3 -70 90 q12 59 23 125 l-113 0 q-51 0 -55 59 q4 55 55 59 l137 0 l19 93 l-117 0 q-51 0 -55 59 q4 55 55 58 Z" /><glyph glyph-name="uni4F46" unicode="&#x4f46;" d="M35 435 q0 16 20 55 q54 129 97 301 q12 50 71 46 q58 -11 50 -62 q-11 -63 -43 -172 q-3 -8 -3 -12 l0 -644 q-4 -39 -63 -39 q-55 8 -55 47 l0 425 q-74 -27 -74 55 ZM324 697 q-4 97 78 94 l414 0 q90 3 86 -83 l0 -492 q12 -90 -101 -78 l-391 0 q-98 -15 -86 94 l0 465 ZM441 521 l344 0 l0 129 q-4 23 -23 27 l-289 0 q-32 0 -32 -23 l0 -133 ZM473 251 l289 0 q27 -7 23 28 l0 129 l-344 0 l0 -133 q0 -24 32 -24 ZM324 -53 q-62 4 -66 54 q4 47 62 51 l590 0 q59 -4 63 -51 q-4 -50 -63 -54 l-586 0 Z" /><glyph glyph-name="uni4F4D" unicode="&#x4f4d;" d="M566 728 q-23 20 -31 39 q-27 86 78 82 q110 -74 86 -121 l196 0 q50 -4 58 -59 q-4 -58 -55 -58 l-546 0 q-55 0 -59 58 q4 55 59 59 l214 0 ZM39 423 q94 192 129 379 q12 43 74 35 q51 -11 51 -58 q-16 -86 -47 -176 l0 -641 q-4 -54 -59 -58 q-58 4 -58 58 l0 395 q-27 -39 -74 -12 q-39 31 -16 78 ZM418 150 q-12 47 -43 211 q-12 62 -23 133 q-8 54 46 66 q55 8 75 -47 q19 -113 43 -234 q15 -102 19 -117 q-4 -51 -55 -59 q-54 0 -62 47 ZM664 64 q63 273 82 457 q8 39 70 35 q47 -8 51 -51 q0 -121 -74 -441 l113 0 q47 -4 55 -47 q0 -59 -47 -62 l-590 0 q-58 3 -58 58 q4 47 62 51 l336 0 Z" /><glyph glyph-name="uni4F53" unicode="&#x4f53;" d="M23 466 q133 188 176 356 q12 35 71 23 q46 -12 46 -54 q-19 -86 -46 -149 q-16 -43 -12 -47 l0 -613 q-4 -51 -63 -59 q-58 8 -58 59 l0 434 q-43 -63 -94 -32 q-43 35 -20 82 ZM352 705 l203 0 l0 82 q0 50 54 58 q63 0 67 -51 l0 -89 l222 0 q59 -4 63 -63 q-4 -59 -59 -59 l-207 0 q67 -175 270 -394 q31 -55 4 -94 q-51 -35 -98 4 q-39 31 -66 82 q15 -70 -43 -78 l-86 0 l0 -137 q-4 -50 -63 -58 q-58 8 -58 58 l0 137 l-86 0 q-55 -4 -51 59 q-4 -4 -8 -12 q-23 -27 -39 -43 q-43 -39 -90 -4 q-39 43 -4 90 q160 160 243 390 l-168 0 q-55 0 -59 59 q4 59 59 63 ZM555 373 q-47 -86 -102 -161 q4 0 12 0 q4 4 8 4 l82 0 l0 157 ZM770 220 q-71 86 -94 153 l0 -153 l94 0 Z" /><glyph glyph-name="uni4F55" unicode="&#x4f55;" d="M789 658 l-410 0 q-47 0 -51 58 q0 63 47 67 l539 0 q47 -4 55 -59 q0 -62 -43 -66 l-16 0 l0 -598 q8 -203 -316 -117 q-55 19 -47 78 q19 43 78 35 q180 -47 164 24 l0 578 ZM406 126 q-86 -7 -78 86 l0 313 q-4 70 70 70 l262 0 q70 0 70 -70 l0 -320 q8 -86 -78 -79 l-246 0 ZM609 466 q0 16 -15 16 l-125 0 q-24 0 -20 -16 l0 -211 q-4 -19 24 -15 l121 0 q15 0 15 15 l0 211 ZM35 419 q121 223 156 368 q16 58 79 50 q58 -15 46 -74 q-4 0 -23 -70 q-27 -82 -31 -98 l0 -637 q-4 -46 -63 -50 q-58 0 -58 47 l0 414 q-12 -20 -20 -28 q-35 -31 -74 0 q-35 35 -12 78 Z" /><glyph glyph-name="uni4F5A" unicode="&#x4f5a;" d="M469 673 l97 0 l0 110 q0 50 55 50 q55 -3 59 -50 l0 -110 l187 0 q39 0 43 -50 q-4 -55 -43 -55 l-191 0 q0 -47 -8 -129 l227 0 q39 -4 42 -51 q-3 -55 -42 -55 l-231 0 q86 -183 266 -304 q43 -31 11 -86 q-39 -31 -93 4 q-157 105 -231 258 q-62 -164 -207 -282 q-55 -31 -94 8 q-27 51 12 86 q152 117 203 316 l-179 0 q-51 0 -51 55 q0 51 51 51 l199 0 q4 35 8 66 q0 36 3 63 l-121 0 q-7 -12 -19 -47 q-8 -16 -8 -23 q-31 -59 -86 -36 q-43 20 -19 86 q46 98 62 203 q12 63 78 47 q39 -11 28 -74 q-4 -27 -8 -51 ZM47 470 q98 156 133 305 q19 58 86 43 q46 -12 31 -74 q-12 -55 -24 -82 l0 -688 q0 -58 -54 -58 q-55 0 -55 58 l0 453 q-43 -82 -98 -43 q-50 28 -19 86 Z" /><glyph glyph-name="uni4F5C" unicode="&#x4f5c;" d="M309 486 q89 148 121 293 q11 51 66 51 q59 -16 55 -67 q-4 -12 -4 -23 q-4 -28 -8 -39 l363 0 q47 -4 51 -63 q-4 -62 -51 -62 l-261 0 l0 -118 l234 0 q47 -3 55 -62 q-4 -59 -51 -59 l-238 0 l0 -125 l242 0 q47 -4 54 -58 q-3 -59 -50 -59 l-246 0 l0 -137 q-4 -42 -63 -46 q-58 4 -58 46 l0 622 l-24 0 q-62 -149 -105 -200 q-51 -43 -98 0 q-27 39 16 106 ZM59 439 q97 133 160 363 q11 39 70 28 q51 -20 43 -63 q-31 -129 -70 -215 l0 -578 q-4 -47 -59 -55 q-58 0 -58 47 l0 391 q-43 -35 -83 -4 q-35 39 -3 86 Z" /><glyph glyph-name="uni4F60" unicode="&#x4f60;" d="M31 369 q114 156 133 402 q0 82 66 78 q55 -4 55 -74 q-8 -86 -31 -192 q-4 -11 -4 -23 l0 -605 q-4 -43 -59 -47 q-58 4 -58 47 l0 347 q-43 -51 -90 -23 q-43 35 -12 90 ZM281 486 q74 113 121 293 q16 62 67 62 q62 -8 62 -58 q-4 -16 -11 -47 q-8 -24 -8 -31 l375 0 q101 0 90 -79 q-20 -160 -63 -195 q-27 -12 -47 0 q70 -219 82 -301 q4 -15 8 -15 q4 -67 -35 -74 q-63 -20 -82 54 q-8 28 -20 63 q-43 172 -78 281 q-15 39 16 62 q39 20 74 -3 q0 11 8 35 q8 19 12 31 q3 27 -16 27 l-125 0 l0 -570 q0 -117 -98 -117 q-86 4 -117 12 q-78 19 -82 66 q8 51 74 47 q12 -4 32 -8 q78 -12 74 23 l0 547 l-117 0 q-79 -160 -114 -195 q-51 -31 -86 4 q-27 31 4 86 ZM316 126 q59 122 106 332 q15 51 78 43 q51 -15 43 -74 q-43 -199 -109 -344 q-39 -54 -94 -39 q-51 24 -24 82 Z" /><glyph glyph-name="uni4F6C" unicode="&#x4f6c;" d="M47 443 q78 144 113 336 q8 70 78 58 q51 -15 43 -78 q-23 -109 -39 -172 l0 -632 q-4 -39 -58 -43 q-55 4 -55 43 l0 402 q-39 -27 -70 4 q-36 35 -12 82 ZM352 751 l152 0 l0 47 q0 39 58 43 q55 -4 59 -43 l0 -47 l152 0 q28 -3 36 -19 q15 27 31 43 q27 23 74 -4 q35 -31 12 -82 q-28 -51 -86 -121 q-8 -8 -8 -8 l98 0 q39 -4 43 -59 q-4 -54 -43 -54 l-188 0 q-90 -86 -226 -176 l0 -31 q140 43 289 113 q54 27 86 -20 q19 -58 -28 -85 q-125 -71 -347 -125 l0 -40 q-4 -46 43 -42 l160 0 q133 -16 121 121 q0 46 58 50 q55 0 55 -58 q-4 -78 -19 -129 q-43 -86 -164 -94 l-223 0 q-156 0 -152 117 l0 153 q-12 -8 -8 -4 q-35 -24 -67 -28 q-54 -15 -66 32 q-20 54 23 70 q188 86 297 176 l-277 0 q-47 0 -47 54 q0 55 47 59 l207 0 l0 78 l-152 0 q-47 0 -47 55 q0 55 47 58 ZM621 560 l51 0 q12 12 43 47 q15 23 23 31 l-117 0 l0 -78 Z" /><glyph glyph-name="uni4F73" unicode="&#x4f73;" d="M55 478 q74 102 129 309 q15 54 74 43 q47 -16 47 -75 q-8 -62 -43 -140 l0 -633 q-4 -63 -63 -70 q-58 7 -58 70 l0 406 q-47 -47 -90 -8 q-35 43 4 98 ZM559 716 l0 51 q0 51 58 59 q59 -8 63 -59 l0 -51 l195 0 q47 -4 51 -58 q-4 -55 -51 -55 l-195 0 l0 -94 l230 0 q47 -4 51 -58 q-4 -55 -51 -55 l-574 0 q-47 0 -47 55 q0 54 47 58 l223 0 l0 94 l-180 0 q-47 0 -47 55 q0 54 47 58 l180 0 ZM359 283 l200 0 l0 43 q0 47 58 50 q59 -3 63 -50 l0 -43 l203 0 q51 -4 54 -59 q-3 -55 -54 -55 l-203 0 l0 -109 l226 0 q51 -4 55 -51 q-4 -51 -55 -54 l-574 0 q-47 3 -51 54 q4 47 51 51 l227 0 l0 109 l-200 0 q-47 0 -47 55 q0 55 47 59 Z" /><glyph glyph-name="uni4F7F" unicode="&#x4f7f;" d="M31 427 q0 8 16 39 q74 145 113 325 q12 46 67 42 q50 -11 46 -62 q-3 -12 -15 -59 q12 43 58 39 l235 0 l0 36 q0 43 58 46 q55 -3 59 -46 l0 -36 l238 0 q55 -3 59 -54 q0 -59 -51 -59 l-246 0 l0 -66 l156 0 q106 8 102 -90 l0 -156 q8 -114 -102 -98 l-164 0 q-12 -113 -39 -156 q51 -20 117 -28 q67 -7 164 -3 q63 -8 67 -55 q-8 -55 -71 -59 q-242 0 -355 55 q-55 -43 -172 -70 q-70 -8 -86 39 q-8 58 59 70 q51 0 90 20 q-75 42 -106 89 q-47 71 20 98 q-59 -8 -55 74 l0 168 q-12 113 82 102 l176 0 l0 66 l-239 0 q-62 -4 -58 51 q-4 -16 -20 -74 l0 -633 q-4 -47 -54 -51 q-55 4 -55 51 l0 410 q-23 -31 -66 -16 q-36 12 -28 51 ZM402 349 q-4 -19 16 -16 l133 0 l0 133 l-133 0 q-20 -4 -16 -15 l0 -102 ZM797 333 q15 -3 19 16 l0 98 q-4 15 -19 19 l-129 0 l0 -133 l129 0 ZM379 228 q19 -4 70 -47 q35 -39 67 -55 q19 36 27 102 l-164 0 Z" /><glyph glyph-name="uni4F8B" unicode="&#x4f8b;" d="M55 376 q-43 20 -20 67 q74 137 121 344 q8 58 71 46 q50 -11 39 -62 q7 23 35 23 l312 0 q51 0 51 -62 q4 31 63 27 q39 -8 43 -47 l0 -558 q-4 -47 -55 -47 q-55 0 -55 47 l0 566 q-8 -43 -47 -39 l-152 0 q-4 -19 -12 -51 q0 -19 0 -19 l106 0 q82 4 86 -113 q15 -438 -301 -563 q-63 -23 -86 16 q-27 66 23 86 q118 50 172 136 q-19 20 -47 67 q-31 43 -47 66 q-39 -82 -93 -62 q-35 7 -39 39 l0 -325 q-4 -39 -55 -42 q-55 3 -55 42 l0 422 q-23 -23 -58 -4 ZM793 41 q35 -4 35 31 l0 699 q55 82 109 0 l0 -719 q0 -121 -101 -121 q-66 0 -117 16 q-86 15 -63 74 q12 39 67 27 q43 -7 70 -7 ZM340 685 l-39 0 q-43 -4 -43 51 q-20 -67 -35 -129 l0 -293 q0 23 23 62 q74 125 94 309 ZM500 294 q16 59 20 172 q0 35 -24 35 l-66 0 q-16 -58 -28 -82 q0 -7 8 -15 q67 -78 90 -110 Z" /><glyph glyph-name="uni4F9B" unicode="&#x4f9b;" d="M55 373 q-43 15 -12 78 q74 144 121 320 q16 66 86 47 q43 -12 27 -74 q-4 -4 -7 -16 q-24 -90 -36 -117 l0 -645 q-4 -47 -54 -54 q-51 4 -51 50 l0 414 q-31 -31 -74 -3 ZM398 662 l0 101 q0 51 55 59 q55 -4 59 -55 l0 -105 l199 0 l0 101 q0 51 55 59 q54 -4 58 -55 l0 -105 l78 0 q51 -4 55 -59 q-4 -55 -55 -55 l-78 0 l0 -191 l98 0 q43 -4 47 -59 q-4 -54 -47 -54 l-610 0 q-54 0 -62 54 q4 55 59 59 l89 0 l0 191 l-78 0 q-54 0 -58 55 q4 55 58 59 l78 0 ZM512 357 l199 0 l0 191 l-199 0 l0 -191 ZM285 13 q55 47 125 160 q31 59 82 32 q47 -20 16 -86 q-47 -82 -121 -161 q-47 -54 -94 -27 q-47 35 -8 82 ZM949 -65 q-58 -35 -86 16 q-15 19 -58 70 q-51 59 -71 90 q-47 51 -4 86 q40 35 82 -8 q32 -39 118 -148 q15 -20 23 -20 q39 -63 -4 -86 Z" /><glyph glyph-name="uni4F9D" unicode="&#x4f9d;" d="M340 701 l222 0 q-3 4 -23 47 q-23 46 20 70 q50 23 89 -12 q16 -31 32 -55 q19 -39 0 -50 l230 0 q51 -4 59 -59 q-4 -59 -55 -59 l-230 0 q11 -121 46 -210 q51 46 102 101 q12 16 16 20 q39 35 82 4 q39 -40 7 -82 q-50 -75 -164 -168 q32 -90 161 -227 q31 -35 -12 -74 q-51 -28 -90 8 q-176 152 -258 519 q-39 -55 -78 -105 l0 -289 q-12 -39 98 15 q47 16 70 -27 q20 -47 -23 -70 q-75 -43 -153 -63 q-113 -31 -109 63 l0 238 q-16 -20 -43 -47 q-59 -47 -90 -8 l0 -207 q-4 -47 -59 -55 q-58 4 -58 51 l0 410 q-35 -31 -74 -4 q-39 32 -12 82 q98 153 141 329 q11 46 66 39 q59 -16 51 -63 q-12 -47 -47 -152 q-8 -16 -8 -24 l0 -320 q8 12 27 31 q16 12 36 35 q128 141 195 250 l-164 0 q-55 0 -59 59 q4 55 59 59 Z" /><glyph glyph-name="uni4FA0" unicode="&#x4fa0;" d="M543 740 l0 51 q0 50 59 58 q58 -4 62 -55 l0 -54 l227 0 q46 -4 54 -55 q0 -59 -47 -59 l-238 0 q0 20 -4 -89 q0 -43 0 -79 q-4 -70 -8 -109 l266 0 q51 -4 55 -58 q-4 -55 -55 -55 l-203 0 q74 -113 219 -215 q47 -31 15 -86 q-35 -39 -90 -8 q-140 94 -246 254 q-113 -172 -265 -250 q-63 -27 -90 27 q-16 55 51 86 q144 86 195 192 l-203 0 q-47 0 -51 55 q4 54 51 58 l234 0 q12 133 12 277 l-207 0 q-47 0 -47 55 q0 55 47 59 l207 0 ZM35 435 q86 148 149 367 q11 47 70 35 q51 -15 43 -62 q-27 -113 -63 -223 l0 -586 q-4 -47 -58 -54 q-59 0 -59 46 l0 407 q-39 -32 -74 -4 q-31 31 -8 74 ZM727 443 q31 78 50 140 q16 43 71 32 q47 -16 39 -63 q-20 -101 -55 -160 q-31 -51 -82 -31 q-47 27 -23 82 ZM367 408 q-8 15 -23 54 q-20 47 -28 75 q-23 46 24 70 q51 16 82 -27 q31 -63 55 -125 q15 -67 -32 -90 q-54 -16 -78 43 Z" /><glyph glyph-name="uni4FA6" unicode="&#x4fa6;" d="M43 478 q102 148 129 336 q12 43 66 35 q51 -16 47 -62 q-12 -79 -55 -204 l0 -601 q-3 -59 -58 -63 q-55 4 -55 59 l0 410 q-47 -23 -78 8 q-23 35 4 82 ZM492 603 l0 195 q0 51 59 55 q58 -4 62 -55 l0 -15 l274 0 q58 -4 62 -59 q-4 -55 -58 -55 l-278 0 l0 -66 l207 0 q71 0 71 -78 l0 -348 q-4 -58 -63 -62 q-58 4 -58 66 l0 277 q3 24 -20 24 l-309 0 q-27 0 -23 -20 l0 -281 q-4 -58 -59 -66 q-62 0 -62 58 l0 340 q-4 86 78 90 l117 0 ZM301 21 q246 66 234 367 q-4 55 51 59 q59 -4 62 -55 q16 -379 -308 -473 q-67 -15 -90 32 q-12 54 51 70 ZM848 -73 q-20 16 -36 24 q-70 58 -164 101 q-54 31 -27 82 q27 43 90 20 q109 -55 211 -133 q35 -39 4 -86 q-35 -39 -78 -8 Z" /><glyph glyph-name="uni4FA7" unicode="&#x4fa7;" d="M59 494 q62 152 93 308 q12 43 59 43 q51 -12 55 -54 q-8 -51 -28 -125 l0 -696 q-4 -47 -54 -51 q-55 4 -55 51 l0 430 q-27 -39 -70 -4 q-36 20 0 98 ZM824 68 l0 715 q0 43 55 47 q51 -4 55 -47 l0 -762 q0 -86 -102 -94 q-55 -4 -86 12 q-51 19 -43 66 q20 39 70 36 q59 -20 51 27 ZM281 228 l0 492 q-4 74 86 74 l203 0 q86 0 86 -82 l0 -484 q-4 -51 -54 -55 q-51 4 -51 55 l0 445 q-4 8 -12 12 l-141 0 q-11 -4 -11 -12 l0 -445 q-4 -59 -55 -62 q-51 3 -51 62 ZM687 166 l0 566 q0 43 51 47 q47 -4 51 -47 l0 -566 q-4 -47 -51 -51 q-51 4 -51 51 ZM277 5 q137 118 141 336 l0 274 q0 43 51 47 q47 -4 51 -47 l0 -262 q3 -281 -168 -422 q-43 -31 -79 0 q-35 43 4 74 ZM605 -49 q-19 19 -50 54 q-32 28 -47 47 q-35 43 0 78 q43 28 86 -11 q15 -20 90 -98 q23 -39 -8 -70 q-39 -28 -71 0 Z" /><glyph glyph-name="uni4FC4" unicode="&#x4fc4;" d="M39 466 q94 164 129 340 q74 70 105 -19 q-7 -43 -39 -157 q-11 -31 -11 -39 l0 -625 q-4 -54 -55 -58 q-55 0 -55 50 l0 434 q-35 -31 -74 -4 q-23 28 0 78 ZM508 576 l125 0 l0 211 q0 46 54 50 q51 -4 55 -50 l0 -211 l168 0 q43 -4 47 -51 q-4 -51 -47 -51 l-164 0 q0 -31 0 -94 q4 -62 8 -89 q23 50 43 113 q15 39 66 31 q47 -19 35 -62 q-46 -129 -101 -235 q8 -43 27 -62 q8 -16 16 -16 q8 0 12 16 q0 4 0 15 q3 35 3 67 q0 43 51 47 q47 -4 51 -47 q4 -125 -31 -188 q-71 -94 -168 16 q-28 31 -43 58 q-51 -46 -98 -78 q-55 -35 -97 4 q-36 47 11 78 q90 63 137 121 q-16 59 -23 137 q-8 70 -8 168 l-133 0 l0 -137 q12 0 39 8 q16 8 27 12 q39 4 51 -47 q0 -43 -43 -59 q-43 -19 -74 -23 l0 -176 q0 -125 -117 -125 q-67 4 -94 16 q-55 27 -43 70 q20 35 78 28 q67 -20 67 35 l0 132 q-43 -11 -94 -11 q-59 -8 -63 47 q0 54 59 62 q27 -4 47 0 q23 4 51 12 l0 156 l-98 0 q-43 0 -47 51 q0 47 43 51 l105 0 l0 113 q-19 -8 -66 -4 q-43 0 -47 47 q0 51 39 59 q98 3 211 31 q35 4 55 -35 q12 -43 -20 -59 q-27 -20 -62 -23 l0 -129 ZM848 634 q-36 43 -75 102 q-23 35 8 62 q35 28 71 -4 q54 -62 82 -101 q19 -47 -16 -74 q-39 -24 -70 15 Z" /><glyph glyph-name="uni4FDD" unicode="&#x4fdd;" d="M160 794 q8 43 63 39 q47 -11 47 -54 q-24 -125 -40 -180 l0 -633 q-3 -47 -54 -54 q-55 4 -55 50 l0 411 q-70 -40 -86 35 q0 27 24 78 q62 121 101 308 ZM406 458 q-113 -11 -101 83 l0 179 q-4 82 97 82 l407 0 q93 4 89 -86 l0 -175 q4 -90 -82 -83 l-164 0 l0 -50 l258 0 q47 -4 51 -59 q-8 -51 -55 -51 l-226 0 q93 -125 254 -242 q35 -35 11 -66 q-43 -47 -109 0 q-74 43 -184 172 l0 -192 q-4 -51 -54 -58 q-59 0 -59 50 l0 204 q-94 -129 -180 -180 q-50 -35 -93 4 q-36 31 11 74 q133 105 223 234 l-180 0 q-58 0 -62 55 q4 51 62 55 l219 0 l0 50 l-133 0 ZM418 587 q-8 -31 27 -23 l317 0 q23 -4 23 19 l0 90 q0 24 -23 24 l-317 0 q-31 0 -27 -24 l0 -86 Z" /><glyph glyph-name="uni4FE1" unicode="&#x4fe1;" d="M570 751 q-15 16 -19 40 q19 78 97 35 q39 -55 24 -75 l254 0 q39 -3 47 -54 q-4 -51 -43 -51 l-602 0 q-47 0 -47 51 q0 51 47 54 l242 0 ZM35 427 q98 199 137 371 q12 35 58 32 q43 -8 47 -47 q0 -39 -39 -188 l0 -621 q-4 -51 -54 -58 q-59 0 -59 50 l0 407 q-98 -40 -90 54 ZM359 486 q-50 0 -54 51 q4 50 54 54 l508 0 q47 -4 51 -54 q-4 -51 -51 -51 l-508 0 ZM367 326 q-55 0 -58 50 q3 51 58 55 l496 0 q51 -4 59 -55 q-8 -50 -59 -50 l-496 0 ZM363 -53 q-70 0 -66 78 l0 164 q-4 78 66 78 l500 0 q71 0 71 -86 l0 -160 q0 -74 -71 -74 l-500 0 ZM426 154 q-20 0 -16 -20 l0 -62 q-4 -28 16 -24 l386 0 q4 0 8 24 l0 62 q0 20 -11 20 l-383 0 Z" /><glyph glyph-name="uni4FEE" unicode="&#x4fee;" d="M359 658 q4 8 24 23 q54 43 97 117 q0 0 0 4 q32 47 63 47 q70 -4 55 -62 l257 0 q71 -4 75 -59 q7 -86 -160 -207 q54 -23 136 -39 q63 -20 59 -59 q-8 -58 -67 -50 q-93 11 -234 78 q-156 -71 -254 -75 q-47 8 -47 59 q4 39 59 51 q94 15 140 35 q-42 31 -89 90 q-36 -39 -71 -39 q-31 0 -43 23 l0 -512 q-4 -46 -50 -46 q-47 0 -47 46 l0 575 q0 47 47 50 q46 -3 50 -50 ZM35 455 q63 121 98 296 q15 75 31 86 q59 24 90 -23 q4 -55 -27 -168 l0 -672 q-4 -55 -55 -55 q-51 4 -51 59 l0 414 q-39 -35 -78 -12 q-35 28 -8 75 ZM551 681 q39 -51 117 -105 q55 35 105 90 q4 3 0 7 q0 4 -7 8 l-215 0 ZM430 310 q105 23 191 106 q35 31 70 -4 q32 -36 0 -71 q-86 -97 -238 -136 q-55 -12 -66 35 q-8 51 43 70 ZM437 158 q165 47 290 179 q43 43 82 12 q39 -39 3 -86 q-128 -156 -347 -215 q-63 -11 -78 35 q-8 59 50 75 ZM414 5 q289 32 441 262 q32 39 79 4 q35 -35 7 -82 q-183 -262 -515 -289 q-55 0 -63 47 q0 47 51 58 Z" /><glyph glyph-name="uni5019" unicode="&#x5019;" d="M31 416 q0 31 28 78 q11 15 19 27 q51 105 78 219 q0 4 0 19 q12 74 55 74 q59 0 59 -46 q0 -39 -28 -110 q-12 -47 -15 -66 l0 -641 q-4 -35 -51 -39 q-47 4 -47 39 l0 430 q-63 -67 -98 16 ZM434 681 q-39 0 -39 55 q3 55 42 58 l344 0 q67 8 67 -82 q-12 -70 -16 -105 l82 0 q35 -4 39 -59 q0 -54 -35 -54 l-340 0 q-8 -12 -12 -20 q-7 -12 -11 -19 l320 0 q43 -4 51 -59 q-4 -55 -47 -55 l-168 0 l0 -58 l207 0 q39 -4 47 -55 q0 -59 -39 -59 l-215 0 q78 -89 226 -148 q43 -23 16 -78 q-27 -47 -78 -27 q-152 78 -215 156 q-66 -82 -215 -149 q-58 -19 -86 24 q-27 54 20 74 q164 51 219 148 l-196 0 q-39 -3 -39 24 l0 -102 q-51 -70 -101 0 l0 555 q50 70 101 0 l0 -277 q8 19 39 47 q20 19 32 31 q3 8 15 23 q8 12 16 24 l-31 0 q-47 0 -51 54 q0 55 47 59 l285 0 q0 0 0 8 q4 23 8 54 q-4 8 -12 12 l-277 0 ZM363 248 q-4 35 39 35 l196 0 l0 58 l-114 0 q-39 -50 -70 -47 q-55 4 -51 51 l0 -97 Z" /><glyph glyph-name="uni503C" unicode="&#x503c;" d="M39 478 q98 121 148 313 q20 62 75 46 q47 -15 39 -78 q-24 -90 -67 -179 l0 -629 q-4 -47 -54 -51 q-55 4 -55 51 l0 453 q-27 -31 -63 -12 q-54 31 -23 86 ZM355 759 l192 0 q4 24 4 35 q0 47 70 43 q51 0 51 -50 q0 -12 -4 -28 l246 0 q43 -4 47 -54 q-4 -55 -47 -55 l-254 0 l-8 -39 l157 0 q89 0 89 -78 l0 -500 l20 0 q43 -4 47 -47 q-4 -51 -47 -55 l-621 0 q-51 4 -55 51 q0 43 51 47 l27 0 l0 504 q-4 78 75 78 l136 0 l4 39 l-180 0 q-46 0 -50 55 q4 50 50 54 ZM453 505 q-23 0 -19 -19 l0 -28 l351 0 l0 28 q0 19 -19 19 l-313 0 ZM785 314 l0 47 l-351 0 l0 -47 l351 0 ZM785 173 l0 47 l-351 0 l0 -47 l351 0 ZM785 33 l0 47 l-351 0 l0 -47 l351 0 Z" /><glyph glyph-name="uni505A" unicode="&#x505a;" d="M27 458 q75 165 114 348 q11 39 74 27 q47 -15 39 -58 q-12 -55 -24 -86 q8 23 47 27 l94 0 l0 82 q0 35 55 39 q54 -4 58 -39 l0 -82 l94 0 q47 -4 51 -58 q-4 -59 -51 -59 l-98 0 l0 -101 l55 0 q31 -4 47 -24 q55 137 78 320 q8 47 59 43 q54 -7 58 -54 q-4 -39 -11 -67 l160 0 q47 -4 47 -62 q-4 -55 -51 -55 q-16 -215 -78 -398 q39 -71 97 -157 q16 -23 28 -31 q15 -39 -28 -78 q-43 -27 -70 8 q-23 27 -86 109 q-8 8 -8 16 q-43 -67 -113 -137 q-94 -39 -98 59 q-15 -16 -31 -16 l-219 0 q-62 0 -58 59 l0 386 q0 79 70 79 l39 0 l0 101 l-82 0 q-62 -4 -66 43 l0 -687 q-4 -43 -59 -47 q-55 4 -55 47 l0 433 q-31 -39 -66 -12 q-31 32 -12 82 ZM770 353 q23 94 39 246 l-63 0 q-4 -23 -23 -82 q7 -62 47 -164 ZM461 76 q8 0 12 11 l0 286 q0 11 -12 11 l-82 0 q-16 0 -12 -11 l0 -286 q0 -11 12 -11 l82 0 ZM711 189 q-4 4 -8 12 q-43 86 -51 144 q-23 -43 -70 -15 l0 -313 q63 59 129 172 Z" /><glyph glyph-name="uni505C" unicode="&#x505c;" d="M570 771 q-8 4 -11 23 q-16 32 27 55 q43 24 74 -23 q31 -47 31 -55 l219 0 q43 -4 47 -59 q-4 -54 -47 -54 l-578 0 q-47 0 -51 54 q4 55 51 59 l238 0 ZM43 435 q90 199 117 363 q4 43 67 39 q46 -15 39 -62 q-32 -102 -39 -164 l0 -645 q-4 -43 -55 -47 q-55 4 -55 47 l0 395 q-35 -20 -62 0 q-28 35 -12 74 ZM391 412 q-79 -8 -71 70 l0 74 q-4 74 75 74 l421 0 q79 0 79 -74 l0 -62 q0 -86 -75 -82 l-429 0 ZM430 537 l0 -36 l351 0 l0 36 l-351 0 ZM258 193 l0 105 q-4 90 74 86 l543 0 q90 4 86 -90 q-8 -62 -24 -113 q-19 -51 -58 -35 q-51 12 -39 55 q-4 0 4 27 q8 23 8 27 q0 24 -20 24 l-449 0 q-20 0 -16 -16 l0 -66 q-4 -43 -55 -51 q-54 4 -54 47 ZM441 130 q-50 0 -54 51 q0 55 50 59 l336 0 q43 -4 47 -55 q0 -55 -43 -55 l-78 0 l0 -109 q4 -129 -148 -113 q-184 8 -156 82 q7 43 66 31 q70 -4 90 -4 q27 0 31 24 l0 89 l-141 0 Z" /><glyph glyph-name="uni50CF" unicode="&#x50cf;" d="M250 658 q35 23 156 117 q74 58 82 62 q67 12 82 -35 l227 0 q78 -11 47 -70 q-12 -16 -74 -78 l85 0 q82 0 82 -82 l0 -106 q0 -82 -70 -78 l-254 0 l-8 -8 q36 -43 71 -93 q19 7 35 15 q74 31 129 63 q47 19 74 -20 q20 -43 -23 -70 q-12 -4 -36 -20 q-27 -11 -39 -15 q36 -133 133 -219 q35 -31 0 -78 q-35 -39 -74 0 q-86 78 -145 262 q-7 -8 -19 -8 q4 -24 12 -86 q0 -8 4 -16 q11 -195 -184 -187 q-66 4 -70 54 q7 59 70 51 q70 -8 74 67 q-74 -59 -297 -125 q-47 -8 -66 35 q-8 35 39 54 q195 63 309 141 q-8 16 -12 31 q-133 -74 -266 -113 q-51 -12 -66 27 q-12 43 39 63 q144 39 246 98 q-8 3 -12 11 q-8 8 -11 12 q-63 -35 -211 -78 q-43 -12 -55 31 q-8 43 35 59 q133 31 176 62 l-102 0 q-82 -4 -78 90 l0 94 q-43 -12 -47 35 q-8 -20 -11 -39 l0 -602 q-4 -50 -59 -58 q-59 4 -59 54 l0 411 q-86 -4 -58 89 q82 153 109 317 q12 51 63 51 q50 -4 50 -55 q0 -43 -23 -117 ZM500 705 q-23 -24 -59 -47 q-7 -4 -7 -4 l199 0 q23 23 35 39 q0 4 0 8 q-4 0 -8 4 l-160 0 ZM578 552 l-187 0 l0 -58 l156 0 q23 27 31 58 ZM668 494 l160 0 l0 58 l-137 0 q-7 -35 -23 -58 Z" /><glyph glyph-name="uni5149" unicode="&#x5149;" d="M434 787 q0 46 62 50 q63 0 66 -46 l0 -309 l348 0 q47 -4 51 -63 q0 -58 -47 -58 l-254 0 l0 -285 q0 -43 35 -39 l102 0 q39 -16 39 129 q0 54 55 58 q54 -4 62 -58 q-4 -98 -8 -137 q-15 -106 -195 -106 l-47 0 q-168 0 -164 118 l0 320 l-121 0 q0 -313 -250 -442 q-70 -39 -106 4 q-35 55 32 94 q125 66 164 133 q39 62 43 211 l-207 0 q-47 0 -47 58 q0 59 47 63 l340 0 l0 305 ZM664 580 q43 74 102 183 q19 39 70 20 q47 -24 35 -67 q-39 -93 -105 -191 q-36 -43 -86 -20 q-43 28 -16 75 ZM230 541 q-39 62 -97 179 q-20 39 27 63 q47 19 74 -20 q43 -70 82 -144 q8 -8 12 -12 q24 -55 -19 -82 q-51 -27 -79 16 Z" /><glyph glyph-name="uni514B" unicode="&#x514b;" d="M90 759 l347 0 l0 55 q0 35 59 35 q59 0 63 -35 l0 -55 l351 0 q39 -4 43 -58 q-4 -55 -43 -55 l-351 0 l0 -63 l238 0 q74 4 70 -78 l0 -179 q4 -82 -66 -78 l-106 0 l0 -180 q0 -35 35 -35 l67 0 q55 -12 55 97 q0 55 54 59 q51 -4 55 -63 q4 -214 -129 -199 l-129 0 q-129 0 -125 94 l0 227 l-152 0 q-47 -250 -309 -344 q-55 -8 -78 35 q-16 51 27 78 q4 4 12 4 q199 62 227 227 l-102 0 q-78 -8 -70 70 l0 191 q0 71 78 74 l226 0 l0 63 l-347 0 q-43 0 -47 55 q4 54 47 58 ZM754 373 l0 82 q0 15 -12 15 l-480 0 q-20 0 -16 -15 l0 -82 q-4 -16 16 -16 l480 0 q12 0 12 16 Z" /><glyph glyph-name="uni514D" unicode="&#x514d;" d="M82 623 q117 66 246 203 q47 39 98 7 q11 -15 15 -31 l289 0 q94 -11 59 -97 q-31 -59 -66 -110 l66 0 q90 -4 90 -90 l0 -191 q0 -98 -94 -94 l-183 0 l0 -148 q0 -31 35 -31 l152 0 q66 -12 63 89 q0 43 54 47 q55 -4 59 -47 q8 -211 -168 -203 l-152 0 q-172 -4 -161 121 l0 82 q-132 -152 -351 -211 q-63 -15 -86 32 q-12 62 43 78 q215 62 312 191 l-175 0 q-90 -4 -86 90 l0 207 q-51 -23 -75 12 q-35 54 16 94 ZM621 689 l-246 0 q-27 -27 -78 -70 q-20 -12 -27 -20 l312 0 l43 63 q8 7 8 15 q0 8 -12 12 ZM426 333 l4 149 l-153 0 q-19 0 -19 -20 l0 -109 q0 -23 19 -20 l149 0 ZM734 333 q20 -7 20 20 l0 109 q0 20 -20 20 l-183 0 l-4 -149 l187 0 Z" /><glyph glyph-name="uni5165" unicode="&#x5165;" d="M285 716 q-58 8 -47 67 q16 58 74 54 q223 -46 290 -230 q97 -324 335 -578 q43 -43 -11 -90 q-47 -31 -86 12 q-238 242 -328 562 q-94 -332 -348 -562 q-47 -43 -90 -12 q-47 51 -8 82 q286 273 368 625 q-63 55 -149 70 Z" /><glyph glyph-name="uni5168" unicode="&#x5168;" d="M35 474 q-27 51 27 86 q204 109 352 242 q43 39 70 31 q28 0 86 -42 q4 0 8 0 q164 -118 352 -227 q54 -39 27 -90 q-31 -43 -86 -19 q-39 15 -74 46 q8 -23 4 -46 q-8 -36 -55 -36 l-199 0 l0 -121 l254 0 q39 -4 43 -54 q-4 -55 -43 -55 l-254 0 l0 -133 l332 0 q39 -4 43 -47 q-4 -51 -43 -54 l-777 0 q-47 3 -51 54 q4 43 51 47 l328 0 l0 133 l-250 0 q-82 55 0 109 l250 0 l0 121 l-200 0 q-62 -3 -58 67 q-4 -4 -8 -8 q-12 -8 -39 -20 q-74 -31 -90 16 ZM781 513 q-113 70 -234 164 q-39 28 -55 31 q-12 0 -43 -27 q-12 -8 -12 -8 q-85 -74 -199 -144 l500 0 q24 -4 43 -16 Z" /><glyph glyph-name="uni516C" unicode="&#x516c;" d="M859 318 q-179 172 -254 445 q-15 51 36 67 q54 7 78 -39 q74 -219 230 -391 q28 -43 -8 -82 q-43 -35 -82 0 ZM62 392 q165 168 235 399 q19 42 74 27 q51 -20 39 -67 q-82 -265 -250 -433 q-43 -43 -94 -12 q-43 39 -4 86 ZM141 87 q109 161 277 368 q43 46 94 7 q39 -43 -4 -97 q-102 -129 -203 -254 q-32 -35 -24 -43 q4 -8 51 -4 q63 4 184 12 q121 4 187 11 q-55 82 -94 149 q-35 55 12 90 q55 23 94 -24 q12 -23 43 -70 q74 -121 140 -223 q24 -47 -15 -86 q-55 -31 -90 16 q-8 12 -16 23 q-11 16 -15 24 q-293 -28 -512 -31 q-176 3 -109 132 Z" /><glyph glyph-name="uni516D" unicode="&#x516d;" d="M441 755 q-19 39 24 67 q55 23 82 -8 q39 -66 51 -90 q7 -39 -4 -55 l324 0 q43 -3 47 -58 q-4 -59 -47 -59 l-824 0 q-47 0 -47 59 q0 55 47 58 l394 0 q-31 39 -47 86 ZM840 -22 q-129 250 -235 426 q-31 47 12 82 q47 31 82 -12 q172 -273 246 -453 q16 -47 -31 -70 q-51 -16 -74 27 ZM90 37 q121 140 211 406 q15 47 74 31 q51 -23 39 -74 q-98 -277 -242 -442 q-43 -35 -86 4 q-35 36 4 75 Z" /><glyph glyph-name="uni5170" unicode="&#x5170;" d="M250 634 q-31 51 -63 114 q-23 46 24 70 q51 15 82 -27 q43 -79 90 -157 l265 0 q12 16 47 82 q43 75 47 75 q28 46 78 27 q43 -27 20 -78 q-28 -55 -63 -110 l102 0 q43 -4 47 -54 q0 -51 -43 -51 l-750 0 q-47 0 -47 55 q4 50 51 54 l113 0 ZM168 255 q-43 0 -51 51 q4 55 47 59 l676 0 q43 -4 47 -55 q-4 -55 -47 -55 l-672 0 ZM94 -38 q-47 4 -47 55 q0 43 47 47 l804 0 q47 -4 55 -43 q0 -55 -47 -59 l-812 0 Z" /><glyph glyph-name="uni5173" unicode="&#x5173;" d="M277 646 q-11 20 -39 51 q-11 19 -27 47 q-31 50 12 82 q43 31 86 -12 q27 -35 74 -106 q23 -50 15 -66 l207 0 q86 152 102 172 q94 55 109 -51 q-15 -31 -50 -90 q-12 -15 -20 -31 l117 0 q51 -4 55 -55 q-4 -50 -55 -50 l-312 0 q-4 -43 -12 -145 l375 0 q35 -4 39 -59 q-4 -54 -39 -54 l-312 0 q101 -168 320 -258 q47 -20 19 -74 q-27 -47 -78 -28 q-254 110 -359 325 q-94 -223 -371 -325 q-55 -15 -82 32 q-24 54 27 70 q242 70 317 258 l-297 0 q-39 0 -43 54 q4 55 43 59 l324 0 q4 70 15 145 l-289 0 q-43 0 -46 54 q3 51 46 55 l129 0 Z" /><glyph glyph-name="uni5176" unicode="&#x5176;" d="M187 736 l0 55 q0 46 59 50 q59 -8 63 -54 l0 -51 l394 0 l0 47 q0 47 55 50 q54 -7 58 -54 l0 -43 l90 0 q43 -4 47 -59 q-4 -54 -47 -54 l-90 0 l0 -379 l86 0 q43 -4 47 -59 q0 -59 -43 -59 l-238 0 q121 -50 238 -105 q43 -23 31 -70 q-23 -51 -70 -35 q-82 35 -250 105 q-62 59 12 105 l-527 0 q-47 0 -51 59 q4 55 51 59 l85 0 l0 379 l-93 0 q-39 0 -43 54 q4 55 47 59 l89 0 ZM703 568 l0 55 l-394 0 l0 -55 l394 0 ZM703 404 l0 58 l-394 0 l0 -58 l394 0 ZM309 244 l394 0 l0 54 l-394 0 l0 -54 ZM363 21 q-82 -43 -226 -105 q-59 -16 -82 27 q-24 55 27 78 q117 43 215 90 q47 15 74 -20 q27 -47 -8 -70 Z" /><glyph glyph-name="uni5177" unicode="&#x5177;" d="M86 240 l39 0 l0 476 q-12 102 90 94 l586 0 q82 0 82 -86 l0 -484 l35 0 q39 -4 47 -59 q-4 -55 -43 -55 l-207 0 q90 -46 215 -105 q39 -20 19 -74 q-35 -55 -86 -31 q-15 7 -109 58 q-94 47 -141 67 q-47 46 -4 85 l-214 0 q42 -46 -16 -85 q-109 -63 -238 -110 q-71 -19 -82 12 q-32 66 19 78 q172 70 219 105 l-211 0 q-47 0 -47 55 q0 55 47 59 ZM766 658 l0 23 q0 20 -20 20 l-488 0 q-20 0 -16 -16 l0 -27 l524 0 ZM766 560 l-524 0 l0 -43 l524 0 l0 43 ZM242 419 l0 -43 l524 0 l0 43 l-524 0 ZM242 279 l0 -39 l524 0 l0 39 l-524 0 Z" /><glyph glyph-name="uni5178" unicode="&#x5178;" d="M562 736 l0 47 q0 47 59 50 q55 -3 59 -50 l0 -47 l136 0 q90 4 86 -86 l0 -410 l16 0 q43 -4 43 -59 q-4 -55 -47 -55 l-211 0 q43 -19 129 -58 q23 -12 51 -24 q0 -3 8 -3 q70 -28 70 -67 q-12 -78 -90 -55 q-19 12 -70 36 q-102 46 -156 66 q-79 55 -4 105 l-282 0 q67 -46 8 -101 q-82 -43 -230 -109 q-63 -16 -86 31 q-16 51 39 74 q78 23 172 78 q4 4 11 8 q20 16 39 19 l-222 0 q-51 0 -55 55 q4 55 55 59 l15 0 l0 402 q-3 94 86 94 l141 0 l0 47 q0 47 59 47 q54 -4 58 -51 l0 -43 l113 0 ZM223 486 l109 0 l0 137 l-94 0 q-19 0 -15 -16 l0 -121 ZM562 486 l0 137 l-113 0 l0 -137 l113 0 ZM785 486 l0 121 q0 16 -15 16 l-90 0 l0 -137 l105 0 ZM332 240 l0 133 l-109 0 l0 -133 l109 0 ZM562 240 l0 133 l-113 0 l0 -133 l113 0 ZM680 240 l105 0 l0 133 l-105 0 l0 -133 Z" /><glyph glyph-name="uni5185" unicode="&#x5185;" d="M461 701 l0 82 q0 47 59 50 q54 -7 58 -54 l0 -78 l254 0 q90 4 86 -90 l0 -586 q0 -90 -102 -90 q-78 0 -156 20 q-51 19 -43 66 q12 43 63 43 q23 -4 43 -8 q89 -27 86 31 l0 485 q-4 15 -16 19 l-215 0 q-8 -62 -16 -113 q43 -39 75 -66 q47 -39 74 -59 q12 -12 23 -23 q71 -59 71 -94 q-16 -78 -82 -51 q-28 12 -75 63 q-39 43 -125 121 q-54 -121 -195 -200 q-62 -31 -98 16 q-23 51 36 90 q175 86 191 316 l-227 0 q-19 -4 -19 -19 l0 -594 q-4 -51 -55 -55 q-54 4 -54 55 l0 641 q-4 82 82 82 l277 0 Z" /><glyph glyph-name="uni518C" unicode="&#x518c;" d="M125 462 l0 278 q0 66 66 70 l204 0 q74 0 74 -62 l0 -286 l66 0 l0 278 q0 62 67 70 l234 0 q70 4 66 -62 l0 -286 l16 0 q43 -4 47 -58 q-4 -55 -47 -55 l-16 0 l0 -344 q0 -93 -90 -89 q-39 0 -58 3 q-24 0 -39 4 q-67 16 -67 67 q12 51 75 43 q19 -8 54 -8 q16 -4 16 27 l0 297 l-148 0 q3 -226 -59 -363 q-63 -106 -121 -31 q-31 -51 -168 -32 q-67 12 -70 59 q3 47 62 47 q82 -12 70 19 l0 301 l-125 0 q-11 -234 -58 -344 q-39 -105 -106 -82 q-43 24 -11 98 q62 137 66 281 l0 47 l-39 0 q-39 0 -39 59 q8 50 47 54 l31 0 ZM234 462 l125 0 l0 215 q-4 20 -19 24 l-86 0 q-20 0 -20 -20 l0 -219 ZM793 462 l0 219 q0 16 -16 20 l-113 0 q-19 -4 -19 -20 l0 -219 l148 0 ZM469 5 q66 125 66 289 l0 55 l-66 0 l0 -344 Z" /><glyph glyph-name="uni518D" unicode="&#x518d;" d="M113 693 q-47 0 -47 55 q0 50 47 54 l778 0 q46 -4 50 -54 q-4 -55 -50 -55 l-329 0 l0 -63 l215 0 q98 4 94 -82 l0 -261 l39 0 q43 -4 43 -59 q-4 -51 -47 -51 l-31 0 l0 -156 q4 -121 -199 -94 q-63 12 -63 63 q8 43 67 43 q0 -4 7 -4 q75 -8 75 31 l0 117 l-512 0 l0 -207 q-4 -43 -59 -47 q-54 4 -54 47 l0 207 l-39 0 q-51 0 -55 51 q0 55 51 59 l43 0 l0 257 q-8 90 93 86 l219 0 l0 63 l-336 0 ZM562 529 l0 -74 l196 0 l0 62 q-4 8 -12 12 l-184 0 ZM262 529 q-12 -4 -12 -12 l0 -62 l199 0 l0 74 l-187 0 ZM562 287 l196 0 l0 74 l-196 0 l0 -74 ZM250 361 l0 -74 l199 0 l0 74 l-199 0 Z" /><glyph glyph-name="uni5192" unicode="&#x5192;" d="M74 509 l0 223 q-8 74 71 70 l710 0 q75 0 75 -66 l0 -235 q-4 -46 -59 -50 q-55 4 -55 50 l0 172 q0 24 -11 24 l-598 0 q-20 0 -16 -24 l0 -164 q-4 -47 -58 -47 q-59 0 -59 47 ZM254 583 q-67 40 0 83 l492 0 q31 -4 35 -43 q0 -40 -31 -40 l-496 0 ZM750 466 l-500 0 q-35 0 -35 39 q0 39 35 43 l500 0 q31 -4 35 -43 q-4 -39 -35 -39 ZM246 -45 q-82 7 -86 66 l0 344 q0 62 74 66 l536 0 q74 -4 74 -66 l0 -344 q0 -66 -63 -66 l-535 0 ZM734 318 q0 12 -11 12 l-442 0 q-11 0 -11 -12 l0 -27 l464 0 l0 27 ZM734 169 l0 39 l-464 0 l0 -39 l464 0 ZM270 87 l0 -31 q0 -12 15 -12 l438 0 q11 0 11 12 l0 31 l-464 0 Z" /><glyph glyph-name="uni5199" unicode="&#x5199;" d="M66 568 l0 164 q-4 70 90 74 l692 0 q93 4 93 -94 q0 -89 -31 -168 q-23 -50 -74 -39 q-51 24 -35 75 q0 3 4 19 q35 90 0 90 l-610 0 q-19 0 -15 -16 l0 -105 q-4 -51 -59 -55 q-55 4 -55 55 ZM207 345 l31 285 q4 39 59 43 q55 -7 58 -47 l-3 -46 l386 0 q47 -4 51 -59 q-4 -59 -51 -59 l-398 0 l-8 -74 q-4 -19 20 -15 l480 0 q82 -4 82 -75 l0 -129 q0 -183 -59 -226 q-46 -51 -222 -8 q-55 16 -43 74 q19 39 74 32 q98 -24 113 -4 q24 11 24 140 l0 59 q0 19 -20 19 l-492 0 q-105 -11 -82 90 ZM94 52 q-51 0 -55 55 q0 59 51 62 l562 0 q47 -3 55 -58 q-4 -59 -51 -59 l-562 0 Z" /><glyph glyph-name="uni51E0" unicode="&#x51e0;" d="M211 724 q0 74 117 78 l363 0 q82 4 82 -90 l0 -605 q0 -55 43 -55 q32 -8 32 55 q0 94 0 187 q0 47 50 51 q51 -4 55 -51 q0 -121 0 -207 q4 -148 -137 -144 q-171 -4 -156 101 l0 606 q-4 23 -31 27 l-277 0 q-20 -4 -24 -27 l0 -133 q4 -328 -160 -559 q-39 -50 -98 -23 q-50 39 -11 86 q160 184 152 535 l0 168 Z" /><glyph glyph-name="uni51FA" unicode="&#x51fa;" d="M437 501 l0 270 q0 51 59 55 q59 -4 63 -55 l0 -270 l195 0 q23 -3 23 28 l0 176 q0 46 55 50 q55 -7 59 -54 l0 -235 q0 -82 -90 -78 l-242 0 l0 -336 l211 0 q27 0 31 31 l0 204 q0 46 54 50 q55 -4 59 -50 l0 -258 q8 -90 -82 -82 l-648 0 q-102 0 -94 74 l0 258 q0 47 55 51 q54 -4 58 -51 l0 -192 q-4 -39 27 -35 l207 0 l0 336 l-250 0 q-89 -8 -78 86 l0 227 q0 50 55 54 q55 -4 59 -54 l0 -168 q-4 -35 27 -32 l187 0 Z" /><glyph glyph-name="uni51FB" unicode="&#x51fb;" d="M449 744 l0 47 q0 42 55 50 q62 -4 66 -47 l0 -50 l282 0 q46 -4 50 -59 q-4 -55 -50 -55 l-282 0 l0 -156 l360 0 q35 -4 35 -62 q-8 -51 -43 -51 l-352 0 l0 -320 l176 0 q39 -8 35 42 l0 204 q0 46 55 50 q59 0 62 -46 l0 -270 q12 -94 -97 -86 l-610 0 q-78 -4 -70 70 l0 266 q0 59 55 62 q58 -3 62 -58 l0 -203 q-4 -35 28 -31 l183 0 l0 320 l-363 0 q-43 0 -47 55 q8 54 51 58 l359 0 l0 156 l-281 0 q-47 0 -51 55 q4 55 51 59 l281 0 Z" /><glyph glyph-name="uni5206" unicode="&#x5206;" d="M730 505 q-82 102 -140 227 q-43 98 47 105 q31 0 74 -78 q4 -4 8 -8 q78 -148 199 -250 q12 -11 19 -15 q16 -20 32 -39 q23 -74 -47 -90 q-39 0 -90 51 q-4 4 -4 8 q4 -243 -12 -348 q-15 -90 -62 -117 q-117 -51 -270 -4 q-62 23 -58 70 q19 51 78 43 q23 -8 78 -16 q47 -7 63 -3 q46 -4 50 50 q12 47 12 266 q-4 23 -23 27 l-204 0 q-78 -336 -300 -445 q-78 -51 -118 -4 q-23 43 8 74 q20 12 59 35 q172 94 230 340 l-121 0 q-35 -4 -47 20 q-7 -8 -19 -20 q-35 -35 -59 -39 q-51 -15 -70 16 q-27 43 4 82 q8 8 27 27 q145 129 196 301 q15 47 70 35 q55 -19 47 -66 q-28 -117 -114 -235 l457 0 Z" /><glyph glyph-name="uni5207" unicode="&#x5207;" d="M70 630 q4 0 71 8 l0 129 q0 39 58 43 q55 -4 59 -43 l0 -121 q125 4 133 8 q35 0 43 -59 q0 -54 -39 -58 q-71 -8 -137 -12 l0 -320 q-4 -16 4 -16 q4 0 19 12 q24 15 74 78 q12 12 16 15 q39 39 86 12 q43 -35 12 -78 q-86 -109 -199 -195 q-125 -47 -129 66 l0 418 q-32 -4 -59 -8 q-47 0 -55 51 q0 59 43 70 ZM449 673 q-39 0 -39 59 q4 55 43 59 l383 0 q109 0 109 -86 l0 -231 q8 -539 -152 -527 q-113 0 -184 27 q-62 86 32 109 q27 -3 54 -11 q43 -8 67 -4 q62 4 62 355 l0 227 q0 23 -12 23 l-125 0 q12 -531 -226 -718 q-51 -47 -106 -4 q-39 43 12 86 q113 101 156 250 q47 136 43 386 l-117 0 Z" /><glyph glyph-name="uni521A" unicode="&#x521a;" d="M805 37 q11 0 15 23 l0 711 q0 47 55 51 q51 -4 55 -51 l0 -750 q0 -82 -90 -86 q-39 0 -70 4 q-28 0 -43 0 q-47 12 -51 59 q8 43 51 46 q0 -3 7 -3 q32 -4 71 -4 ZM82 -22 l0 742 q-8 90 86 86 l363 0 q90 4 86 -101 l0 -684 q0 -82 -105 -86 q-35 -4 -94 8 q-51 15 -43 62 q16 36 66 32 q67 -16 63 11 l0 637 q-4 8 -12 12 l-293 0 q-12 -4 -12 -12 l0 -129 q8 24 40 27 q23 0 54 -42 q0 -4 4 -4 q27 -39 35 -55 q8 -12 16 -20 q16 75 27 149 q8 39 47 39 q51 -4 55 -43 q-8 -106 -55 -258 q16 -35 35 -70 q28 -43 51 -86 q16 -51 -19 -74 q-43 -24 -67 19 q-4 0 -31 51 q-16 27 -20 39 q-50 -102 -86 -152 q-43 -39 -86 4 l0 -102 q-3 -51 -54 -55 q-51 4 -51 55 ZM656 166 l0 527 q0 51 55 55 q51 -4 55 -55 l0 -527 q-4 -47 -55 -51 q-55 4 -55 51 ZM293 333 q-20 36 -66 98 q-20 31 -40 63 l0 -352 q59 78 106 191 Z" /><glyph glyph-name="uni521B" unicode="&#x521b;" d="M66 587 q102 90 172 200 q32 54 82 43 q35 -4 39 -51 q161 -98 219 -141 q43 -47 16 -94 q-39 -43 -86 -3 q-102 74 -199 136 q-51 -66 -102 -121 l227 0 q86 -4 86 -86 l0 -172 q3 -175 -129 -168 q-63 0 -94 12 q-55 20 -51 66 q16 51 70 43 q8 -3 20 -3 q19 -8 31 -4 q35 -8 39 47 l0 140 q-4 8 -11 12 l-168 0 q-12 -4 -12 -12 l0 -332 q0 -55 55 -58 l121 0 q121 -12 109 89 q0 43 55 43 q50 -7 54 -54 q12 -192 -211 -184 l-113 0 q-195 -8 -183 152 l0 379 q-51 -15 -67 32 q-12 46 31 89 ZM816 751 q0 51 55 59 q59 -4 63 -55 l0 -726 q3 -113 -114 -110 q-74 0 -97 4 q-63 16 -59 71 q12 47 74 43 q90 -16 78 27 l0 687 ZM621 212 l0 469 q0 55 55 59 q58 0 62 -55 l0 -473 q-4 -46 -58 -50 q-59 4 -59 50 Z" /><glyph glyph-name="uni521D" unicode="&#x521d;" d="M203 677 q-4 12 -12 31 q-7 32 -7 55 q-4 43 46 55 q47 4 67 -39 q0 -12 4 -35 q11 -47 15 -67 l39 0 q98 -4 67 -86 q-55 -125 -133 -226 l27 -20 q51 51 86 94 q32 39 75 12 q35 -35 3 -75 q-31 -35 -82 -85 q4 -8 20 -20 q23 -16 35 -23 q43 -43 20 -82 q-32 -40 -75 -8 q-15 11 -82 62 q-15 16 -19 20 l0 -285 q-4 -39 -55 -43 q-51 4 -51 39 l0 297 q-74 -94 -129 -51 q-42 39 24 101 q125 110 203 270 l-187 0 q-40 0 -43 55 q3 50 46 54 l98 0 ZM477 646 q-40 0 -43 55 q3 54 46 58 l356 0 q94 4 90 -82 l0 -328 q-4 -289 -43 -355 q-47 -63 -199 -43 q-59 11 -63 58 q4 47 59 51 q31 -4 62 -4 q16 0 31 4 q43 4 43 332 l0 227 q-4 23 -19 27 l-102 0 q-11 -324 -47 -426 q-43 -152 -187 -269 q-59 -39 -106 0 q-31 43 24 82 q113 82 152 218 q43 129 43 395 l-97 0 Z" /><glyph glyph-name="uni5224" unicode="&#x5224;" d="M266 525 l0 258 q0 47 54 50 q55 -3 59 -50 l0 -258 l141 0 q46 -4 50 -55 q-4 -54 -50 -54 l-141 0 l-4 -118 l160 0 q43 -4 43 -58 q-4 -51 -47 -51 l-164 0 q-35 -168 -187 -258 q-55 -27 -90 8 q-31 39 15 74 q118 74 145 176 l-156 0 q-43 0 -47 55 q4 50 47 54 l168 0 q0 59 4 118 l-157 0 q-43 0 -47 54 q4 51 47 55 l157 0 ZM812 72 l0 703 q0 47 55 51 q55 -4 59 -51 l0 -754 q11 -125 -235 -78 q-58 12 -62 58 q4 47 58 47 q12 -4 36 -7 q39 -8 62 -4 q27 0 27 35 ZM516 568 q-36 -43 -79 -24 q-39 24 -15 71 q31 54 62 144 q16 51 67 35 q47 -27 35 -78 q-47 -121 -70 -148 ZM617 177 l0 524 q0 43 55 47 q55 -4 58 -47 l0 -528 q-3 -47 -58 -47 q-55 4 -55 51 ZM129 580 q-12 35 -63 148 q-19 39 20 63 q43 15 70 -20 q55 -98 67 -160 q4 -51 -36 -67 q-42 -7 -58 36 Z" /><glyph glyph-name="uni522B" unicode="&#x522b;" d="M809 72 l0 695 q0 47 58 55 q59 -4 63 -51 l0 -758 q0 -90 -90 -94 q-86 0 -141 16 q-62 16 -62 63 q8 50 66 46 q129 -31 106 28 ZM90 712 q-4 94 90 94 l304 0 q98 4 94 -90 l0 -187 q8 -94 -98 -82 l-144 0 l-8 -59 l152 0 q110 4 106 -86 q8 -308 -59 -336 q-101 -50 -215 -11 q-46 23 -35 66 q12 39 63 31 q23 -8 78 -4 q39 -7 47 78 q0 12 0 43 q0 36 4 82 q-4 20 -20 20 l-133 0 q-54 -211 -144 -309 q-39 -39 -90 -15 q-43 27 -8 70 q78 98 125 254 l-94 0 q-54 0 -58 59 q8 54 62 58 l106 0 l8 59 l-43 0 q-98 -8 -90 82 l0 183 ZM637 193 l0 519 q0 51 54 59 q59 -4 63 -55 l0 -523 q-4 -51 -59 -55 q-58 4 -58 55 ZM445 701 l-222 0 q-24 -4 -20 -20 l0 -113 q-4 -20 20 -16 l226 0 q16 -4 16 16 l0 113 q0 16 -20 20 Z" /><glyph glyph-name="uni5230" unicode="&#x5230;" d="M816 60 l0 676 q0 51 55 58 q55 -3 59 -54 l0 -707 q0 -78 -39 -98 q-67 -27 -192 8 q-51 23 -47 70 q16 39 67 35 q70 -19 78 -15 q19 0 19 27 ZM117 677 q-51 0 -55 55 q4 51 55 55 l457 0 q39 -4 43 -59 q-8 -51 -47 -51 l-230 0 l-86 -140 q-8 -12 -4 -16 q4 -4 16 -4 l195 16 q-4 4 -12 23 q-8 8 -12 24 q-19 46 32 66 q43 12 74 -35 q43 -74 74 -149 q20 -50 -8 -78 q-47 -27 -74 8 q-19 24 -27 47 l-113 -12 l0 -113 l140 0 q47 -4 47 -59 q-4 -54 -51 -54 l-136 0 l0 -121 q27 3 78 7 q50 4 82 12 q54 4 62 -47 q4 -47 -47 -58 q-86 -8 -258 -28 q-136 -11 -191 -15 q-55 0 -62 50 q3 43 58 55 q16 0 78 4 q67 4 86 8 l0 133 l-136 0 q-47 0 -47 54 q4 55 50 59 l133 0 l0 98 q-23 -4 -39 -4 q-51 -4 -82 -8 q-105 -8 -62 105 q15 32 109 172 l-90 0 ZM641 173 l0 528 q0 47 54 54 q55 -4 59 -50 l0 -532 q-4 -47 -59 -50 q-54 3 -54 50 Z" /><glyph glyph-name="uni5236" unicode="&#x5236;" d="M293 736 l0 55 q0 39 55 42 q54 -7 58 -46 l0 -51 l156 0 q47 -4 47 -59 q-4 -54 -50 -54 l-153 0 l0 -71 l180 0 q43 -4 47 -58 q-4 -55 -47 -55 l-180 0 l0 -66 l114 0 q93 0 93 -94 l0 -219 q0 -94 -90 -94 q-105 -4 -101 55 q0 51 43 51 q4 0 19 0 q16 0 16 11 l0 153 q0 23 -20 23 l-74 0 l0 -285 q-4 -43 -58 -47 q-55 0 -55 43 l0 289 l-66 0 q-24 0 -20 -19 l0 -219 q-4 -43 -59 -47 q-54 0 -54 47 l0 262 q-4 93 93 90 l106 0 l0 66 l-184 0 q-47 0 -47 55 q0 54 47 58 l184 0 l0 71 l-117 0 q-8 -16 -24 -36 q-19 -35 -70 -19 q-47 19 -23 74 q0 4 7 12 q39 74 63 137 q19 50 74 31 q35 -12 31 -51 q-4 -8 -7 -35 l66 0 ZM777 41 q35 -8 39 27 l0 687 q0 43 55 47 q55 -4 59 -47 l0 -734 q-4 -105 -121 -94 q-172 20 -141 94 q8 39 59 35 q11 -4 50 -15 ZM648 150 l0 578 q0 43 55 47 q55 -4 59 -47 l0 -578 q-4 -47 -59 -51 q-55 4 -55 51 Z" /><glyph glyph-name="uni524D" unicode="&#x524d;" d="M160 560 l301 0 q70 0 70 -66 l0 -457 q0 -86 -39 -102 q-27 -19 -164 0 q-47 12 -43 63 q8 46 55 39 q86 -16 86 7 l0 86 l-227 0 l0 -160 q-4 -47 -58 -47 q-47 8 -47 55 l0 512 q-8 78 66 70 ZM82 720 l191 0 q-3 0 -7 8 q-39 63 -16 98 q43 35 94 4 q27 -43 54 -86 q4 -12 4 -24 l211 0 q-8 16 16 71 q8 11 12 19 q23 35 70 27 q47 -15 39 -54 q-20 -59 -27 -63 l203 0 q35 -4 39 -58 q-4 -55 -39 -55 l-840 0 q-35 0 -39 55 q0 54 35 58 ZM793 72 l0 445 q0 35 51 39 q54 -4 58 -39 l0 -508 q20 -117 -226 -66 q-39 12 -35 70 q11 43 54 35 q110 -27 98 24 ZM586 138 l0 356 q0 39 55 43 q50 -4 54 -43 l0 -356 q-4 -43 -54 -47 q-55 4 -55 47 ZM199 400 l227 0 l0 58 l-227 0 l0 -58 ZM199 294 l0 -58 l227 0 l0 58 l-227 0 Z" /><glyph glyph-name="uni5272" unicode="&#x5272;" d="M293 767 q0 8 -4 16 q-8 39 39 54 q55 8 74 -31 q8 -23 16 -39 l129 0 q109 0 101 -70 q-7 -145 -46 -141 q3 -43 -40 -43 l-152 0 l0 -31 l141 0 q35 -4 39 -47 q-4 -47 -39 -47 l-141 0 l0 -31 l184 0 q39 -4 43 -47 q-4 -47 -43 -47 l-184 0 l0 -31 l106 0 q86 0 86 -90 l0 -117 q0 -78 -98 -78 l-317 0 q-89 0 -85 78 l0 125 q-4 82 85 82 l110 0 l0 31 l-188 0 q-43 0 -47 47 q4 43 47 47 l188 0 l0 31 l-133 0 q-39 0 -39 47 q0 43 39 47 l133 0 l0 31 l-152 0 q-24 -4 -32 35 q0 4 0 8 q-54 4 -51 55 l0 70 q0 86 83 86 l148 0 ZM164 607 l133 0 l0 47 l-121 0 q-12 -4 -12 -12 l0 -35 ZM410 607 l125 0 q8 27 4 43 q0 4 -12 4 l-117 0 l0 -47 ZM219 56 q0 -12 11 -12 l247 0 q7 0 11 12 l0 59 q-4 8 -11 11 l-247 0 q-11 -3 -11 -11 l0 -59 ZM809 33 q11 0 15 23 l0 684 q0 47 55 51 q51 -4 55 -51 l0 -719 q0 -86 -90 -90 q-39 0 -71 4 q-27 0 -43 0 q-50 12 -50 55 q0 47 47 51 q39 -8 82 -8 ZM660 169 l0 532 q0 50 55 54 q51 -4 55 -54 l0 -532 q-4 -46 -55 -50 q-55 4 -55 50 Z" /><glyph glyph-name="uni529B" unicode="&#x529b;" d="M410 654 l4 117 q4 51 55 55 q58 0 62 -51 l0 -121 l297 0 q82 0 82 -86 l0 -266 q12 -390 -180 -367 q-93 4 -152 20 q-55 23 -43 70 q12 51 70 47 q24 -8 90 -16 q8 0 12 0 q90 -35 86 242 l0 215 q-4 20 -20 20 l-253 0 q-71 -438 -305 -606 q-51 -23 -82 20 q-24 43 19 78 q200 172 246 508 l-253 0 q-47 0 -47 58 q0 59 47 63 l265 0 Z" /><glyph glyph-name="uni529F" unicode="&#x529f;" d="M586 677 l0 106 q0 43 55 47 q54 -4 58 -47 l0 -106 l145 0 q93 0 90 -94 q0 -207 -8 -289 q0 -74 -16 -199 q-23 -137 -148 -152 q-90 -4 -141 15 q-70 24 -66 67 q15 58 82 51 q156 -55 156 39 q27 125 27 426 q-4 19 -19 23 l-106 0 q-31 -457 -340 -633 q-54 -31 -93 8 q-35 47 19 82 q285 168 297 543 l-113 0 q-51 0 -55 55 q4 54 55 58 l121 0 ZM109 642 q-47 0 -47 55 q0 54 47 58 l254 0 q43 -4 47 -58 q-4 -55 -47 -55 l-70 0 l0 -391 q4 0 16 8 q11 4 19 8 q55 20 78 -31 q16 -55 -35 -82 q-31 -16 -98 -47 q-101 -47 -136 -63 q-55 -23 -86 20 q-24 55 27 86 q4 0 24 8 q23 11 74 43 l0 441 l-67 0 Z" /><glyph glyph-name="uni52A0" unicode="&#x52a0;" d="M199 693 l0 94 q0 43 55 46 q55 -3 58 -46 l0 -94 l114 0 q90 -4 90 -78 q-4 -106 -8 -246 q-4 -145 -8 -293 q-16 -172 -211 -118 q-51 20 -55 59 q4 39 47 47 q8 0 31 -8 q71 -23 75 78 q4 125 8 235 q3 109 7 195 q0 16 -15 16 l-82 0 q-20 -411 -145 -606 q-35 -47 -82 -27 q-47 27 -19 74 q128 223 136 555 l-93 0 q-51 0 -55 58 q4 55 55 59 l97 0 ZM559 662 q-4 86 86 86 l203 0 q78 -4 82 -82 l0 -637 q-4 -82 -78 -82 l-204 0 q-93 4 -89 74 l0 641 ZM816 68 l0 551 q0 15 -15 15 l-114 0 q-19 0 -15 -15 l0 -551 q-4 -20 15 -16 l114 0 q15 -4 15 16 Z" /><glyph glyph-name="uni52A1" unicode="&#x52a1;" d="M94 615 q109 74 191 183 q78 75 125 0 l379 0 q121 -15 8 -164 q-47 -58 -164 -140 q140 -55 301 -71 q39 -15 27 -70 q-20 -43 -66 -39 q-184 12 -379 109 q-129 -66 -325 -101 l211 0 q0 4 4 11 q4 12 12 20 q66 82 117 -4 q-4 -12 -4 -16 q-4 -3 -4 -11 l262 0 q129 15 94 -188 q-20 -234 -176 -207 q-35 4 -74 4 q-35 4 -55 8 q-58 16 -58 70 q11 47 66 43 q152 -31 164 24 q8 50 16 109 q-4 16 -16 20 l-254 0 q-113 -235 -383 -286 q-43 -3 -54 39 q-8 51 31 63 q203 59 273 184 l-203 0 q-35 0 -47 43 q-11 46 20 62 q-59 -8 -74 35 q-12 59 43 71 q191 23 304 78 q-66 54 -125 125 q-101 -106 -164 -106 q-82 20 -23 102 ZM520 552 q125 74 156 125 q4 4 -4 8 l-289 0 q51 -70 137 -133 Z" /><glyph glyph-name="uni52A8" unicode="&#x52a8;" d="M539 658 l82 0 l0 125 q0 47 51 50 q58 0 62 -42 l0 -133 l118 0 q85 0 85 -82 q-3 -188 -7 -325 q-4 -144 -8 -195 q-12 -70 -43 -94 q-70 -39 -180 -23 q-54 19 -47 74 q16 43 71 39 q86 -27 89 47 q4 39 8 164 q0 113 4 250 q0 28 -19 28 l-78 0 q-16 -403 -172 -583 q-55 -70 -106 -39 q-47 32 -15 86 l-20 36 q-82 -20 -266 -40 q-121 -7 -78 125 q59 149 110 290 l-82 0 q-47 0 -47 58 q4 55 51 59 l363 0 q43 -4 43 -63 q-4 -54 -47 -54 l-156 0 q-51 -122 -90 -243 q-12 -39 -8 -47 q4 -11 39 -3 q66 7 133 27 q-12 23 -35 74 q-4 20 -8 31 q-20 47 23 71 q51 15 78 -28 q47 -109 75 -191 q90 141 101 434 l-70 0 q-51 0 -55 54 q0 59 51 63 ZM113 654 q-47 0 -51 54 q0 55 47 59 l340 0 q43 -4 47 -59 q-4 -54 -47 -54 l-336 0 Z" /><glyph glyph-name="uni52BF" unicode="&#x52bf;" d="M211 771 l0 31 q0 39 55 39 q50 0 54 -39 l0 -31 l86 0 q39 -4 43 -55 q-4 -54 -43 -54 l-86 0 l0 -59 q12 0 28 4 q11 4 27 8 q82 -28 20 -102 q-47 -19 -75 -23 l0 -114 q0 -125 -218 -78 q-40 8 -36 59 q12 47 51 43 q102 -20 94 19 l0 47 q-66 -15 -117 -19 q-47 -4 -55 43 q-4 51 39 62 q86 12 133 24 l0 86 l-109 0 q-51 0 -55 50 q0 55 51 59 l113 0 ZM582 767 l0 31 q0 39 55 43 q50 -4 54 -43 l0 -31 l98 0 q74 0 66 -86 q-15 -262 8 -281 q16 0 20 105 q0 36 39 36 q35 -8 39 -43 q8 -235 -102 -219 q-113 -16 -113 219 q-4 109 4 136 q0 20 -12 20 l-47 0 q-15 -106 -43 -156 q12 -16 24 -24 q43 -35 58 -55 q28 -43 -3 -74 q-36 -31 -75 0 q-31 24 -58 47 q-16 -16 -43 -39 q-20 -12 -28 -20 q24 -19 24 -42 l0 -28 l242 0 q86 4 86 -86 l0 -86 q12 -207 -277 -148 q-59 15 -47 70 q15 35 82 24 q140 -24 129 46 l0 59 q-4 8 -12 12 l-227 0 q-113 -199 -410 -223 q-54 0 -62 47 q0 43 54 51 q196 19 293 125 l-273 0 q-55 0 -59 54 q4 51 59 55 l301 0 l4 31 q-82 32 -28 98 q63 35 102 78 q-12 8 -27 20 q-20 11 -28 23 q-31 28 -4 67 q28 31 71 11 q19 -11 43 -27 q15 43 23 90 l-70 0 q-39 0 -43 54 q4 55 47 59 l66 0 Z" /><glyph glyph-name="uni5305" unicode="&#x5305;" d="M59 529 q74 86 168 262 q23 42 74 35 q51 -16 47 -59 q-4 -16 -12 -27 l465 0 q105 4 101 -102 q0 -273 -11 -347 q-8 -90 -36 -110 q75 16 86 -55 q20 -218 -277 -199 l-305 0 q-238 -11 -211 133 l0 387 q-27 -31 -66 -16 q-66 31 -23 98 ZM789 595 q-4 31 -27 35 l-477 0 q-19 -39 -43 -66 l344 0 q109 0 105 -78 l0 -180 q0 -39 -15 -47 q8 -8 58 -4 q36 -4 43 59 q12 55 12 281 ZM551 337 q23 0 23 24 l0 66 q0 28 -19 28 l-289 0 l0 -118 l285 0 ZM727 138 q-125 0 -102 90 l-359 0 l0 -125 q-16 -82 101 -74 l324 0 q137 -8 133 105 q-4 4 0 12 q4 4 4 12 q-27 -24 -101 -20 Z" /><glyph glyph-name="uni5316" unicode="&#x5316;" d="M62 431 q118 137 161 356 q11 50 62 46 q55 -11 51 -62 q-20 -94 -43 -148 l0 -657 q-4 -47 -59 -50 q-58 3 -58 50 l0 430 q-4 -12 -16 -23 q-4 -4 -4 -8 q-39 -43 -86 -16 q-43 35 -8 82 ZM668 -73 q-234 -19 -211 168 l0 258 q-31 -20 -59 -27 q-31 -12 -58 35 q-20 51 8 70 q7 4 35 16 q47 23 74 39 l0 281 q0 47 59 51 q58 0 62 -47 l0 -223 q125 71 242 184 q39 39 86 0 q39 -47 0 -86 q-117 -117 -320 -242 q-4 0 -4 -4 q-4 -4 -4 0 l0 -305 q-8 -58 67 -54 l89 0 q75 -4 86 27 q20 27 16 164 q0 47 59 51 q54 -4 58 -51 q0 -203 -47 -246 q-39 -59 -191 -59 l-47 0 Z" /><glyph glyph-name="uni533A" unicode="&#x533a;" d="M74 705 q-8 101 86 97 l723 0 q58 -4 66 -58 q-4 -55 -62 -55 l-668 0 q-32 -4 -32 -31 l0 -571 q0 -31 32 -31 l656 0 q62 -4 70 -47 q-4 -54 -66 -58 l-703 0 q-102 0 -102 82 l0 672 ZM578 455 q67 93 102 175 q27 47 82 32 q47 -24 27 -79 q-39 -93 -125 -210 q98 -94 152 -153 q32 -54 0 -90 q-50 -35 -89 4 q-20 20 -145 145 q-117 -117 -238 -168 q-59 -24 -90 23 q-20 51 35 82 q133 71 203 145 q-55 43 -203 152 q-43 31 -8 78 q39 39 90 12 q117 -78 207 -148 Z" /><glyph glyph-name="uni5341" unicode="&#x5341;" d="M430 537 l0 238 q0 58 66 62 q66 -7 70 -66 l0 -234 l329 0 q58 -4 62 -67 q-4 -62 -62 -62 l-329 0 l0 -430 q-4 -59 -70 -62 q-66 3 -66 62 l0 430 l-313 0 q-62 0 -70 62 q8 63 70 67 l313 0 Z" /><glyph glyph-name="uni5343" unicode="&#x5343;" d="M492 767 q160 16 317 55 q11 0 19 4 q51 11 74 -43 q12 -59 -35 -78 q-94 -36 -297 -59 l0 -195 l364 0 q43 -4 46 -63 q-3 -62 -46 -62 l-364 0 l0 -360 q-4 -43 -66 -47 q-67 4 -67 47 l0 360 l-339 0 q-63 0 -71 58 q4 63 67 67 l343 0 l0 183 q-78 -8 -261 -8 q-67 4 -74 63 q3 59 70 66 q223 0 320 12 Z" /><glyph glyph-name="uni5347" unicode="&#x5347;" d="M371 455 l270 0 l0 312 q0 55 54 59 q59 0 63 -55 l0 -316 l144 0 q43 -4 47 -59 q-4 -59 -47 -59 l-140 0 l0 -363 q-4 -51 -59 -58 q-58 7 -58 58 l0 363 l-282 0 q-23 -261 -168 -386 q-66 -55 -105 -12 q-39 43 15 90 q129 125 141 308 l-148 0 q-55 0 -59 59 q4 55 59 59 l160 0 l0 160 q-59 -16 -117 -16 q-63 -4 -75 47 q-4 59 51 70 q235 20 352 90 q47 20 78 -23 q27 -43 -16 -75 q-51 -35 -160 -70 l0 -183 Z" /><glyph glyph-name="uni534E" unicode="&#x534e;" d="M355 533 q8 0 28 8 q43 15 66 27 l0 215 q0 50 55 54 q55 -4 58 -54 l0 -172 q125 51 258 168 q43 35 78 -4 q32 -43 -7 -82 q-114 -110 -329 -203 l0 -67 q0 -35 40 -35 l128 0 q106 -12 106 113 q4 51 55 55 q54 -4 58 -55 q-4 -214 -172 -214 l-195 0 q-23 -4 -47 4 q16 -20 20 -40 l0 -19 l343 0 q55 -4 59 -55 q0 -54 -51 -54 l-351 0 l0 -157 q-4 -54 -59 -58 q-55 4 -55 58 l0 157 l-336 0 q-50 0 -58 50 q4 55 55 59 l339 0 l0 16 q4 43 43 54 q-39 12 -35 82 l0 63 q-23 -12 -43 -16 q-62 -23 -90 24 q-19 50 39 78 ZM62 564 q86 109 133 230 q16 47 71 32 q46 -20 39 -71 q-8 -31 -32 -74 l0 -359 q-3 -59 -58 -63 q-55 4 -55 67 l0 175 q-43 -54 -94 -31 q-43 39 -4 94 Z" /><glyph glyph-name="uni5353" unicode="&#x5353;" d="M418 646 l0 148 q0 43 59 47 q54 -4 58 -47 l360 0 q42 -3 46 -54 q-4 -51 -46 -51 l-360 0 l0 -43 l270 0 q70 0 70 -86 l0 -269 q-4 -71 -70 -71 l-258 0 l0 -47 l367 0 q43 -4 47 -54 q-4 -55 -47 -55 l-367 0 l0 -117 q-4 -35 -59 -39 q-54 4 -54 39 l0 117 l-344 0 q-47 0 -47 55 q0 50 47 54 l344 0 l0 47 l-243 0 q-62 4 -66 67 l0 285 q0 74 66 74 l227 0 ZM238 486 l520 0 l0 43 q0 12 -12 12 l-496 0 q-12 0 -12 -12 l0 -43 ZM746 326 q12 0 12 11 l0 47 l-520 0 l0 -47 q0 -11 12 -11 l496 0 Z" /><glyph glyph-name="uni5355" unicode="&#x5355;" d="M602 712 q7 16 23 47 q12 28 23 47 q20 35 79 31 q50 -19 43 -62 q-8 -24 -24 -51 q-4 -8 -4 -12 l59 0 q97 4 90 -82 l0 -277 q4 -102 -86 -94 l-239 0 l0 -58 l340 0 q47 -4 51 -55 q-4 -55 -51 -55 l-340 0 l0 -136 q-4 -47 -58 -51 q-59 0 -59 47 l0 140 l-351 0 q-51 0 -59 51 q4 55 55 59 l355 0 l0 58 l-219 0 q-121 -11 -105 94 l0 273 q-8 90 82 86 l70 0 q-15 20 -23 47 q-20 55 39 71 q55 11 82 -32 q8 -27 27 -58 q8 -20 16 -28 l184 0 ZM449 607 l-199 0 q-12 -4 -12 -12 l0 -62 l211 0 l0 74 ZM762 607 l-196 0 l0 -74 l207 0 l0 62 q0 12 -11 12 ZM449 361 l0 78 l-211 0 l0 -66 q0 -12 12 -12 l199 0 ZM762 361 q8 0 11 12 l0 66 l-207 0 l0 -78 l196 0 Z" /><glyph glyph-name="uni5357" unicode="&#x5357;" d="M102 759 l343 0 l0 35 q0 43 59 43 q55 -4 58 -46 l0 -32 l344 0 q47 -4 55 -54 q-4 -51 -51 -51 l-348 0 l0 -63 l282 0 q82 4 82 -78 l0 -492 q4 -113 -129 -109 q-110 -8 -137 43 q-15 62 43 66 q35 0 74 0 q39 0 39 35 l0 399 q0 23 -23 27 l-82 0 q-20 -59 -43 -98 l82 0 q43 -4 47 -51 q-4 -50 -47 -50 l-188 0 l0 -71 l192 0 q43 -4 43 -54 q-4 -47 -47 -47 l-188 0 l0 -153 q-3 -42 -58 -46 q-55 4 -55 46 l0 153 l-195 0 q-47 0 -47 51 q0 46 47 50 l195 0 l0 71 l-187 0 q-47 0 -51 47 q0 50 47 54 l78 0 q-8 20 -27 59 q-8 23 -12 39 l-78 0 q-28 -4 -28 -20 l0 -504 q-4 -42 -54 -46 q-55 4 -55 46 l0 536 q-4 97 78 97 l285 0 l0 63 l-340 0 q-50 0 -54 51 q0 50 51 54 ZM453 384 l98 0 q19 32 47 98 l-184 0 q8 -35 31 -82 q4 -12 8 -16 Z" /><glyph glyph-name="uni535A" unicode="&#x535a;" d="M285 751 l250 0 l0 32 q0 47 55 50 q55 -3 58 -50 l0 -32 l176 0 q-27 36 4 63 q39 19 70 -16 q12 -19 59 -90 q4 -7 8 -7 q15 -39 -20 -63 q-35 -15 -62 20 l-235 0 l0 -39 l184 0 q59 0 59 -67 l0 -238 q-8 -63 -71 -47 l0 -39 l86 0 q51 -4 55 -51 q-4 -47 -55 -47 l-86 0 l0 -109 q-4 -94 -109 -98 q-70 0 -102 20 q-47 27 -35 70 q20 35 67 24 q70 -20 74 15 l0 78 l-262 0 q31 -43 70 -97 q20 -32 -15 -59 q-39 -19 -67 12 q-7 8 -23 27 q-23 24 -43 55 q-23 35 12 62 l-98 0 q-47 0 -51 47 q4 47 51 51 l426 0 l0 31 q4 55 66 51 l0 20 l-133 0 l0 -32 q-3 -47 -58 -50 q-55 3 -55 50 l0 32 l-125 0 l0 -36 q-4 -43 -55 -46 q-54 3 -54 46 l0 258 q0 63 70 67 l164 0 l0 39 l-250 0 q-39 0 -43 47 q4 43 43 46 ZM82 595 l31 0 l0 188 q0 43 51 47 q47 -4 51 -47 l0 -188 l19 0 q39 -4 43 -54 q-4 -51 -43 -51 l-19 0 l0 -532 q-4 -42 -51 -46 q-51 4 -51 46 l0 532 l-31 0 q-39 0 -43 51 q4 50 43 54 ZM410 494 l125 0 l0 43 l-113 0 q-12 -4 -12 -12 l0 -31 ZM648 537 l0 -43 l133 0 l0 31 q-4 8 -11 12 l-122 0 ZM410 431 l0 -43 l125 0 l0 43 l-125 0 ZM648 431 l0 -43 l133 0 l0 43 l-133 0 Z" /><glyph glyph-name="uni5360" unicode="&#x5360;" d="M184 462 l222 0 l0 329 q0 42 63 42 q58 -3 62 -46 l0 -79 l379 0 q43 -3 51 -58 q0 -59 -39 -63 l-391 0 l0 -125 l289 0 q82 0 86 -86 l0 -355 q-4 -78 -94 -82 l-632 0 q-82 4 -82 86 l0 355 q4 75 86 82 ZM750 56 q39 -8 39 47 l0 188 q0 46 -39 46 l-488 0 q-47 0 -43 -43 l0 -199 q-4 -43 39 -39 l492 0 Z" /><glyph glyph-name="uni5370" unicode="&#x5370;" d="M74 720 q-8 59 55 63 q113 15 285 58 q35 8 59 -47 q11 -50 -24 -62 q-109 -27 -179 -43 q-59 -12 -75 -16 q-11 0 -8 -11 l0 -215 l239 0 q35 -4 39 -63 q-4 -54 -43 -54 l-235 0 l0 -223 q-3 -20 4 -24 q4 -3 28 4 q66 16 168 59 q54 20 78 -23 q15 -51 -31 -75 q-51 -23 -188 -58 q-31 -8 -55 -20 q-121 -31 -117 71 l0 679 ZM508 724 q-8 82 62 78 l282 0 q89 4 82 -78 l0 -641 q3 -171 -250 -97 q-51 15 -39 58 q15 59 66 51 q125 -47 109 47 l0 527 q-4 12 -19 16 l-164 0 q-20 -4 -16 -16 l0 -714 q-4 -36 -59 -36 q-54 0 -54 36 l0 769 Z" /><glyph glyph-name="uni5371" unicode="&#x5371;" d="M66 591 q129 98 223 215 q66 67 113 -8 l305 0 q113 -19 66 -101 q-46 -67 -105 -125 l238 0 q43 -4 47 -55 q-4 -51 -47 -51 l-640 0 q-20 -4 -20 -23 l0 -110 q0 -226 -82 -378 q-31 -47 -82 -36 q-47 24 -27 75 q78 168 78 343 l0 168 q-47 -15 -71 16 q-27 39 4 70 ZM531 572 q16 15 43 54 q24 32 35 43 q8 16 -4 24 l-253 0 q-43 -55 -122 -121 l301 0 ZM520 -61 q-243 -4 -223 125 l0 273 q-4 82 90 82 l336 0 q93 0 93 -74 l0 -105 q-4 -133 -144 -133 q-82 0 -133 19 q-66 71 20 98 q43 -12 105 -8 q39 0 43 43 l0 35 q-4 16 -23 20 l-254 0 q-24 -4 -24 -20 l0 -191 q-8 -78 90 -70 l211 0 q141 -8 133 101 q0 55 55 55 q50 -8 54 -63 q16 -207 -258 -187 l-171 0 Z" /><glyph glyph-name="uni5374" unicode="&#x5374;" d="M273 724 l0 67 q0 42 51 46 q55 0 59 -43 l0 -70 l129 0 q39 -4 43 -51 q-4 -50 -43 -50 l-129 0 l0 -137 l195 0 l0 211 q-4 82 74 82 l215 0 q63 0 67 -82 l0 -606 q3 -113 -110 -109 q-133 -4 -125 55 q0 54 51 54 q8 0 27 -4 q16 -4 28 0 q27 0 27 36 l0 519 q0 31 -27 31 l-94 0 q-27 -4 -27 -31 l0 -695 q-4 -43 -55 -47 q-51 4 -51 47 l0 433 l-269 0 q27 -11 15 -47 q-94 -199 -94 -203 q-11 -15 -7 -23 q4 -8 27 -4 l176 27 q-8 28 -28 75 q-7 27 -15 58 q-16 51 27 67 q47 15 67 -32 q7 -27 31 -101 q31 -94 58 -156 q20 -55 -27 -71 q-55 -19 -66 24 q-8 11 -12 19 q-4 12 -8 20 q-35 -8 -74 -12 q-149 -20 -199 -23 q-59 -12 -78 19 q-32 27 -8 78 q27 63 93 199 q20 39 36 75 q7 7 11 11 l-140 0 q-47 0 -47 51 q0 51 47 55 l179 0 l0 137 l-148 0 q-39 0 -43 50 q4 47 43 51 l148 0 Z" /><glyph glyph-name="uni5382" unicode="&#x5382;" d="M55 -6 q78 132 74 531 l0 195 q4 63 82 71 l691 0 q51 -4 59 -59 q-4 -59 -55 -59 l-644 0 q-24 -4 -24 -19 l0 -231 q0 -320 -78 -468 q-31 -51 -82 -36 q-47 24 -23 75 Z" /><glyph glyph-name="uni5384" unicode="&#x5384;" d="M51 -2 q86 183 82 472 l0 258 q4 55 58 63 l719 0 q35 -4 35 -55 q0 -51 -35 -51 l-640 0 q-24 -4 -20 -19 l0 -192 q4 -324 -82 -516 q-23 -50 -86 -35 q-51 20 -31 75 ZM316 537 q4 66 86 70 l356 0 q78 -4 78 -78 l0 -184 q12 -219 -125 -195 q-102 -4 -172 23 q-55 16 -39 67 q20 47 78 39 q113 -24 125 -12 q20 12 20 55 l0 152 q-4 24 -28 27 l-246 0 q-19 -3 -19 -19 l0 -367 q-4 -71 97 -71 l207 0 q90 -11 102 110 q8 43 59 47 q54 -4 58 -47 q0 -78 -23 -125 q-47 -86 -176 -90 l-250 0 q-192 0 -188 144 l0 454 Z" /><glyph glyph-name="uni5386" unicode="&#x5386;" d="M125 736 q-4 70 86 70 l695 0 q47 -4 47 -58 q-4 -51 -51 -51 l-636 0 q-28 0 -28 -28 l0 -242 q0 -258 -74 -445 q-27 -55 -86 -43 q-51 19 -31 78 q78 184 78 414 l0 305 ZM496 533 q4 15 4 105 q4 35 59 39 q50 -4 54 -43 q0 -11 0 -23 q0 -39 -4 -78 l219 0 q78 0 78 -55 q4 -418 -47 -477 q-35 -89 -242 -50 q-58 15 -51 70 q16 43 79 35 q109 -31 125 31 q27 43 23 321 q-4 15 -20 15 l-171 0 q-47 -332 -250 -488 q-51 -31 -94 8 q-31 47 15 78 q161 117 211 402 l-152 0 q-43 0 -47 51 q4 55 43 59 l168 0 Z" /><glyph glyph-name="uni539F" unicode="&#x539f;" d="M109 740 q4 66 90 74 l699 0 q51 -4 55 -59 q-4 -58 -55 -58 l-324 0 q47 0 39 -59 l192 0 q97 0 93 -70 l0 -235 q0 -93 -78 -89 l-172 0 l0 -231 q0 -86 -86 -94 q-82 0 -148 20 q-43 23 -35 66 q16 36 62 36 q71 -16 79 -12 q15 0 15 23 l0 192 l-187 0 q-78 4 -82 66 l0 238 q-4 90 86 90 l152 0 q0 59 43 59 l-297 0 q-31 -4 -31 -28 l0 -296 q-8 -407 -129 -454 q-86 4 -47 94 q0 8 4 8 q62 98 62 371 l0 348 ZM785 494 l0 27 q-4 16 -19 16 l-368 0 q-19 -4 -19 -16 l0 -27 l406 0 ZM379 388 l0 -27 q0 -16 16 -16 l375 0 q15 0 15 16 l0 27 l-406 0 ZM840 -14 q-55 70 -121 148 q-39 39 -4 78 q39 32 86 0 q74 -70 129 -171 q23 -43 -8 -71 q-47 -27 -82 16 ZM215 21 q62 70 101 164 q24 51 75 31 q46 -27 27 -78 q-47 -105 -121 -180 q-43 -35 -86 -7 q-35 31 4 70 Z" /><glyph glyph-name="uni53BB" unicode="&#x53bb;" d="M449 716 l0 71 q0 39 55 46 q55 -3 58 -42 l0 -75 l297 0 q43 -4 47 -54 q-4 -55 -47 -55 l-297 0 l0 -156 l344 0 q43 -4 47 -55 q-4 -55 -47 -55 l-469 0 q59 -31 -3 -93 q-59 -55 -149 -153 q-19 -19 -12 -27 q4 -12 36 -8 l414 12 q-4 0 -24 27 q-47 63 -58 78 q-32 43 11 74 q43 36 86 -7 q59 -78 145 -203 q12 -20 19 -20 q39 -63 4 -94 q-51 -39 -90 4 q-11 16 -31 43 q-265 -8 -531 -16 q-152 -7 -149 40 q-19 43 36 109 q50 70 160 176 q11 11 19 19 q35 35 51 43 l-269 0 q-47 0 -47 55 q0 51 47 55 l343 0 l0 152 l-273 0 q-43 0 -51 51 q4 54 47 58 l281 0 Z" /><glyph glyph-name="uni53C8" unicode="&#x53c8;" d="M141 654 q-39 0 -39 62 q0 63 39 67 l660 0 q90 4 86 -82 q-4 -51 -32 -133 q-82 -211 -234 -360 q94 -82 309 -183 q47 -20 19 -74 q-27 -43 -78 -24 q-156 59 -355 196 q-207 -133 -368 -188 q-70 -19 -89 23 q-32 63 35 90 q176 59 324 160 q-141 172 -191 282 q-4 0 -4 4 q-28 47 -24 78 q16 62 98 51 q15 -12 35 -51 q0 -8 8 -16 q78 -160 187 -262 q141 129 211 332 q4 24 -15 28 l-582 0 Z" /><glyph glyph-name="uni53CA" unicode="&#x53ca;" d="M305 689 l-157 0 q-50 0 -54 55 q4 54 54 58 l551 0 q71 -8 67 -74 l-36 -172 q0 -19 12 -15 l82 0 q63 -4 63 -55 q-20 -153 -180 -336 q74 -67 211 -125 q51 -24 27 -74 q-31 -35 -90 -16 q-78 31 -218 125 q-20 16 -20 16 q-191 -114 -312 -145 q-59 -12 -82 20 q-24 54 19 70 q176 47 289 129 q-86 90 -164 250 q-94 -293 -222 -426 q-43 -39 -79 -16 q-46 40 -15 75 q226 238 254 656 ZM598 486 l43 187 q4 16 -20 16 l-203 0 q-8 -63 -16 -113 q98 -262 215 -360 q106 106 133 207 q0 16 -20 20 l-93 0 q-55 0 -39 43 Z" /><glyph glyph-name="uni53CB" unicode="&#x53cb;" d="M98 736 l199 0 q4 23 4 58 q0 16 4 24 q11 35 70 31 q47 -4 55 -43 q-4 -12 -8 -70 l492 0 q39 -4 47 -63 q-4 -62 -43 -62 l-508 0 q-4 -20 -8 -47 q-7 -31 -7 -47 l367 0 q129 4 70 -141 q-39 -93 -129 -218 q67 -51 172 -98 q23 -8 35 -12 q70 -27 39 -86 q-19 -50 -97 -19 q-114 39 -231 117 q-12 12 -12 12 q-121 -78 -300 -133 q-16 -4 -20 -8 q-55 -12 -78 39 q-20 51 31 67 q12 4 39 11 q160 51 231 106 q-71 74 -149 226 q-11 -39 -39 -109 q-4 -16 -8 -27 q-78 -180 -164 -278 q-39 -35 -90 -4 q-39 32 -7 71 q4 8 15 23 q98 137 149 270 q27 86 66 265 q0 12 4 20 l-203 0 q-39 4 -39 66 q8 55 51 59 ZM609 236 q51 66 82 121 q12 23 8 31 q-4 12 -19 12 l-188 0 q39 -90 117 -164 Z" /><glyph glyph-name="uni53CD" unicode="&#x53cd;" d="M863 810 q59 0 71 -51 q0 -54 -55 -62 q-152 -16 -484 -28 q-79 0 -98 0 q-24 -3 -27 -27 l0 -74 l500 0 q132 4 97 -106 q-62 -214 -180 -339 q63 -40 168 -71 q32 -11 51 -15 q51 -16 47 -59 q-19 -55 -70 -47 q-172 43 -289 110 q-141 -86 -309 -114 q-70 -8 -86 39 q-12 51 51 63 q0 0 4 0 q160 27 242 86 q-148 160 -211 347 l-19 0 q-4 -304 -102 -496 q-31 -47 -86 -35 q-51 24 -23 74 q101 168 97 672 q-7 94 110 98 q218 -4 601 35 ZM594 193 q90 94 144 250 q4 19 -23 19 l-309 0 q63 -148 188 -269 Z" /><glyph glyph-name="uni53D1" unicode="&#x53d1;" d="M246 634 l109 0 q12 59 28 141 q8 58 62 58 q55 -3 55 -62 q-12 -59 -27 -137 l422 0 q42 -4 46 -54 q-4 -51 -46 -51 l-446 0 q-12 -43 -23 -78 l336 0 q101 -8 86 -90 q-55 -145 -161 -250 q79 -47 188 -86 q20 -4 35 -8 q67 -27 35 -90 q-27 -43 -117 -4 q-133 55 -226 106 q-145 -82 -297 -117 q-35 -8 -55 0 q-78 58 8 105 q144 20 258 90 q-82 94 -141 207 q-86 -227 -230 -356 q-40 -39 -83 -15 q-46 35 -3 78 q195 203 273 508 l-168 0 q-102 4 -66 101 q50 125 70 153 q23 43 74 31 q51 -20 31 -63 q-15 -31 -35 -74 q-8 -11 -8 -19 q-7 -24 16 -24 ZM602 181 q70 70 105 152 q0 12 -8 12 l-211 0 q39 -82 114 -164 ZM664 736 q-35 35 -4 70 q35 31 82 4 q24 -19 78 -70 q32 -51 4 -86 q-35 -31 -78 4 q-8 4 -59 54 q-23 20 -23 24 Z" /><glyph glyph-name="uni53D6" unicode="&#x53d6;" d="M125 693 l-31 0 q-39 0 -43 55 q4 54 47 58 l437 0 q39 0 35 -47 l293 0 q86 4 74 -101 q-19 -231 -128 -450 q78 -117 140 -187 q43 -43 4 -86 q-43 -35 -86 4 q-66 66 -133 152 q-50 -70 -125 -133 q-50 -42 -86 -7 q-43 39 0 78 q82 86 145 172 q-78 148 -113 324 q-12 62 31 78 q62 23 78 -39 q35 -141 74 -238 q59 152 74 285 q4 35 -27 35 l-207 0 q-55 -4 -51 51 l-31 0 l0 -473 q8 0 20 4 q35 12 46 -35 q16 -59 -27 -70 q-12 -8 -39 -12 l0 -145 q-4 -43 -55 -47 q-54 4 -54 47 l0 117 q-20 -7 -82 -23 q-180 -39 -200 -43 q-66 -12 -74 39 q-15 47 39 63 q20 4 55 11 l0 563 ZM238 693 l0 -98 l153 0 l0 98 l-153 0 ZM238 486 l0 -98 l153 0 l0 98 l-153 0 ZM238 158 q-4 0 149 39 l0 90 l-149 0 l0 -129 Z" /><glyph glyph-name="uni53D8" unicode="&#x53d8;" d="M461 748 q-12 7 -24 27 q-31 39 16 66 q43 24 86 -15 q23 -24 63 -78 l296 0 q43 -4 43 -59 q-4 -55 -46 -55 l-223 0 l0 -218 q-4 -40 -51 -47 q-55 0 -55 39 l0 226 l-129 0 l0 -215 q-3 -43 -54 -46 q-51 3 -51 43 l0 218 l-234 0 q-47 0 -47 59 q4 51 54 55 l356 0 ZM70 462 q35 24 149 114 q35 31 74 0 q31 -35 4 -71 q-74 -78 -176 -136 q-51 -28 -78 11 q-20 47 27 82 ZM719 498 q-39 23 -8 78 q31 35 74 11 q55 -31 152 -105 q55 -43 16 -94 q-31 -39 -78 -4 q-90 71 -156 114 ZM172 248 q-51 0 -55 54 q8 51 59 55 l640 0 q98 -12 67 -94 q-74 -133 -211 -219 q74 -19 183 -23 q32 -4 55 -8 q74 -12 43 -82 q-12 -23 -51 -19 q-187 4 -363 70 q-176 -63 -414 -63 q-70 4 -78 51 q4 51 74 51 q160 0 277 27 q-128 71 -171 118 q-40 54 23 82 l-78 0 ZM301 248 q117 -94 238 -149 q106 63 176 137 q4 12 -4 12 l-410 0 Z" /><glyph glyph-name="uni53E0" unicode="&#x53e0;" d="M207 724 q-43 0 -47 39 q4 35 47 39 l598 0 q35 -4 31 -39 q-8 -35 -51 -55 q-8 -3 -23 -11 q-59 -28 -106 -43 q35 -16 86 -20 q55 -8 55 -35 l78 0 q31 -4 35 -27 q4 -28 -23 -55 q-39 -35 -78 -62 q82 -36 78 -55 q-4 -20 -8 -20 l35 0 q47 4 47 -74 q0 -58 -20 -82 q-50 -27 -78 20 q-4 7 0 23 q4 12 4 20 q-4 15 -15 19 l-711 0 l0 -47 q-4 -47 -47 -51 q-47 0 -47 47 l0 78 q-4 47 86 47 q-28 24 0 55 q12 4 43 8 q27 0 43 8 q-8 0 -16 4 q-70 31 -66 46 q-4 12 11 24 l-31 0 q-43 0 -47 35 q4 35 43 39 l90 0 q-23 39 27 55 q98 -4 149 4 q-39 11 -67 23 q-58 20 -46 43 l-59 0 ZM406 724 q74 -31 121 -39 q28 4 86 27 q20 4 35 12 l-242 0 ZM551 599 l66 0 q-15 0 -39 8 q-27 4 -51 12 q-62 -12 -156 -20 l78 0 q67 -16 31 -66 q-23 -24 -78 -63 q-7 -8 -15 -12 q74 -35 78 -54 q-4 -12 -8 -24 l86 0 q-16 8 -12 20 q0 16 47 31 q27 12 47 20 q-8 0 -20 7 q-39 16 -43 24 q-15 12 8 43 l-23 0 q-35 0 -35 35 q4 35 39 39 ZM352 525 l-141 0 q55 -20 90 -35 q23 15 51 35 ZM770 525 l-141 0 q55 -20 90 -35 q0 -4 51 35 ZM309 419 q-43 -23 -118 -39 l215 0 q-19 -7 -97 39 ZM723 416 q-47 -20 -102 -36 l191 0 q-7 0 -15 4 q-43 16 -74 32 ZM250 197 l0 -20 l500 0 l0 20 q-4 11 -8 11 l-480 0 q-12 0 -12 -11 ZM250 99 l500 0 l0 31 l-500 0 l0 -31 ZM250 52 l0 -31 l500 0 l0 31 l-500 0 ZM855 228 l0 -207 l67 0 q39 0 43 -39 q-4 -39 -43 -43 l-836 0 q-43 4 -47 43 q4 39 43 39 l66 0 l0 207 q4 35 51 43 l610 0 q46 4 46 -43 Z" /><glyph glyph-name="uni53E3" unicode="&#x53e3;" d="M238 -6 q-54 0 -78 11 q-35 16 -35 71 l0 593 q-4 59 27 79 q16 11 63 11 l570 0 q51 0 74 -11 q28 -20 32 -71 l0 -601 q0 -55 -32 -71 q-19 -11 -70 -11 l-551 0 ZM742 95 q31 0 35 35 l0 489 q-4 27 -35 31 l-472 0 q-8 0 -20 -4 q-20 -8 -16 -27 l0 -489 q0 -35 32 -35 l476 0 Z" /><glyph glyph-name="uni53EA" unicode="&#x53ea;" d="M203 314 q-98 -12 -86 105 l0 289 q-8 106 94 102 l590 0 q90 0 90 -98 l0 -285 q7 -125 -110 -113 l-578 0 ZM738 427 q32 -4 32 35 l0 196 q-4 39 -32 39 l-465 0 q-35 0 -35 -35 l0 -200 q-4 -39 35 -35 l465 0 ZM78 21 q133 113 199 227 q28 50 86 23 q51 -31 16 -90 q-102 -152 -207 -234 q-59 -51 -94 -12 q-39 43 0 86 ZM824 -53 q-90 105 -191 230 q-35 35 8 78 q43 36 89 -7 q98 -114 188 -227 q35 -47 -8 -82 q-55 -35 -86 8 Z" /><glyph glyph-name="uni53EB" unicode="&#x53eb;" d="M805 771 q0 47 50 55 q55 -4 59 -51 l0 -817 q-4 -42 -59 -42 q-50 3 -50 50 l0 129 q-12 -4 -32 -12 q-113 -39 -187 -54 q-78 -12 -74 66 l0 621 q0 47 50 55 q55 -4 59 -51 l0 -527 q-4 -35 16 -24 q4 0 19 4 q78 16 149 43 l0 555 ZM86 701 q-8 78 66 74 l188 0 q82 0 82 -70 l0 -618 q0 -66 -78 -66 l-188 0 q-74 0 -70 70 l0 610 ZM211 126 l86 0 q15 0 15 16 l0 512 q0 12 -11 15 l-94 0 q-12 -3 -12 -11 l0 -516 q-4 -19 16 -16 Z" /><glyph glyph-name="uni53EC" unicode="&#x53ec;" d="M121 669 q-43 4 -43 67 q8 55 55 58 l730 0 q78 4 74 -70 l0 -39 q0 -215 -46 -269 q-36 -59 -196 -43 q-148 7 -136 66 q-24 86 148 47 q109 -31 102 148 l0 35 l-274 0 q-62 -214 -355 -312 q-125 -43 -125 31 q-20 63 82 78 q207 59 265 203 l-281 0 ZM195 -38 q-70 -4 -62 82 l0 207 q-12 106 86 94 l586 0 q86 4 82 -74 l0 -238 q4 -75 -78 -71 l-614 0 ZM250 189 l0 -78 q-8 -47 43 -39 l434 0 q39 -4 39 39 l0 78 q4 43 -39 39 l-438 0 q-43 0 -39 -39 Z" /><glyph glyph-name="uni53EF" unicode="&#x53ef;" d="M94 662 q-43 0 -43 62 q4 55 51 59 l808 0 q47 -4 51 -63 q-4 -58 -51 -58 l-51 0 l0 -610 q8 -136 -148 -129 q-106 0 -207 20 q-47 23 -35 78 q19 43 74 39 q8 -4 27 -8 q75 -15 133 -11 q35 -4 35 39 l0 582 l-644 0 ZM129 505 q4 71 82 75 l391 0 q66 -4 70 -82 l0 -282 q4 -86 -78 -78 l-391 0 q-82 -8 -74 74 l0 293 ZM543 474 l-285 0 q-20 0 -16 -16 l0 -199 q-4 -19 16 -15 l285 0 q16 -4 16 15 l0 199 q0 16 -16 16 Z" /><glyph glyph-name="uni53F0" unicode="&#x53f0;" d="M62 541 q161 175 293 285 q36 19 75 -16 q31 -39 4 -70 q-4 -8 -172 -164 q-16 -24 8 -24 q70 -4 421 8 q24 0 36 4 q-79 94 -118 137 q-47 50 -4 90 q51 35 102 -12 q141 -160 254 -321 q12 -42 -35 -70 q-47 -23 -74 12 q-12 12 -28 31 q-15 16 -23 31 q-196 -11 -356 -15 q-168 -8 -324 -4 q-101 12 -59 98 ZM109 279 q-7 86 78 82 l622 0 q82 12 74 -90 l0 -250 q12 -90 -86 -78 l-606 0 q-97 -12 -82 82 l0 254 ZM766 224 q0 24 -32 27 l-472 0 q-39 0 -35 -23 l0 -160 q-4 -27 31 -27 l472 0 q36 -4 36 27 l0 156 Z" /><glyph glyph-name="uni53F2" unicode="&#x53f2;" d="M445 720 l0 86 q0 43 59 47 q58 -4 62 -47 l0 -86 l235 0 q133 16 113 -94 l0 -238 q16 -113 -113 -97 l-239 0 q-15 -137 -78 -215 q90 -39 395 -39 q23 4 35 4 q51 -4 59 -47 q-8 -51 -59 -59 q-215 -4 -316 4 q-110 8 -196 39 q-121 -47 -273 -59 q-70 0 -90 43 q-12 55 47 63 q4 0 47 4 q90 8 144 23 q-164 129 -156 184 q-4 47 39 55 q-70 -4 -66 82 l0 250 q-16 109 109 97 l242 0 ZM777 404 q16 0 20 19 l0 164 q0 20 -24 20 l-207 0 l0 -203 l211 0 ZM211 587 l0 -156 q0 -31 19 -27 l215 0 l0 203 l-211 0 q-23 -4 -23 -20 ZM172 291 q43 -4 55 -24 q70 -82 148 -137 q47 55 66 161 l-269 0 Z" /><glyph glyph-name="uni53F8" unicode="&#x53f8;" d="M141 693 q-47 0 -51 55 q0 54 47 58 l703 0 q90 0 90 -86 l0 -687 q11 -114 -168 -106 q-125 4 -176 55 q-31 39 8 74 l-387 0 q-98 -4 -94 94 l0 207 q0 86 94 90 l418 0 q90 0 90 -94 l0 -234 q0 -55 -31 -59 q39 -16 82 -16 q43 -3 43 28 l0 597 q-4 24 -28 24 l-640 0 ZM113 513 q-86 55 0 110 l610 0 q47 -4 50 -55 q-3 -55 -50 -55 l-610 0 ZM246 169 l336 0 q23 -3 20 20 l0 129 q-4 15 -20 19 l-336 0 q-19 -4 -19 -23 l0 -125 q0 -20 19 -20 Z" /><glyph glyph-name="uni5404" unicode="&#x5404;" d="M82 599 q129 94 207 215 q23 31 66 23 q47 -19 40 -50 l375 0 q78 0 78 -71 q-12 -105 -203 -246 q144 -58 281 -78 q51 -19 39 -74 q-20 -47 -74 -35 q-157 23 -375 113 q-196 -82 -414 -121 q-51 -4 -63 43 q-4 55 43 66 q152 16 313 82 q-8 4 -24 16 q-82 55 -125 105 q-47 -50 -98 -78 q-46 -27 -78 12 q-27 47 12 78 ZM520 525 q82 43 152 117 q23 24 0 35 l-336 0 l-12 -11 q110 -90 196 -141 ZM152 205 q-4 97 94 93 l512 0 q105 0 101 -82 l0 -199 q4 -94 -97 -90 l-524 0 q-90 0 -86 90 l0 188 ZM742 173 q0 12 -12 12 l-449 0 q-11 -4 -11 -12 l0 -132 q0 -12 11 -12 l449 0 q8 0 12 12 l0 132 Z" /><glyph glyph-name="uni540C" unicode="&#x540c;" d="M82 708 q-12 98 98 94 l656 0 q90 4 86 -82 l0 -691 q4 -117 -133 -106 q-184 8 -156 86 q8 47 66 35 q16 -7 47 -11 q20 0 27 0 q36 -4 36 27 l0 598 q0 35 -32 35 l-550 0 q-36 0 -32 -35 l0 -684 q-4 -39 -58 -47 q-55 4 -55 43 l0 738 ZM277 525 q-50 0 -54 55 q4 50 54 54 l453 0 q86 -54 4 -109 l-457 0 ZM332 83 q-90 -7 -82 83 l0 214 q-8 90 74 86 l348 0 q74 0 74 -82 l0 -215 q4 -97 -74 -86 l-340 0 ZM613 365 l-230 0 q-24 0 -24 -28 l0 -129 q-4 -27 24 -23 l230 0 q24 -4 24 27 l0 125 q0 28 -24 28 Z" /><glyph glyph-name="uni540D" unicode="&#x540d;" d="M86 583 q156 86 258 219 q43 43 86 28 q27 -20 31 -47 l367 0 q59 -4 70 -32 q12 -27 -19 -78 q-113 -187 -356 -312 l293 0 q110 4 106 -86 l0 -258 q0 -82 -98 -82 l-527 0 q-90 -4 -86 86 l0 219 q-74 -20 -94 -24 q-62 -11 -74 39 q-8 55 55 71 q172 35 304 101 q-93 71 -160 114 q-39 -32 -90 -55 q-54 -28 -90 15 q-23 47 24 82 ZM523 486 q102 58 180 140 q20 20 16 32 q0 8 -24 11 l-304 0 l-55 -54 l187 -129 ZM805 228 q0 12 -12 12 l-453 0 q-12 0 -12 -12 l0 -172 q-4 -15 12 -12 l453 0 q12 -3 12 12 l0 172 Z" /><glyph glyph-name="uni540E" unicode="&#x540e;" d="M109 697 q-4 86 86 86 q164 0 348 8 q195 11 269 23 q67 4 86 -51 q4 -58 -58 -70 q-184 -27 -598 -27 q-19 -4 -15 -16 l0 -67 l699 0 q35 -3 39 -58 q-4 -51 -43 -51 l-695 0 q-8 -363 -67 -512 q-23 -50 -78 -39 q-55 20 -35 75 q66 183 62 339 q0 180 0 360 ZM367 -49 q-86 -4 -78 70 l0 301 q-4 78 70 78 l477 0 q55 0 55 -78 l0 -301 q4 -74 -90 -70 l-434 0 ZM781 80 l0 179 q0 28 -23 32 l-336 0 q-20 -4 -20 -20 l0 -188 q-4 -31 24 -27 l336 0 q15 4 19 24 Z" /><glyph glyph-name="uni5411" unicode="&#x5411;" d="M90 630 q0 86 82 90 l230 0 q4 24 20 71 q19 54 74 42 q55 -19 43 -78 q-4 -23 -8 -35 l285 0 q98 0 98 -94 l0 -605 q20 -117 -207 -82 q-59 8 -70 51 q-8 51 43 62 q7 0 31 -8 q90 -15 90 20 l0 527 q0 12 -12 12 l-570 0 q-12 -4 -12 -12 l0 -617 q-4 -47 -59 -51 q-58 4 -58 51 l0 656 ZM355 99 q-97 -4 -93 94 l0 254 q0 94 86 94 l293 0 q93 0 93 -86 l0 -270 q4 -94 -97 -86 l-282 0 ZM395 212 l207 0 q15 -4 19 20 l0 180 q0 15 -19 15 l-207 0 q-20 -4 -20 -19 l0 -176 q0 -20 20 -20 Z" /><glyph glyph-name="uni5427" unicode="&#x5427;" d="M570 -61 q-183 -8 -168 102 l0 671 q-11 94 102 86 l324 0 q102 4 98 -86 l0 -320 q0 -94 -86 -86 l-324 0 l0 -226 q-4 -43 54 -39 l192 0 q93 -16 86 113 q0 58 50 62 q51 -4 59 -62 q0 -133 -43 -172 q-39 -47 -156 -43 l-188 0 ZM70 685 q-4 82 75 78 l121 0 q97 8 86 -78 l0 -519 q0 -83 -79 -79 l-117 0 q-90 -4 -86 75 l0 523 ZM516 677 l0 -258 l93 0 l0 270 l-82 0 q-11 0 -11 -12 ZM797 419 q15 -3 15 24 l0 226 q0 16 -15 20 l-74 0 l0 -270 l74 0 ZM230 193 q16 -4 16 27 l0 410 q0 24 -23 24 l-24 0 q-27 0 -23 -24 l0 -414 q0 -23 19 -23 l35 0 Z" /><glyph glyph-name="uni542B" unicode="&#x542b;" d="M86 623 q164 50 320 156 q8 4 24 15 q54 39 93 39 q36 0 98 -42 q4 -4 12 -4 q129 -86 285 -157 q16 -7 19 -7 q36 -28 16 -79 q-27 -46 -70 -27 q-8 0 -31 12 q-153 62 -305 176 q-24 11 -43 0 q-164 -122 -375 -192 q-63 -15 -82 28 q-16 54 39 82 ZM496 498 q-23 0 -55 89 q-19 43 24 63 q47 16 78 -20 q70 -113 35 -132 l289 0 q39 -4 47 -32 q4 -31 -27 -54 q-82 -67 -180 -125 l102 0 q82 0 82 -82 l0 -184 q4 -90 -86 -86 l-598 0 q-82 0 -78 82 l0 188 q-4 82 86 82 l289 0 q101 50 168 101 l-527 0 q-47 0 -47 55 q4 51 50 55 l348 0 ZM754 41 q16 0 19 19 l0 90 q-3 19 -23 23 l-480 0 q-24 -4 -24 -27 l0 -82 q0 -23 24 -23 l484 0 Z" /><glyph glyph-name="uni542C" unicode="&#x542c;" d="M398 685 q-7 98 82 94 q165 0 332 31 q12 0 20 4 q59 8 78 -43 q12 -51 -47 -66 q-58 -16 -144 -24 q-86 -8 -192 -8 q-19 -4 -19 -15 l0 -137 l398 0 q47 -4 55 -55 q0 -54 -47 -54 l-133 0 l0 -450 q-4 -50 -58 -54 q-51 8 -51 58 l0 446 l-164 0 q-28 -321 -86 -450 q-31 -46 -86 -31 q-43 24 -20 78 q86 188 82 473 l0 203 ZM129 99 q-67 -4 -63 82 l0 524 q-4 58 63 58 l141 0 q62 -8 66 -70 l0 -531 q0 -63 -70 -63 l-137 0 ZM168 205 l66 0 l0 461 l-66 0 l0 -461 Z" /><glyph glyph-name="uni542F" unicode="&#x542f;" d="M465 755 l-4 20 q-8 51 51 66 q62 4 82 -47 l8 -39 l246 0 q74 0 74 -86 l0 -175 q4 -94 -70 -86 l-602 0 q-16 -325 -94 -477 q-27 -47 -74 -23 q-39 27 -16 78 q67 168 71 445 l0 231 q-8 97 90 93 l238 0 ZM809 607 q3 39 -36 35 l-484 0 q-43 4 -39 -39 l0 -90 l523 0 q39 -8 36 35 l0 59 ZM250 248 q0 78 74 82 l543 0 q78 0 78 -82 l0 -231 q4 -86 -86 -82 l-527 0 q-86 0 -82 70 l0 243 ZM812 37 q20 -4 20 15 l0 156 q0 16 -20 16 l-437 0 q-16 -4 -16 -16 l0 -152 q0 -23 20 -19 l433 0 Z" /><glyph glyph-name="uni5462" unicode="&#x5462;" d="M375 365 l0 336 q-4 86 78 86 l356 0 q97 0 97 -79 l0 -175 q12 -86 -94 -75 l-183 0 l0 -167 q109 46 191 117 q51 39 86 0 q31 -43 -15 -86 q-110 -98 -262 -153 l0 -93 q-4 -39 35 -32 l117 0 q67 -15 63 133 q0 55 51 63 q54 0 58 -55 q0 -172 -31 -195 q-43 -43 -117 -47 l-164 0 q-125 0 -121 101 l0 414 l-36 0 l0 -89 q-4 -254 -66 -387 q-31 -55 -86 -43 q-47 19 -23 78 q66 141 66 348 ZM133 83 q-71 -7 -63 86 l0 524 q0 62 67 66 l125 0 q66 -4 70 -78 l0 -512 q0 -86 -74 -86 l-125 0 ZM785 564 q12 0 12 12 l0 93 q-4 8 -12 12 l-289 0 q-12 -4 -12 -12 l0 -105 l301 0 ZM219 185 q11 0 11 12 l0 445 q0 12 -11 12 l-35 0 q-12 0 -12 -12 l0 -445 q0 -12 12 -12 l35 0 Z" /><glyph glyph-name="uni5468" unicode="&#x5468;" d="M117 701 q-8 105 90 97 l613 0 q98 8 90 -93 l0 -688 q4 -98 -86 -94 q-183 -4 -176 78 q0 28 12 36 l-328 0 q-74 -8 -66 66 l0 148 q-8 75 66 71 l359 0 q63 0 63 -63 l0 -148 q0 -63 -35 -70 q0 -4 8 -4 q19 -4 46 -4 q32 -8 32 23 l0 606 q0 31 -28 31 l-211 0 l0 -63 l164 0 q40 -4 43 -50 q-3 -51 -43 -51 l-164 0 l0 -59 l180 0 q35 -4 39 -51 q-4 -50 -39 -50 l-465 0 q-39 0 -43 50 q4 47 43 51 l176 0 l0 59 l-156 0 q-47 0 -47 51 q0 46 47 50 l156 0 l0 63 l-207 0 q-31 0 -27 -35 l0 -321 q-4 -214 -39 -355 q-16 -66 -75 -55 q-58 8 -39 78 q43 157 47 336 l0 360 ZM652 205 q0 19 -19 19 l-246 0 q-24 0 -20 -19 l0 -51 q-4 -24 20 -20 l246 0 q19 -4 19 20 l0 51 Z" /><glyph glyph-name="uni547D" unicode="&#x547d;" d="M86 638 q187 63 344 168 q70 67 156 8 q180 -102 340 -160 q47 -28 27 -86 q-31 -39 -74 -20 q-27 4 -70 24 q-20 8 -28 11 q12 -66 -47 -70 l-453 0 q-47 0 -47 51 q-50 -23 -101 -39 q-67 -16 -90 31 q-16 55 43 82 ZM699 626 q-74 32 -144 75 q-16 7 -24 11 q-8 12 -19 8 q-8 0 -20 -8 q-12 -7 -19 -11 q-24 -16 -63 -39 q-43 -24 -62 -36 l351 0 ZM520 392 q3 66 89 74 l211 0 q94 4 90 -82 l0 -316 q0 -117 -121 -117 q-43 0 -78 4 q-55 11 -51 62 q16 43 70 39 q67 -15 63 24 l0 257 q0 12 -16 16 l-121 0 q-23 0 -19 -16 l0 -382 q-4 -47 -59 -51 q-58 4 -58 51 l0 437 ZM199 -22 q-94 0 -90 86 l0 312 q0 86 82 90 l184 0 q94 -4 94 -86 l0 -320 q0 -82 -86 -82 l-184 0 ZM340 87 q15 -4 15 16 l0 230 q0 16 -11 16 l-110 0 q-15 0 -15 -16 l0 -230 q0 -20 15 -16 l106 0 Z" /><glyph glyph-name="uni548C" unicode="&#x548c;" d="M117 779 q160 8 324 35 q12 0 20 4 q47 8 62 -39 q8 -51 -35 -67 q-43 -15 -113 -23 l0 -109 l98 0 q47 -4 50 -59 q0 -59 -46 -59 l-102 0 l0 -62 q0 0 4 0 q16 16 86 -55 q78 -78 86 -117 l0 473 q-8 74 101 74 l188 0 q94 8 86 -78 l0 -660 q8 -71 -86 -67 l-188 0 q-109 0 -101 74 l0 172 q-20 -70 -86 -43 q-39 28 -94 102 l0 -309 q-4 -43 -55 -47 q-54 4 -54 47 l0 328 q-51 -117 -114 -195 q-39 -47 -86 -19 q-42 35 -7 82 q113 156 172 300 l-122 0 q-43 0 -46 59 q7 55 50 59 l153 0 l0 97 q-94 -11 -137 -11 q-43 0 -51 54 q0 51 43 59 ZM805 72 q15 -4 15 15 l0 563 q0 16 -11 16 l-129 0 q-24 0 -24 -20 l0 -551 q-4 -27 20 -23 l129 0 Z" /><glyph glyph-name="uni54C1" unicode="&#x54c1;" d="M223 447 q-90 -4 -86 90 l0 183 q0 86 74 86 l574 0 q86 0 86 -86 l0 -179 q0 -98 -98 -94 l-550 0 ZM258 669 l0 -86 q-4 -23 23 -19 l446 0 q19 -4 19 19 l0 86 q0 24 -19 24 l-446 0 q-27 0 -23 -24 ZM160 -53 q-82 0 -78 74 l0 301 q0 82 82 86 l219 0 q90 0 90 -98 l0 -281 q0 -82 -90 -82 l-223 0 ZM613 -53 q-93 -4 -90 90 l0 277 q-3 94 94 94 l215 0 q86 0 82 -78 l0 -309 q0 -74 -82 -74 l-219 0 ZM199 80 q-4 -24 20 -20 l113 0 q20 -4 20 20 l0 191 q0 20 -20 20 l-113 0 q-20 0 -20 -20 l0 -191 ZM641 76 q-4 -24 19 -20 l113 0 q20 -4 20 20 l0 195 q0 20 -20 20 l-113 0 q-19 -4 -19 -20 l0 -195 Z" /><glyph glyph-name="uni54C8" unicode="&#x54c8;" d="M328 623 q8 15 31 27 q86 43 196 141 q70 70 148 0 q117 -94 223 -145 q47 -23 27 -82 q-27 -47 -78 -20 q-113 55 -211 133 q-31 24 -55 0 q-23 -19 -54 -43 q-86 -66 -133 -90 q-70 -39 -94 -7 l0 -477 q4 -62 -66 -59 l-121 0 q-71 0 -71 59 l0 645 q-4 66 71 66 l109 0 q78 0 78 -74 l0 -74 ZM187 99 l28 0 q12 0 12 12 l0 539 q0 12 -12 12 l-28 0 q-11 0 -11 -12 l0 -539 q0 -12 11 -12 ZM461 447 q-47 0 -47 51 q0 50 47 54 l363 0 q43 -4 47 -54 q0 -51 -43 -51 l-367 0 ZM379 298 q-4 63 78 67 l359 0 q90 -8 94 -71 l0 -273 q0 -78 -82 -78 l-355 0 q-94 4 -94 78 l0 277 ZM492 64 q0 -20 20 -16 l269 0 q20 -4 20 20 l0 164 q0 19 -20 19 l-273 0 q-20 0 -16 -19 l0 -168 Z" /><glyph glyph-name="uni54CD" unicode="&#x54cd;" d="M430 732 l86 0 q15 35 23 59 q20 50 78 39 q59 -20 43 -71 q-4 -4 -8 -15 q-4 -12 -4 -12 l207 0 q75 0 75 -94 l0 -621 q0 -125 -200 -86 q-70 16 -78 63 q-4 50 59 50 q4 -3 27 -7 q82 -16 82 19 l0 543 q-4 24 -19 24 l-321 0 q-19 0 -19 -24 l0 -641 q-4 -39 -55 -42 q-51 3 -51 42 l0 684 q0 86 75 90 ZM137 21 q-67 0 -59 59 l0 621 q0 70 51 74 l129 0 q62 0 62 -59 l0 -640 q0 -55 -62 -55 l-121 0 ZM176 673 l0 -554 l47 0 l0 554 l-47 0 ZM492 482 q-4 86 63 86 l160 0 q66 0 66 -67 l0 -347 q0 -71 -74 -67 l-141 0 q-74 0 -74 79 l0 316 ZM676 193 l0 273 l-78 0 l0 -273 l78 0 Z" /><glyph glyph-name="uni54E6" unicode="&#x54e6;" d="M625 580 l0 199 q0 51 51 54 q51 -3 54 -54 l0 -199 l176 0 q39 -4 39 -55 q-8 -51 -47 -51 l-164 0 q4 -78 16 -152 q31 54 39 86 q4 8 8 11 q23 43 70 28 q35 -24 20 -74 q-4 -4 -4 -8 q-28 -67 -94 -184 q31 -98 59 -113 q4 -4 4 15 q3 12 3 90 q0 55 51 59 q47 -4 51 -59 q0 -152 -20 -203 q-19 -54 -66 -54 q-82 3 -156 167 q-39 -42 -82 -66 q-8 -8 -8 -12 q-51 -31 -90 -4 q-39 32 4 71 q59 43 137 129 q-43 109 -47 273 l-109 0 l0 -101 q78 46 105 -4 q16 -28 -4 -59 q-12 -23 -105 -66 l0 -231 q0 -94 -86 -90 q-145 -4 -129 71 q-4 47 66 35 q47 -8 47 19 l0 153 q-90 -47 -102 -4 l0 -117 q8 -63 -70 -59 l-125 0 q-70 -8 -62 74 l0 598 q-4 86 70 82 l121 0 q66 0 66 -70 l0 -164 q12 35 47 35 l59 0 l0 109 q-106 -27 -98 31 q-8 47 86 63 q8 0 16 4 q35 4 82 19 q43 12 58 12 q47 -8 47 -55 q4 -39 -89 -58 l0 -121 l105 0 ZM844 630 q-4 0 -4 4 q-35 55 -74 106 q-28 35 11 66 q43 24 75 -8 q7 -15 54 -78 q20 -27 28 -35 q23 -43 -16 -70 q-43 -24 -74 15 ZM211 130 l0 528 q0 11 -12 11 l-27 0 q-12 0 -12 -11 l0 -528 q0 -11 12 -11 l27 0 q12 0 12 11 ZM312 498 l0 -227 q8 8 12 12 l94 47 l0 140 l-63 0 q-35 -8 -43 28 Z" /><glyph glyph-name="uni5524" unicode="&#x5524;" d="M543 689 q-12 -16 -23 -27 q-24 -36 -51 -63 l215 0 q7 8 46 90 l-187 0 ZM316 87 q4 -74 -78 -70 l-113 0 q-59 -4 -55 70 l0 610 q-4 74 59 74 l125 0 q62 0 62 -82 l0 -602 ZM180 115 l27 0 q12 0 12 11 l0 532 q0 11 -12 11 l-27 0 q-12 0 -12 -11 l0 -532 q0 -11 12 -11 ZM508 494 q-31 0 -28 -28 l0 -195 l79 0 q19 94 27 223 l-78 0 ZM363 162 q-43 0 -47 54 q8 51 51 55 l4 0 l0 258 q-90 31 -23 113 q74 82 125 160 q78 78 117 -8 l215 0 q93 -7 54 -97 q-19 -39 -27 -55 q-12 -19 -20 -43 l32 0 q70 0 70 -62 l0 -266 q39 -4 47 -55 q-4 -54 -43 -54 l-207 0 q74 -98 207 -141 q62 -23 39 -78 q-27 -39 -70 -27 q-125 27 -270 187 q-97 -133 -269 -191 q-55 -12 -78 35 q-16 51 35 70 q172 51 218 145 l-160 0 ZM672 271 l133 0 l0 187 q0 36 -32 36 l-74 0 q-8 -110 -27 -223 Z" /><glyph glyph-name="uni552E" unicode="&#x552e;" d="M352 779 q-4 -20 -16 -35 q0 -8 -4 -16 l168 0 q-12 8 -20 31 q-3 8 -3 16 q11 98 109 31 q35 -66 16 -78 l289 0 q39 -4 43 -55 q-8 -47 -47 -47 l-293 0 l0 -43 l273 0 q35 -3 39 -46 q-4 -43 -39 -43 l-273 0 l0 -43 l261 0 q43 -4 47 -47 q0 -43 -43 -43 l-265 0 l0 -43 l308 0 q43 -4 47 -51 q0 -47 -43 -47 l-625 0 q0 -39 -31 -35 l570 0 q90 4 82 -82 l0 -86 q0 -82 -82 -82 l-586 0 q-86 0 -82 82 l0 82 q-4 86 39 86 q-31 -4 -27 39 l0 262 q-12 -20 -35 -31 q-51 -36 -82 3 q-31 43 12 86 q101 94 168 231 q11 27 19 35 q86 47 106 -31 ZM293 626 q-12 0 -12 -11 l0 -32 l199 0 l0 43 l-187 0 ZM480 451 l0 43 l-199 0 l0 -43 l199 0 ZM480 318 l0 43 l-199 0 l0 -43 l199 0 ZM273 83 q-11 -3 -11 -11 l0 -35 q0 -12 11 -12 l508 0 q12 0 12 12 l0 35 q0 11 -12 11 l-508 0 Z" /><glyph glyph-name="uni554A" unicode="&#x554a;" d="M309 -34 l0 746 q-4 86 78 86 l105 0 q63 0 70 -43 q0 36 51 36 l317 0 q35 -4 39 -55 q-4 -51 -43 -51 l-8 0 l0 -668 q0 -94 -98 -94 q-230 -7 -207 94 q4 31 47 35 q20 0 59 -11 q39 -12 58 -8 q35 -8 32 39 l0 613 l-200 0 q-39 -4 -47 27 l-39 -214 q36 -94 55 -188 l0 258 q0 66 63 70 l70 0 q74 4 70 -66 l0 -395 q8 -78 -66 -70 l-51 0 q-98 -12 -86 62 l0 63 q-16 -102 -90 -117 q-43 -8 -74 4 l0 -149 q-4 -43 -55 -47 q-50 0 -50 43 ZM129 80 q-70 -8 -63 82 l0 523 q0 70 59 74 l98 0 q66 4 62 -78 l0 -527 q8 -86 -62 -74 l-94 0 ZM426 490 l27 207 l-43 0 l0 -477 q70 -23 70 59 q0 51 -54 211 ZM195 177 l0 485 l-35 0 l0 -485 l35 0 ZM664 201 l35 0 l0 343 l-35 0 l0 -343 Z" /><glyph glyph-name="uni5565" unicode="&#x5565;" d="M320 673 l0 -50 q0 11 32 23 q15 8 23 12 q121 90 203 160 q39 31 82 8 q176 -121 289 -180 q31 -23 12 -74 q-27 -51 -59 -31 q-4 3 -7 3 q-4 -50 -51 -50 l-153 0 l0 -71 l215 0 q39 -4 39 -54 q0 -51 -39 -51 l-215 0 l0 -55 l176 0 q47 -4 51 -55 l0 -203 q4 -74 -70 -70 l-407 0 q-82 4 -78 78 l0 184 q0 62 67 66 l144 0 l0 55 l-203 0 q-43 -4 -51 19 l0 -281 q8 -74 -82 -70 l-97 0 q-86 -8 -75 78 l0 609 q-7 106 67 102 l125 0 q66 8 62 -102 ZM609 693 q-109 -90 -117 -94 l313 0 q-86 47 -149 98 q-27 19 -47 -4 ZM168 83 l51 0 l0 586 l-51 0 l0 -586 ZM574 498 l-137 0 q-50 3 -46 43 q-47 -36 -71 7 l0 -144 q12 15 51 19 l203 0 l0 75 ZM492 33 l293 0 q24 -4 24 19 l0 86 q-4 16 -20 20 l-297 0 q-15 -4 -19 -20 l0 -86 q0 -23 19 -19 Z" /><glyph glyph-name="uni55EF" unicode="&#x55ef;" d="M430 255 q-82 -7 -75 78 l0 391 q0 74 75 74 l414 0 q70 0 70 -74 l0 -391 q4 -82 -86 -78 l-148 0 q11 -11 27 -43 q23 -62 -16 -82 q-50 -23 -74 24 q-23 31 -39 62 q-12 16 0 39 l-148 0 ZM137 60 q-71 -4 -67 63 l0 574 q4 66 63 70 l117 0 q62 -4 66 -70 l0 -574 q-4 -63 -62 -63 l-117 0 ZM473 580 q0 39 39 43 l66 0 q-8 15 -4 39 q0 39 35 43 l-129 0 q-23 -4 -23 -24 l0 -308 q0 -24 23 -24 l305 0 q27 -4 27 27 l0 305 q0 24 -23 24 l-141 0 q32 -8 32 -43 q0 -20 0 -39 l74 0 q39 -4 43 -43 q0 -47 -43 -43 l-90 0 q66 -36 109 -86 q28 -35 -3 -71 q-32 -23 -59 4 q-20 20 -78 74 q-35 -54 -82 -82 q-43 -31 -74 4 q-28 32 15 75 q47 39 67 82 l-47 0 q-39 0 -39 43 ZM164 185 q0 -19 16 -19 l27 0 q16 0 16 19 l0 457 q0 20 -20 20 l-19 0 q-20 0 -20 -20 l0 -457 ZM520 -49 q-79 0 -75 70 l0 156 q-4 51 55 51 q51 0 51 -51 l0 -117 q-4 -19 19 -19 l114 0 q43 -4 50 50 q8 43 55 35 q-35 55 12 82 q43 16 74 -19 q51 -78 78 -156 q20 -59 -19 -78 q-55 -20 -79 35 q-11 31 -23 54 q-23 -93 -94 -93 l-218 0 ZM340 166 q15 39 66 27 q39 -20 31 -55 q-31 -97 -82 -168 q-27 -43 -74 -19 q-39 27 -11 66 q42 51 70 149 Z" /><glyph glyph-name="uni561B" unicode="&#x561b;" d="M320 662 q-4 89 82 89 l172 0 l-4 8 q-19 39 35 59 q55 15 86 -35 l16 -32 l199 0 q35 -3 39 -50 q-4 -47 -39 -47 l-101 0 q15 -12 19 -31 l0 -82 l74 0 q36 -4 36 -47 q0 -47 -36 -47 l-74 0 l0 -28 q74 -187 129 -277 q20 -43 -16 -66 q-39 -16 -62 23 q-16 24 -51 113 l0 -254 q-4 -42 -47 -46 q-43 4 -43 46 l0 211 q-19 -58 -35 -78 q-27 -39 -70 -23 q-35 23 -12 66 q90 172 102 313 l-32 0 q-15 0 -27 11 q-4 -15 -27 -15 l-39 0 l0 -16 q0 -15 51 -70 q15 -20 19 -20 q0 -4 0 -7 q12 -16 12 -20 q-20 -66 -67 -35 q-4 0 -7 4 q-4 8 -8 15 l0 -336 q-4 -42 -47 -46 q-43 4 -43 46 l0 211 q-27 -97 -78 -101 q-24 -8 -35 15 q-4 -15 -8 -31 q-12 -51 -24 -86 q-23 -43 -66 -31 q-39 20 -27 63 q11 39 23 93 q-19 -23 -51 -23 l-113 0 q-59 0 -59 43 l0 578 q-4 66 59 66 l121 0 q51 0 51 -70 l0 -535 q0 -27 -4 -43 q19 66 27 273 l0 282 ZM168 166 l27 0 q12 0 12 11 l0 469 q0 12 -12 12 l-27 0 q-12 0 -12 -12 l0 -469 q0 -11 12 -11 ZM516 654 l-86 0 q-16 -4 -16 -16 l0 -121 q8 16 27 20 l63 0 l0 89 q0 20 12 28 ZM633 537 q23 -4 27 -24 q4 24 27 28 l47 0 l0 82 q0 23 24 31 l-188 0 q24 -8 24 -28 l0 -89 l39 0 ZM398 158 q67 113 90 285 l-47 0 q-19 0 -27 19 l0 -113 q0 -101 -16 -191 Z" /><glyph glyph-name="uni5668" unicode="&#x5668;" d="M160 509 q-90 -8 -82 90 l0 121 q0 74 74 82 l231 0 q74 0 78 -86 l0 -136 q0 -16 -4 -32 q43 4 59 -27 q15 -35 -12 -63 l156 0 l-27 51 l-35 0 q-78 0 -78 82 l0 125 q-4 86 93 86 l215 0 q86 -4 86 -74 l0 -133 q0 -90 -82 -86 l-82 0 l27 -51 l121 0 q51 -3 59 -54 q0 -59 -51 -59 l-203 0 q86 -54 195 -82 q55 -15 59 -66 q-8 -59 -59 -47 l0 -117 q0 -82 -86 -82 l-207 0 q-85 4 -85 74 l0 156 q0 86 82 90 l19 0 q-8 4 -16 8 q-39 35 -62 66 l-109 0 q-36 -43 -94 -78 l47 0 q82 0 82 -74 l0 -176 q0 -70 -82 -70 l-203 0 q-86 -4 -82 74 l0 117 q-98 4 -47 98 q4 0 39 15 q133 55 179 94 l-191 0 q-47 0 -47 55 q4 55 51 58 l285 0 q27 28 51 59 q-16 -12 -31 -8 l-231 0 ZM187 626 q-3 -15 12 -11 l141 0 q12 -4 15 15 l0 51 q-3 16 -15 16 l-141 0 q-12 0 -12 -16 l0 -55 ZM809 630 l0 51 q-4 16 -20 16 l-144 0 q-20 0 -16 -16 l0 -55 q-4 -19 16 -15 l144 0 q16 0 20 19 ZM363 64 l0 78 q0 20 -19 20 l-117 0 q-20 0 -20 -20 l0 -78 q-4 -23 20 -23 l117 0 q19 0 19 23 ZM629 68 q-4 -24 16 -20 l128 0 q16 0 20 20 l0 82 q0 16 -20 16 l-128 0 q-20 0 -16 -16 l0 -82 Z" /><glyph glyph-name="uni566A" unicode="&#x566a;" d="M129 87 q-63 0 -63 63 l0 547 q0 70 67 74 l97 0 q71 4 67 -74 l0 -457 q0 23 31 27 l227 0 l0 55 q-8 -8 -20 -4 l-144 0 q-75 -4 -71 58 l0 114 q-4 62 75 62 l128 0 q75 -4 75 -62 l0 -110 q-4 -19 -8 -31 q35 8 55 -4 q0 0 -4 12 q0 12 0 19 l0 106 q0 62 66 66 l148 0 q67 -4 71 -58 l0 -110 q4 -70 -63 -62 l-172 0 q-19 0 -31 12 l0 -67 l250 0 q39 -4 43 -51 q-8 -46 -47 -46 l-176 0 q82 -86 188 -137 q55 -28 16 -82 q-32 -31 -98 8 q-113 66 -176 144 l0 -137 q-4 -39 -58 -43 q-51 8 -51 47 l0 117 q-78 -93 -215 -136 q-59 -16 -78 27 q-8 47 47 63 q121 39 191 132 l-168 0 q-27 -3 -31 16 l0 -43 q-4 -55 -59 -55 l-109 0 ZM172 673 q-16 -4 -16 -19 l0 -449 q-4 -20 16 -20 l19 0 q16 0 16 20 l0 449 q-4 15 -16 19 l-19 0 ZM434 466 q-12 0 -12 -11 l0 -43 q0 -12 12 -12 l54 0 q8 0 12 12 l0 43 q-4 7 -12 11 l-54 0 ZM742 408 q0 -12 12 -12 l62 0 q8 0 12 12 l0 47 q-4 7 -12 11 l-62 0 q-12 0 -12 -11 l0 -47 ZM477 681 q0 -12 11 -12 l282 0 q11 0 11 12 l0 24 q-4 7 -11 11 l-282 0 q-11 -4 -11 -11 l0 -24 ZM445 583 q-82 -7 -74 71 l0 86 q-4 62 78 62 l367 0 q67 -4 71 -62 l0 -82 q0 -78 -71 -75 l-371 0 Z" /><glyph glyph-name="uni56DB" unicode="&#x56db;" d="M82 685 q-4 94 86 94 l676 0 q82 4 78 -94 l0 -617 q4 -90 -102 -86 l-625 0 q-121 -4 -113 90 l0 613 ZM195 240 q4 11 32 35 q109 78 109 262 l0 136 l-113 0 q-28 -4 -28 -31 l0 -402 ZM664 224 q-117 -8 -109 109 l0 340 l-110 0 l0 -140 q4 -270 -164 -364 q-78 -31 -86 39 l0 -85 q-4 -43 39 -40 l539 0 q36 0 36 40 l0 101 l-145 0 ZM664 392 q-8 -70 55 -62 l90 0 l0 316 q-4 23 -28 27 l-117 0 l0 -281 Z" /><glyph glyph-name="uni56ED" unicode="&#x56ed;" d="M78 708 q-8 106 98 98 l652 0 q102 0 98 -94 l0 -668 q0 -97 -102 -97 l-652 0 q-94 4 -94 101 l0 660 ZM777 689 l-554 0 q-28 -4 -28 -27 l0 -582 q-4 -28 35 -24 l551 0 q24 -4 28 27 l0 583 q-4 23 -32 23 ZM316 537 q-46 0 -50 54 q4 51 50 55 l387 0 q39 -4 43 -63 q0 -46 -43 -46 l-387 0 ZM270 376 q-51 0 -51 55 q4 51 54 55 l457 0 q47 -4 51 -55 q-4 -55 -51 -55 l-97 0 l0 -160 q-4 -27 27 -23 l16 0 q23 -12 23 51 q0 39 47 43 q43 -4 47 -47 q8 -168 -109 -149 l-47 0 q-117 -4 -110 94 l0 191 l-54 0 q-24 -179 -137 -273 q-59 -47 -102 -16 q-35 43 16 90 q98 82 113 199 l-93 0 Z" /><glyph glyph-name="uni56F4" unicode="&#x56f4;" d="M82 728 q-4 86 86 86 l652 0 q102 0 102 -94 l0 -679 q0 -86 -82 -86 l-668 0 q-94 0 -90 93 l0 680 ZM254 650 l176 0 q0 27 15 47 l-230 0 q-24 -4 -20 -20 l0 -594 q0 -23 20 -19 l250 0 q-35 4 -35 39 l0 176 l-180 0 q-47 0 -47 47 q0 47 47 50 l180 0 l0 43 l-164 0 q-75 43 0 94 l164 0 l0 39 l-180 0 q-47 0 -47 47 q4 47 51 51 ZM508 64 l281 0 q16 0 20 19 l0 594 q0 16 -24 20 l-262 0 q16 -12 20 -47 l199 0 q43 -4 47 -51 q-4 -47 -47 -47 l-199 0 l0 -39 l191 0 q71 -51 -4 -94 l-187 0 l0 -43 l152 0 q82 8 78 -93 q4 -192 -132 -172 q-43 0 -63 8 q-58 66 16 101 q15 -8 51 -4 q23 -8 23 55 q0 4 -12 8 l-113 0 l0 -176 q-4 -35 -35 -39 Z" /><glyph glyph-name="uni56FA" unicode="&#x56fa;" d="M66 736 q-7 74 86 70 l700 0 q89 0 85 -74 l0 -711 q0 -86 -82 -86 l-714 0 q-82 -4 -75 86 l0 715 ZM562 693 l0 -74 l266 0 l0 47 q0 27 -23 27 l-243 0 ZM184 615 l261 0 l0 78 l-238 0 q-27 0 -23 -27 l0 -51 ZM824 501 l-262 0 l0 -66 l137 0 q74 4 71 -66 l0 -219 q0 -70 -90 -67 l-379 0 q-86 -7 -78 75 l0 203 q-8 78 78 74 l144 0 l0 63 l-265 0 l0 -422 q-4 -43 31 -35 l586 0 q27 -4 27 27 l0 433 ZM363 197 l278 0 q23 -4 23 23 l0 74 q0 28 -23 28 l-282 0 q-23 0 -19 -24 l0 -82 q-4 -23 23 -19 Z" /><glyph glyph-name="uni56FD" unicode="&#x56fd;" d="M78 712 q-4 86 78 86 l688 0 q86 -4 86 -78 l0 -699 q0 -70 -86 -70 l-680 0 q-90 0 -86 70 l0 691 ZM816 677 q-4 16 -19 16 l-590 0 q-23 0 -20 -20 l0 -605 q0 -16 20 -16 l594 0 q15 0 15 20 l0 605 ZM437 537 l-175 0 q-43 0 -51 46 q4 47 47 51 l488 0 q43 -4 47 -51 q-4 -46 -47 -46 l-199 0 l0 -94 l180 0 q39 -4 43 -51 q-4 -47 -40 -47 l-183 0 l0 -113 l94 0 q-20 8 -36 39 q-23 31 8 55 q35 19 67 -4 q66 -63 47 -90 l27 0 q39 -4 47 -51 q-4 -51 -43 -51 l-504 0 q-43 0 -47 51 q4 47 47 51 l183 0 l0 113 l-179 0 q-39 0 -39 47 q0 47 39 51 l179 0 l0 94 Z" /><glyph glyph-name="uni56FE" unicode="&#x56fe;" d="M168 -53 q-98 -4 -86 78 l0 672 q-8 97 82 94 l672 0 q94 7 90 -94 l0 -672 q8 -86 -90 -78 l-668 0 ZM215 697 q-31 0 -28 -28 l0 -597 q-3 -35 32 -31 l574 0 q27 -4 27 27 l0 598 q0 31 -27 31 l-578 0 ZM430 521 q19 -16 78 -35 q27 12 51 23 q7 4 7 8 q-4 0 -15 4 l-121 0 ZM242 552 q24 16 51 35 q82 55 117 86 q39 32 78 0 q24 -31 4 -58 l223 0 q39 -4 51 -28 q7 -27 -24 -58 q-58 -51 -117 -82 q20 -12 86 -24 q39 -4 59 -7 q50 -12 39 -67 q-8 -43 -63 -35 q-86 8 -230 59 q-168 -67 -258 -75 q-63 -11 -63 47 q-11 43 43 55 q78 8 168 39 q-58 23 -86 47 q-19 -12 -15 -12 q-39 -19 -63 8 q-39 39 0 70 ZM336 185 q12 43 66 35 q133 -23 258 -58 q43 -20 35 -59 q-15 -51 -62 -35 q-59 15 -172 39 q-47 12 -86 23 q-55 8 -39 55 ZM617 263 q-8 -39 -47 -31 q-31 4 -74 16 q-19 0 -35 7 q-43 4 -31 55 q7 31 54 27 q67 -11 110 -27 q27 -12 23 -47 Z" /><glyph glyph-name="uni5706" unicode="&#x5706;" d="M195 -49 q-125 -8 -113 90 l0 679 q-4 86 90 86 l668 0 q82 -8 90 -74 l0 -680 q0 -105 -102 -101 l-633 0 ZM195 83 q-4 -42 39 -39 l555 0 q27 0 27 28 l0 597 q0 28 -27 28 l-559 0 q-35 -4 -35 -31 l0 -583 ZM695 76 q-50 35 -121 70 q-43 20 -31 59 q23 35 70 23 q78 -27 137 -78 q31 -35 8 -67 q-28 -35 -63 -7 ZM258 251 l0 122 q-4 82 74 82 l348 0 q82 0 82 -75 l0 -129 q-4 -39 -55 -39 q-51 0 -51 39 l0 102 q0 12 -15 16 l-262 0 q-16 -4 -16 -16 l0 -102 q-4 -43 -54 -46 q-51 3 -51 46 ZM312 490 q-62 -4 -58 51 l0 66 q0 55 58 59 l383 0 q63 -4 67 -51 l0 -63 q4 -70 -63 -62 l-387 0 ZM656 595 l-297 0 l0 -39 l297 0 l0 39 ZM293 150 q125 27 152 141 q16 42 63 31 q43 -16 31 -63 q-55 -164 -211 -195 q-55 -12 -70 23 q-12 43 35 63 Z" /><glyph glyph-name="uni5723" unicode="&#x5723;" d="M172 701 q-43 0 -51 50 q4 55 47 59 l648 0 q43 -4 55 -27 q16 -28 -12 -63 q-89 -105 -250 -215 q67 -35 278 -62 q50 -12 47 -70 q-12 -55 -67 -47 q-226 31 -379 113 q-144 -74 -363 -94 q-59 -8 -70 39 q-8 59 47 74 q195 20 289 55 q-102 70 -180 188 l-39 0 ZM648 705 l-296 0 q62 -79 152 -137 q74 39 152 109 q12 12 8 20 q0 4 -16 8 ZM453 294 l0 63 q0 39 55 47 q54 -4 58 -43 l0 -67 l282 0 q43 -3 50 -54 q-3 -55 -46 -55 l-286 0 l0 -125 l340 0 q43 -4 47 -47 q0 -51 -43 -55 l-808 0 q-55 4 -55 59 q8 39 62 43 l344 0 l0 125 l-289 0 q-51 0 -51 55 q8 51 59 54 l281 0 Z" /><glyph glyph-name="uni5728" unicode="&#x5728;" d="M121 740 l258 0 q4 11 16 39 q19 58 54 62 q63 4 74 -47 q-3 -23 -15 -54 l394 0 q51 -4 51 -63 q-8 -54 -58 -54 l-430 0 q-70 -137 -168 -254 l0 -414 q-4 -36 -59 -39 q-51 3 -51 42 l0 293 q-27 -31 -46 -39 q-59 -31 -90 12 q-20 43 31 86 q59 51 98 98 l0 39 q0 74 74 58 q43 55 78 118 l-211 0 q-55 0 -59 58 q4 55 59 59 ZM422 419 l164 0 l0 122 q0 46 59 46 q54 -4 58 -50 l0 -118 l168 0 q51 -3 59 -58 q-4 -55 -55 -55 l-172 0 l0 -246 l203 0 q43 -4 47 -51 q-4 -51 -47 -54 l-515 0 q-55 3 -55 58 q4 43 62 47 l188 0 l0 246 l-172 0 q-51 0 -51 59 q8 51 59 54 Z" /><glyph glyph-name="uni5730" unicode="&#x5730;" d="M496 564 l86 43 l0 156 q0 47 59 51 q54 -4 58 -51 l0 -109 l98 47 q101 43 117 -82 l0 -282 q0 -109 -74 -125 q-82 -23 -141 24 l0 -78 q-4 -51 -58 -55 q-59 4 -59 55 l0 320 l-86 -43 l0 -344 q-4 -58 55 -54 l199 0 q86 -8 82 101 q0 47 55 51 q50 -8 54 -55 q-4 -113 -43 -156 q-43 -43 -136 -47 l-196 0 q-187 0 -183 145 l0 312 q-12 -8 -24 -8 q-70 -4 -54 82 l-35 0 l0 -304 q27 19 50 19 q39 -4 47 -47 q4 -39 -35 -66 q-51 -35 -172 -82 q-12 -4 -23 -12 q-63 -23 -90 24 q-16 43 39 78 q23 11 66 35 l0 355 l-50 0 q-47 0 -51 59 q4 55 51 59 l50 0 l0 164 q0 47 55 50 q59 0 63 -46 l0 -168 l42 0 q51 -12 40 -71 l31 16 l0 164 q0 43 54 47 q55 -4 59 -47 l0 -125 ZM746 330 q55 -16 51 11 l0 207 q0 12 -8 16 q-4 4 -16 0 l-74 -35 l0 -211 q12 23 47 12 Z" /><glyph glyph-name="uni573A" unicode="&#x573a;" d="M94 607 l62 0 l0 168 q0 47 55 51 q55 -4 59 -51 l0 -168 l62 0 q51 -4 51 -63 q-8 -54 -59 -54 l-54 0 l0 -203 q0 0 3 4 q55 42 79 42 q74 -15 35 -89 q-176 -164 -289 -192 q-51 0 -59 39 q-4 39 39 71 q12 7 24 15 q31 20 54 35 l0 278 l-58 0 q-51 0 -59 54 q4 59 55 63 ZM406 681 q-51 0 -58 55 q0 58 50 62 l450 0 q58 -4 62 -43 q0 -39 -58 -86 q-137 -117 -243 -179 l227 0 q113 8 105 -106 l0 -136 q0 -145 -11 -204 q-12 -50 -39 -82 q-59 -46 -204 -23 q-54 16 -50 62 q11 40 66 40 q39 -8 67 -4 q42 -8 50 46 q12 47 12 266 q0 20 -20 20 l-35 0 q-62 -317 -254 -430 q-58 -35 -97 4 q-31 43 23 78 q164 94 219 348 l-66 0 q-75 -211 -207 -313 q-55 -35 -90 -4 q-32 43 15 86 q121 94 168 231 l-54 0 q-63 0 -79 31 q-15 39 28 74 q4 4 35 20 q160 101 269 187 l-281 0 Z" /><glyph glyph-name="uni573E" unicode="&#x573e;" d="M66 583 l71 0 l0 204 q58 82 117 0 l0 -204 l66 0 q35 -3 35 -58 q0 -55 -35 -55 l-66 0 l0 -254 q4 0 16 4 q7 4 15 8 q27 12 55 -16 q55 141 55 383 l0 74 l-86 0 q-47 0 -47 59 q0 59 47 63 l496 0 q109 -8 74 -106 q-51 -109 -55 -125 l35 0 q90 8 63 -86 q-55 -187 -160 -332 q70 -55 191 -117 q35 -16 24 -70 q-28 -47 -79 -28 q-101 39 -218 129 q-121 -98 -239 -152 q-62 -20 -97 15 q-28 55 35 94 q144 63 215 129 q-67 74 -114 168 q-50 -273 -210 -383 q-59 -27 -98 8 q-31 43 15 82 q55 39 86 82 q-70 -35 -164 -66 q-54 -12 -78 27 q-19 55 28 78 q19 8 54 20 q16 8 24 11 l0 301 l-71 0 q-35 0 -35 55 q0 55 35 58 ZM512 669 q-4 -23 -4 -46 q0 -28 0 -47 q0 -47 0 -82 q66 -172 168 -278 q74 106 117 207 q4 20 -16 24 l-31 0 q-98 -4 -55 101 q24 59 51 121 l-230 0 Z" /><glyph glyph-name="uni574F" unicode="&#x574f;" d="M82 662 l63 0 l0 125 q0 39 54 43 q55 -4 59 -43 l0 -125 l54 0 q55 -4 55 -63 q-4 -58 -58 -58 l-51 0 l0 -204 q15 4 39 24 q51 23 78 -24 q16 -43 -31 -78 q-141 -90 -227 -133 q-47 -19 -74 24 q-23 51 23 74 q36 16 79 47 l0 270 l-63 0 q-47 0 -51 58 q4 59 51 63 ZM359 677 q-47 0 -47 55 q0 55 47 59 l551 0 q47 -4 51 -59 q-4 -55 -51 -55 l-199 0 q-27 -90 -35 -105 l0 -67 q54 47 101 -27 q98 -168 180 -324 q20 -55 -27 -86 q-51 -24 -78 31 q-4 0 -20 31 q-35 71 -148 286 l0 -465 q-4 -47 -59 -51 q-55 4 -55 51 l0 394 q-101 -168 -215 -265 q-50 -39 -89 -4 q-39 47 4 86 q230 199 320 515 l-231 0 Z" /><glyph glyph-name="uni5757" unicode="&#x5757;" d="M430 728 l97 0 l0 74 q0 39 59 43 q59 -4 62 -43 l0 -74 l153 0 q78 -4 86 -78 l0 -242 l35 0 q35 -4 35 -63 q0 -58 -35 -58 l-242 0 q62 -129 257 -270 q36 -31 16 -78 q-35 -47 -90 -20 q-148 90 -265 274 q-110 -172 -301 -270 q-70 -27 -110 20 q-31 55 32 82 q222 125 281 262 l-164 0 q-39 0 -43 58 q4 59 43 63 l184 0 q0 11 0 27 q7 129 7 172 l-97 0 q-47 0 -47 59 q0 58 47 62 ZM301 501 l-35 0 l0 -269 q23 12 50 27 q43 8 67 -35 q19 -43 -16 -66 q-55 -35 -211 -98 q-90 -39 -105 8 q-35 51 23 82 q35 16 78 35 l0 316 l-58 0 q-59 0 -59 59 q8 55 70 59 l47 0 l0 168 q0 43 55 46 q55 -3 59 -46 l0 -168 l39 0 q54 -4 54 -63 q-4 -55 -58 -55 ZM766 595 q-4 8 -12 12 l-106 0 q0 -55 -3 -129 q0 -43 0 -70 l121 0 l0 187 Z" /><glyph glyph-name="uni575B" unicode="&#x575b;" d="M98 626 l54 0 l0 161 q0 43 55 46 q55 -3 59 -46 l0 -161 l50 0 q43 -3 47 -58 q-4 -59 -47 -59 l-50 0 l0 -254 q23 12 46 24 q43 12 71 -28 q15 -43 -20 -70 q-140 -94 -250 -129 q-51 -19 -74 24 q-23 50 20 78 q19 12 66 35 q20 8 27 12 l0 308 l-58 0 q-51 0 -51 59 q4 55 55 58 ZM859 681 l-429 0 q-55 0 -59 59 q4 54 59 58 l429 0 q51 -4 59 -58 q-8 -59 -59 -59 ZM379 404 q-51 0 -51 58 q4 55 55 59 l512 0 q54 -4 58 -59 q-4 -58 -58 -58 l-286 0 q47 -24 20 -74 q-67 -125 -133 -247 q-8 -15 -8 -19 q4 -4 20 0 q82 0 164 4 q78 4 117 12 q-70 128 -94 175 q-23 47 20 75 q47 23 82 -16 q86 -148 168 -313 q15 -50 -31 -74 q-63 -23 -82 20 q-8 11 -12 19 q-4 8 -4 8 q-94 -8 -223 -16 q-125 -3 -203 -3 q-94 3 -74 74 q19 58 172 320 q12 20 19 35 q4 12 20 20 l-168 0 Z" /><glyph glyph-name="uni5783" unicode="&#x5783;" d="M582 705 q-8 11 -23 35 q-8 11 -8 19 q-24 32 23 63 q43 23 86 -24 q55 -70 31 -93 l207 0 q47 -4 51 -59 q-4 -55 -51 -55 l-535 0 q-47 0 -51 55 q4 55 51 59 l219 0 ZM145 599 l0 168 q0 43 58 47 q55 -4 59 -47 l0 -168 l43 0 q43 -8 47 -58 q-4 -51 -47 -51 l-39 0 l0 -285 q19 15 39 27 q47 23 74 -24 q23 -42 -20 -74 q-105 -78 -203 -125 q-70 -39 -94 0 q-39 43 12 78 q12 12 43 28 q20 11 31 19 l0 352 l-54 0 q-43 0 -47 55 q4 54 47 58 l51 0 ZM676 56 l86 438 q11 62 62 54 q63 -11 55 -74 l-82 -418 l109 0 q51 -4 55 -51 q-4 -54 -55 -58 l-574 0 q-47 4 -51 58 q4 47 51 51 l344 0 ZM516 103 q-55 -12 -63 43 q-16 66 -66 324 q-12 59 39 71 q58 11 70 -47 q31 -145 66 -313 q12 -74 -46 -78 Z" /><glyph glyph-name="uni578B" unicode="&#x578b;" d="M781 369 q28 -4 31 27 l0 348 q0 54 55 58 q55 0 59 -54 l0 -368 q8 -121 -114 -121 q-85 -8 -132 20 q-35 27 -16 70 q20 31 78 24 q20 -8 39 -4 ZM125 673 q-55 0 -59 55 q4 55 59 59 l414 0 q59 -4 63 -59 q-4 -55 -63 -55 l-31 0 l0 -97 l39 0 q51 -4 58 -59 q-7 -55 -58 -55 l-39 0 l0 -148 q51 -4 58 -47 l0 -43 l278 0 q51 -4 58 -55 q-7 -54 -58 -54 l-278 0 l0 -59 l336 0 q55 -4 59 -51 q-4 -54 -59 -58 l-800 0 q-59 4 -63 58 q4 47 63 51 l343 0 l0 59 l-254 0 q-58 0 -62 54 q4 51 62 55 l254 0 l0 35 q-50 -4 -54 51 l0 152 l-98 0 q-39 -211 -133 -230 q-82 4 -55 78 q8 12 16 27 q51 75 55 125 l-86 0 q-59 0 -63 55 q4 55 63 59 l94 0 l0 97 l-59 0 ZM629 478 l0 242 q0 47 55 51 q50 -4 54 -51 l0 -242 q-4 -55 -54 -59 q-55 4 -55 59 ZM301 576 l90 0 l0 97 l-90 0 l0 -97 Z" /><glyph glyph-name="uni57CE" unicode="&#x57ce;" d="M621 716 l0 59 q0 47 55 51 q54 -8 58 -55 l0 -55 l67 0 q-4 4 -8 12 q-8 20 -12 39 q-15 43 31 59 q51 7 75 -32 q19 -54 27 -78 l8 0 q39 -4 39 -58 q-8 -51 -47 -51 l-176 0 q4 -121 12 -184 q8 -74 20 -125 q35 86 70 223 q12 39 58 31 q43 -15 39 -58 q-27 -184 -125 -344 q24 -78 36 -78 q4 -4 7 15 q4 12 4 75 q0 50 43 54 q43 -8 47 -58 q0 -141 -15 -192 q-28 -74 -90 -50 q-67 23 -117 140 q-90 -78 -161 -117 q-62 -27 -97 16 q-24 43 39 74 q109 58 179 144 q-46 180 -58 434 l-188 0 q-11 -4 -11 -12 l0 -66 l78 0 q94 0 94 -86 q0 -195 -8 -266 q-8 -74 -35 -86 q-28 -19 -110 -15 q-51 4 -54 50 q0 51 50 55 q32 -4 43 4 q8 0 8 35 q4 20 4 188 q-4 19 -31 19 l-39 0 q-4 -293 -149 -457 q-43 -47 -94 -23 q-46 35 -3 78 q66 66 109 191 q-78 -54 -176 -101 q-55 -24 -82 23 q-15 47 39 82 q8 4 24 12 q19 12 31 19 l0 266 l-35 0 q-47 0 -47 55 q0 51 47 54 l35 0 l0 153 q0 43 55 47 q50 -4 54 -47 l0 -153 l43 0 q35 -3 39 -39 l0 51 q-4 78 78 78 l223 0 ZM312 302 q8 39 8 82 l0 180 q-4 -47 -43 -47 l-39 0 l0 -211 q28 16 47 16 q20 0 27 -20 Z" /><glyph glyph-name="uni57FA" unicode="&#x57fa;" d="M90 767 l101 0 l0 20 q0 43 55 46 q55 -3 59 -46 l0 -20 l402 0 l0 20 q0 43 55 46 q54 -3 58 -46 l0 -20 l94 0 q43 -4 47 -59 q-4 -54 -47 -54 l-94 0 l0 -258 l98 0 q39 -4 47 -59 q-4 -54 -43 -54 l-141 0 q51 -51 145 -102 q54 -31 39 -78 q-20 -55 -74 -35 q-36 12 -94 55 q-8 7 -12 15 q-8 -35 -47 -35 l-172 0 l0 -55 l336 0 q43 -4 47 -50 q-4 -55 -47 -59 l-777 0 q-47 4 -51 59 q4 46 51 50 l324 0 l0 55 l-168 0 q-39 0 -51 31 q-19 -11 -31 -19 q-35 -28 -51 -32 q-74 -42 -101 4 q-24 55 19 86 q125 67 176 110 l-152 0 q-43 0 -47 54 q4 55 47 59 l101 0 l0 258 l-101 0 q-51 0 -55 54 q4 55 55 59 ZM305 654 l0 -35 l402 0 l0 35 l-402 0 ZM707 509 l0 35 l-402 0 l0 -35 l402 0 ZM305 435 l0 -39 l402 0 l0 39 l-402 0 ZM512 271 q50 -8 54 -59 l121 0 q-42 32 -74 75 l-215 0 q-39 -43 -78 -75 l129 0 q-4 51 63 59 Z" /><glyph glyph-name="uni5883" unicode="&#x5883;" d="M566 759 q-31 39 8 71 q35 27 74 0 q47 -59 43 -71 l207 0 q39 -4 47 -51 q-4 -46 -43 -46 l-74 0 l-12 -51 l110 0 q35 -4 39 -51 q-4 -51 -39 -51 l-629 0 q-4 -23 -31 -23 l-36 0 l0 -262 q43 27 75 -23 q19 -35 -20 -71 q-94 -58 -152 -86 q-74 -27 -94 4 q-31 51 12 78 q11 4 35 16 q23 16 35 24 l0 316 l-43 0 q-39 0 -43 55 q4 54 47 58 l39 0 l0 180 q0 43 55 47 q51 -4 54 -47 l0 -180 l51 0 q0 12 24 16 l113 0 l-16 47 l-70 0 q-47 0 -47 50 q0 47 47 51 l234 0 ZM520 662 l15 -51 l160 0 l12 51 l-187 0 ZM387 146 q-75 -12 -67 86 l0 168 q-8 90 82 86 l414 0 q82 0 82 -86 l0 -160 q4 -102 -86 -94 l-70 0 l0 -105 q-12 -20 51 -20 q62 -4 55 39 q0 66 50 66 q59 0 59 -70 q8 -148 -168 -140 q-176 -8 -164 109 l0 121 l-74 0 q-24 -215 -278 -230 q-66 -4 -62 46 q-8 59 51 59 q164 12 172 125 l-47 0 ZM445 388 q-19 0 -15 -19 l0 -12 l351 0 l0 12 q0 19 -15 19 l-321 0 ZM781 279 l-351 0 l0 -16 q-4 -19 15 -15 l317 0 q15 -4 19 15 l0 16 Z" /><glyph glyph-name="uni589E" unicode="&#x589e;" d="M449 740 q-8 8 -15 19 q-16 16 -12 32 q23 74 101 27 q32 -43 47 -78 l125 0 q8 8 24 31 q27 51 58 55 q67 0 67 -51 q-4 -24 -16 -39 l20 0 q86 4 82 -86 l0 -223 q-4 -82 -78 -82 l-434 0 q-98 -4 -94 82 l0 94 q-8 -31 -39 -27 l-19 0 l0 -250 q4 4 15 11 q8 4 16 12 q39 20 58 -19 q-7 74 86 70 l379 0 q86 4 86 -82 l0 -223 q0 -82 -82 -82 l-371 0 q-101 0 -98 82 l0 160 q-78 -58 -152 -109 q-62 -43 -105 -43 q-82 23 -28 94 q59 39 86 62 l0 317 l-58 0 q-47 0 -47 58 q4 55 51 59 l50 0 l0 160 q0 43 55 47 q51 -4 55 -47 l0 -160 l23 0 q31 0 39 -28 l0 79 q0 74 82 78 l43 0 ZM566 634 l-113 0 q-27 0 -23 -27 l0 -133 q-4 -23 23 -19 l113 0 l0 179 ZM672 455 l129 0 q23 0 23 27 l0 129 q-4 19 -23 23 l-129 0 l0 -179 ZM766 482 q-28 -31 -59 -16 q-27 20 -8 55 q20 27 39 70 q12 32 47 20 q27 -16 20 -47 q-16 -55 -39 -82 ZM480 212 q-11 -4 -11 -11 l0 -32 l324 0 l0 32 q-4 7 -12 11 l-301 0 ZM469 68 l0 -27 q0 -12 11 -12 l301 0 q12 0 12 12 l0 27 l-324 0 ZM480 490 q-7 19 -31 62 q0 -4 -4 8 q-19 31 8 51 q35 15 59 -12 q15 -31 31 -74 q4 -8 8 -12 q4 -35 -24 -47 q-35 -8 -47 24 Z" /><glyph glyph-name="uni5904" unicode="&#x5904;" d="M55 412 q93 156 125 355 q0 66 62 59 q51 -8 55 -51 l172 0 q105 4 90 -102 q-36 -293 -161 -519 q153 -129 489 -106 q74 -4 78 -50 q0 -63 -78 -63 q-379 -19 -559 129 q-94 -90 -187 -137 q-59 -27 -90 16 q-31 51 23 78 q94 51 172 125 q-59 90 -105 195 q-36 -47 -82 -19 q-36 31 -4 90 ZM625 126 l0 641 q0 51 59 59 q58 -4 62 -55 l0 -113 q137 -125 227 -278 q19 -47 -20 -82 q-47 -31 -82 20 q-16 19 -31 43 q-55 82 -94 121 l0 -359 q-4 -59 -62 -59 q-59 4 -59 62 ZM324 248 q82 195 106 351 q11 67 -24 59 l-129 0 q-27 -106 -62 -203 q47 -129 109 -207 Z" /><glyph glyph-name="uni5907" unicode="&#x5907;" d="M94 611 q0 0 8 4 q89 74 191 195 q74 51 105 -19 l372 0 q128 -16 66 -122 q-82 -93 -195 -168 q125 -39 214 -46 q110 -16 106 -63 q0 -43 -35 -59 q-24 -11 -71 0 q28 -15 24 -50 l0 -262 q8 -90 -102 -86 l-554 0 q-121 -12 -106 90 l0 254 q-4 19 24 39 q-75 -20 -90 27 q-20 63 39 82 q15 4 58 8 q133 20 243 66 q-39 24 -102 86 q-16 20 -19 28 q-36 -35 -86 -74 q-16 -12 -20 -16 q-51 -35 -90 4 q-27 39 20 82 ZM516 560 q78 43 148 113 q4 4 -4 8 l-285 0 q51 -66 141 -121 ZM316 361 l411 0 q-118 19 -219 66 q-102 -54 -192 -66 ZM445 248 l-191 0 q-12 0 -12 -12 l0 -47 l203 0 l0 59 ZM754 236 q0 12 -12 12 l-183 0 l0 -59 l195 0 l0 47 ZM445 37 l0 58 l-203 0 l0 -47 q0 -11 12 -11 l191 0 ZM559 37 l183 0 q12 0 12 11 l0 47 l-195 0 l0 -58 Z" /><glyph glyph-name="uni590D" unicode="&#x590d;" d="M74 681 q74 47 176 149 q62 43 90 -32 l547 0 q43 -4 47 -54 q-4 -55 -47 -55 l-617 0 l-28 -27 l543 0 q86 0 90 -86 l0 -164 q4 -94 -86 -86 l-383 0 l-27 -32 l426 0 q54 -3 74 -35 q16 -35 -16 -74 q-47 -47 -183 -133 q47 -11 109 -23 q63 -8 121 -8 q47 -4 43 -55 q-8 -50 -55 -50 q-168 7 -378 74 q-196 -63 -407 -78 q-51 0 -58 50 q-4 55 47 59 q168 4 265 31 q-66 31 -140 98 q-43 -31 -90 -51 q-55 -23 -78 27 q-12 47 39 79 q109 54 164 121 l-16 0 q-82 -8 -78 93 l0 192 q-23 -28 -47 -31 q-101 19 -47 101 ZM281 533 l481 0 l0 31 l-481 0 l0 -31 ZM762 451 l-481 0 l0 -32 l481 0 l0 32 ZM516 103 q93 27 168 86 l-325 0 q63 -51 157 -86 Z" /><glyph glyph-name="uni5916" unicode="&#x5916;" d="M633 -42 l0 825 q0 43 54 47 q55 0 59 -43 l0 -180 q24 4 43 -20 q66 -101 160 -242 q35 -58 -15 -90 q-51 -31 -82 24 q-71 109 -102 152 l0 -473 q-4 -46 -59 -50 q-58 4 -58 50 ZM39 353 q109 207 148 418 q12 62 75 55 q58 -12 47 -71 l160 0 q93 0 90 -93 q-12 -508 -368 -715 q-82 -47 -113 0 q-39 54 39 94 q117 62 211 199 q-58 70 -141 136 q-19 -39 -39 -74 q-43 -51 -82 -27 q-54 23 -27 78 ZM383 357 q51 129 51 242 q0 47 -36 43 l-117 0 q-11 -59 -47 -156 q59 -51 149 -129 Z" /><glyph glyph-name="uni591A" unicode="&#x591a;" d="M98 634 q144 71 226 160 q4 4 8 8 q27 35 59 35 q35 -4 54 -35 l379 0 q82 -8 31 -109 q-62 -121 -214 -219 l222 0 q86 0 82 -78 q-19 -219 -164 -340 q-176 -148 -613 -140 q-66 3 -70 58 q4 47 74 51 q156 -4 230 4 q78 8 172 43 q-113 90 -191 136 q-94 -62 -207 -89 q-51 -16 -71 27 q-11 55 36 74 q152 47 277 145 q-109 -47 -289 -59 q-59 -4 -67 43 q0 51 55 63 q160 11 285 62 q-82 55 -152 106 q-8 -4 -16 -12 q-66 -39 -93 -43 q-55 -16 -79 27 q-15 51 36 82 ZM520 525 q97 51 175 133 q16 15 12 23 q0 12 -23 12 l-293 0 l-47 -43 q15 -16 51 -39 q89 -63 125 -86 ZM687 126 q98 71 129 196 q12 35 -19 35 l-242 0 l-82 -74 q93 -63 214 -157 Z" /><glyph glyph-name="uni591C" unicode="&#x591c;" d="M457 744 q-4 4 -8 11 q-8 4 -8 12 q-23 47 24 70 q51 24 86 -27 q23 -31 43 -62 l308 0 q43 -4 47 -59 q-4 -55 -47 -55 l-800 0 q-47 0 -47 55 q0 51 47 55 l355 0 ZM293 326 q86 121 148 254 q20 43 67 39 q27 -8 43 -32 l273 0 q82 4 63 -113 q-32 -207 -157 -379 q63 -47 176 -70 q47 -8 39 -63 q-15 -50 -66 -43 q-129 32 -254 102 q-148 -78 -246 -105 q-55 -16 -78 31 q-16 54 39 70 q129 27 187 70 q-82 82 -132 188 q-12 -12 -20 -20 q-39 -58 -82 -15 q-39 23 0 86 ZM66 337 q114 125 161 231 q27 43 78 27 q39 -23 19 -74 q-31 -66 -74 -129 l0 -441 q-4 -47 -55 -51 q-50 0 -50 47 l0 308 q-63 -50 -90 -11 q-35 35 11 93 ZM625 150 q121 144 145 289 q3 43 -24 43 l-223 0 l-54 -98 q62 -156 156 -234 ZM625 287 q-35 15 -94 62 q-35 31 -8 74 q32 39 75 20 q0 0 43 -31 q43 -32 46 -28 q36 -35 8 -82 q-31 -43 -70 -15 Z" /><glyph glyph-name="uni591F" unicode="&#x591f;" d="M55 529 q35 105 66 258 q4 46 55 46 q47 -11 47 -46 l148 0 q94 0 94 -82 l0 -90 q58 90 90 172 q47 66 109 11 l172 0 q90 0 78 -82 q-35 -187 -168 -297 l98 0 q117 0 105 -74 q-12 -250 -144 -340 q-102 -74 -278 -82 q-50 0 -54 47 q4 51 54 55 q118 12 196 55 l-129 89 q-39 -46 -67 -54 q-47 -20 -66 23 q0 -199 -172 -187 q-19 4 -47 7 q-31 4 -66 8 q-55 16 -43 59 q23 43 78 35 q43 -12 86 -8 q62 -4 62 121 q0 86 4 172 l0 317 q-4 7 -11 11 l-141 0 l-20 -90 l55 0 q86 4 82 -97 l0 -289 q4 -94 -78 -86 l-66 0 q-79 -4 -79 78 l0 254 q-78 -20 -50 86 ZM738 580 q16 23 32 50 q27 55 0 59 l-133 0 l-20 -39 l121 -70 ZM469 408 q8 8 54 23 q12 4 24 8 q62 16 129 62 l-102 59 q-70 -78 -105 -35 l0 -117 ZM195 212 l43 0 l0 270 l-43 0 l0 -270 ZM461 189 q74 66 121 148 q-31 -11 -62 -15 q-36 -8 -55 19 q0 -82 -4 -109 q0 -31 0 -43 ZM789 162 q27 39 39 101 q8 43 -19 43 l-110 0 q-15 0 -31 -31 q-8 -16 -12 -20 l133 -93 Z" /><glyph glyph-name="uni5927" unicode="&#x5927;" d="M445 611 q0 19 0 82 q0 70 4 98 q4 42 59 46 q54 -4 58 -46 q0 -32 -4 -59 q0 -27 0 -51 q0 -47 0 -70 l340 0 q43 -4 47 -59 q-4 -58 -47 -58 l-308 0 q82 -262 332 -453 q62 -43 23 -102 q-43 -43 -105 4 q-227 172 -328 457 q-114 -309 -356 -465 q-51 -31 -94 8 q-35 47 12 78 q281 191 348 473 l-317 0 q-47 0 -47 58 q4 55 51 59 l332 0 Z" /><glyph glyph-name="uni5929" unicode="&#x5929;" d="M164 658 q-59 0 -62 62 q3 63 62 67 l676 0 q51 -4 58 -67 q-7 -62 -58 -62 l-281 0 l0 -145 l320 0 q51 -4 55 -62 q-4 -63 -55 -63 l-301 0 q129 -238 320 -324 q94 -43 59 -102 q-23 -54 -113 -19 q-223 105 -336 308 q-94 -168 -313 -300 q-90 -55 -121 -4 q-43 66 20 90 q258 140 328 351 l-281 0 q-59 0 -63 59 q0 62 59 66 l300 0 l0 145 l-273 0 Z" /><glyph glyph-name="uni592A" unicode="&#x592a;" d="M90 681 l344 0 l0 117 q0 43 62 47 q63 -4 66 -47 l0 -117 l356 0 q43 -4 47 -66 q-4 -63 -47 -63 l-340 0 q164 -340 348 -496 q70 -58 19 -117 q-47 -31 -109 19 q-188 165 -320 434 q-98 -262 -348 -453 q-78 -51 -113 -4 q-47 63 23 98 q277 203 348 519 l-336 0 q-47 0 -51 63 q4 62 51 66 ZM551 -61 q-43 59 -114 148 q-35 47 12 82 q39 32 82 -11 q71 -75 121 -149 q32 -58 -19 -90 q-51 -23 -82 20 Z" /><glyph glyph-name="uni5931" unicode="&#x5931;" d="M293 689 l152 0 l0 90 q0 47 55 54 q59 -3 62 -50 l0 -94 l286 0 q50 -4 58 -59 q-4 -58 -54 -58 l-290 0 l0 -129 l344 0 q51 -4 59 -59 q-4 -54 -55 -54 l-320 0 q66 -157 301 -282 q27 -11 39 -15 q70 -51 0 -102 q-55 -12 -153 51 q-191 117 -257 238 q-79 -183 -340 -289 q-75 -27 -110 16 q-23 54 43 82 q278 105 321 301 l-340 0 q-59 0 -59 58 q8 51 67 55 l343 0 l0 129 l-211 0 q-11 -16 -19 -28 q-24 -39 -39 -50 q-47 -39 -90 -12 q-35 31 -4 82 q82 117 121 234 q20 35 78 24 q43 -20 35 -63 q-15 -39 -23 -70 Z" /><glyph glyph-name="uni5934" unicode="&#x5934;" d="M523 345 q63 223 67 434 q4 54 58 54 q67 -3 63 -54 q-12 -211 -63 -434 l274 0 q43 -4 47 -58 q-4 -59 -47 -59 l-317 0 q-109 -207 -445 -297 q-98 -27 -105 20 q-24 70 54 82 q270 50 360 195 l-379 0 q-51 0 -55 55 q0 58 51 62 l437 0 ZM457 576 q-98 78 -223 152 q-74 39 -39 86 q24 47 86 16 q137 -75 242 -161 q47 -35 16 -82 q-35 -54 -82 -11 ZM320 396 q-97 78 -215 137 q-58 27 -31 78 q20 51 74 31 q79 -31 247 -144 q46 -36 23 -86 q-35 -59 -98 -16 ZM668 162 q152 -63 273 -141 q47 -27 32 -78 q-32 -51 -78 -27 q-20 11 -36 19 q-140 86 -250 121 q-58 24 -35 78 q31 47 94 28 Z" /><glyph glyph-name="uni5939" unicode="&#x5939;" d="M125 740 l328 0 l0 39 q0 47 55 51 q54 -4 58 -51 l0 -39 l321 0 q47 -4 50 -59 q-3 -58 -50 -58 l-325 0 q-3 -43 -3 -79 q-4 -117 -8 -175 l136 0 q-19 23 12 70 q8 12 16 31 q39 63 58 106 q28 43 75 19 q43 -27 23 -78 q-47 -113 -86 -148 l121 0 q51 -4 55 -59 q-4 -59 -55 -59 l-277 0 q74 -132 297 -222 q47 -16 23 -74 q-23 -47 -74 -28 q-258 98 -363 309 q-125 -219 -360 -297 q-62 -16 -90 23 q-27 59 24 75 q226 66 305 214 l-289 0 q-55 0 -59 59 q4 55 59 59 l175 0 q-35 4 -39 27 q-43 74 -82 129 q-31 39 8 74 q43 27 78 -12 q51 -58 90 -132 q20 -67 -20 -86 l125 0 q12 129 12 254 l-324 0 q-51 0 -55 58 q4 55 55 59 Z" /><glyph glyph-name="uni593A" unicode="&#x593a;" d="M105 740 l313 0 q12 23 19 51 q16 50 71 46 q47 -15 47 -62 l-8 -35 l348 0 q46 -4 54 -55 q0 -59 -47 -59 l-257 0 q85 -93 289 -140 q43 -20 27 -70 q-24 -40 -70 -28 q-63 8 -129 39 q8 -8 8 -15 l0 -39 l105 0 q43 -4 47 -55 q0 -55 -43 -55 l-106 0 l0 -246 q0 -105 -132 -105 q-86 0 -145 31 q-43 19 -31 66 q19 35 66 28 q12 -4 39 -8 q28 -8 43 -8 q47 0 43 20 l0 222 l-371 0 q70 -101 117 -199 q16 -43 -27 -66 q-47 -24 -70 15 q-16 20 -43 67 q-39 66 -63 109 q-23 47 24 74 l-94 0 q-51 0 -59 51 q4 55 55 59 l527 0 l0 39 q0 31 35 46 q-105 67 -187 168 q-168 -214 -387 -250 q-58 -11 -74 32 q-12 47 43 70 q156 39 270 148 l-247 0 q-50 0 -54 55 q4 55 54 59 Z" /><glyph glyph-name="uni5973" unicode="&#x5973;" d="M340 681 q8 20 31 90 q4 20 12 35 q12 43 78 39 q51 -12 43 -54 q-12 -59 -31 -110 l453 0 q47 -4 47 -66 q-4 -55 -51 -55 l-102 0 q-23 -273 -156 -410 q35 -20 70 -39 q114 -51 168 -82 q59 -28 39 -82 q-27 -47 -89 -24 q-118 59 -286 141 q-242 -137 -449 -141 q-70 0 -86 55 q0 55 67 66 q183 8 328 86 q-145 67 -219 102 q-74 31 -23 117 q74 137 113 211 l-215 0 q-51 0 -59 59 q4 58 55 62 l262 0 ZM547 205 q125 117 148 355 l-261 0 q-59 -125 -110 -211 q-23 -35 12 -47 q43 -23 211 -97 Z" /><glyph glyph-name="uni5979" unicode="&#x5979;" d="M605 634 l0 160 q0 39 51 39 q55 0 59 -39 l0 -125 l133 51 q70 16 82 -66 l0 -262 q7 -207 -145 -187 q-55 0 -62 43 q-4 54 43 62 q35 -4 43 8 q11 12 11 90 l0 148 q-4 31 -27 27 l-78 -27 l0 -367 q-4 -51 -55 -59 q-55 0 -55 51 l0 340 l-66 -23 l0 -395 q-4 -62 63 -59 l168 0 q93 -11 85 98 q4 51 55 59 q51 -4 55 -55 q15 -203 -180 -195 l-199 0 q-164 -4 -156 129 l0 382 l-43 -11 q-12 -164 -59 -282 q74 -78 82 -89 q24 -51 -4 -75 q-35 -31 -70 0 q-12 12 -20 16 q-23 23 -46 47 q-122 -149 -176 -145 q-90 24 -35 94 q3 4 11 4 q51 31 114 129 q-20 16 -67 62 q-23 24 -31 36 q-24 19 -12 82 q4 31 16 66 q23 105 31 164 l-35 0 q-47 0 -47 55 q0 54 47 58 l47 0 q0 16 4 55 q0 35 4 55 q4 43 54 43 q47 -4 51 -47 q-4 -59 -8 -106 l94 0 q63 0 63 -74 l0 -39 l35 12 l0 140 q0 39 50 47 q55 0 59 -39 l0 -113 l66 27 ZM289 544 q-8 12 -16 16 l-46 0 q-16 -121 -43 -230 q-8 -16 7 -28 q24 -31 51 -54 q20 58 31 128 q12 71 16 168 Z" /><glyph glyph-name="uni597D" unicode="&#x597d;" d="M102 685 l62 0 q0 20 4 51 q0 27 4 51 q0 46 55 46 q54 -3 58 -50 q0 -12 -4 -43 q-4 -43 -4 -55 l106 0 q78 4 70 -105 q-8 -207 -90 -418 q51 -36 94 -79 q31 -42 4 -74 q-35 -31 -78 -4 q-8 4 -20 16 q-39 27 -58 39 q-98 -105 -157 -133 q-46 -15 -70 20 q-23 39 8 70 q8 4 31 24 q63 54 102 93 q-16 8 -63 35 q-35 24 -47 36 q-54 15 -23 109 q0 12 12 51 q31 125 54 211 l-50 0 q-51 0 -55 54 q4 51 55 55 ZM508 677 q-47 0 -51 55 q4 51 51 55 l367 0 q82 -20 39 -94 q-19 -24 -90 -102 q-74 -78 -70 -82 q0 -8 16 -35 q15 -23 35 -55 l109 0 q47 -3 55 -54 q-4 -55 -51 -55 l-78 0 q31 -102 4 -246 q-67 -203 -317 -125 q-62 31 -47 82 q24 47 90 23 q114 -43 153 32 q39 109 0 234 l-227 0 q-47 0 -51 51 q0 55 47 58 l184 0 q-12 16 -31 43 q-28 24 -24 47 q0 35 94 129 q4 4 12 12 q7 12 7 19 q-4 8 -19 8 l-207 0 ZM270 224 q66 188 70 340 q-4 8 -12 12 l-62 0 q-32 -157 -55 -239 q-16 -54 -12 -58 q-8 -8 71 -55 Z" /><glyph glyph-name="uni5982" unicode="&#x5982;" d="M98 673 l113 0 q4 8 12 63 q7 35 11 51 q12 50 71 46 q47 -11 47 -62 q-4 -35 -16 -70 q-4 -16 -4 -28 l86 0 q94 0 86 -93 q-20 -211 -106 -411 q8 -11 20 -19 q55 -47 82 -74 q35 -47 0 -75 q-43 -35 -86 8 q-43 32 -82 67 q-74 -78 -164 -137 q-70 -43 -102 0 q-31 55 20 82 q90 55 156 125 q-15 12 -105 82 q-51 39 -51 66 q4 32 31 86 q31 86 67 184 l-86 0 q-47 0 -47 55 q0 50 47 54 ZM625 -53 q-98 -4 -90 78 l0 633 q-4 90 74 90 l235 0 q78 3 74 -79 l0 -644 q4 -86 -74 -78 l-219 0 ZM789 48 q20 -4 20 24 l0 543 q0 23 -24 23 l-117 0 q-23 0 -23 -23 l0 -543 q-4 -28 19 -24 l125 0 ZM305 236 q62 140 86 301 q0 23 -24 27 l-66 0 q-12 -47 -67 -188 q-27 -66 -23 -58 q4 -12 31 -31 q28 -24 63 -51 Z" /><glyph glyph-name="uni5988" unicode="&#x5988;" d="M449 693 q-47 0 -51 55 q4 50 51 54 l367 0 q86 0 75 -90 l-24 -304 l28 0 q58 0 58 -82 q-4 -102 -8 -200 q4 -269 -269 -195 q-55 16 -47 70 q12 40 70 32 q133 -32 133 74 q0 27 4 78 q4 47 8 78 q0 35 -28 35 l-328 0 q-74 -4 -54 63 l27 250 q8 47 62 47 q51 -8 51 -55 l-19 -195 l191 0 l27 265 q0 20 -23 20 l-301 0 ZM430 83 q-59 0 -59 55 q4 55 63 59 l296 0 q55 -4 55 -59 q-4 -55 -58 -55 l-297 0 ZM145 689 q3 98 11 117 q8 35 71 39 q43 -12 50 -43 q0 -58 -15 -113 l70 0 q63 0 63 -59 l0 -58 q-8 -227 -67 -430 q117 -121 55 -156 q-59 -39 -121 55 q-51 -59 -106 -106 q-43 -31 -82 4 q-27 39 8 74 q35 31 78 78 q20 20 31 35 q-58 59 -86 102 q-35 43 -23 102 q16 62 27 132 q12 55 28 121 l-51 0 q-47 0 -47 51 q0 51 47 55 l59 0 ZM242 232 q16 62 28 141 q11 78 23 191 q0 19 -20 19 l-23 0 q-31 -152 -51 -222 q-12 -55 -12 -63 q4 -19 55 -66 Z" /><glyph glyph-name="uni59C6" unicode="&#x59c6;" d="M145 689 q0 12 3 39 q4 63 20 82 q70 47 94 -23 q0 -28 -8 -71 q-4 -11 -4 -27 l62 0 q75 4 71 -66 q0 -51 -8 -98 q-4 -47 -12 -94 q4 43 51 43 l20 250 q7 55 70 59 l351 0 q79 0 75 -86 q-4 -35 -4 -114 q-4 -78 -4 -109 q39 -4 43 -51 q-4 -47 -47 -47 l-8 -199 l20 0 q35 -4 39 -54 q-4 -47 -43 -47 l-20 0 q16 -196 -211 -153 q-54 12 -58 59 q8 43 62 47 q4 -4 20 -4 q35 -4 58 -4 q20 0 20 39 q0 8 4 16 l-344 0 q-62 0 -62 78 q3 70 19 222 q-55 0 -55 43 q-15 -117 -58 -242 q43 -39 66 -62 q39 -78 -35 -94 q-23 0 -47 23 q-19 16 -31 32 q-55 -90 -109 -137 q-47 -27 -83 0 q-31 31 4 70 q8 12 20 16 q39 39 86 117 q-16 8 -39 27 q-71 51 -71 86 q-7 8 24 141 q19 82 43 191 l-35 0 q-43 0 -43 51 q8 47 51 51 l43 0 ZM816 474 l4 184 q-4 19 -27 23 l-231 0 q-31 -4 -31 -23 l-11 -184 l296 0 ZM281 572 q0 11 -15 15 l-32 0 q-35 -156 -50 -222 q-16 -71 -12 -78 q-8 -8 47 -43 q47 109 62 328 ZM500 197 q0 -20 23 -20 l282 0 l11 199 l-304 0 q-4 -19 -8 -58 q-8 -82 -4 -121 ZM652 216 q-4 0 -47 82 q-23 35 12 55 q39 16 70 -12 q40 -58 55 -90 q8 -43 -27 -58 q-43 -12 -63 23 ZM652 517 q-4 4 -19 24 q-16 27 -28 54 q-23 35 16 59 q39 15 74 -12 q35 -51 51 -94 q8 -43 -31 -58 q-43 -12 -63 27 Z" /><glyph glyph-name="uni59CB" unicode="&#x59cb;" d="M164 720 q0 4 8 47 q8 16 8 20 q11 50 66 50 q59 -11 51 -62 q-8 -24 -12 -55 l59 0 q78 4 74 -78 q0 -51 -4 -78 q23 51 125 234 q35 55 90 43 q47 -23 31 -82 q-4 -8 -121 -215 q106 -3 254 16 q-31 70 -59 137 q-19 47 28 70 q50 16 82 -23 q74 -153 121 -278 q12 -54 -35 -78 q-51 -15 -75 31 q-11 16 -23 47 q-172 -35 -332 -39 q-82 -8 -94 39 q-8 -168 -82 -308 q67 -55 86 -90 q20 -70 -55 -74 q-19 4 -58 31 q-20 19 -31 31 q-102 -129 -153 -125 q-62 8 -58 59 q0 23 39 51 q51 46 86 93 q-145 133 -129 157 q-8 11 62 230 q16 51 28 82 l-47 0 q-55 0 -55 59 q8 54 63 58 l62 0 ZM242 236 q67 156 70 367 l-54 0 q-28 -98 -90 -293 q47 -59 74 -74 ZM426 294 q-8 94 82 90 l316 0 q106 12 94 -101 l0 -254 q12 -86 -102 -78 l-304 0 q-94 -4 -86 78 l0 265 ZM789 48 q16 0 20 24 l0 183 q0 24 -16 24 l-234 0 q-24 0 -24 -24 l0 -187 q0 -20 24 -20 l230 0 Z" /><glyph glyph-name="uni59D0" unicode="&#x59d0;" d="M156 681 q0 16 4 43 q4 27 8 47 q4 47 55 51 q50 -4 54 -51 q-4 -51 -7 -90 l101 0 q55 -8 55 -82 q0 -258 -94 -437 q0 -4 4 -8 q70 -63 51 -110 q4 0 11 0 q4 4 8 4 l39 0 l0 653 q-4 78 75 78 l285 0 q86 0 86 -71 l0 -660 l31 0 q43 -4 47 -47 q-4 -46 -47 -50 l-524 0 q-31 0 -46 23 q-12 27 -4 47 q-24 -4 -51 16 q-16 11 -24 23 q-82 -94 -128 -125 q-51 -19 -83 16 q-27 39 12 70 q4 0 12 8 q70 54 109 113 q0 0 -82 86 q-15 16 -31 39 q-27 27 4 113 q8 24 12 36 q31 85 43 152 l-43 0 q-39 0 -43 55 q4 54 43 58 l58 0 ZM555 537 l226 0 l0 117 q-4 15 -23 19 l-184 0 q-19 -4 -19 -19 l0 -117 ZM320 544 q4 20 -23 24 l-47 0 q-31 -141 -66 -235 q-8 -7 7 -23 q4 -4 63 -66 q51 117 66 300 ZM555 294 l226 0 l0 137 l-226 0 l0 -137 ZM555 52 l226 0 l0 137 l-226 0 l0 -137 Z" /><glyph glyph-name="uni5A92" unicode="&#x5a92;" d="M125 689 q0 16 0 39 q4 23 4 70 q51 78 101 4 q0 -19 -3 -62 q0 -39 0 -51 l70 0 q70 0 66 -106 q-8 -234 -66 -417 q4 -8 15 -20 q16 -12 28 -20 q35 -39 8 -82 q-39 -35 -75 -7 q-11 4 -27 19 q-39 -55 -90 -113 q-43 -39 -82 -8 q-31 35 8 78 q0 4 27 31 q28 39 59 82 q-4 0 -12 8 q-58 55 -78 82 q-47 32 -19 114 q31 117 50 253 l-19 0 q-43 0 -47 51 q8 51 51 55 l31 0 ZM395 755 l23 0 l0 43 q0 35 51 39 q47 -4 51 -39 l0 -43 l253 0 l0 36 q0 39 51 42 q51 -3 55 -42 l0 -36 l39 0 q39 -4 43 -50 q-4 -51 -39 -51 l-43 0 l0 -219 q-4 -70 -67 -70 l-117 0 l0 -47 l219 0 q43 -4 47 -51 q-4 -51 -47 -51 l-156 0 q62 -93 176 -179 q43 -36 11 -75 q-39 -39 -86 -4 q-101 86 -164 176 l0 -179 q-4 -39 -54 -43 q-51 4 -51 43 l0 168 q-43 -79 -153 -168 q-46 -36 -85 -8 q-40 43 0 74 q105 90 175 195 l-140 0 q-43 0 -47 51 q8 47 51 51 l199 0 l0 47 l-98 0 q-82 -4 -74 62 l0 227 l-23 0 q-47 0 -51 51 q4 46 51 50 ZM773 599 l0 55 l-250 0 l0 -55 l250 0 ZM215 236 q39 121 51 308 q4 39 -16 39 l-39 0 q-24 -164 -51 -257 q0 -4 -4 -4 q0 -31 20 -47 l39 -39 ZM762 462 q11 -4 11 12 l0 39 l-250 0 l0 -39 q-3 -16 12 -12 l227 0 Z" /><glyph glyph-name="uni5B50" unicode="&#x5b50;" d="M219 685 q-59 0 -63 59 q0 58 59 62 l574 0 q70 -4 94 -43 q19 -51 -28 -90 q-89 -62 -183 -121 q-78 -47 -86 -54 q0 -4 12 -28 q15 -23 19 -27 l305 0 q47 -4 51 -63 q-4 -58 -51 -58 l-254 0 q19 -71 23 -149 q-11 -312 -390 -234 q-78 19 -86 78 q4 55 78 47 q285 -70 269 117 q0 70 -27 137 l-445 0 q-47 0 -51 58 q4 59 51 63 l387 0 q-8 8 -24 31 q-27 28 -23 43 q0 12 187 141 q28 19 47 31 l-445 0 Z" /><glyph glyph-name="uni5B57" unicode="&#x5b57;" d="M453 740 q-4 11 -8 27 q-15 51 32 70 q50 12 74 -35 q11 -39 23 -62 l266 0 q101 4 90 -121 q0 -75 -16 -106 q-23 -43 -74 -39 q-47 12 -39 59 q0 8 4 31 q7 31 11 51 q-4 8 -11 11 l-586 0 q-28 -3 -28 -19 l0 -74 q-4 -51 -54 -55 q-59 0 -59 47 l0 109 q-4 106 98 106 l277 0 ZM258 439 q-47 0 -51 55 q4 54 51 58 l465 0 q39 -4 47 -39 q3 -35 -32 -58 q-8 -8 -19 -12 q-164 -110 -149 -110 q0 -11 12 -23 l316 0 q43 -4 47 -59 q0 -54 -43 -54 l-269 0 q0 -20 4 -51 q8 -43 11 -63 q-11 -214 -320 -152 q-62 16 -70 67 q8 50 66 43 q215 -47 207 66 q-4 31 -19 90 l-407 0 q-43 0 -46 54 q7 55 50 59 l348 0 q-4 4 -8 16 q-8 19 -4 27 q-15 4 94 86 l-281 0 Z" /><glyph glyph-name="uni5B58" unicode="&#x5b58;" d="M102 748 l250 0 q0 7 7 19 q4 12 8 24 q8 39 63 39 q50 0 54 -39 q-7 -28 -11 -43 l445 0 q39 -4 43 -59 q-4 -55 -43 -55 l-496 0 q-63 -101 -133 -195 l0 -473 q-4 -50 -59 -54 q-58 4 -58 54 l0 371 q-8 -4 -16 -11 q-19 -16 -27 -20 q-47 -31 -78 4 q-31 43 8 78 q160 121 234 246 l-191 0 q-47 0 -47 55 q0 55 47 59 ZM641 470 l-184 0 q-43 0 -47 55 q8 51 51 55 l406 0 q51 -4 47 -47 q-8 -35 -66 -75 q-20 -15 -36 -23 q-54 -35 -85 -59 q-43 -19 7 -70 l188 0 q43 -4 47 -55 q-4 -54 -47 -54 l-133 0 q12 -31 12 -86 q-8 -184 -192 -192 q-93 0 -175 32 q-47 19 -36 66 q20 35 71 27 q39 -11 66 -15 q27 -8 59 -4 q97 -4 93 105 q0 24 -15 67 l-281 0 q-51 0 -55 54 q4 51 55 55 l211 0 q-63 70 -12 102 q8 8 27 19 q20 12 31 24 q12 4 8 11 q-4 4 -15 8 Z" /><glyph glyph-name="uni5B66" unicode="&#x5b66;" d="M414 759 q-16 39 23 67 q40 23 71 -8 q39 -55 54 -98 q28 -58 -19 -78 l129 0 q35 63 90 156 q27 35 78 12 q39 -27 19 -70 q-39 -71 -58 -98 l74 0 q74 4 66 -70 q-7 -94 -19 -145 q-20 -39 -70 -35 q-47 12 -36 55 q8 27 16 70 q0 20 -12 20 l-621 0 q-31 -4 -27 -28 l0 -74 q-4 -47 -55 -47 q-51 0 -51 47 l0 125 q0 78 79 82 l74 0 q-8 8 -24 24 q-19 23 -43 54 q-15 98 75 74 q46 -46 85 -93 q16 -32 4 -59 l172 0 q-15 4 -27 31 q-27 35 -47 86 ZM246 380 q-43 0 -47 55 q4 51 47 55 l492 0 q63 -20 24 -74 q-51 -40 -145 -98 q-15 -16 -8 -31 l301 0 q47 -4 51 -55 q-4 -55 -51 -55 l-262 0 q0 -4 0 -11 q12 -36 16 -79 q16 -183 -246 -168 q-47 0 -109 16 q-47 16 -43 70 q15 43 66 36 q63 -12 129 -12 q90 -8 86 82 q0 15 -16 43 q-4 12 -4 23 l-429 0 q-47 0 -47 55 q0 51 47 55 l367 0 q-8 11 -8 23 q0 16 43 55 q12 8 20 15 l-274 0 Z" /><glyph glyph-name="uni5B83" unicode="&#x5b83;" d="M449 744 l-15 35 q-12 43 35 58 q58 12 82 -27 l23 -66 l274 0 q105 0 89 -94 q-11 -94 -39 -164 q-23 -51 -74 -39 q-47 19 -31 70 q4 20 12 51 q7 23 15 39 q8 16 -19 19 l-598 0 q-23 -3 -23 -19 l0 -94 q-4 -51 -59 -55 q-51 8 -51 59 l0 117 q-8 117 86 110 l293 0 ZM215 537 q0 50 55 54 q54 -8 58 -58 l0 -203 q145 50 352 179 q43 24 74 -11 q31 -47 -4 -79 q-199 -128 -422 -218 l0 -86 q-23 -82 156 -74 l141 0 q113 -4 129 11 q27 12 35 78 q8 63 59 67 q50 -4 50 -67 q0 -195 -218 -191 l-219 0 q-258 -4 -246 152 l0 446 Z" /><glyph glyph-name="uni5B88" unicode="&#x5b88;" d="M453 748 l-12 27 q-27 39 20 66 q66 24 98 -31 q15 -39 23 -62 l270 0 q113 7 93 -86 q-4 -16 -8 -47 q-3 -47 -3 -59 q-12 -55 -75 -55 q-58 8 -50 63 q0 8 3 23 q0 16 4 28 q-4 15 -15 15 l-594 0 q-12 0 -12 -15 l0 -51 q-4 -55 -62 -59 q-59 4 -59 59 l0 86 q-12 105 90 98 l289 0 ZM629 470 l0 74 q0 47 58 51 q59 -4 63 -51 l0 -74 l141 0 q54 -4 58 -62 q0 -59 -54 -59 l-145 0 l0 -297 q0 -117 -137 -117 q-74 4 -125 8 q-70 12 -82 55 q-8 54 51 62 q4 0 27 -8 q39 -4 71 -4 q82 -15 74 55 l0 246 l-539 0 q-55 0 -59 59 q8 58 63 62 l535 0 ZM375 99 q-39 27 -137 149 q-27 93 82 74 q67 -55 129 -137 q20 -43 -4 -74 q-31 -31 -70 -12 Z" /><glyph glyph-name="uni5B89" unicode="&#x5b89;" d="M469 740 q-8 11 -16 35 q-16 43 39 58 q51 8 78 -35 q16 -39 24 -58 l265 0 q86 0 82 -94 q-4 -23 -11 -70 q-4 -20 -4 -35 q-16 -55 -67 -55 q-58 8 -50 62 q11 55 11 67 q0 11 -4 11 l-613 0 q-12 -3 -12 -15 l0 -67 q-4 -54 -58 -62 q-59 4 -59 59 l0 97 q-8 110 86 102 l309 0 ZM109 451 l223 0 q43 58 59 86 q11 15 27 35 q35 43 82 27 q47 -27 23 -74 q-11 -16 -27 -39 q-16 -20 -27 -35 l445 0 q43 -4 47 -59 q-4 -55 -47 -55 l-117 0 q-43 -132 -102 -214 q32 -12 67 -24 q101 -31 152 -55 q47 -23 31 -66 q-19 -43 -70 -31 q-16 8 -70 27 q-118 43 -192 59 q-168 -94 -488 -110 q-63 0 -66 51 q3 47 70 47 q226 16 348 59 q-305 78 -297 125 q-12 27 78 132 l-149 0 q-47 0 -50 55 q3 55 50 59 ZM578 158 q47 50 102 179 l-282 0 q-23 -31 -54 -66 q-8 -16 -12 -20 q-8 -15 12 -19 q31 -16 168 -55 q47 -15 66 -19 Z" /><glyph glyph-name="uni5B8B" unicode="&#x5b8b;" d="M453 736 q-4 4 -8 15 q-8 20 -8 40 q4 42 63 42 q51 4 82 -97 l273 0 q94 0 82 -82 q-11 -71 -39 -133 q-27 -39 -74 -20 q-39 20 -23 63 l11 43 q0 12 -11 16 l-582 0 q-20 -4 -20 -24 l0 -47 q-4 -54 -58 -58 q-55 4 -55 58 l0 94 q-4 90 86 90 l281 0 ZM441 544 q0 43 55 47 q55 -4 59 -47 l0 -89 l343 0 q43 -4 47 -59 q-4 -55 -47 -55 l-285 0 q114 -156 274 -246 q54 -31 66 -47 q20 -47 -23 -70 q-32 -12 -71 8 q-195 101 -304 269 l0 -297 q-4 -42 -59 -46 q-55 0 -55 43 l0 289 q-93 -168 -289 -254 q-70 -32 -101 11 q-24 40 39 79 q183 86 289 261 l-270 0 q-50 0 -58 55 q4 55 54 59 l336 0 l0 89 Z" /><glyph glyph-name="uni5B8C" unicode="&#x5b8c;" d="M445 744 q-8 7 -11 15 q-20 35 15 67 q43 39 82 4 q28 -28 39 -51 q16 -24 8 -35 l266 0 q90 -4 93 -82 q4 -59 -15 -129 q-20 -51 -70 -39 q-47 7 -36 62 q4 43 8 51 q4 19 -15 19 l-606 0 q-23 0 -23 -19 l0 -66 q-4 -47 -55 -51 q-55 0 -55 47 l0 105 q-4 102 94 102 l281 0 ZM242 443 q-47 0 -51 58 q4 55 51 59 l516 0 q39 -4 47 -59 q-4 -58 -43 -58 l-520 0 ZM109 275 q-47 0 -50 58 q3 55 50 59 l770 0 q47 -4 51 -59 q0 -54 -47 -54 l-242 0 l0 -196 q-4 -42 46 -39 l75 0 q66 -3 62 43 q4 24 4 47 q0 47 55 51 q54 0 54 -55 q24 -214 -195 -191 l-66 0 q-160 -4 -153 125 l0 215 l-113 0 q-23 -289 -277 -352 q-74 -23 -86 28 q-20 58 47 66 q187 35 203 254 l-188 0 Z" /></font>
</defs>
</svg>
