<?xml version="1.0" standalone="no"?><!DOCTYPE svg PUBLIC "-//W3C//DTD SVG 1.1//EN" "http://www.w3.org/Graphics/SVG/1.1/DTD/svg11.dtd" ><svg xmlns="http://www.w3.org/2000/svg"><metadata></metadata><defs><font id="Roboto Bold:Version 2.00" horiz-adv-x="2101"><font-face font-family="Roboto" font-weight="700" font-stretch="normal" units-per-em="2048" panose-1="2 0 0 0 0 0 0 0 0 0" ascent="2163" descent="-596" x-height="0" bbox="-104 -555 2007 2163" underline-thickness="100" underline-position="-250" unicode-range="U+0021-fffd" /><missing-glyph horiz-adv-x="908" d="M808 0 l-708 0 l0 1456 l708 0 l0 -1456 ZM754 84 l0 1287 l-274 -643 l274 -644 ZM154 1359 l0 -1263 l268 632 l-268 631 ZM194 54 l515 0 l-258 606 l-257 -606 ZM451 796 l258 606 l-515 0 l257 -606 Z" /><glyph glyph-name="exclam" unicode="!" d="M139 1467 q0 21 19 21 l159 0 q21 0 21 -21 l-8 -1059 q0 -20 -21 -20 l-143 0 q-19 0 -19 20 l-8 1059 ZM106 117 q0 138 127 138 q129 0 129 -138 q0 -129 -129 -129 q-127 0 -127 129 Z" /><glyph glyph-name="quotedbl" unicode="&quot;" d="M311 1467 q0 21 19 21 l170 0 q20 0 20 -21 l-18 -381 q0 -18 -21 -18 l-133 0 q-20 0 -20 18 l-17 381 ZM57 1465 q0 23 21 23 l170 0 q18 0 18 -21 l-16 -381 q0 -18 -21 -18 l-125 0 q-20 0 -20 16 l-27 381 Z" /><glyph glyph-name="numbersign" unicode="#" d="M131 1092 q-20 0 -20 21 l0 125 q0 20 20 20 l186 0 q15 53 30 106.5 q15 53.5 26 106.5 q4 17 20 17 l135 0 q27 0 21 -25 l-51 -205 l155 0 q13 53 28 106.5 q15 53.5 28 106.5 q4 17 20 17 l145 0 q11 0 17 -7.5 q6 -7.5 2 -17.5 l-51 -205 l125 0 q20 0 20 -20 l0 -125 q0 -21 -20 -21 l-172 0 q-17 -63 -31 -116.5 q-14 -53.5 -31 -118.5 l144 0 q20 0 20 -19 l0 -129 q0 -18 -20 -18 l-183 0 q-14 -49 -27.5 -97.5 q-13.5 -48.5 -23.5 -99.5 q-4 -14 -20 -14 l-136 0 q-26 0 -20 22 l49 189 l-164 0 l-45 -197 q-4 -14 -18 -14 l-146 0 q-26 0 -20 22 l51 189 l-125 0 q-20 0 -20 18 l0 129 q0 19 20 19 l166 0 q14 63 27.5 116.5 q13.5 53.5 29.5 118.5 l-141 0 ZM614 1092 l-163 0 l-54 -235 l160 0 l57 235 Z" /><glyph glyph-name="percent" unicode="%" d="M164 849 q-115 118 -115 272 q0 166 115 274 q119 109 266 109 q154 0 275 -109 q114 -106 114 -274 q0 -160 -114 -272 q-119 -109 -275 -109 q-147 0 -266 109 ZM1184 1477 q4 11 16 11 l164 0 q12 0 18.5 -10.5 q6.5 -10.5 -2.5 -20.5 l-911 -1442 q-6 -10 -14 -10 l-156 0 q-12 0 -17.5 10 q-5.5 10 1.5 20 l901 1442 ZM956 97 q-125 115 -125 272 q0 82 32 148.5 q32 66.5 93 126.5 q109 108 267 108 q77 0 142 -27.5 q65 -27.5 124 -80.5 q117 -117 117 -275 q0 -159 -117 -272 q-59 -53 -124 -81 q-65 -28 -142 -28 q-158 0 -267 109 ZM573 971 q56 56 56 150 q0 92 -56 151 q-61 58 -143 58 q-76 0 -133 -58 q-59 -59 -59 -151 q0 -94 59 -150 q53 -55 133 -55 q88 0 143 55 ZM1366 218 q55 57 55 151 q0 97 -55 152 l0 -2 q-63 57 -143 57 q-88 0 -142 -55 q-55 -53 -55 -152 q0 -96 55 -151 q56 -56 142 -56 q77 0 143 58 l0 -2 Z" /><glyph glyph-name="ampersand" unicode="&amp;" d="M977 513 q18 59 26.5 135 q8.5 76 8.5 174 q0 20 20 20 l142 0 q20 0 20 -20 q0 -279 -82 -473 l244 -311 q10 -11 4 -22 q-6 -11 -19 -11 l-198 0 q-4 0 -9.5 2 q-5.5 2 -7.5 6 l-127 162 q-170 -187 -440 -187 q-217 0 -356 113 q-140 121 -140 309 q0 86 32 162 q32 76 89 135 q39 51 123 103 l-2 0 q29 22 52.5 36.5 q23.5 14.5 62.5 36.5 l-8 9 q-111 143 -111 297 q0 133 90 225 q96 90 234 90 q139 0 233 -90 q84 -84 84 -217 q0 -58 -21.5 -109 q-21.5 -51 -60.5 -98 q-29 -39 -65.5 -73 q-36.5 -34 -92.5 -71 l275 -333 ZM592 982 q76 43 106 92 q52 51 52 123 q0 133 -125 133 q-133 0 -133 -141 q0 -80 75 -181 l25 -26 ZM530 748 q-24 -14 -50.5 -30.5 q-26.5 -16.5 -45.5 -32.5 q-61 -41 -90 -74 q-74 -80 -74 -201 q0 -106 78 -172 q41 -30 95.5 -47.5 q54.5 -17.5 115.5 -17.5 q103 0 182.5 39 q79.5 39 139.5 110 l-351 426 Z" /><glyph glyph-name="quotesingle" unicode="&#39;" d="M121 1272 q-58 27 -58 103 q0 129 130 129 q129 0 129 -129 q0 -43 -29 -88 q-23 -43 -47.5 -90 q-24.5 -47 -44.5 -88 q-4 -11 -19 -11 l-94 0 q-27 0 -18 27 l51 147 Z" /><glyph glyph-name="parenleft" unicode="(" d="M463 -282 q-14 -12 -29 2 q-41 41 -76.5 83 q-35.5 42 -64.5 83 q-33 49 -62.5 102.5 q-29.5 53.5 -54.5 108.5 q-29 61 -49.5 123.5 q-20.5 62.5 -36.5 126.5 q-24 141 -24 293 q0 159 24 299 q16 67 36.5 129.5 q20.5 62.5 49.5 122.5 q27 55 55.5 105 q28.5 50 61.5 97 l0 -2 q63 97 141 176 q15 15 29 2 l96 -88 q12 -16 0 -30 q-39 -41 -67.5 -80 q-28.5 -39 -51.5 -78 q-53 -84 -96 -174 l0 2 q-78 -215 -78 -481 q0 -258 78 -473 l0 2 q41 -86 96 -177 q45 -73 119 -157 q12 -13 0 -27 l-96 -90 Z" /><glyph glyph-name="parenright" unicode=")" d="M37 -194 q-12 16 0 29 q37 41 65.5 79 q28.5 38 53.5 78 q28 46 51.5 90 q23.5 44 46.5 87 q41 104 62.5 224 q21.5 120 21.5 247 q0 131 -21.5 252.5 q-21.5 121.5 -62.5 226.5 q-18 35 -45 84 q-27 49 -53 90 q-25 41 -53.5 80 q-28.5 39 -65.5 78 q-12 14 0 30 l98 88 q15 13 29 -2 q35 -39 73.5 -85 q38.5 -46 67.5 -81 q37 -47 66.5 -102 q29.5 -55 50.5 -108 q29 -56 50.5 -121.5 q21.5 -65.5 33.5 -130.5 q16 -68 24.5 -145 q8.5 -77 8.5 -154 q0 -74 -8.5 -149 q-8.5 -75 -24.5 -144 q-12 -60 -33.5 -126.5 q-21.5 -66.5 -50.5 -123.5 q-21 -53 -50.5 -108.5 q-29.5 -55.5 -66.5 -102.5 q-29 -41 -64.5 -83 q-35.5 -42 -76.5 -83 q-12 -12 -29 0 l-98 86 Z" /><glyph glyph-name="asterisk" unicode="*" d="M322 1070 l-113 -76 q-19 -12 -31 4 l-67 109 q-11 18 10 28 l127 62 l-127 57 q-10 4 -12.5 12.5 q-2.5 8.5 2.5 16.5 l67 118 q4 9 13.5 11 q9.5 2 17.5 -4 l113 -84 l-15 141 q0 23 21 23 l135 0 q20 0 20 -23 l-12 -143 l113 86 q18 14 28 -9 l60 -118 q4 -9 1 -16 q-3 -7 -9 -11 l-125 -57 l125 -62 q6 -4 9 -12 q3 -8 -1 -16 l-60 -109 q-10 -14 -28 -4 l-113 76 q4 -33 7 -72 q3 -39 5 -74 q0 -20 -20 -20 l-135 0 q-21 0 -21 20 l15 146 Z" /><glyph glyph-name="plus" unicode="+" d="M453 408 q0 -20 -19 -20 l-141 0 q-21 0 -21 20 l0 211 l-194 0 q-19 0 -19 19 l0 135 q0 18 19 18 l194 0 l0 209 q0 21 21 21 l141 0 q19 0 19 -21 l0 -209 l194 0 q19 0 19 -18 l0 -135 q0 -19 -19 -19 l-194 0 l0 -211 Z" /><glyph glyph-name="comma" unicode="," d="M121 11 q-53 29 -53 106 q0 138 131 138 q127 0 127 -138 q0 -32 -39 -90 l2 0 l-101 -184 q-6 -10 -18 -10 l-94 0 q-13 0 -17 9 q-4 9 0 19 l62 150 Z" /><glyph glyph-name="hyphen" unicode="-" d="M57 502 q0 21 21 21 l364 0 q19 0 19 -21 l0 -143 q0 -18 -19 -18 l-364 0 q-21 0 -21 18 l0 143 Z" /><glyph glyph-name="period" unicode="." d="M57 117 q0 138 127 138 q129 0 129 -138 q0 -129 -129 -129 q-127 0 -127 129 Z" /><glyph glyph-name="slash" unicode="/" d="M623 1539 q4 14 18 14 l154 0 q26 0 18 -27 l-629 -1777 q-4 -15 -16 -15 l-154 0 q-26 0 -18 27 l627 1778 Z" /><glyph glyph-name="zero" unicode="0" d="M236 203 q-162 224 -162 543 q0 320 162 543 q159 215 391 215 q233 0 391 -215 q158 -223 158 -543 q0 -319 -158 -543 q-158 -215 -391 -215 q-232 0 -391 215 ZM883 330 q102 168 102 416 q0 248 -102 416 l2 -2 q-105 160 -254 160 q-156 0 -252 -158 q-103 -156 -103 -416 q0 -260 103 -416 q96 -157 252 -157 q149 0 254 159 l-2 -2 Z" /><glyph glyph-name="one" unicode="1" d="M262 1303 l-192 0 q-21 0 -21 21 l0 143 q0 21 21 21 l372 0 q19 0 19 -21 l0 -1442 q0 -20 -19 -20 l-159 0 q-21 0 -21 20 l0 1278 Z" /><glyph glyph-name="two" unicode="2" d="M45 54 l606 641 q43 49 79 97 q36 48 61 91 q22 43 34.5 92.5 q12.5 49.5 12.5 96.5 q0 55 -15.5 100 q-15.5 45 -50.5 76 q-72 72 -190 72 q-105 0 -193 -64 q-35 -35 -62.5 -83 q-27.5 -48 -43.5 -103 q-7 -19 -27 -13 l-141 50 q-19 6 -15 24 q25 82 66 148.5 q41 66.5 100 119.5 q133 105 316 105 q102 0 184 -32 q82 -32 147 -93 q62 -59 93.5 -132 q31.5 -73 31.5 -167 q0 -68 -20.5 -138.5 q-20.5 -70.5 -56.5 -138.5 q-27 -47 -74 -108.5 q-47 -61.5 -105 -118.5 l-362 -387 l606 0 q18 0 18 -20 l0 -144 q0 -20 -18 -20 l-960 0 q-21 0 -21 20 l0 29 Z" /><glyph glyph-name="three" unicode="3" d="M254 72 q-131 78 -217 217 q-8 19 10 29 l135 68 q15 6 25 -9 q59 -100 141 -155 l0 2 q96 -51 221 -51 q168 0 258 96 q88 88 88 231 q0 154 -88 240 q-96 90 -266 90 q-57 0 -98 -8 q-19 -4 -38 -10 q-19 -6 -36 -17 q-18 -8 -29 8 l-18 33 q-6 10 2 23 l389 444 l-557 0 q-20 0 -20 21 l0 143 q0 21 20 21 l871 0 q18 0 18 -21 l0 -31 l-373 -442 q86 -10 156 -47 q70 -37 129 -98 q137 -144 137 -349 q0 -114 -38 -206.5 q-38 -92.5 -109 -165.5 q-162 -140 -389 -140 q-191 0 -324 84 Z" /><glyph glyph-name="four" unicode="4" d="M1155 457 q21 0 21 -20 l0 -135 q0 -21 -21 -21 l-133 0 l0 -256 q0 -20 -21 -20 l-159 0 q-21 0 -21 20 l0 256 l-788 0 q-21 0 -21 21 l0 32 l951 1176 q2 4 7 6 q5 2 9 2 l22 0 q21 0 21 -18 l0 -1043 l133 0 ZM821 1072 q-123 -158 -240.5 -306.5 q-117.5 -148.5 -242.5 -308.5 l483 0 l0 615 Z" /><glyph glyph-name="five" unicode="5" d="M180 377 q17 7 27 -8 q117 -196 362 -196 q76 0 139.5 24.5 q63.5 24.5 108.5 69.5 q41 51 62.5 113.5 q21.5 62.5 21.5 136.5 q0 151 -90 241 q-96 95 -258 95 q-191 0 -322 -113 l-41 0 q-18 0 -18 20 l0 707 q0 21 18 21 l791 0 q18 0 18 -21 l0 -143 q0 -21 -18 -21 l-627 0 l0 -303 q86 37 215 37 q113 0 211.5 -40 q98.5 -40 169.5 -108 q76 -71 117 -166.5 q41 -95.5 41 -205.5 q0 -232 -150 -381 q-151 -148 -389 -148 q-366 0 -532 293 q-8 19 8 29 l135 67 Z" /><glyph glyph-name="six" unicode="6" d="M217 136 q-147 141 -147 356 q0 86 30.5 172 q30.5 86 89.5 174 l453 641 q2 4 7 6.5 q5 2.5 9 2.5 l172 0 q13 0 18 -11.5 q5 -11.5 -3 -21.5 l-326 -463 q39 6 96 6 q105 0 193 -38 q88 -38 164 -111 q137 -144 137 -357 q0 -209 -147 -356 q-74 -72 -166 -110 q-92 -38 -207 -38 q-219 0 -373 148 ZM823 269 q88 92 88 223 q0 144 -80 234 q-90 96 -241 96 q-74 0 -135.5 -25.5 q-61.5 -25.5 -104.5 -70.5 q-39 -45 -60.5 -103.5 q-21.5 -58.5 -21.5 -130.5 q0 -65 21.5 -121.5 q21.5 -56.5 60.5 -101.5 q90 -96 240 -96 q145 0 233 96 Z" /><glyph glyph-name="seven" unicode="7" d="M846 1303 l-772 0 q-21 0 -21 21 l0 143 q0 21 21 21 l1034 0 q20 0 20 -21 l0 -27 l-718 -1423 q-4 -12 -17 -12 l-170 0 q-12 0 -18 9 q-6 9 0 19 l641 1270 Z" /><glyph glyph-name="eight" unicode="8" d="M195 1131 q0 78 32.5 145.5 q32.5 67.5 91.5 120.5 q117 107 297 107 q175 0 297 -105 q125 -106 125 -268 q0 -96 -36.5 -165.5 q-36.5 -69.5 -106.5 -114.5 q133 -54 194.5 -150 q61.5 -96 61.5 -242 q0 -211 -156 -342 q-71 -59 -167.5 -94 q-96.5 -35 -211.5 -35 q-229 0 -387 129 q-159 129 -159 342 q0 285 266 392 q-141 88 -141 280 ZM840 1121 q0 209 -224 209 q-233 0 -233 -209 q0 -197 233 -197 q224 0 224 197 ZM864 255 q88 79 88 204 q0 60 -22.5 113 q-22.5 53 -63.5 92 q-51 41 -114.5 62.5 q-63.5 21.5 -135.5 21.5 q-151 0 -254 -84 q-92 -80 -92 -205 q0 -122 92 -202 q99 -84 254 -84 q152 0 250 84 l-2 -2 Z" /><glyph glyph-name="nine" unicode="9" d="M668 488 q-23 -4 -48.5 -6 q-25.5 -2 -54.5 -2 q-217 0 -364 147 q-140 146 -140 365 q0 211 148 364 q76 72 170 110 q94 38 211 38 q115 0 209 -38 q94 -38 174 -110 q71 -75 109 -163 q38 -88 38 -195 q0 -94 -45 -190 l0 2 q-12 -41 -35.5 -83 q-23.5 -42 -56.5 -89 l-414 -625 q-2 -4 -7 -6 q-5 -2 -9 -2 l-170 0 q-14 0 -19.5 11 q-5.5 11 3.5 22 l301 450 ZM831 758 q89 88 89 234 q0 143 -89 231 q-88 97 -241 97 q-156 0 -240 -97 q-88 -88 -88 -231 q0 -146 80 -234 q100 -96 248 -96 q151 0 241 96 Z" /><glyph glyph-name="colon" unicode=":" d="M72 574 q0 129 131 129 q127 0 127 -129 q0 -129 -127 -129 q-131 0 -131 129 ZM72 117 q0 138 131 138 q127 0 127 -138 q0 -129 -127 -129 q-131 0 -131 129 Z" /><glyph glyph-name="semicolon" unicode=";" d="M86 574 q0 129 129 129 q129 0 129 -129 q0 -129 -129 -129 q-129 0 -129 129 ZM137 11 q-22 16 -36.5 43 q-14.5 27 -14.5 63 q0 138 129 138 q129 0 129 -138 q0 -12 -4 -24 q-4 -12 -10 -27 q-4 -4 -4 -8 q0 -4 0 -6 l-119 -209 q-6 -10 -19 -10 l-96 0 q-12 0 -17 9 q-5 9 -1 19 l63 150 Z" /><glyph glyph-name="less" unicode="&lt;" d="M53 664 q-10 4 -10 19 l0 20 q0 4 3 9 q3 5 7 8 l551 296 q10 7 20.5 0.5 q10.5 -6.5 10.5 -18.5 l0 -145 q0 -4 -3 -9.5 q-3 -5.5 -7 -7.5 l-269 -147 l269 -139 q10 -5 10 -19 l0 -145 q0 -13 -10.5 -19 q-10.5 -6 -20.5 0 l-551 297 Z" /><glyph glyph-name="equal" unicode="=" d="M59 896 q0 20 19 20 l569 0 q19 0 19 -20 l0 -136 q0 -20 -19 -20 l-569 0 q-19 0 -19 20 l0 136 ZM59 650 q0 20 19 20 l569 0 q19 0 19 -20 l0 -135 q0 -21 -19 -21 l-569 0 q-19 0 -19 21 l0 135 Z" /><glyph glyph-name="greater" unicode="&gt;" d="M59 531 q0 14 11 19 l270 139 l-270 147 q-4 2 -7.5 7.5 q-3.5 5.5 -3.5 9.5 l0 145 q0 12 9.5 18.5 q9.5 6.5 19.5 -0.5 l553 -296 q4 -3 7 -8 q3 -5 3 -9 l0 -20 q0 -15 -10 -19 l-553 -297 q-10 -6 -19.5 0 q-9.5 6 -9.5 19 l0 145 Z" /><glyph glyph-name="question" unicode="?" d="M340 822 q0 20 20 20 l68 0 q127 0 201 74 q63 64 63 172 q0 242 -231 242 q-96 0 -154 -43 q-59 -47 -112 -142 q-9 -16 -27 -6 l-123 76 q-20 8 -8 27 q67 121 162 190 q114 72 262 72 q190 0 307 -117 q115 -112 115 -299 q0 -174 -105 -291 q-53 -55 -114.5 -85.5 q-61.5 -30.5 -139.5 -41.5 l0 -268 q0 -20 -20 -20 l-144 0 q-20 0 -20 20 l0 420 ZM299 117 q0 138 129 138 q129 0 129 -138 q0 -129 -129 -129 q-129 0 -129 129 Z" /><glyph glyph-name="at" unicode="@" d="M279 -159 q-222 211 -222 528 q0 316 222 529 q213 213 520 213 q315 0 526 -205 q199 -199 199 -496 q0 -104 -20.5 -182 q-20.5 -78 -59.5 -137 q-92 -113 -221 -113 q-166 0 -226 115 q-39 -53 -96 -79 q-57 -26 -143 -26 q-142 0 -250 109 q-100 102 -100 256 q0 162 100 268 q106 113 250 113 q67 0 112 -12.5 q45 -12.5 76 -44.5 l0 22 q0 18 21 18 l151 0 q21 0 21 -18 l0 -442 q0 -111 84 -111 q125 0 125 264 q0 234 -148 379 q-153 156 -401 156 q-238 0 -398 -170 q-153 -158 -153 -406 q0 -250 153 -409 q156 -164 412 -164 q152 0 281 76 q18 10 28 -9 l68 -116 q10 -19 -8 -29 q-162 -90 -369 -90 q-321 0 -534 213 ZM954 353 q0 100 -49 151 l2 0 q-55 58 -135 58 q-166 0 -166 -209 q0 -191 166 -191 q182 0 182 191 Z" /><glyph glyph-name="A" unicode="A" d="M238 17 q-5 -12 -19 -12 l-151 0 q-13 0 -18 9 q-5 9 -1 19 l606 1475 q4 10 19 10 l20 0 q13 0 19 -10 l612 -1475 q4 -10 -1 -19 q-5 -9 -17 -9 l-170 0 q-15 0 -19 12 l-92 234 l-688 0 l-100 -234 ZM961 429 q-3 0 -3 4 l25 0 l-18 -19 q0 4 -2 7.5 q-2 3.5 -2 7.5 ZM958 433 q-36 90 -70 174 q-34 84 -67 167 q-33 83 -65.5 167 q-32.5 84 -69.5 176 l-280 -684 l552 0 Z" /><glyph glyph-name="B" unicode="B" d="M168 1467 q0 21 20 21 l478 0 q206 0 321 -109 q109 -104 109 -272 q0 -93 -35 -160.5 q-35 -67.5 -94 -110.5 q243 -90 243 -385 q0 -198 -123 -315 q-135 -131 -364 -131 l-535 0 q-20 0 -20 20 l0 1442 ZM680 900 q217 0 217 207 q0 196 -240 196 l-288 0 l0 -403 l311 0 ZM707 189 q161 0 231 72 q74 73 74 190 q0 273 -305 273 l-338 0 l0 -535 l338 0 Z" /><glyph glyph-name="C" unicode="C" d="M285 201 q-213 224 -213 545 q0 330 213 543 q211 215 536 215 q367 0 586 -283 q4 -4 3 -13 q-1 -9 -7 -13 l-121 -97 q-6 -6 -15.5 -5 q-9.5 1 -13.5 9 q-161 218 -432 218 q-241 0 -395 -162 q-154 -164 -154 -412 q0 -250 162 -412 q154 -161 395 -161 q287 0 465 233 q4 6 12.5 7 q8.5 1 14.5 -3 l123 -88 q16 -10 4 -28 q-227 -306 -627 -306 q-313 0 -536 213 Z" /><glyph glyph-name="D" unicode="D" d="M170 1467 q0 21 20 21 l371 0 q357 0 567 -205 q215 -209 215 -537 q0 -332 -215 -536 q-202 -205 -567 -205 l-371 0 q-20 0 -20 20 l0 1442 ZM545 189 q295 0 452 154 q138 147 138 403 q0 260 -138 404 q-157 153 -452 153 l-176 0 l0 -1114 l176 0 Z" /><glyph glyph-name="E" unicode="E" d="M168 1467 q0 21 20 21 l879 0 q20 0 20 -21 l0 -143 q0 -21 -20 -21 l-700 0 l0 -651 l626 0 q21 0 21 -19 l0 -135 q0 -18 -21 -18 l-626 0 l0 -291 l733 0 q20 0 20 -20 l0 -144 q0 -20 -20 -20 l-912 0 q-20 0 -20 20 l0 1442 Z" /><glyph glyph-name="F" unicode="F" d="M168 1467 q0 21 20 21 l871 0 q20 0 20 -21 l0 -143 q0 -21 -20 -21 l-692 0 l0 -651 l626 0 q19 0 19 -19 l0 -143 q0 -18 -19 -18 l-626 0 l0 -447 q0 -20 -19 -20 l-160 0 q-20 0 -20 20 l0 1442 Z" /><glyph glyph-name="G" unicode="G" d="M295 201 q-221 222 -221 545 q0 324 221 543 q211 215 534 215 q400 0 621 -297 q12 -16 -4 -29 l-123 -96 q-18 -14 -29 4 q-172 234 -465 234 q-241 0 -401 -162 q-156 -162 -156 -412 q0 -250 164 -412 q150 -161 393 -161 q220 0 359 106 l-2 0 q49 43 83 90 q34 47 52 103 l-477 0 q-21 0 -21 18 l0 143 q0 19 21 19 l694 0 q8 0 14.5 -6 q6.5 -6 3.5 -15 q-24 -290 -215 -462 q-98 -86 -228 -133.5 q-130 -47.5 -284 -47.5 q-311 0 -534 213 Z" /><glyph glyph-name="H" unicode="H" d="M1085 1467 q0 21 21 21 l160 0 q18 0 18 -21 l0 -1442 q0 -20 -18 -20 l-160 0 q-21 0 -21 20 l0 447 l-716 0 l0 -447 q0 -20 -21 -20 l-160 0 q-18 0 -18 20 l0 1442 q0 21 18 21 l160 0 q21 0 21 -21 l0 -815 l716 0 l0 815 Z" /><glyph glyph-name="I" unicode="I" d="M172 1467 q0 21 18 21 l160 0 q21 0 21 -21 l0 -1442 q0 -20 -21 -20 l-160 0 q-18 0 -18 20 l0 1442 ZM70 160 q0 21 20 21 l363 0 q18 0 18 -21 l0 -135 q0 -20 -18 -20 l-363 0 q-20 0 -20 20 l0 135 ZM70 1467 q0 21 20 21 l363 0 q18 0 18 -21 l0 -137 q0 -21 -18 -21 l-363 0 q-20 0 -20 21 l0 137 Z" /><glyph glyph-name="J" unicode="J" d="M193 52 q-99 57 -156 174 q-6 16 6 29 l125 75 q16 11 27 -8 q88 -149 233 -149 q207 0 207 237 l0 1057 q0 21 20 21 l160 0 q21 0 21 -21 l0 -1063 q0 -100 -31 -177 q-31 -77 -86 -130 q-53 -49 -127 -79 q-74 -30 -164 -30 q-70 0 -127 16.5 q-57 16.5 -108 47.5 Z" /><glyph glyph-name="K" unicode="K" d="M965 1479 q4 9 14 9 l182 0 q15 0 19 -11.5 q4 -11.5 -2 -21.5 l-658 -858 l676 -555 q12 -11 8 -24 q-4 -13 -18 -13 l-238 0 l-319 260 l-213 178 l2 0 l-49 39 l0 -457 q0 -20 -21 -20 l-160 0 q-20 0 -20 20 l0 1442 q0 21 20 21 l160 0 q21 0 21 -21 l0 -762 l596 774 Z" /><glyph glyph-name="L" unicode="L" d="M168 1467 q0 21 20 21 l158 0 q21 0 21 -21 l0 -1278 l641 0 q20 0 20 -20 l0 -144 q0 -20 -20 -20 l-820 0 q-20 0 -20 20 l0 1442 Z" /><glyph glyph-name="M" unicode="M" d="M305 1502 q4 16 21 16 l22 0 q12 0 19 -10 l516 -930 l522 930 q4 10 18 10 l23 0 q16 0 20 -16 l158 -1475 q2 -10 -4 -16 q-6 -6 -16 -6 l-152 0 q-20 0 -20 18 l-105 1000 q-106 -189 -210.5 -378.5 q-104.5 -189.5 -211.5 -375.5 q-6 -10 -18 -10 l-21 0 q-14 0 -18 10 l-412 754 q-24 -256 -52 -500 q-28 -244 -52 -500 q0 -18 -21 -18 l-151 0 q-10 0 -16.5 6 q-6.5 6 -4.5 16 l166 1475 Z" /><glyph glyph-name="N" unicode="N" d="M360 1070 l0 -1045 q0 -20 -18 -20 l-152 0 q-20 0 -20 20 l0 1475 q0 18 20 18 l31 0 q4 0 9.5 -2 q5.5 -2 7.5 -6 l907 -1089 l0 1046 q0 21 18 21 l150 0 q20 0 20 -21 l0 -1475 q0 -18 -20 -18 l-29 0 q-10 0 -16 6 l-908 1090 Z" /><glyph glyph-name="O" unicode="O" d="M295 201 q-221 222 -221 545 q0 324 221 543 q221 215 534 215 q324 0 537 -215 q223 -217 223 -543 q0 -323 -223 -545 q-213 -213 -537 -213 q-311 0 -534 213 ZM1235 334 q156 166 156 412 q0 250 -156 412 q-162 162 -406 162 q-118 0 -217.5 -40 q-99.5 -40 -175.5 -122 q-164 -162 -164 -412 q0 -250 164 -412 q76 -81 175.5 -121 q99.5 -40 217.5 -40 q244 0 406 161 Z" /><glyph glyph-name="P" unicode="P" d="M367 25 q0 -20 -19 -20 l-160 0 q-20 0 -20 20 l0 1442 q0 21 20 21 l320 0 q293 0 455 -164 q157 -150 157 -400 q0 -247 -157 -403 q-164 -158 -455 -158 l-141 0 l0 -338 ZM502 539 q217 0 321 113 q99 98 99 272 q0 178 -99 275 q-104 104 -321 104 l-135 0 l0 -764 l135 0 Z" /><glyph glyph-name="Q" unicode="Q" d="M1612 -10 q12 -14 -2 -28 l-115 -97 q-12 -10 -25 3 l-217 243 q-94 -63 -197.5 -93 q-103.5 -30 -226.5 -30 q-311 0 -534 213 q-221 222 -221 545 q0 324 221 543 q221 215 534 215 q324 0 537 -215 q223 -217 223 -543 q0 -313 -192 -514 l215 -242 ZM967 414 q-6 4 -5 13.5 q1 9.5 7 15.5 l112 96 q15 11 27 -2 l158 -172 q57 76 91 173.5 q34 97.5 34 207.5 q0 250 -156 412 q-162 162 -406 162 q-118 0 -217.5 -40 q-99.5 -40 -175.5 -122 q-164 -162 -164 -412 q0 -250 164 -412 q76 -81 175.5 -121 q99.5 -40 217.5 -40 q170 0 291 73 l-153 168 Z" /><glyph glyph-name="R" unicode="R" d="M1110 38 q10 -11 4 -22 q-6 -11 -20 -11 l-189 0 q-4 0 -9 2 q-5 2 -7 6 l-277 356 q-43 -6 -102 -6 l-143 0 l0 -338 q0 -20 -19 -20 l-160 0 q-20 0 -20 20 l0 1442 q0 21 20 21 l322 0 q301 0 463 -164 q155 -150 155 -400 q0 -377 -317 -510 l299 -376 ZM502 539 q225 0 329 105 q99 98 99 280 q0 178 -99 275 q-114 104 -329 104 l-135 0 l0 -764 l135 0 Z" /><glyph glyph-name="S" unicode="S" d="M199 394 q20 8 26 -8 q113 -213 344 -213 q281 0 281 213 q0 98 -53 147 q-33 35 -84 71 q-51 36 -115 66 l-115 50 q-88 43 -149.5 81.5 q-61.5 38.5 -95.5 77.5 q-99 107 -99 260 q0 160 115 267 q111 98 283 98 q280 0 415 -227 q11 -15 -6 -27 l-115 -86 q-6 -6 -15 -4 q-9 2 -13 10 q-94 160 -266 160 q-207 0 -207 -191 q0 -84 55 -133 q25 -20 70 -48 q45 -28 112 -62 l-2 0 l113 -50 q192 -94 274 -186 l-2 0 q99 -108 99 -264 q0 -199 -136 -303 q-133 -105 -344 -105 q-350 0 -522 312 q-4 8 -1 16 q3 8 11 12 l142 66 Z" /><glyph glyph-name="T" unicode="T" d="M477 1303 l-422 0 q-18 0 -18 21 l0 143 q0 21 18 21 l1045 0 q20 0 20 -21 l0 -143 q0 -21 -20 -21 l-422 0 l0 -1278 q0 -20 -21 -20 l-159 0 q-21 0 -21 20 l0 1278 Z" /><glyph glyph-name="U" unicode="U" d="M309 121 q-155 144 -155 396 l0 950 q0 21 18 21 l160 0 q20 0 20 -21 l0 -942 q0 -352 328 -352 q340 0 340 352 l0 942 q0 21 18 21 l160 0 q21 0 21 -21 l0 -950 q0 -123 -41 -223.5 q-41 -100.5 -117 -172.5 q-70 -65 -164 -99 q-94 -34 -217 -34 q-227 0 -371 133 Z" /><glyph glyph-name="V" unicode="V" d="M49 1459 q-4 10 1 19.5 q5 9.5 18 9.5 l170 0 q4 0 9 -4.5 q5 -4.5 7 -8.5 l432 -1081 l432 1081 q4 13 19 13 l170 0 q12 0 17 -9.5 q5 -9.5 1 -19.5 l-612 -1475 q-4 -10 -19 -10 l-20 0 q-15 0 -19 10 l-606 1475 Z" /><glyph glyph-name="W" unicode="W" d="M641 1459 q-4 10 1 19.5 q5 9.5 17 9.5 l162 0 q4 0 9.5 -4.5 q5.5 -4.5 7.5 -8.5 l147 -348 l137 348 q4 13 19 13 l153 0 q13 0 18 -9.5 q5 -9.5 1 -19.5 l-238 -565 q29 -70 55.5 -132.5 q26.5 -62.5 52 -123 q25.5 -60.5 52.5 -122 q27 -61.5 57 -130.5 q105 274 209.5 544.5 q104.5 270.5 208.5 544.5 q4 13 19 13 l161 0 q13 0 18 -9.5 q5 -9.5 1 -19.5 l-580 -1475 q-4 -10 -18 -10 l-31 0 q-14 0 -18 10 l-277 674 l-287 -674 q-4 -10 -18 -10 l-21 0 q-14 0 -18 10 l-588 1475 q-4 10 1 19.5 q5 9.5 18 9.5 l161 0 q13 0 17 -13 l432 -1087 q53 127 103.5 247.5 q50.5 120.5 101.5 249.5 l-246 574 Z" /><glyph glyph-name="X" unicode="X" d="M150 1457 q-9 10 -2.5 20.5 q6.5 10.5 16.5 10.5 l180 0 q10 0 16 -11 l320 -495 l315 495 q4 11 17 11 l170 0 q12 0 18 -10.5 q6 -10.5 -2 -20.5 l-410 -645 q125 -195 250 -388.5 q125 -193.5 250 -388.5 q8 -10 2 -20 q-6 -10 -18 -10 l-178 0 q-13 0 -17 10 l-405 618 l-402 -618 q-6 -10 -16 -10 l-170 0 q-14 0 -19.5 10 q-5.5 10 3.5 20 l360 560 q41 53 72 110 l65 98 l-415 654 Z" /><glyph glyph-name="Y" unicode="Y" d="M39 1457 q-6 10 0 20.5 q6 10.5 18 10.5 l172 0 q13 0 17 -11 l434 -796 l432 796 q4 11 18 11 l173 0 q12 0 17 -10.5 q5 -10.5 1 -20.5 l-537 -981 l0 -451 q0 -20 -20 -20 l-160 0 q-18 0 -18 20 l0 451 l-547 981 Z" /><glyph glyph-name="Z" unicode="Z" d="M55 52 l807 1251 l-682 0 q-20 0 -20 21 l0 143 q0 21 20 21 l967 0 q20 0 20 -21 l0 -27 l-809 -1251 l789 0 q20 0 20 -20 l0 -144 q0 -20 -20 -20 l-1073 0 q-19 0 -19 20 l0 27 Z" /><glyph glyph-name="bracketleft" unicode="[" d="M147 1533 q0 20 21 20 l373 0 q20 0 20 -20 l0 -136 q0 -20 -20 -20 l-201 0 l0 -1468 l201 0 q20 0 20 -19 l0 -135 q0 -21 -20 -21 l-373 0 q-21 0 -21 21 l0 1778 Z" /><glyph glyph-name="backslash" unicode="\" d="M61 1526 q-4 27 19 27 l151 0 q15 0 19 -14 l637 -1778 q8 -27 -19 -27 l-157 0 q-15 0 -19 15 l-631 1777 Z" /><glyph glyph-name="bracketright" unicode="]" d="M57 -110 q0 19 21 19 l198 0 l0 1468 l-198 0 q-21 0 -21 20 l0 136 q0 20 21 20 l373 0 q18 0 18 -20 l0 -1778 q0 -21 -18 -21 l-373 0 q-21 0 -21 21 l0 135 Z" /><glyph glyph-name="underscore" unicode="_" d="M-16 -110 q0 19 20 19 l559 0 q21 0 21 -19 l0 -135 q0 -21 -21 -21 l-559 0 q-20 0 -20 21 l0 135 Z" /><glyph glyph-name="a" unicode="a" d="M141 103 q-96 107 -96 270 q0 166 94 279 q109 108 267 108 q73 0 122.5 -14 q49.5 -14 83.5 -49 l0 29 q0 18 19 18 l151 0 q19 0 19 -18 l0 -701 q0 -20 -19 -20 l-151 0 q-19 0 -19 20 l0 27 q-34 -29 -87.5 -46.5 q-53.5 -17.5 -118.5 -17.5 q-156 0 -265 115 ZM621 373 q0 213 -191 213 q-197 0 -197 -213 q0 -213 197 -213 q191 0 191 213 Z" /><glyph glyph-name="b" unicode="b" d="M283 25 q0 -20 -19 -20 l-151 0 q-19 0 -19 20 l0 1493 q0 21 19 21 l151 0 q19 0 19 -21 l0 -821 q34 35 87.5 49 q53.5 14 125.5 14 q159 0 264 -106 q106 -113 106 -281 q0 -77 -29.5 -149 q-29.5 -72 -76.5 -121 q-51 -53 -119 -84 q-68 -31 -145 -31 q-144 0 -213 64 l0 -27 ZM678 373 q0 213 -205 213 q-199 0 -199 -213 q0 -213 199 -213 q205 0 205 213 Z" /><glyph glyph-name="c" unicode="c" d="M152 103 q-107 105 -107 270 q0 168 107 281 q112 106 270 106 q180 0 295 -122 q14 -13 0 -27 l-94 -94 q-15 -15 -27 0 q-70 78 -174 78 q-84 0 -139 -64 q-52 -57 -52 -158 q0 -90 52 -159 q28 -23 64 -38.5 q36 -15.5 75 -15.5 q108 0 186 80 q13 13 27 2 l104 -86 q6 -4 8.5 -13 q2.5 -9 -4.5 -15 q-122 -140 -321 -140 q-156 0 -270 115 Z" /><glyph glyph-name="d" unicode="d" d="M152 103 q-107 107 -107 270 q0 164 107 281 q104 106 254 106 q145 0 221 -69 l0 827 q0 21 20 21 l141 0 q21 0 21 -21 l0 -1493 q0 -20 -21 -20 l-141 0 q-20 0 -20 20 l0 33 q-37 -33 -92.5 -51.5 q-55.5 -18.5 -128.5 -18.5 q-150 0 -254 115 ZM627 373 q0 213 -197 213 q-197 0 -197 -213 q0 -213 197 -213 q197 0 197 213 Z" /><glyph glyph-name="e" unicode="e" d="M242 298 q16 -78 66 -112 q50 -34 141 -34 q114 0 194 90 q14 15 29 2 l94 -88 q6 -4 7 -13 q1 -9 -5 -15 q-123 -140 -319 -140 q-183 0 -297 115 q-107 107 -107 270 q0 168 113 281 q106 106 272 106 q178 0 285 -124 q94 -119 94 -320 q0 -18 -21 -18 l-546 0 ZM608 461 q-12 72 -57 103 q-45 31 -121 31 q-154 0 -182 -134 l360 0 Z" /><glyph glyph-name="f" unicode="f" d="M305 25 q0 -20 -20 -20 l-142 0 q-20 0 -20 20 l0 555 l-70 0 q-20 0 -20 19 l0 127 q0 18 20 18 l70 0 l0 553 q0 258 223 258 q121 0 193 -92 q10 -14 0 -25 l-88 -98 q-5 -6 -15 -5 q-10 1 -16 7 q-33 39 -66 39 q-49 0 -49 -84 l0 -553 l158 0 q20 0 20 -18 l0 -127 q0 -19 -20 -19 l-158 0 l0 -555 Z" /><glyph glyph-name="g" unicode="g" d="M193 -137 q18 9 26 -10 q68 -135 211 -135 q197 0 197 203 l0 137 q-37 -33 -92.5 -51.5 q-55.5 -18.5 -128.5 -18.5 q-74 0 -137.5 31 q-63.5 31 -116.5 84 q-50 51 -78.5 121 q-28.5 70 -28.5 149 q0 164 107 281 q104 106 254 106 q145 0 221 -69 l0 35 q0 18 20 18 l141 0 q21 0 21 -18 l0 -805 q0 -377 -371 -377 q-262 0 -379 235 q-10 19 11 27 l123 57 ZM627 373 q0 213 -197 213 q-197 0 -197 -213 q0 -213 197 -213 q197 0 197 213 Z" /><glyph glyph-name="h" unicode="h" d="M92 1518 q0 21 21 21 l149 0 q21 0 21 -21 l0 -817 q69 59 204 59 q289 0 289 -305 l0 -430 q0 -20 -20 -20 l-148 0 q-20 0 -20 20 l0 414 q0 147 -131 147 q-174 0 -174 -170 l0 -391 q0 -20 -21 -20 l-149 0 q-21 0 -21 20 l0 1493 Z" /><glyph glyph-name="i" unicode="i" d="M63 1055 q0 111 119 111 q111 0 111 -111 q0 -118 -111 -118 q-119 0 -119 118 ZM88 726 q0 18 21 18 l141 0 q20 0 20 -18 l0 -701 q0 -20 -20 -20 l-141 0 q-21 0 -21 20 l0 701 Z" /><glyph glyph-name="j" unicode="j" d="M76 1055 q0 111 117 111 q118 0 118 -111 q0 -118 -118 -118 q-117 0 -117 118 ZM-27 -264 q4 9 11.5 9 q7.5 0 15.5 -4 q31 -23 55 -23 q43 0 43 66 l0 942 q0 18 21 18 l149 0 q21 0 21 -18 l0 -942 q0 -240 -217 -240 q-95 0 -164 70 q-12 12 -2 26 l67 96 Z" /><glyph glyph-name="k" unicode="k" d="M283 25 q0 -20 -21 -20 l-149 0 q-21 0 -21 20 l0 1493 q0 21 21 21 l149 0 q21 0 21 -21 l0 -1044 q59 67 116.5 131.5 q57.5 64.5 116.5 134.5 q0 2 5 3 q5 1 9 1 l175 0 q14 0 19 -11 q5 -11 -5 -22 l-305 -342 l348 -329 q10 -11 5 -23 q-5 -12 -19 -12 l-207 0 l-258 252 l0 -232 Z" /><glyph glyph-name="l" unicode="l" d="M88 1518 q0 21 21 21 l149 0 q21 0 21 -21 l0 -1493 q0 -20 -21 -20 l-149 0 q-21 0 -21 20 l0 1493 Z" /><glyph glyph-name="m" unicode="m" d="M96 726 q0 18 21 18 l149 0 q21 0 21 -18 l0 -9 q57 43 172 43 q137 0 207 -96 q41 51 100 73.5 q59 22.5 137 22.5 q275 0 275 -286 l0 -449 q0 -20 -19 -20 l-143 0 q-19 0 -19 20 l0 430 q0 131 -116 131 q-150 0 -150 -155 l0 -406 q0 -20 -18 -20 l-150 0 q-20 0 -20 20 l0 430 q0 131 -117 131 q-139 0 -139 -163 l0 -398 q0 -20 -21 -20 l-149 0 q-21 0 -21 20 l0 701 Z" /><glyph glyph-name="n" unicode="n" d="M92 726 q0 18 21 18 l149 0 q21 0 21 -18 l0 -21 q71 55 204 55 q289 0 289 -305 l0 -430 q0 -20 -20 -20 l-148 0 q-20 0 -20 20 l0 414 q0 147 -131 147 q-174 0 -174 -170 l0 -391 q0 -20 -21 -20 l-149 0 q-21 0 -21 20 l0 701 Z" /><glyph glyph-name="o" unicode="o" d="M158 103 q-113 107 -113 270 q0 164 113 281 q118 106 272 106 q166 0 281 -106 q114 -113 114 -281 q0 -161 -114 -270 q-58 -53 -128.5 -84 q-70.5 -31 -152.5 -31 q-154 0 -272 115 ZM578 216 q30 35 43.5 72.5 q13.5 37.5 13.5 84.5 q0 101 -55 158 q-56 64 -150 64 q-84 0 -139 -64 q-58 -59 -58 -158 q0 -96 60 -157 l-2 0 q57 -64 139 -64 q92 0 150 64 l-2 0 Z" /><glyph glyph-name="p" unicode="p" d="M94 726 q0 18 19 18 l151 0 q19 0 19 -18 l0 -29 q34 35 87.5 49 q53.5 14 125.5 14 q159 0 264 -106 q106 -113 106 -281 q0 -77 -29.5 -149 q-29.5 -72 -76.5 -121 q-51 -53 -119 -84 q-68 -31 -145 -31 q-144 0 -213 64 l0 -465 q0 -21 -19 -21 l-151 0 q-19 0 -19 21 l0 1139 ZM678 373 q0 213 -205 213 q-199 0 -199 -213 q0 -213 199 -213 q205 0 205 213 Z" /><glyph glyph-name="q" unicode="q" d="M627 58 q-37 -33 -92.5 -51.5 q-55.5 -18.5 -128.5 -18.5 q-74 0 -137.5 31 q-63.5 31 -116.5 84 q-50 51 -78.5 121 q-28.5 70 -28.5 149 q0 164 107 281 q104 106 254 106 q145 0 221 -69 l0 35 q0 18 20 18 l141 0 q21 0 21 -18 l0 -1139 q0 -21 -21 -21 l-141 0 q-20 0 -20 21 l0 471 ZM627 373 q0 213 -197 213 q-197 0 -197 -213 q0 -213 197 -213 q197 0 197 213 Z" /><glyph glyph-name="r" unicode="r" d="M92 726 q0 18 19 18 l149 0 q21 0 21 -18 l0 -21 q55 55 165 55 q68 0 134 -30 q18 -8 10 -27 l-58 -123 q-8 -22 -26 -10 q-33 16 -78 16 q-147 0 -147 -186 l0 -375 q0 -20 -21 -20 l-149 0 q-19 0 -19 20 l0 701 Z" /><glyph glyph-name="s" unicode="s" d="M141 267 q6 6 15.5 4 q9.5 -2 13.5 -10 q61 -109 182 -109 q107 0 107 68 q0 45 -150 84 q-229 61 -229 239 q0 217 248 217 q166 0 264 -122 q12 -17 -2 -29 l-96 -86 q-7 -6 -16 -5 q-9 1 -13 9 q-55 68 -137 68 q-76 0 -76 -52 q0 -36 129 -67 q260 -68 260 -256 q0 -232 -289 -232 q-211 0 -319 177 q-10 14 2 26 l106 76 Z" /><glyph glyph-name="t" unicode="t" d="M53 580 q-20 0 -20 19 l0 127 q0 18 20 18 l70 0 l0 410 q0 20 20 20 l142 0 q20 0 20 -20 l0 -410 l150 0 q20 0 20 -18 l0 -127 q0 -19 -20 -19 l-150 0 l0 -360 q0 -60 41 -60 q33 0 66 27 q18 14 26 -6 l68 -105 q8 -14 -2 -24 q-68 -64 -174 -64 q-207 0 -207 224 l0 368 l-70 0 Z" /><glyph glyph-name="u" unicode="u" d="M84 726 q0 18 20 18 l150 0 q20 0 20 -18 l0 -383 q0 -183 148 -183 q147 0 147 183 l0 383 q0 18 21 18 l149 0 q21 0 21 -18 l0 -392 q0 -169 -96 -266 q-93 -80 -242 -80 q-338 0 -338 346 l0 392 Z" /><glyph glyph-name="v" unicode="v" d="M6 717 q-4 11 0 19 q4 8 17 8 l159 0 q15 0 19 -10 l186 -402 l178 402 q4 10 19 10 l161 0 q27 0 19 -27 l-352 -727 q-6 -10 -19 -10 l-18 0 q-15 0 -19 10 l-350 727 Z" /><glyph glyph-name="w" unicode="w" d="M8 717 q-4 11 1 19 q5 8 18 8 l159 0 q15 0 19 -10 l147 -381 l185 391 l0 39 q0 16 16 19.5 q16 3.5 22 -11.5 l211 -440 l154 383 q4 10 18 10 l152 0 q12 0 16 -8 q4 -8 0 -19 l-299 -727 q-6 -10 -18 -10 l-29 0 q-14 0 -18 10 l-193 433 l-202 -433 q-7 -10 -19 -10 l-22 0 q-13 0 -17 10 l-301 727 Z" /><glyph glyph-name="x" unicode="x" d="M72 713 q-6 11 -2 21 q4 10 18 10 l172 0 q4 0 9 -1 q5 -1 7 -5 l132 -191 q34 48 71 96 q37 48 72 95 q2 4 6 5 q4 1 8 1 l162 0 q14 0 19.5 -10 q5.5 -10 -3.5 -21 l-235 -309 l266 -366 q8 -11 3 -22 q-5 -11 -17 -11 l-170 0 q-4 0 -9.5 2 q-5.5 2 -7.5 6 l-174 240 q-43 -60 -86 -120.5 q-43 -60.5 -86 -119.5 q-2 -4 -7 -6 q-5 -2 -9 -2 l-162 0 q-14 0 -19 11 q-5 11 3 22 l266 362 l-227 313 Z" /><glyph glyph-name="y" unicode="y" d="M4 717 q-8 27 19 27 l159 0 q15 0 19 -10 l184 -422 l180 422 q4 10 19 10 l151 0 q13 0 18 -8 q5 -8 1 -19 l-488 -1138 q-4 -13 -18 -13 l-152 0 q-12 0 -17 9.5 q-5 9.5 -1 19.5 l211 498 l-285 624 Z" /><glyph glyph-name="z" unicode="z" d="M29 52 l352 528 l-285 0 q-20 0 -20 19 l0 127 q0 18 20 18 l553 0 q21 0 21 -18 l0 -29 l-361 -526 l332 0 q21 0 21 -21 l0 -125 q0 -20 -21 -20 l-594 0 q-18 0 -18 20 l0 27 Z" /><glyph glyph-name="braceleft" unicode="{" d="M547 -266 q-127 0 -201 68 l0 -2 q-92 78 -92 258 l0 303 q0 119 -92 119 l-109 0 q-20 0 -20 18 l0 127 q0 19 20 19 l109 0 q92 0 92 119 l0 464 q0 181 92 261 q78 65 201 65 l84 0 q18 0 18 -20 l0 -136 q0 -20 -18 -20 l-76 0 q-111 0 -111 -150 l0 -481 q0 -133 -53 -180 q53 -49 53 -180 l0 -328 q0 -149 111 -149 l76 0 q18 0 18 -19 l0 -135 q0 -21 -18 -21 l-84 0 Z" /><glyph glyph-name="bar" unicode="|" d="M147 1533 q0 20 19 20 l151 0 q21 0 21 -20 l0 -1778 q0 -21 -21 -21 l-151 0 q-19 0 -19 21 l0 1778 Z" /><glyph glyph-name="braceright" unicode="}" d="M59 -110 q0 19 19 19 l84 0 q110 0 110 149 l0 328 q0 133 58 178 q-58 45 -58 182 l0 481 q0 150 -110 150 l-84 0 q-19 0 -19 20 l0 136 q0 20 19 20 l84 0 q133 0 209 -65 q92 -80 92 -261 l0 -464 q0 -119 92 -119 l107 0 q20 0 20 -19 l0 -127 q0 -18 -20 -18 l-107 0 q-92 0 -92 -119 l0 -303 q0 -180 -92 -258 l0 2 q-74 -68 -209 -68 l-84 0 q-19 0 -19 21 l0 135 Z" /><glyph glyph-name="asciitilde" unicode="~" d="M330 521 q-31 14 -39 24 q-15 9 -29 9 q-26 0 -39 -68 q0 -20 -20 -16 l-125 18 q-8 2 -14.5 8 q-6.5 6 -4.5 15 q15 108 65 161.5 q50 53.5 130 53.5 q63 0 133 -35 l27 -17 q10 -4 17 -9 q7 -5 11 -9 q17 -4 31 -4 q25 0 41 59 q0 21 21 17 l124 -21 q23 0 19 -22 q-37 -213 -205 -213 q-24 0 -57 11 q-33 11 -68 32 l-18 6 Z" /><glyph glyph-name="copyright" unicode="©" d="M1117 596 q0 -152 -87.5 -233 q-87.5 -81 -247.5 -81 q-160 0 -254.5 106.5 q-94.5 106.5 -94.5 286.5 l0 113 q0 174 95.5 280.5 q95.5 106.5 253.5 106.5 q163 0 249.5 -82.5 q86.5 -82.5 86.5 -231.5 l-156 0 q0 96 -46 137.5 q-46 41.5 -134 41.5 q-92 0 -142.5 -67.5 q-50.5 -67.5 -51.5 -180.5 l0 -123 q0 -117 51 -184.5 q51 -67.5 143 -67.5 q89 0 134 40.5 q45 40.5 45 138.5 l156 0 ZM1383 729 q0 166 -75 308.5 q-75 142.5 -212 228 q-137 85.5 -300 85.5 q-159 0 -295.5 -82 q-136.5 -82 -214.5 -226 q-78 -144 -78 -314 q0 -170 77.5 -314 q77.5 -144 214 -227.5 q136.5 -83.5 296.5 -83.5 q160 0 297.5 85 q137.5 85 213.5 229 q76 144 76 311 ZM86 729 q0 202 93.5 375 q93.5 173 259 272.5 q165.5 99.5 357.5 99.5 q192 0 357.5 -99.5 q165.5 -99.5 259 -272.5 q93.5 -173 93.5 -375 q0 -204 -95 -377.5 q-95 -173.5 -259.5 -272.5 q-164.5 -99 -355.5 -99 q-193 0 -357.5 100 q-164.5 100 -258.5 273 q-94 173 -94 376 Z" /><glyph glyph-name="emdash" unicode="&#x2014;" d="M1490 596 l-1381 0 l0 236 l1381 0 l0 -236 Z" /><glyph glyph-name="uniFFFD" unicode="&#xfffd;" d="M1048 1618 l959 -975 l-959 -975 l-956 975 l956 975 ZM1131 402 q0 58 15 87 q15 29 51 53 q74 39 120 106.5 q46 67.5 46 141.5 q0 128 -83.5 203.5 q-83.5 75.5 -232.5 75.5 q-144 0 -224 -69.5 q-80 -69.5 -82 -196.5 l203 0 q2 51 31 77 q29 26 72 26 q57 0 85 -32 q28 -32 28 -84 q0 -95 -93 -155 q-91 -65 -114.5 -111 q-23.5 -46 -23.5 -122 l202 0 ZM1131 311 l-202 0 l0 -170 l202 0 l0 170 ZM1056 -551 l4 0 l0 -4 l-4 0 l0 4 ZM1054 2163 l4 0 l0 -4 l-4 0 l0 4 Z" /></font>
</defs>
</svg>
